G04 #@! TF.GenerationSoftware,KiCad,Pcbnew,(5.1.0)-1*
G04 #@! TF.CreationDate,2019-05-08T22:47:31-04:00*
G04 #@! TF.ProjectId,NixieClock,4e697869-6543-46c6-9f63-6b2e6b696361,rev?*
G04 #@! TF.SameCoordinates,Original*
G04 #@! TF.FileFunction,Legend,Top*
G04 #@! TF.FilePolarity,Positive*
%FSLAX46Y46*%
G04 Gerber Fmt 4.6, Leading zero omitted, Abs format (unit mm)*
G04 Created by KiCad (PCBNEW (5.1.0)-1) date 2019-05-08 22:47:31*
%MOMM*%
%LPD*%
G04 APERTURE LIST*
%ADD10C,0.500000*%
%ADD11C,0.150000*%
%ADD12C,0.120000*%
%ADD13C,0.300000*%
%ADD14C,0.400000*%
%ADD15C,0.200000*%
%ADD16C,0.160000*%
G04 APERTURE END LIST*
D10*
X70866000Y-49022000D02*
X160020000Y-49022000D01*
X69342000Y-50546000D02*
G75*
G02X70866000Y-49022000I1524000J0D01*
G01*
X69342000Y-50546000D02*
X69342000Y-88900000D01*
X175768000Y-95250000D02*
X175768000Y-64770000D01*
X160020000Y-49022000D02*
G75*
G02X175768000Y-64770000I0J-15748000D01*
G01*
X85090000Y-104648000D02*
G75*
G02X69342000Y-88900000I0J15748000D01*
G01*
X175768000Y-95250000D02*
G75*
G02X166370000Y-104648000I-9398000J0D01*
G01*
X166370000Y-104648000D02*
X85090000Y-104648000D01*
D11*
X76327000Y-66040000D02*
X76327000Y-67564000D01*
X75565000Y-66802000D02*
X77089000Y-66802000D01*
X79121000Y-66802000D02*
X80645000Y-66802000D01*
X79883000Y-66040000D02*
X79883000Y-67564000D01*
D12*
X79121000Y-61341000D02*
X78105000Y-61341000D01*
X79121000Y-52705000D02*
X79121000Y-61341000D01*
X72009000Y-52705000D02*
X79121000Y-52705000D01*
X72009000Y-57277000D02*
X72009000Y-52705000D01*
D13*
X148844000Y-81788000D02*
X147828000Y-81153000D01*
X147828000Y-82423000D02*
X148844000Y-81788000D01*
D12*
X146558000Y-62103000D02*
G75*
G02X146558000Y-64643000I0J-1270000D01*
G01*
X138938000Y-64643000D02*
G75*
G02X138938000Y-62103000I0J1270000D01*
G01*
D14*
X140208000Y-55753000D02*
X140208000Y-58293000D01*
X145288000Y-55753000D02*
X140208000Y-55753000D01*
X145288000Y-58293000D02*
X145288000Y-55753000D01*
X140208000Y-58293000D02*
X145288000Y-58293000D01*
D12*
X146558000Y-62103000D02*
X138938000Y-62103000D01*
X138938000Y-64643000D02*
X146558000Y-64643000D01*
D13*
X147188000Y-53848000D02*
G75*
G03X147188000Y-53848000I-630000J0D01*
G01*
X144648000Y-53848000D02*
G75*
G03X144648000Y-53848000I-630000J0D01*
G01*
X142108000Y-53848000D02*
G75*
G03X142108000Y-53848000I-630000J0D01*
G01*
X139568000Y-53848000D02*
G75*
G03X139568000Y-53848000I-630000J0D01*
G01*
D14*
X174625000Y-82296000D02*
X174625000Y-80010000D01*
X173355000Y-83566000D02*
X171069000Y-83566000D01*
X173355000Y-83566000D02*
X174625000Y-82296000D01*
X111125000Y-67437000D02*
X111125000Y-69215000D01*
X112903000Y-70993000D02*
X114681000Y-70993000D01*
X111125000Y-69215000D02*
X112903000Y-70993000D01*
D12*
X97242000Y-65365000D02*
X102362000Y-65365000D01*
X97242000Y-67985000D02*
X102362000Y-67985000D01*
X97242000Y-65365000D02*
X97242000Y-67985000D01*
X102362000Y-65365000D02*
X102362000Y-67985000D01*
D11*
X95123000Y-53721000D02*
X95123000Y-51689000D01*
X94107000Y-51689000D02*
X94107000Y-53721000D01*
X95123000Y-52705000D02*
X94107000Y-51689000D01*
X94107000Y-53721000D02*
X95123000Y-52705000D01*
D12*
X91888000Y-72602000D02*
X97088000Y-72602000D01*
X97088000Y-76242000D02*
X91888000Y-76242000D01*
D11*
X87766755Y-52959000D02*
G75*
G03X87766755Y-52959000I-3311755J0D01*
G01*
D12*
X85507967Y-67206269D02*
G75*
G03X85508000Y-62039746I-1179967J2583269D01*
G01*
X83148033Y-67206269D02*
G75*
G02X83148000Y-62039746I1179967J2583269D01*
G01*
X83148033Y-67206269D02*
G75*
G03X85508000Y-67206254I1179967J2583269D01*
G01*
X84328000Y-61173000D02*
X84328000Y-62373000D01*
X84978000Y-61773000D02*
X83678000Y-61773000D01*
X157588628Y-88226222D02*
G75*
G02X157588310Y-86626800I-1454828J799422D01*
G01*
X137294028Y-88226222D02*
G75*
G02X137293710Y-86626800I-1454828J799422D01*
G01*
X80772000Y-60873000D02*
X80772000Y-58253000D01*
X85892000Y-60873000D02*
X85892000Y-58253000D01*
X85892000Y-58253000D02*
X80772000Y-58253000D01*
X85892000Y-60873000D02*
X80772000Y-60873000D01*
X108837000Y-52959000D02*
G75*
G03X108837000Y-52959000I-4090000J0D01*
G01*
X104747000Y-48909000D02*
X104747000Y-57009000D01*
X104787000Y-48909000D02*
X104787000Y-57009000D01*
X104827000Y-48909000D02*
X104827000Y-57009000D01*
X104867000Y-48910000D02*
X104867000Y-57008000D01*
X104907000Y-48912000D02*
X104907000Y-57006000D01*
X104947000Y-48913000D02*
X104947000Y-57005000D01*
X104987000Y-48916000D02*
X104987000Y-57002000D01*
X105027000Y-48918000D02*
X105027000Y-57000000D01*
X105067000Y-48921000D02*
X105067000Y-56997000D01*
X105107000Y-48924000D02*
X105107000Y-56994000D01*
X105147000Y-48928000D02*
X105147000Y-56990000D01*
X105187000Y-48932000D02*
X105187000Y-56986000D01*
X105227000Y-48937000D02*
X105227000Y-56981000D01*
X105267000Y-48942000D02*
X105267000Y-56976000D01*
X105307000Y-48947000D02*
X105307000Y-56971000D01*
X105347000Y-48953000D02*
X105347000Y-56965000D01*
X105387000Y-48959000D02*
X105387000Y-56959000D01*
X105427000Y-48965000D02*
X105427000Y-56953000D01*
X105468000Y-48972000D02*
X105468000Y-56946000D01*
X105508000Y-48980000D02*
X105508000Y-56938000D01*
X105548000Y-48988000D02*
X105548000Y-51979000D01*
X105548000Y-53939000D02*
X105548000Y-56930000D01*
X105588000Y-48996000D02*
X105588000Y-51979000D01*
X105588000Y-53939000D02*
X105588000Y-56922000D01*
X105628000Y-49004000D02*
X105628000Y-51979000D01*
X105628000Y-53939000D02*
X105628000Y-56914000D01*
X105668000Y-49013000D02*
X105668000Y-51979000D01*
X105668000Y-53939000D02*
X105668000Y-56905000D01*
X105708000Y-49023000D02*
X105708000Y-51979000D01*
X105708000Y-53939000D02*
X105708000Y-56895000D01*
X105748000Y-49033000D02*
X105748000Y-51979000D01*
X105748000Y-53939000D02*
X105748000Y-56885000D01*
X105788000Y-49043000D02*
X105788000Y-51979000D01*
X105788000Y-53939000D02*
X105788000Y-56875000D01*
X105828000Y-49054000D02*
X105828000Y-51979000D01*
X105828000Y-53939000D02*
X105828000Y-56864000D01*
X105868000Y-49065000D02*
X105868000Y-51979000D01*
X105868000Y-53939000D02*
X105868000Y-56853000D01*
X105908000Y-49076000D02*
X105908000Y-51979000D01*
X105908000Y-53939000D02*
X105908000Y-56842000D01*
X105948000Y-49089000D02*
X105948000Y-51979000D01*
X105948000Y-53939000D02*
X105948000Y-56829000D01*
X105988000Y-49101000D02*
X105988000Y-51979000D01*
X105988000Y-53939000D02*
X105988000Y-56817000D01*
X106028000Y-49114000D02*
X106028000Y-51979000D01*
X106028000Y-53939000D02*
X106028000Y-56804000D01*
X106068000Y-49127000D02*
X106068000Y-51979000D01*
X106068000Y-53939000D02*
X106068000Y-56791000D01*
X106108000Y-49141000D02*
X106108000Y-51979000D01*
X106108000Y-53939000D02*
X106108000Y-56777000D01*
X106148000Y-49156000D02*
X106148000Y-51979000D01*
X106148000Y-53939000D02*
X106148000Y-56762000D01*
X106188000Y-49170000D02*
X106188000Y-51979000D01*
X106188000Y-53939000D02*
X106188000Y-56748000D01*
X106228000Y-49186000D02*
X106228000Y-51979000D01*
X106228000Y-53939000D02*
X106228000Y-56732000D01*
X106268000Y-49201000D02*
X106268000Y-51979000D01*
X106268000Y-53939000D02*
X106268000Y-56717000D01*
X106308000Y-49218000D02*
X106308000Y-51979000D01*
X106308000Y-53939000D02*
X106308000Y-56700000D01*
X106348000Y-49234000D02*
X106348000Y-51979000D01*
X106348000Y-53939000D02*
X106348000Y-56684000D01*
X106388000Y-49252000D02*
X106388000Y-51979000D01*
X106388000Y-53939000D02*
X106388000Y-56666000D01*
X106428000Y-49269000D02*
X106428000Y-51979000D01*
X106428000Y-53939000D02*
X106428000Y-56649000D01*
X106468000Y-49288000D02*
X106468000Y-51979000D01*
X106468000Y-53939000D02*
X106468000Y-56630000D01*
X106508000Y-49307000D02*
X106508000Y-51979000D01*
X106508000Y-53939000D02*
X106508000Y-56611000D01*
X106548000Y-49326000D02*
X106548000Y-51979000D01*
X106548000Y-53939000D02*
X106548000Y-56592000D01*
X106588000Y-49346000D02*
X106588000Y-51979000D01*
X106588000Y-53939000D02*
X106588000Y-56572000D01*
X106628000Y-49366000D02*
X106628000Y-51979000D01*
X106628000Y-53939000D02*
X106628000Y-56552000D01*
X106668000Y-49387000D02*
X106668000Y-51979000D01*
X106668000Y-53939000D02*
X106668000Y-56531000D01*
X106708000Y-49409000D02*
X106708000Y-51979000D01*
X106708000Y-53939000D02*
X106708000Y-56509000D01*
X106748000Y-49431000D02*
X106748000Y-51979000D01*
X106748000Y-53939000D02*
X106748000Y-56487000D01*
X106788000Y-49454000D02*
X106788000Y-51979000D01*
X106788000Y-53939000D02*
X106788000Y-56464000D01*
X106828000Y-49477000D02*
X106828000Y-51979000D01*
X106828000Y-53939000D02*
X106828000Y-56441000D01*
X106868000Y-49501000D02*
X106868000Y-51979000D01*
X106868000Y-53939000D02*
X106868000Y-56417000D01*
X106908000Y-49525000D02*
X106908000Y-51979000D01*
X106908000Y-53939000D02*
X106908000Y-56393000D01*
X106948000Y-49551000D02*
X106948000Y-51979000D01*
X106948000Y-53939000D02*
X106948000Y-56367000D01*
X106988000Y-49576000D02*
X106988000Y-51979000D01*
X106988000Y-53939000D02*
X106988000Y-56342000D01*
X107028000Y-49603000D02*
X107028000Y-51979000D01*
X107028000Y-53939000D02*
X107028000Y-56315000D01*
X107068000Y-49630000D02*
X107068000Y-51979000D01*
X107068000Y-53939000D02*
X107068000Y-56288000D01*
X107108000Y-49658000D02*
X107108000Y-51979000D01*
X107108000Y-53939000D02*
X107108000Y-56260000D01*
X107148000Y-49687000D02*
X107148000Y-51979000D01*
X107148000Y-53939000D02*
X107148000Y-56231000D01*
X107188000Y-49716000D02*
X107188000Y-51979000D01*
X107188000Y-53939000D02*
X107188000Y-56202000D01*
X107228000Y-49746000D02*
X107228000Y-51979000D01*
X107228000Y-53939000D02*
X107228000Y-56172000D01*
X107268000Y-49777000D02*
X107268000Y-51979000D01*
X107268000Y-53939000D02*
X107268000Y-56141000D01*
X107308000Y-49809000D02*
X107308000Y-51979000D01*
X107308000Y-53939000D02*
X107308000Y-56109000D01*
X107348000Y-49841000D02*
X107348000Y-51979000D01*
X107348000Y-53939000D02*
X107348000Y-56077000D01*
X107388000Y-49875000D02*
X107388000Y-51979000D01*
X107388000Y-53939000D02*
X107388000Y-56043000D01*
X107428000Y-49909000D02*
X107428000Y-51979000D01*
X107428000Y-53939000D02*
X107428000Y-56009000D01*
X107468000Y-49944000D02*
X107468000Y-51979000D01*
X107468000Y-53939000D02*
X107468000Y-55974000D01*
X107508000Y-49980000D02*
X107508000Y-55938000D01*
X107548000Y-50017000D02*
X107548000Y-55901000D01*
X107588000Y-50055000D02*
X107588000Y-55863000D01*
X107628000Y-50094000D02*
X107628000Y-55824000D01*
X107668000Y-50135000D02*
X107668000Y-55783000D01*
X107708000Y-50176000D02*
X107708000Y-55742000D01*
X107748000Y-50219000D02*
X107748000Y-55699000D01*
X107788000Y-50262000D02*
X107788000Y-55656000D01*
X107828000Y-50307000D02*
X107828000Y-55611000D01*
X107868000Y-50354000D02*
X107868000Y-55564000D01*
X107908000Y-50402000D02*
X107908000Y-55516000D01*
X107948000Y-50451000D02*
X107948000Y-55467000D01*
X107988000Y-50502000D02*
X107988000Y-55416000D01*
X108028000Y-50555000D02*
X108028000Y-55363000D01*
X108068000Y-50610000D02*
X108068000Y-55308000D01*
X108108000Y-50666000D02*
X108108000Y-55252000D01*
X108148000Y-50725000D02*
X108148000Y-55193000D01*
X108188000Y-50786000D02*
X108188000Y-55132000D01*
X108228000Y-50850000D02*
X108228000Y-55068000D01*
X108268000Y-50916000D02*
X108268000Y-55002000D01*
X108308000Y-50985000D02*
X108308000Y-54933000D01*
X108348000Y-51057000D02*
X108348000Y-54861000D01*
X108388000Y-51133000D02*
X108388000Y-54785000D01*
X108428000Y-51214000D02*
X108428000Y-54704000D01*
X108468000Y-51299000D02*
X108468000Y-54619000D01*
X108508000Y-51389000D02*
X108508000Y-54529000D01*
X108548000Y-51486000D02*
X108548000Y-54432000D01*
X108588000Y-51590000D02*
X108588000Y-54328000D01*
X108628000Y-51705000D02*
X108628000Y-54213000D01*
X108668000Y-51832000D02*
X108668000Y-54086000D01*
X108708000Y-51976000D02*
X108708000Y-53942000D01*
X108748000Y-52145000D02*
X108748000Y-53773000D01*
X108788000Y-52361000D02*
X108788000Y-53557000D01*
X108828000Y-52713000D02*
X108828000Y-53205000D01*
X100797000Y-52959000D02*
X101997000Y-52959000D01*
X101397000Y-52309000D02*
X101397000Y-53609000D01*
X103008000Y-68135000D02*
X103008000Y-57715000D01*
X108828000Y-68135000D02*
X108828000Y-57715000D01*
X103008000Y-68135000D02*
X108828000Y-68135000D01*
X103008000Y-57715000D02*
X108828000Y-57715000D01*
X86574000Y-56435000D02*
X96814000Y-56435000D01*
X86574000Y-61076000D02*
X96814000Y-61076000D01*
X86574000Y-56435000D02*
X86574000Y-61076000D01*
X96814000Y-56435000D02*
X96814000Y-61076000D01*
X86574000Y-57945000D02*
X96814000Y-57945000D01*
X89844000Y-56435000D02*
X89844000Y-57945000D01*
X93545000Y-56435000D02*
X93545000Y-57945000D01*
X97199000Y-63672000D02*
X97199000Y-59772000D01*
X100159000Y-59772000D02*
X100159000Y-63672000D01*
X86204000Y-71120000D02*
G75*
G03X86204000Y-71120000I-860000J0D01*
G01*
X85344000Y-70260000D02*
X85344000Y-70220000D01*
X88178842Y-69864824D02*
G75*
G02X88199000Y-67555000I20158J1154824D01*
G01*
X88178226Y-67556043D02*
G75*
G02X89342000Y-68870000I20774J-1153957D01*
G01*
X86809000Y-67310000D02*
X86809000Y-72380000D01*
X86809000Y-72380000D02*
X87799000Y-72380000D01*
X87799000Y-72380000D02*
X87799000Y-72000000D01*
X87799000Y-72000000D02*
X95589000Y-72000000D01*
X95589000Y-72000000D02*
X95589000Y-72380000D01*
X95589000Y-72380000D02*
X96579000Y-72380000D01*
X96579000Y-72380000D02*
X96579000Y-67310000D01*
X96579000Y-67310000D02*
X86809000Y-67310000D01*
X87323000Y-69444000D02*
X88934000Y-67834000D01*
X87463000Y-69585000D02*
X88156000Y-68893000D01*
X88196000Y-68852000D02*
X89075000Y-67975000D01*
X86569000Y-69070000D02*
X86569000Y-67070000D01*
X86569000Y-67070000D02*
X88569000Y-67070000D01*
D15*
X88219000Y-61555000D02*
X89744000Y-61555000D01*
X90094000Y-66585000D02*
X90094000Y-61685000D01*
X93294000Y-66585000D02*
X90094000Y-66585000D01*
X93294000Y-61685000D02*
X93294000Y-66585000D01*
X90094000Y-61685000D02*
X93294000Y-61685000D01*
D12*
X108659800Y-71069200D02*
G75*
G03X108659800Y-71069200I-2310000J0D01*
G01*
X106349800Y-73379200D02*
X106349800Y-74649200D01*
X103402000Y-71069200D02*
G75*
G03X103402000Y-71069200I-2310000J0D01*
G01*
X101092000Y-73379200D02*
X101092000Y-74649200D01*
D11*
X77938333Y-69826142D02*
X77890714Y-69873761D01*
X77747857Y-69921380D01*
X77652619Y-69921380D01*
X77509761Y-69873761D01*
X77414523Y-69778523D01*
X77366904Y-69683285D01*
X77319285Y-69492809D01*
X77319285Y-69349952D01*
X77366904Y-69159476D01*
X77414523Y-69064238D01*
X77509761Y-68969000D01*
X77652619Y-68921380D01*
X77747857Y-68921380D01*
X77890714Y-68969000D01*
X77938333Y-69016619D01*
X78795476Y-69254714D02*
X78795476Y-69921380D01*
X78557380Y-68873761D02*
X78319285Y-69588047D01*
X78938333Y-69588047D01*
X75231666Y-58761380D02*
X75231666Y-59475666D01*
X75184047Y-59618523D01*
X75088809Y-59713761D01*
X74945952Y-59761380D01*
X74850714Y-59761380D01*
X76231666Y-59761380D02*
X75660238Y-59761380D01*
X75945952Y-59761380D02*
X75945952Y-58761380D01*
X75850714Y-58904238D01*
X75755476Y-58999476D01*
X75660238Y-59047095D01*
D16*
X142138476Y-68916571D02*
X142138476Y-69449904D01*
X141795619Y-68916571D02*
X141795619Y-69335619D01*
X141833714Y-69411809D01*
X141909904Y-69449904D01*
X142024190Y-69449904D01*
X142100380Y-69411809D01*
X142138476Y-69373714D01*
X142519428Y-69449904D02*
X142519428Y-68649904D01*
X142824190Y-68649904D01*
X142900380Y-68688000D01*
X142938476Y-68726095D01*
X142976571Y-68802285D01*
X142976571Y-68916571D01*
X142938476Y-68992761D01*
X142900380Y-69030857D01*
X142824190Y-69068952D01*
X142519428Y-69068952D01*
X143738476Y-69449904D02*
X143281333Y-69449904D01*
X143509904Y-69449904D02*
X143509904Y-68649904D01*
X143433714Y-68764190D01*
X143357523Y-68840380D01*
X143281333Y-68878476D01*
D11*
X163449095Y-72604380D02*
X163449095Y-73413904D01*
X163496714Y-73509142D01*
X163544333Y-73556761D01*
X163639571Y-73604380D01*
X163830047Y-73604380D01*
X163925285Y-73556761D01*
X163972904Y-73509142D01*
X164020523Y-73413904D01*
X164020523Y-72604380D01*
X164449095Y-72699619D02*
X164496714Y-72652000D01*
X164591952Y-72604380D01*
X164830047Y-72604380D01*
X164925285Y-72652000D01*
X164972904Y-72699619D01*
X165020523Y-72794857D01*
X165020523Y-72890095D01*
X164972904Y-73032952D01*
X164401476Y-73604380D01*
X165020523Y-73604380D01*
X120777095Y-60031380D02*
X120777095Y-60840904D01*
X120824714Y-60936142D01*
X120872333Y-60983761D01*
X120967571Y-61031380D01*
X121158047Y-61031380D01*
X121253285Y-60983761D01*
X121300904Y-60936142D01*
X121348523Y-60840904D01*
X121348523Y-60031380D01*
X122348523Y-61031380D02*
X121777095Y-61031380D01*
X122062809Y-61031380D02*
X122062809Y-60031380D01*
X121967571Y-60174238D01*
X121872333Y-60269476D01*
X121777095Y-60317095D01*
X101433333Y-65127142D02*
X101385714Y-65174761D01*
X101242857Y-65222380D01*
X101147619Y-65222380D01*
X101004761Y-65174761D01*
X100909523Y-65079523D01*
X100861904Y-64984285D01*
X100814285Y-64793809D01*
X100814285Y-64650952D01*
X100861904Y-64460476D01*
X100909523Y-64365238D01*
X101004761Y-64270000D01*
X101147619Y-64222380D01*
X101242857Y-64222380D01*
X101385714Y-64270000D01*
X101433333Y-64317619D01*
X101766666Y-64222380D02*
X102385714Y-64222380D01*
X102052380Y-64603333D01*
X102195238Y-64603333D01*
X102290476Y-64650952D01*
X102338095Y-64698571D01*
X102385714Y-64793809D01*
X102385714Y-65031904D01*
X102338095Y-65127142D01*
X102290476Y-65174761D01*
X102195238Y-65222380D01*
X101909523Y-65222380D01*
X101814285Y-65174761D01*
X101766666Y-65127142D01*
X93876904Y-55189380D02*
X93876904Y-54189380D01*
X94115000Y-54189380D01*
X94257857Y-54237000D01*
X94353095Y-54332238D01*
X94400714Y-54427476D01*
X94448333Y-54617952D01*
X94448333Y-54760809D01*
X94400714Y-54951285D01*
X94353095Y-55046523D01*
X94257857Y-55141761D01*
X94115000Y-55189380D01*
X93876904Y-55189380D01*
X95400714Y-55189380D02*
X94829285Y-55189380D01*
X95115000Y-55189380D02*
X95115000Y-54189380D01*
X95019761Y-54332238D01*
X94924523Y-54427476D01*
X94829285Y-54475095D01*
X94321333Y-74925180D02*
X93988000Y-74448990D01*
X93749904Y-74925180D02*
X93749904Y-73925180D01*
X94130857Y-73925180D01*
X94226095Y-73972800D01*
X94273714Y-74020419D01*
X94321333Y-74115657D01*
X94321333Y-74258514D01*
X94273714Y-74353752D01*
X94226095Y-74401371D01*
X94130857Y-74448990D01*
X93749904Y-74448990D01*
X94702285Y-74020419D02*
X94749904Y-73972800D01*
X94845142Y-73925180D01*
X95083238Y-73925180D01*
X95178476Y-73972800D01*
X95226095Y-74020419D01*
X95273714Y-74115657D01*
X95273714Y-74210895D01*
X95226095Y-74353752D01*
X94654666Y-74925180D01*
X95273714Y-74925180D01*
X169719666Y-56221380D02*
X169719666Y-56935666D01*
X169672047Y-57078523D01*
X169576809Y-57173761D01*
X169433952Y-57221380D01*
X169338714Y-57221380D01*
X170148238Y-56316619D02*
X170195857Y-56269000D01*
X170291095Y-56221380D01*
X170529190Y-56221380D01*
X170624428Y-56269000D01*
X170672047Y-56316619D01*
X170719666Y-56411857D01*
X170719666Y-56507095D01*
X170672047Y-56649952D01*
X170100619Y-57221380D01*
X170719666Y-57221380D01*
X162520380Y-60642333D02*
X163520380Y-60404238D01*
X162806095Y-60213761D01*
X163520380Y-60023285D01*
X162520380Y-59785190D01*
X163520380Y-59404238D02*
X162520380Y-59404238D01*
X162996571Y-59404238D02*
X162996571Y-58832809D01*
X163520380Y-58832809D02*
X162520380Y-58832809D01*
X162520380Y-58499476D02*
X162520380Y-57928047D01*
X163520380Y-58213761D02*
X162520380Y-58213761D01*
X165108000Y-60070904D02*
X165060380Y-60166142D01*
X165060380Y-60309000D01*
X165108000Y-60451857D01*
X165203238Y-60547095D01*
X165298476Y-60594714D01*
X165488952Y-60642333D01*
X165631809Y-60642333D01*
X165822285Y-60594714D01*
X165917523Y-60547095D01*
X166012761Y-60451857D01*
X166060380Y-60309000D01*
X166060380Y-60213761D01*
X166012761Y-60070904D01*
X165965142Y-60023285D01*
X165631809Y-60023285D01*
X165631809Y-60213761D01*
X166060380Y-59023285D02*
X165584190Y-59356619D01*
X166060380Y-59594714D02*
X165060380Y-59594714D01*
X165060380Y-59213761D01*
X165108000Y-59118523D01*
X165155619Y-59070904D01*
X165250857Y-59023285D01*
X165393714Y-59023285D01*
X165488952Y-59070904D01*
X165536571Y-59118523D01*
X165584190Y-59213761D01*
X165584190Y-59594714D01*
X166060380Y-58594714D02*
X165060380Y-58594714D01*
X166060380Y-58023285D01*
X165060380Y-58023285D01*
X167600380Y-60642333D02*
X168600380Y-60309000D01*
X167600380Y-59975666D01*
X168505142Y-59070904D02*
X168552761Y-59118523D01*
X168600380Y-59261380D01*
X168600380Y-59356619D01*
X168552761Y-59499476D01*
X168457523Y-59594714D01*
X168362285Y-59642333D01*
X168171809Y-59689952D01*
X168028952Y-59689952D01*
X167838476Y-59642333D01*
X167743238Y-59594714D01*
X167648000Y-59499476D01*
X167600380Y-59356619D01*
X167600380Y-59261380D01*
X167648000Y-59118523D01*
X167695619Y-59070904D01*
X168505142Y-58070904D02*
X168552761Y-58118523D01*
X168600380Y-58261380D01*
X168600380Y-58356619D01*
X168552761Y-58499476D01*
X168457523Y-58594714D01*
X168362285Y-58642333D01*
X168171809Y-58689952D01*
X168028952Y-58689952D01*
X167838476Y-58642333D01*
X167743238Y-58594714D01*
X167648000Y-58499476D01*
X167600380Y-58356619D01*
X167600380Y-58261380D01*
X167648000Y-58118523D01*
X167695619Y-58070904D01*
X159528476Y-62809380D02*
X159052285Y-62809380D01*
X159052285Y-61809380D01*
X159861809Y-62285571D02*
X160195142Y-62285571D01*
X160338000Y-62809380D02*
X159861809Y-62809380D01*
X159861809Y-61809380D01*
X160338000Y-61809380D01*
X160766571Y-62809380D02*
X160766571Y-61809380D01*
X161004666Y-61809380D01*
X161147523Y-61857000D01*
X161242761Y-61952238D01*
X161290380Y-62047476D01*
X161338000Y-62237952D01*
X161338000Y-62380809D01*
X161290380Y-62571285D01*
X161242761Y-62666523D01*
X161147523Y-62761761D01*
X161004666Y-62809380D01*
X160766571Y-62809380D01*
X162480857Y-62761761D02*
X162576095Y-62809380D01*
X162766571Y-62809380D01*
X162861809Y-62761761D01*
X162909428Y-62666523D01*
X162909428Y-62618904D01*
X162861809Y-62523666D01*
X162766571Y-62476047D01*
X162623714Y-62476047D01*
X162528476Y-62428428D01*
X162480857Y-62333190D01*
X162480857Y-62285571D01*
X162528476Y-62190333D01*
X162623714Y-62142714D01*
X162766571Y-62142714D01*
X162861809Y-62190333D01*
X163338000Y-62809380D02*
X163338000Y-62142714D01*
X163338000Y-61809380D02*
X163290380Y-61857000D01*
X163338000Y-61904619D01*
X163385619Y-61857000D01*
X163338000Y-61809380D01*
X163338000Y-61904619D01*
X164242761Y-62809380D02*
X164242761Y-61809380D01*
X164242761Y-62761761D02*
X164147523Y-62809380D01*
X163957047Y-62809380D01*
X163861809Y-62761761D01*
X163814190Y-62714142D01*
X163766571Y-62618904D01*
X163766571Y-62333190D01*
X163814190Y-62237952D01*
X163861809Y-62190333D01*
X163957047Y-62142714D01*
X164147523Y-62142714D01*
X164242761Y-62190333D01*
X165099904Y-62761761D02*
X165004666Y-62809380D01*
X164814190Y-62809380D01*
X164718952Y-62761761D01*
X164671333Y-62666523D01*
X164671333Y-62285571D01*
X164718952Y-62190333D01*
X164814190Y-62142714D01*
X165004666Y-62142714D01*
X165099904Y-62190333D01*
X165147523Y-62285571D01*
X165147523Y-62380809D01*
X164671333Y-62476047D01*
X166766571Y-62809380D02*
X166766571Y-61809380D01*
X166766571Y-62761761D02*
X166671333Y-62809380D01*
X166480857Y-62809380D01*
X166385619Y-62761761D01*
X166338000Y-62714142D01*
X166290380Y-62618904D01*
X166290380Y-62333190D01*
X166338000Y-62237952D01*
X166385619Y-62190333D01*
X166480857Y-62142714D01*
X166671333Y-62142714D01*
X166766571Y-62190333D01*
X167385619Y-62809380D02*
X167290380Y-62761761D01*
X167242761Y-62714142D01*
X167195142Y-62618904D01*
X167195142Y-62333190D01*
X167242761Y-62237952D01*
X167290380Y-62190333D01*
X167385619Y-62142714D01*
X167528476Y-62142714D01*
X167623714Y-62190333D01*
X167671333Y-62237952D01*
X167718952Y-62333190D01*
X167718952Y-62618904D01*
X167671333Y-62714142D01*
X167623714Y-62761761D01*
X167528476Y-62809380D01*
X167385619Y-62809380D01*
X168052285Y-62142714D02*
X168242761Y-62809380D01*
X168433238Y-62333190D01*
X168623714Y-62809380D01*
X168814190Y-62142714D01*
X169195142Y-62142714D02*
X169195142Y-62809380D01*
X169195142Y-62237952D02*
X169242761Y-62190333D01*
X169338000Y-62142714D01*
X169480857Y-62142714D01*
X169576095Y-62190333D01*
X169623714Y-62285571D01*
X169623714Y-62809380D01*
X160028000Y-60070904D02*
X159980380Y-60166142D01*
X159980380Y-60309000D01*
X160028000Y-60451857D01*
X160123238Y-60547095D01*
X160218476Y-60594714D01*
X160408952Y-60642333D01*
X160551809Y-60642333D01*
X160742285Y-60594714D01*
X160837523Y-60547095D01*
X160932761Y-60451857D01*
X160980380Y-60309000D01*
X160980380Y-60213761D01*
X160932761Y-60070904D01*
X160885142Y-60023285D01*
X160551809Y-60023285D01*
X160551809Y-60213761D01*
X160980380Y-59594714D02*
X159980380Y-59594714D01*
X160980380Y-59023285D01*
X159980380Y-59023285D01*
X160980380Y-58547095D02*
X159980380Y-58547095D01*
X159980380Y-58309000D01*
X160028000Y-58166142D01*
X160123238Y-58070904D01*
X160218476Y-58023285D01*
X160408952Y-57975666D01*
X160551809Y-57975666D01*
X160742285Y-58023285D01*
X160837523Y-58070904D01*
X160932761Y-58166142D01*
X160980380Y-58309000D01*
X160980380Y-58547095D01*
X86574333Y-53411380D02*
X86098142Y-53411380D01*
X86098142Y-52411380D01*
X87431476Y-53411380D02*
X86860047Y-53411380D01*
X87145761Y-53411380D02*
X87145761Y-52411380D01*
X87050523Y-52554238D01*
X86955285Y-52649476D01*
X86860047Y-52697095D01*
X82383333Y-65127142D02*
X82335714Y-65174761D01*
X82192857Y-65222380D01*
X82097619Y-65222380D01*
X81954761Y-65174761D01*
X81859523Y-65079523D01*
X81811904Y-64984285D01*
X81764285Y-64793809D01*
X81764285Y-64650952D01*
X81811904Y-64460476D01*
X81859523Y-64365238D01*
X81954761Y-64270000D01*
X82097619Y-64222380D01*
X82192857Y-64222380D01*
X82335714Y-64270000D01*
X82383333Y-64317619D01*
X83335714Y-65222380D02*
X82764285Y-65222380D01*
X83050000Y-65222380D02*
X83050000Y-64222380D01*
X82954761Y-64365238D01*
X82859523Y-64460476D01*
X82764285Y-64508095D01*
X155967133Y-84831180D02*
X155633800Y-84354990D01*
X155395704Y-84831180D02*
X155395704Y-83831180D01*
X155776657Y-83831180D01*
X155871895Y-83878800D01*
X155919514Y-83926419D01*
X155967133Y-84021657D01*
X155967133Y-84164514D01*
X155919514Y-84259752D01*
X155871895Y-84307371D01*
X155776657Y-84354990D01*
X155395704Y-84354990D01*
X156300466Y-83831180D02*
X156967133Y-83831180D01*
X156538561Y-84831180D01*
X135672533Y-85135980D02*
X135339200Y-84659790D01*
X135101104Y-85135980D02*
X135101104Y-84135980D01*
X135482057Y-84135980D01*
X135577295Y-84183600D01*
X135624914Y-84231219D01*
X135672533Y-84326457D01*
X135672533Y-84469314D01*
X135624914Y-84564552D01*
X135577295Y-84612171D01*
X135482057Y-84659790D01*
X135101104Y-84659790D01*
X136529676Y-84135980D02*
X136339200Y-84135980D01*
X136243961Y-84183600D01*
X136196342Y-84231219D01*
X136101104Y-84374076D01*
X136053485Y-84564552D01*
X136053485Y-84945504D01*
X136101104Y-85040742D01*
X136148723Y-85088361D01*
X136243961Y-85135980D01*
X136434438Y-85135980D01*
X136529676Y-85088361D01*
X136577295Y-85040742D01*
X136624914Y-84945504D01*
X136624914Y-84707409D01*
X136577295Y-84612171D01*
X136529676Y-84564552D01*
X136434438Y-84516933D01*
X136243961Y-84516933D01*
X136148723Y-84564552D01*
X136101104Y-84612171D01*
X136053485Y-84707409D01*
X81367333Y-58015142D02*
X81319714Y-58062761D01*
X81176857Y-58110380D01*
X81081619Y-58110380D01*
X80938761Y-58062761D01*
X80843523Y-57967523D01*
X80795904Y-57872285D01*
X80748285Y-57681809D01*
X80748285Y-57538952D01*
X80795904Y-57348476D01*
X80843523Y-57253238D01*
X80938761Y-57158000D01*
X81081619Y-57110380D01*
X81176857Y-57110380D01*
X81319714Y-57158000D01*
X81367333Y-57205619D01*
X81748285Y-57205619D02*
X81795904Y-57158000D01*
X81891142Y-57110380D01*
X82129238Y-57110380D01*
X82224476Y-57158000D01*
X82272095Y-57205619D01*
X82319714Y-57300857D01*
X82319714Y-57396095D01*
X82272095Y-57538952D01*
X81700666Y-58110380D01*
X82319714Y-58110380D01*
X102830333Y-51284142D02*
X102782714Y-51331761D01*
X102639857Y-51379380D01*
X102544619Y-51379380D01*
X102401761Y-51331761D01*
X102306523Y-51236523D01*
X102258904Y-51141285D01*
X102211285Y-50950809D01*
X102211285Y-50807952D01*
X102258904Y-50617476D01*
X102306523Y-50522238D01*
X102401761Y-50427000D01*
X102544619Y-50379380D01*
X102639857Y-50379380D01*
X102782714Y-50427000D01*
X102830333Y-50474619D01*
X103735095Y-50379380D02*
X103258904Y-50379380D01*
X103211285Y-50855571D01*
X103258904Y-50807952D01*
X103354142Y-50760333D01*
X103592238Y-50760333D01*
X103687476Y-50807952D01*
X103735095Y-50855571D01*
X103782714Y-50950809D01*
X103782714Y-51188904D01*
X103735095Y-51284142D01*
X103687476Y-51331761D01*
X103592238Y-51379380D01*
X103354142Y-51379380D01*
X103258904Y-51331761D01*
X103211285Y-51284142D01*
X105751333Y-63282142D02*
X105703714Y-63329761D01*
X105560857Y-63377380D01*
X105465619Y-63377380D01*
X105322761Y-63329761D01*
X105227523Y-63234523D01*
X105179904Y-63139285D01*
X105132285Y-62948809D01*
X105132285Y-62805952D01*
X105179904Y-62615476D01*
X105227523Y-62520238D01*
X105322761Y-62425000D01*
X105465619Y-62377380D01*
X105560857Y-62377380D01*
X105703714Y-62425000D01*
X105751333Y-62472619D01*
X106608476Y-62377380D02*
X106418000Y-62377380D01*
X106322761Y-62425000D01*
X106275142Y-62472619D01*
X106179904Y-62615476D01*
X106132285Y-62805952D01*
X106132285Y-63186904D01*
X106179904Y-63282142D01*
X106227523Y-63329761D01*
X106322761Y-63377380D01*
X106513238Y-63377380D01*
X106608476Y-63329761D01*
X106656095Y-63282142D01*
X106703714Y-63186904D01*
X106703714Y-62948809D01*
X106656095Y-62853571D01*
X106608476Y-62805952D01*
X106513238Y-62758333D01*
X106322761Y-62758333D01*
X106227523Y-62805952D01*
X106179904Y-62853571D01*
X106132285Y-62948809D01*
X91598761Y-57697619D02*
X91503523Y-57650000D01*
X91408285Y-57554761D01*
X91265428Y-57411904D01*
X91170190Y-57364285D01*
X91074952Y-57364285D01*
X91122571Y-57602380D02*
X91027333Y-57554761D01*
X90932095Y-57459523D01*
X90884476Y-57269047D01*
X90884476Y-56935714D01*
X90932095Y-56745238D01*
X91027333Y-56650000D01*
X91122571Y-56602380D01*
X91313047Y-56602380D01*
X91408285Y-56650000D01*
X91503523Y-56745238D01*
X91551142Y-56935714D01*
X91551142Y-57269047D01*
X91503523Y-57459523D01*
X91408285Y-57554761D01*
X91313047Y-57602380D01*
X91122571Y-57602380D01*
X92503523Y-57602380D02*
X91932095Y-57602380D01*
X92217809Y-57602380D02*
X92217809Y-56602380D01*
X92122571Y-56745238D01*
X92027333Y-56840476D01*
X91932095Y-56888095D01*
X98639333Y-62301380D02*
X98306000Y-61825190D01*
X98067904Y-62301380D02*
X98067904Y-61301380D01*
X98448857Y-61301380D01*
X98544095Y-61349000D01*
X98591714Y-61396619D01*
X98639333Y-61491857D01*
X98639333Y-61634714D01*
X98591714Y-61729952D01*
X98544095Y-61777571D01*
X98448857Y-61825190D01*
X98067904Y-61825190D01*
X99591714Y-62301380D02*
X99020285Y-62301380D01*
X99306000Y-62301380D02*
X99306000Y-61301380D01*
X99210761Y-61444238D01*
X99115523Y-61539476D01*
X99020285Y-61587095D01*
X83526333Y-70683380D02*
X83193000Y-70207190D01*
X82954904Y-70683380D02*
X82954904Y-69683380D01*
X83335857Y-69683380D01*
X83431095Y-69731000D01*
X83478714Y-69778619D01*
X83526333Y-69873857D01*
X83526333Y-70016714D01*
X83478714Y-70111952D01*
X83431095Y-70159571D01*
X83335857Y-70207190D01*
X82954904Y-70207190D01*
X83859666Y-69683380D02*
X84478714Y-69683380D01*
X84145380Y-70064333D01*
X84288238Y-70064333D01*
X84383476Y-70111952D01*
X84431095Y-70159571D01*
X84478714Y-70254809D01*
X84478714Y-70492904D01*
X84431095Y-70588142D01*
X84383476Y-70635761D01*
X84288238Y-70683380D01*
X84002523Y-70683380D01*
X83907285Y-70635761D01*
X83859666Y-70588142D01*
X91098761Y-68524380D02*
X90765428Y-68048190D01*
X90527333Y-68524380D02*
X90527333Y-67524380D01*
X90908285Y-67524380D01*
X91003523Y-67572000D01*
X91051142Y-67619619D01*
X91098761Y-67714857D01*
X91098761Y-67857714D01*
X91051142Y-67952952D01*
X91003523Y-68000571D01*
X90908285Y-68048190D01*
X90527333Y-68048190D01*
X91384476Y-67524380D02*
X91717809Y-68524380D01*
X92051142Y-67524380D01*
X92908285Y-68524380D02*
X92336857Y-68524380D01*
X92622571Y-68524380D02*
X92622571Y-67524380D01*
X92527333Y-67667238D01*
X92432095Y-67762476D01*
X92336857Y-67810095D01*
X90717809Y-64587380D02*
X90717809Y-63587380D01*
X91765428Y-64492142D02*
X91717809Y-64539761D01*
X91574952Y-64587380D01*
X91479714Y-64587380D01*
X91336857Y-64539761D01*
X91241619Y-64444523D01*
X91194000Y-64349285D01*
X91146380Y-64158809D01*
X91146380Y-64015952D01*
X91194000Y-63825476D01*
X91241619Y-63730238D01*
X91336857Y-63635000D01*
X91479714Y-63587380D01*
X91574952Y-63587380D01*
X91717809Y-63635000D01*
X91765428Y-63682619D01*
X92717809Y-64587380D02*
X92146380Y-64587380D01*
X92432095Y-64587380D02*
X92432095Y-63587380D01*
X92336857Y-63730238D01*
X92241619Y-63825476D01*
X92146380Y-63873095D01*
X106183133Y-74467980D02*
X105849800Y-73991790D01*
X105611704Y-74467980D02*
X105611704Y-73467980D01*
X105992657Y-73467980D01*
X106087895Y-73515600D01*
X106135514Y-73563219D01*
X106183133Y-73658457D01*
X106183133Y-73801314D01*
X106135514Y-73896552D01*
X106087895Y-73944171D01*
X105992657Y-73991790D01*
X105611704Y-73991790D01*
X107040276Y-73801314D02*
X107040276Y-74467980D01*
X106802180Y-73420361D02*
X106564085Y-74134647D01*
X107183133Y-74134647D01*
X100899933Y-74620380D02*
X100566600Y-74144190D01*
X100328504Y-74620380D02*
X100328504Y-73620380D01*
X100709457Y-73620380D01*
X100804695Y-73668000D01*
X100852314Y-73715619D01*
X100899933Y-73810857D01*
X100899933Y-73953714D01*
X100852314Y-74048952D01*
X100804695Y-74096571D01*
X100709457Y-74144190D01*
X100328504Y-74144190D01*
X101804695Y-73620380D02*
X101328504Y-73620380D01*
X101280885Y-74096571D01*
X101328504Y-74048952D01*
X101423742Y-74001333D01*
X101661838Y-74001333D01*
X101757076Y-74048952D01*
X101804695Y-74096571D01*
X101852314Y-74191809D01*
X101852314Y-74429904D01*
X101804695Y-74525142D01*
X101757076Y-74572761D01*
X101661838Y-74620380D01*
X101423742Y-74620380D01*
X101328504Y-74572761D01*
X101280885Y-74525142D01*
M02*
