G04 #@! TF.GenerationSoftware,KiCad,Pcbnew,(5.1.0)-1*
G04 #@! TF.CreationDate,2019-05-08T22:47:31-04:00*
G04 #@! TF.ProjectId,NixieClock,4e697869-6543-46c6-9f63-6b2e6b696361,rev?*
G04 #@! TF.SameCoordinates,Original*
G04 #@! TF.FileFunction,Legend,Bot*
G04 #@! TF.FilePolarity,Positive*
%FSLAX46Y46*%
G04 Gerber Fmt 4.6, Leading zero omitted, Abs format (unit mm)*
G04 Created by KiCad (PCBNEW (5.1.0)-1) date 2019-05-08 22:47:31*
%MOMM*%
%LPD*%
G04 APERTURE LIST*
%ADD10C,0.200000*%
%ADD11C,0.150000*%
%ADD12C,0.500000*%
G04 APERTURE END LIST*
D10*
X79422142Y-53320071D02*
X80279285Y-53320071D01*
X79850714Y-53320071D02*
X79850714Y-51820071D01*
X79993571Y-52034357D01*
X80136428Y-52177214D01*
X80279285Y-52248642D01*
X78850714Y-51962928D02*
X78779285Y-51891500D01*
X78636428Y-51820071D01*
X78279285Y-51820071D01*
X78136428Y-51891500D01*
X78065000Y-51962928D01*
X77993571Y-52105785D01*
X77993571Y-52248642D01*
X78065000Y-52462928D01*
X78922142Y-53320071D01*
X77993571Y-53320071D01*
X77493571Y-52320071D02*
X77136428Y-53320071D01*
X76779285Y-52320071D01*
X74779285Y-51820071D02*
X74636428Y-51820071D01*
X74493571Y-51891500D01*
X74422142Y-51962928D01*
X74350714Y-52105785D01*
X74279285Y-52391500D01*
X74279285Y-52748642D01*
X74350714Y-53034357D01*
X74422142Y-53177214D01*
X74493571Y-53248642D01*
X74636428Y-53320071D01*
X74779285Y-53320071D01*
X74922142Y-53248642D01*
X74993571Y-53177214D01*
X75065000Y-53034357D01*
X75136428Y-52748642D01*
X75136428Y-52391500D01*
X75065000Y-52105785D01*
X74993571Y-51962928D01*
X74922142Y-51891500D01*
X74779285Y-51820071D01*
X73636428Y-53177214D02*
X73565000Y-53248642D01*
X73636428Y-53320071D01*
X73707857Y-53248642D01*
X73636428Y-53177214D01*
X73636428Y-53320071D01*
X72207857Y-51820071D02*
X72922142Y-51820071D01*
X72993571Y-52534357D01*
X72922142Y-52462928D01*
X72779285Y-52391500D01*
X72422142Y-52391500D01*
X72279285Y-52462928D01*
X72207857Y-52534357D01*
X72136428Y-52677214D01*
X72136428Y-53034357D01*
X72207857Y-53177214D01*
X72279285Y-53248642D01*
X72422142Y-53320071D01*
X72779285Y-53320071D01*
X72922142Y-53248642D01*
X72993571Y-53177214D01*
X71565000Y-52891500D02*
X70850714Y-52891500D01*
X71707857Y-53320071D02*
X71207857Y-51820071D01*
X70707857Y-53320071D01*
D11*
X73088428Y-50081642D02*
X71945571Y-50081642D01*
X79120928Y-50081642D02*
X77978071Y-50081642D01*
X78549500Y-50653071D02*
X78549500Y-49510214D01*
X75565000Y-50090000D02*
X77565000Y-50090000D01*
X73565000Y-50090000D02*
X74465000Y-50090000D01*
X73490000Y-50090000D02*
G75*
G03X73490000Y-50090000I-925000J0D01*
G01*
X79490000Y-50090000D02*
G75*
G03X79490000Y-50090000I-925000J0D01*
G01*
D12*
X75740000Y-50090000D02*
G75*
G03X75740000Y-50090000I-175000J0D01*
G01*
D11*
X76240000Y-50840000D02*
G75*
G02X76315000Y-49415000I-675000J750000D01*
G01*
D12*
X75565000Y-50090000D02*
G75*
G03X75565000Y-50090000I0J0D01*
G01*
M02*
