M48
; DRILL file {KiCad (5.1.0)-1} date 5/8/2019 10:47:20 PM
; FORMAT={-:-/ absolute / inch / decimal}
; #@! TF.CreationDate,2019-05-08T22:47:20-04:00
; #@! TF.GenerationSoftware,Kicad,Pcbnew,(5.1.0)-1
; #@! TF.FileFunction,Plated,1,2,PTH
FMAT,2
INCH
T1C0.0157
T2C0.0276
T3C0.0314
T4C0.0315
T5C0.0315
T6C0.0354
T7C0.0374
T8C0.0394
T9C0.0472
T10C0.0629
%
G90
G05
T1
X3.589Y-2.6
X4.212Y-3.2888
X4.58Y-2.813
X4.6256Y-2.8131
X4.66Y-3.029
X5.372Y-2.669
X5.851Y-2.669
X5.912Y-3.574
X5.914Y-3.51
X6.057Y-2.17
X6.268Y-2.421
X6.315Y-2.42
X6.346Y-3.528
X6.3807Y-3.5034
T2
X3.36Y-2.7252
X3.36Y-2.8
T3
X6.3729Y-3.7205
X6.3827Y-3.809
X6.4024Y-3.6418
X6.4319Y-3.8877
X6.4713Y-3.5926
X6.5107Y-3.9271
X6.5893Y-3.9271
X6.6287Y-3.5926
X6.6681Y-3.8877
X6.6976Y-3.6418
X6.7173Y-3.809
X6.7271Y-3.7205
X5.5729Y-3.7205
X5.5827Y-3.809
X5.6024Y-3.6418
X5.6319Y-3.8877
X5.6713Y-3.5926
X5.7107Y-3.9271
X5.7893Y-3.9271
X5.8287Y-3.5926
X5.8681Y-3.8877
X5.8976Y-3.6418
X5.9173Y-3.809
X5.9271Y-3.7205
T4
X3.88Y-2.625
X3.9784Y-2.625
X6.147Y-3.442
X6.247Y-3.442
X4.055Y-2.085
X4.1928Y-2.085
X3.32Y-2.495
X3.32Y-2.5934
X3.2316Y-2.345
X3.33Y-2.345
X3.075Y-2.63
X3.075Y-2.8269
X5.348Y-3.442
X5.448Y-3.442
T5
X5.32Y-2.12
X5.32Y-2.22
X5.32Y-2.32
X5.32Y-2.42
X5.32Y-2.52
X5.32Y-2.62
X5.32Y-2.72
X5.32Y-2.82
X5.32Y-2.92
X5.32Y-3.02
X5.32Y-3.12
X5.32Y-3.22
X5.92Y-2.12
X5.92Y-2.22
X5.92Y-2.32
X5.92Y-2.42
X5.92Y-2.52
X5.92Y-2.62
X5.92Y-2.72
X5.92Y-2.82
X5.92Y-2.92
X5.92Y-3.02
X5.92Y-3.12
X5.92Y-3.22
T6
X3.51Y-2.75
X3.61Y-2.75
X3.71Y-2.75
T7
X6.115Y-2.63
X6.115Y-2.73
X6.115Y-2.83
X6.115Y-2.93
X6.115Y-3.03
X6.115Y-3.13
X6.115Y-3.13
X6.215Y-2.53
X6.215Y-2.63
X6.215Y-2.73
X6.215Y-2.83
X6.215Y-2.93
X6.215Y-3.03
X6.215Y-3.13
X6.215Y-3.23
X6.215Y-3.23
X6.315Y-2.53
X6.315Y-2.63
X6.315Y-3.13
X6.315Y-3.23
X6.415Y-2.53
X6.415Y-2.63
X6.415Y-3.13
X6.415Y-3.23
X6.515Y-2.53
X6.515Y-2.63
X6.515Y-3.13
X6.515Y-3.23
X6.615Y-2.53
X6.615Y-2.63
X6.615Y-3.13
X6.615Y-3.23
X6.715Y-2.53
X6.715Y-2.63
X6.715Y-2.73
X6.715Y-2.83
X6.715Y-2.93
X6.715Y-3.03
X6.715Y-3.13
X6.715Y-3.23
X6.815Y-2.63
X6.815Y-2.73
X6.815Y-2.83
X6.815Y-2.93
X6.815Y-3.03
X6.815Y-3.13
X4.435Y-2.135
X4.435Y-2.135
X4.435Y-2.235
X4.435Y-2.335
X4.435Y-2.435
X4.435Y-2.535
X4.435Y-2.635
X4.535Y-2.035
X4.535Y-2.035
X4.535Y-2.135
X4.535Y-2.235
X4.535Y-2.335
X4.535Y-2.435
X4.535Y-2.535
X4.535Y-2.635
X4.535Y-2.735
X4.635Y-2.035
X4.635Y-2.135
X4.635Y-2.635
X4.635Y-2.735
X4.735Y-2.035
X4.735Y-2.135
X4.735Y-2.635
X4.735Y-2.735
X4.835Y-2.035
X4.835Y-2.135
X4.835Y-2.635
X4.835Y-2.735
X4.935Y-2.035
X4.935Y-2.135
X4.935Y-2.635
X4.935Y-2.735
X5.035Y-2.035
X5.035Y-2.135
X5.035Y-2.235
X5.035Y-2.335
X5.035Y-2.435
X5.035Y-2.535
X5.035Y-2.635
X5.035Y-2.735
X5.135Y-2.135
X5.135Y-2.235
X5.135Y-2.335
X5.135Y-2.435
X5.135Y-2.535
X5.135Y-2.635
T8
X6.32Y-2.235
X6.42Y-2.235
X6.52Y-2.235
X6.62Y-2.235
X4.17Y-2.3297
X4.17Y-2.625
X3.51Y-2.325
X3.61Y-2.325
X3.71Y-2.325
T9
X3.325Y-2.085
X3.525Y-2.085
X3.98Y-2.798
X3.98Y-2.998
X4.187Y-2.798
X4.187Y-2.998
T10
X3.0171Y-3.3745
X3.0196Y-3.6229
X3.1001Y-3.7512
X3.1027Y-3.2498
X3.2271Y-3.1696
X3.2284Y-3.8326
X3.3753Y-3.1468
X3.3759Y-3.8533
X3.5189Y-3.8112
X3.5204Y-3.1875
X3.634Y-3.712
X3.6345Y-3.2897
X3.6948Y-3.5733
X3.6957Y-3.4233
X4.3171Y-3.3745
X4.3196Y-3.6229
X4.4001Y-3.7512
X4.4027Y-3.2498
X4.5271Y-3.1696
X4.5284Y-3.8326
X4.6753Y-3.1468
X4.6759Y-3.8533
X4.8189Y-3.8112
X4.8204Y-3.1875
X4.934Y-3.712
X4.9345Y-3.2897
X4.9948Y-3.5733
X4.9957Y-3.4233
T8
G00X2.79Y-2.2975
M15
G01X2.79Y-2.3763
M16
G05
G00X3.0144Y-2.2188
M15
G01X2.9356Y-2.2188
M16
G05
G00X3.0144Y-2.455
M15
G01X2.9356Y-2.455
M16
G05
T0
M30
