G04 #@! TF.GenerationSoftware,KiCad,Pcbnew,(5.1.0)-1*
G04 #@! TF.CreationDate,2019-05-08T22:47:30-04:00*
G04 #@! TF.ProjectId,NixieClock,4e697869-6543-46c6-9f63-6b2e6b696361,rev?*
G04 #@! TF.SameCoordinates,Original*
G04 #@! TF.FileFunction,Copper,L1,Top*
G04 #@! TF.FilePolarity,Positive*
%FSLAX46Y46*%
G04 Gerber Fmt 4.6, Leading zero omitted, Abs format (unit mm)*
G04 Created by KiCad (PCBNEW (5.1.0)-1) date 2019-05-08 22:47:30*
%MOMM*%
%LPD*%
G04 APERTURE LIST*
%ADD10C,0.150000*%
%ADD11C,0.300000*%
%ADD12R,1.600000X1.600000*%
%ADD13C,1.600000*%
%ADD14R,3.500000X3.500000*%
%ADD15O,2.199640X1.501140*%
%ADD16R,1.750000X1.750000*%
%ADD17C,1.750000*%
%ADD18C,1.305560*%
%ADD19C,2.397760*%
%ADD20R,2.500000X2.300000*%
%ADD21R,1.000000X3.200000*%
%ADD22R,1.700000X1.700000*%
%ADD23O,1.700000X1.700000*%
%ADD24O,2.400000X2.400000*%
%ADD25C,2.400000*%
%ADD26O,1.600000X1.600000*%
%ADD27C,2.000000*%
%ADD28R,1.800000X1.800000*%
%ADD29O,1.800000X1.800000*%
%ADD30R,2.500000X1.000000*%
%ADD31C,1.400000*%
%ADD32O,1.400000X1.400000*%
%ADD33R,1.620000X1.620000*%
%ADD34C,1.620000*%
%ADD35R,1.525000X0.650000*%
%ADD36C,0.800000*%
%ADD37C,1.000000*%
%ADD38C,0.350000*%
%ADD39C,0.250000*%
%ADD40C,2.000000*%
%ADD41C,1.800000*%
%ADD42C,0.200000*%
%ADD43C,0.254000*%
G04 APERTURE END LIST*
D10*
X157952928Y-53955071D02*
X157952928Y-52455071D01*
X158452928Y-53526500D01*
X158952928Y-52455071D01*
X158952928Y-53955071D01*
X160310071Y-53955071D02*
X160310071Y-53169357D01*
X160238642Y-53026500D01*
X160095785Y-52955071D01*
X159810071Y-52955071D01*
X159667214Y-53026500D01*
X160310071Y-53883642D02*
X160167214Y-53955071D01*
X159810071Y-53955071D01*
X159667214Y-53883642D01*
X159595785Y-53740785D01*
X159595785Y-53597928D01*
X159667214Y-53455071D01*
X159810071Y-53383642D01*
X160167214Y-53383642D01*
X160310071Y-53312214D01*
X160881500Y-52955071D02*
X161238642Y-53955071D01*
X161595785Y-52955071D02*
X161238642Y-53955071D01*
X161095785Y-54312214D01*
X161024357Y-54383642D01*
X160881500Y-54455071D01*
X163238642Y-52597928D02*
X163310071Y-52526500D01*
X163452928Y-52455071D01*
X163810071Y-52455071D01*
X163952928Y-52526500D01*
X164024357Y-52597928D01*
X164095785Y-52740785D01*
X164095785Y-52883642D01*
X164024357Y-53097928D01*
X163167214Y-53955071D01*
X164095785Y-53955071D01*
X165024357Y-52455071D02*
X165167214Y-52455071D01*
X165310071Y-52526500D01*
X165381500Y-52597928D01*
X165452928Y-52740785D01*
X165524357Y-53026500D01*
X165524357Y-53383642D01*
X165452928Y-53669357D01*
X165381500Y-53812214D01*
X165310071Y-53883642D01*
X165167214Y-53955071D01*
X165024357Y-53955071D01*
X164881500Y-53883642D01*
X164810071Y-53812214D01*
X164738642Y-53669357D01*
X164667214Y-53383642D01*
X164667214Y-53026500D01*
X164738642Y-52740785D01*
X164810071Y-52597928D01*
X164881500Y-52526500D01*
X165024357Y-52455071D01*
X166952928Y-53955071D02*
X166095785Y-53955071D01*
X166524357Y-53955071D02*
X166524357Y-52455071D01*
X166381500Y-52669357D01*
X166238642Y-52812214D01*
X166095785Y-52883642D01*
X167667214Y-53955071D02*
X167952928Y-53955071D01*
X168095785Y-53883642D01*
X168167214Y-53812214D01*
X168310071Y-53597928D01*
X168381500Y-53312214D01*
X168381500Y-52740785D01*
X168310071Y-52597928D01*
X168238642Y-52526500D01*
X168095785Y-52455071D01*
X167810071Y-52455071D01*
X167667214Y-52526500D01*
X167595785Y-52597928D01*
X167524357Y-52740785D01*
X167524357Y-53097928D01*
X167595785Y-53240785D01*
X167667214Y-53312214D01*
X167810071Y-53383642D01*
X168095785Y-53383642D01*
X168238642Y-53312214D01*
X168310071Y-53240785D01*
X168381500Y-53097928D01*
D11*
X134351714Y-51401571D02*
X134637428Y-51487285D01*
X135113619Y-51487285D01*
X135304095Y-51401571D01*
X135399333Y-51315857D01*
X135494571Y-51144428D01*
X135494571Y-50973000D01*
X135399333Y-50801571D01*
X135304095Y-50715857D01*
X135113619Y-50630142D01*
X134732666Y-50544428D01*
X134542190Y-50458714D01*
X134446952Y-50373000D01*
X134351714Y-50201571D01*
X134351714Y-50030142D01*
X134446952Y-49858714D01*
X134542190Y-49773000D01*
X134732666Y-49687285D01*
X135208857Y-49687285D01*
X135494571Y-49773000D01*
X136351714Y-50287285D02*
X136351714Y-52087285D01*
X136351714Y-50373000D02*
X136542190Y-50287285D01*
X136923142Y-50287285D01*
X137113619Y-50373000D01*
X137208857Y-50458714D01*
X137304095Y-50630142D01*
X137304095Y-51144428D01*
X137208857Y-51315857D01*
X137113619Y-51401571D01*
X136923142Y-51487285D01*
X136542190Y-51487285D01*
X136351714Y-51401571D01*
X138923142Y-51401571D02*
X138732666Y-51487285D01*
X138351714Y-51487285D01*
X138161238Y-51401571D01*
X138066000Y-51230142D01*
X138066000Y-50544428D01*
X138161238Y-50373000D01*
X138351714Y-50287285D01*
X138732666Y-50287285D01*
X138923142Y-50373000D01*
X139018380Y-50544428D01*
X139018380Y-50715857D01*
X138066000Y-50887285D01*
X139875523Y-50287285D02*
X139875523Y-51487285D01*
X139875523Y-50458714D02*
X139970761Y-50373000D01*
X140161238Y-50287285D01*
X140446952Y-50287285D01*
X140637428Y-50373000D01*
X140732666Y-50544428D01*
X140732666Y-51487285D01*
X142542190Y-51401571D02*
X142351714Y-51487285D01*
X141970761Y-51487285D01*
X141780285Y-51401571D01*
X141685047Y-51315857D01*
X141589809Y-51144428D01*
X141589809Y-50630142D01*
X141685047Y-50458714D01*
X141780285Y-50373000D01*
X141970761Y-50287285D01*
X142351714Y-50287285D01*
X142542190Y-50373000D01*
X144161238Y-51401571D02*
X143970761Y-51487285D01*
X143589809Y-51487285D01*
X143399333Y-51401571D01*
X143304095Y-51230142D01*
X143304095Y-50544428D01*
X143399333Y-50373000D01*
X143589809Y-50287285D01*
X143970761Y-50287285D01*
X144161238Y-50373000D01*
X144256476Y-50544428D01*
X144256476Y-50715857D01*
X143304095Y-50887285D01*
X145113619Y-51487285D02*
X145113619Y-50287285D01*
X145113619Y-50630142D02*
X145208857Y-50458714D01*
X145304095Y-50373000D01*
X145494571Y-50287285D01*
X145685047Y-50287285D01*
X147875523Y-51487285D02*
X147875523Y-49687285D01*
X149018380Y-51487285D02*
X148161238Y-50458714D01*
X149018380Y-49687285D02*
X147875523Y-50715857D01*
X150732666Y-50287285D02*
X150732666Y-51487285D01*
X149875523Y-50287285D02*
X149875523Y-51230142D01*
X149970761Y-51401571D01*
X150161238Y-51487285D01*
X150446952Y-51487285D01*
X150637428Y-51401571D01*
X150732666Y-51315857D01*
X151970761Y-51487285D02*
X151780285Y-51401571D01*
X151685047Y-51230142D01*
X151685047Y-49687285D01*
X152732666Y-51487285D02*
X152732666Y-49687285D01*
X152732666Y-50373000D02*
X152923142Y-50287285D01*
X153304095Y-50287285D01*
X153494571Y-50373000D01*
X153589809Y-50458714D01*
X153685047Y-50630142D01*
X153685047Y-51144428D01*
X153589809Y-51315857D01*
X153494571Y-51401571D01*
X153304095Y-51487285D01*
X152923142Y-51487285D01*
X152732666Y-51401571D01*
X155399333Y-51487285D02*
X155399333Y-50544428D01*
X155304095Y-50373000D01*
X155113619Y-50287285D01*
X154732666Y-50287285D01*
X154542190Y-50373000D01*
X155399333Y-51401571D02*
X155208857Y-51487285D01*
X154732666Y-51487285D01*
X154542190Y-51401571D01*
X154446952Y-51230142D01*
X154446952Y-51058714D01*
X154542190Y-50887285D01*
X154732666Y-50801571D01*
X155208857Y-50801571D01*
X155399333Y-50715857D01*
X157208857Y-51401571D02*
X157018380Y-51487285D01*
X156637428Y-51487285D01*
X156446952Y-51401571D01*
X156351714Y-51315857D01*
X156256476Y-51144428D01*
X156256476Y-50630142D01*
X156351714Y-50458714D01*
X156446952Y-50373000D01*
X156637428Y-50287285D01*
X157018380Y-50287285D01*
X157208857Y-50373000D01*
X158066000Y-51487285D02*
X158066000Y-49687285D01*
X158256476Y-50801571D02*
X158827904Y-51487285D01*
X158827904Y-50287285D02*
X158066000Y-50973000D01*
X159685047Y-51487285D02*
X159685047Y-50287285D01*
X159685047Y-49687285D02*
X159589809Y-49773000D01*
X159685047Y-49858714D01*
X159780285Y-49773000D01*
X159685047Y-49687285D01*
X159685047Y-49858714D01*
D12*
X78105000Y-66802000D03*
D13*
X78105000Y-71802000D03*
D14*
X70865000Y-59357000D03*
X75565000Y-56357000D03*
X75565000Y-62357000D03*
D15*
X150368000Y-81788000D03*
X150368000Y-79248000D03*
X150368000Y-76708000D03*
X150368000Y-74168000D03*
X150368000Y-71628000D03*
X150368000Y-69088000D03*
X150368000Y-66548000D03*
X150368000Y-64008000D03*
X150368000Y-61468000D03*
X150368000Y-58928000D03*
X150368000Y-56388000D03*
X150368000Y-53848000D03*
X135128000Y-53848000D03*
X135128000Y-56388000D03*
X135128000Y-58928000D03*
X135128000Y-61468000D03*
X135128000Y-64008000D03*
X135128000Y-66548000D03*
X135128000Y-69088000D03*
X135128000Y-71628000D03*
X135128000Y-74168000D03*
X135128000Y-76708000D03*
X135128000Y-79248000D03*
X135128000Y-81788000D03*
D16*
X162941000Y-79502000D03*
D17*
X165481000Y-79502000D03*
X168021000Y-79502000D03*
X160401000Y-79502000D03*
X157861000Y-79502000D03*
X155321000Y-79502000D03*
X165481000Y-82042000D03*
X168021000Y-82042000D03*
X170561000Y-82042000D03*
X162941000Y-82042000D03*
X160401000Y-82042000D03*
X157861000Y-82042000D03*
X170561000Y-79502000D03*
X170561000Y-76962000D03*
X170561000Y-74422000D03*
X170561000Y-71882000D03*
X170561000Y-69342000D03*
X173101000Y-79502000D03*
X173101000Y-76962000D03*
X173101000Y-74422000D03*
X173101000Y-71882000D03*
X173101000Y-69342000D03*
X173101000Y-66802000D03*
X170561000Y-66802000D03*
X168021000Y-66802000D03*
X165481000Y-66802000D03*
X162941000Y-66802000D03*
X160401000Y-66802000D03*
X157861000Y-66802000D03*
X170561000Y-64262000D03*
X168021000Y-64262000D03*
X165481000Y-64262000D03*
X162941000Y-64262000D03*
X160401000Y-64262000D03*
X157861000Y-64262000D03*
X157861000Y-69342000D03*
X157861000Y-71882000D03*
X157861000Y-74422000D03*
X157861000Y-76962000D03*
X157861000Y-82042000D03*
X155321000Y-66802000D03*
X155321000Y-69342000D03*
X155321000Y-71882000D03*
X155321000Y-74422000D03*
X155321000Y-76962000D03*
X155321000Y-79502000D03*
D16*
X115189000Y-59309000D03*
D17*
X115189000Y-61849000D03*
X115189000Y-64389000D03*
X115189000Y-56769000D03*
X115189000Y-54229000D03*
X115189000Y-51689000D03*
X112649000Y-61849000D03*
X112649000Y-64389000D03*
X112649000Y-66929000D03*
X112649000Y-59309000D03*
X112649000Y-56769000D03*
X112649000Y-54229000D03*
X115189000Y-66929000D03*
X117729000Y-66929000D03*
X120269000Y-66929000D03*
X122809000Y-66929000D03*
X125349000Y-66929000D03*
X115189000Y-69469000D03*
X117729000Y-69469000D03*
X120269000Y-69469000D03*
X122809000Y-69469000D03*
X125349000Y-69469000D03*
X127889000Y-69469000D03*
X127889000Y-66929000D03*
X127889000Y-64389000D03*
X127889000Y-61849000D03*
X127889000Y-59309000D03*
X127889000Y-56769000D03*
X127889000Y-54229000D03*
X130429000Y-66929000D03*
X130429000Y-64389000D03*
X130429000Y-61849000D03*
X130429000Y-59309000D03*
X130429000Y-56769000D03*
X130429000Y-54229000D03*
X125349000Y-54229000D03*
X122809000Y-54229000D03*
X120269000Y-54229000D03*
X117729000Y-54229000D03*
X112649000Y-54229000D03*
X127889000Y-51689000D03*
X125349000Y-51689000D03*
X122809000Y-51689000D03*
X120269000Y-51689000D03*
X117729000Y-51689000D03*
X115189000Y-51689000D03*
D18*
X169369740Y-98747580D03*
X170119040Y-92501720D03*
X164371020Y-91252040D03*
X162620960Y-92501720D03*
X161871660Y-94500700D03*
X162120580Y-96748600D03*
X163370260Y-98747580D03*
X165371780Y-99748340D03*
X167368220Y-99748340D03*
X170619420Y-96748600D03*
X170868340Y-94500700D03*
X168368980Y-91252040D03*
X148048980Y-91252040D03*
X150548340Y-94500700D03*
X150299420Y-96748600D03*
X147048220Y-99748340D03*
X145051780Y-99748340D03*
X143050260Y-98747580D03*
X141800580Y-96748600D03*
X141551660Y-94500700D03*
X142300960Y-92501720D03*
X144051020Y-91252040D03*
X149799040Y-92501720D03*
X149049740Y-98747580D03*
D19*
X111828580Y-82544920D03*
X118752620Y-79928720D03*
X122438160Y-80962500D03*
X126867920Y-90761820D03*
X111762540Y-95280480D03*
X115021360Y-97348040D03*
X122400060Y-96804480D03*
X125323600Y-94284800D03*
X125336300Y-83558380D03*
X109654340Y-85712300D03*
X118767860Y-97873820D03*
X114988340Y-80507840D03*
X109717840Y-92021660D03*
X126890780Y-86951820D03*
X93870780Y-86951820D03*
X76697840Y-92021660D03*
X81968340Y-80507840D03*
X85747860Y-97873820D03*
X76634340Y-85712300D03*
X92316300Y-83558380D03*
X92303600Y-94284800D03*
X89380060Y-96804480D03*
X82001360Y-97348040D03*
X78742540Y-95280480D03*
X93847920Y-90761820D03*
X89418160Y-80962500D03*
X85732620Y-79928720D03*
X78808580Y-82544920D03*
D13*
X98552000Y-66675000D03*
X101052000Y-66675000D03*
D20*
X96765000Y-52705000D03*
X92465000Y-52705000D03*
D21*
X97588000Y-74422000D03*
X91388000Y-74422000D03*
D22*
X168148000Y-56769000D03*
D23*
X165608000Y-56769000D03*
X163068000Y-56769000D03*
X160528000Y-56769000D03*
D24*
X89535000Y-52959000D03*
D25*
X84455000Y-52959000D03*
D12*
X84328000Y-63373000D03*
D13*
X84328000Y-65873000D03*
D26*
X158673800Y-87426800D03*
D13*
X156133800Y-87426800D03*
D26*
X138379200Y-87426800D03*
D13*
X135839200Y-87426800D03*
X82082000Y-59563000D03*
X84582000Y-59563000D03*
D12*
X102997000Y-52959000D03*
D13*
X106497000Y-52959000D03*
D27*
X105918000Y-66675000D03*
X105918000Y-59175000D03*
D28*
X89154000Y-59055000D03*
D29*
X91694000Y-59055000D03*
X94234000Y-59055000D03*
D30*
X98679000Y-59272000D03*
X98679000Y-64172000D03*
D31*
X85344000Y-71120000D03*
D32*
X85344000Y-69220000D03*
D33*
X89154000Y-69850000D03*
D34*
X91694000Y-69850000D03*
X94234000Y-69850000D03*
D35*
X94406000Y-62230000D03*
X94406000Y-63500000D03*
X94406000Y-64770000D03*
X94406000Y-66040000D03*
X88982000Y-66040000D03*
X88982000Y-64770000D03*
X88982000Y-63500000D03*
X88982000Y-62230000D03*
D25*
X106349800Y-71069200D03*
D24*
X106349800Y-76149200D03*
D25*
X101092000Y-71069200D03*
D24*
X101092000Y-76149200D03*
D36*
X136448800Y-67792600D03*
X91160600Y-66040000D03*
X148615400Y-67792602D03*
X153847800Y-55118000D03*
X106984689Y-83534447D03*
X117490358Y-71451934D03*
X118364000Y-76936600D03*
X116332000Y-71450200D03*
X150215600Y-89154000D03*
X150164796Y-90779600D03*
X162070878Y-88986498D03*
X161188398Y-89611200D03*
X160400998Y-61468000D03*
X159207200Y-61493400D03*
D37*
X100154728Y-64172000D02*
X98679000Y-64172000D01*
X101052000Y-66675000D02*
X101052000Y-65069272D01*
X101052000Y-65069272D02*
X100154728Y-64172000D01*
D38*
X134778750Y-81788000D02*
X135128000Y-81788000D01*
X133159500Y-66103500D02*
X133580532Y-66524532D01*
X133580532Y-66524532D02*
X133580532Y-80589782D01*
X133580532Y-80589782D02*
X134778750Y-81788000D01*
X85654999Y-51759001D02*
X84455000Y-52959000D01*
X87016628Y-50397372D02*
X85654999Y-51759001D01*
X125931773Y-50397372D02*
X87016628Y-50397372D01*
X126638999Y-52289001D02*
X126638999Y-51104598D01*
X126639850Y-52289852D02*
X126638999Y-52289001D01*
X126638999Y-54829001D02*
X126638999Y-53628999D01*
X126639850Y-53628148D02*
X126639850Y-52289852D01*
X126639850Y-54829852D02*
X126638999Y-54829001D01*
X126638999Y-51104598D02*
X125931773Y-50397372D01*
X126639850Y-58059850D02*
X126639850Y-57369852D01*
X126638999Y-53628999D02*
X126639850Y-53628148D01*
X126639850Y-57369852D02*
X126638999Y-57369001D01*
X127889000Y-59309000D02*
X126639850Y-58059850D01*
X126638999Y-57369001D02*
X126638999Y-56168999D01*
X126638999Y-56168999D02*
X126639850Y-56168148D01*
X126639850Y-56168148D02*
X126639850Y-54829852D01*
X132715000Y-65659000D02*
X133159500Y-66103500D01*
X127284609Y-65659000D02*
X132715000Y-65659000D01*
X126612079Y-64986470D02*
X127284609Y-65659000D01*
X127889000Y-59309000D02*
X126612079Y-60585921D01*
X126612079Y-60585921D02*
X126612079Y-64986470D01*
X133840580Y-65422420D02*
X133159500Y-66103500D01*
X151183480Y-65422420D02*
X133840580Y-65422420D01*
X151276437Y-65515377D02*
X151183480Y-65422420D01*
X161690999Y-68052001D02*
X159800999Y-68052001D01*
X162941000Y-66802000D02*
X161690999Y-68052001D01*
X159800999Y-68052001D02*
X159111001Y-67362003D01*
X159111001Y-67362003D02*
X159111001Y-66201999D01*
X159111001Y-66201999D02*
X158424379Y-65515377D01*
X158424379Y-65515377D02*
X151276437Y-65515377D01*
D39*
X97917000Y-66040000D02*
X98552000Y-66675000D01*
X94406000Y-66040000D02*
X97917000Y-66040000D01*
D40*
X102997000Y-63754000D02*
X105918000Y-66675000D01*
X97019000Y-52959000D02*
X96765000Y-52705000D01*
X102997000Y-52959000D02*
X97019000Y-52959000D01*
X102997000Y-52959000D02*
X102997000Y-56616600D01*
X102997000Y-56616600D02*
X102997000Y-63754000D01*
D41*
X102997000Y-54000400D02*
X102997000Y-56616600D01*
X101955600Y-52959000D02*
X102997000Y-54000400D01*
D37*
X136639199Y-86626801D02*
X135839200Y-87426800D01*
X156133800Y-87426800D02*
X140895202Y-87426800D01*
X140895202Y-87426800D02*
X139195201Y-85726799D01*
X139195201Y-85726799D02*
X137539201Y-85726799D01*
X137539201Y-85726799D02*
X136639199Y-86626801D01*
X134707830Y-87426800D02*
X135839200Y-87426800D01*
X122109430Y-74828400D02*
X134707830Y-87426800D01*
X111125000Y-74828400D02*
X122109430Y-74828400D01*
X106349800Y-71069200D02*
X107365800Y-71069200D01*
X107365800Y-71069200D02*
X111125000Y-74828400D01*
X101092000Y-72050002D02*
X101092000Y-71069200D01*
X97588000Y-74422000D02*
X98720002Y-74422000D01*
X98720002Y-74422000D02*
X101092000Y-72050002D01*
D41*
X89789000Y-52705000D02*
X89535000Y-52959000D01*
X89535000Y-52959000D02*
X89535000Y-53238400D01*
D39*
X94234000Y-68704488D02*
X94234000Y-69850000D01*
X94234000Y-67614800D02*
X94234000Y-68704488D01*
X88982000Y-64770000D02*
X91389200Y-64770000D01*
X91389200Y-64770000D02*
X94234000Y-67614800D01*
D42*
X93358000Y-74422000D02*
X92658000Y-74422000D01*
X94234000Y-73546000D02*
X93358000Y-74422000D01*
X94234000Y-69850000D02*
X94234000Y-73546000D01*
X92658000Y-74422000D02*
X91388000Y-74422000D01*
X150368000Y-66548000D02*
X137693400Y-66548000D01*
X136848799Y-67392601D02*
X136448800Y-67792600D01*
X137693400Y-66548000D02*
X136848799Y-67392601D01*
D39*
X88982000Y-66040000D02*
X91160600Y-66040000D01*
X98462000Y-59055000D02*
X98679000Y-58838000D01*
D38*
X135128000Y-74168000D02*
X135477250Y-74168000D01*
X135477250Y-74168000D02*
X142240002Y-74168000D01*
X148215401Y-68192601D02*
X148615400Y-67792602D01*
X142240002Y-74168000D02*
X148215401Y-68192601D01*
X154413485Y-55118000D02*
X153847800Y-55118000D01*
X166471600Y-55118000D02*
X154413485Y-55118000D01*
X168148000Y-56769000D02*
X168122600Y-56769000D01*
X168122600Y-56769000D02*
X166471600Y-55118000D01*
D42*
X92316300Y-83558380D02*
X106960756Y-83558380D01*
X106960756Y-83558380D02*
X106984689Y-83534447D01*
X125906066Y-71451934D02*
X117490358Y-71451934D01*
X127889000Y-69469000D02*
X125906066Y-71451934D01*
X118412260Y-76936600D02*
X118364000Y-76936600D01*
X122438160Y-80962500D02*
X118412260Y-76936600D01*
X124173999Y-68104001D02*
X124173999Y-69843003D01*
X125349000Y-66929000D02*
X124173999Y-68104001D01*
X117094000Y-70688200D02*
X116731999Y-71050201D01*
X123328802Y-70688200D02*
X117094000Y-70688200D01*
X116731999Y-71050201D02*
X116332000Y-71450200D01*
X124173999Y-69843003D02*
X123328802Y-70688200D01*
D37*
X147396201Y-90599261D02*
X148048980Y-91252040D01*
X138379200Y-87426800D02*
X140651659Y-89699259D01*
X140651659Y-89699259D02*
X146496199Y-89699259D01*
X146496199Y-89699259D02*
X147396201Y-90599261D01*
D42*
X150952199Y-96095821D02*
X150299420Y-96748600D01*
X151501121Y-95546899D02*
X150952199Y-96095821D01*
X151501121Y-90439521D02*
X151501121Y-95546899D01*
X150215600Y-89154000D02*
X151501121Y-90439521D01*
X147048220Y-93896178D02*
X149764797Y-91179599D01*
X149764797Y-91179599D02*
X150164796Y-90779600D01*
X147048220Y-99748340D02*
X147048220Y-93896178D01*
X170292910Y-98747580D02*
X169369740Y-98747580D01*
X171821121Y-97219369D02*
X170292910Y-98747580D01*
X159225999Y-80866999D02*
X159225999Y-82606001D01*
X157861000Y-79502000D02*
X159225999Y-80866999D01*
X159225999Y-82606001D02*
X163046788Y-86426790D01*
X165881127Y-86426790D02*
X171821121Y-92366784D01*
X163046788Y-86426790D02*
X165881127Y-86426790D01*
X171821121Y-92366784D02*
X171821121Y-97219369D01*
X162105478Y-88986498D02*
X162070878Y-88986498D01*
X164371020Y-91252040D02*
X162105478Y-88986498D01*
D39*
X162120580Y-92828230D02*
X162135315Y-92813495D01*
D42*
X162620960Y-92501720D02*
X162620960Y-91043762D01*
X161588397Y-90011199D02*
X161188398Y-89611200D01*
X162620960Y-91043762D02*
X161588397Y-90011199D01*
D37*
X162325004Y-87426800D02*
X158673800Y-87426800D01*
X168368980Y-91252040D02*
X164543740Y-87426800D01*
X164543740Y-87426800D02*
X162325004Y-87426800D01*
D39*
X85344000Y-71120000D02*
X86487000Y-71120000D01*
X87757000Y-69850000D02*
X89154000Y-69850000D01*
X86487000Y-71120000D02*
X87757000Y-69850000D01*
X90548488Y-69850000D02*
X89154000Y-69850000D01*
X91694000Y-69850000D02*
X90548488Y-69850000D01*
D42*
X144526000Y-56388000D02*
X150368000Y-56388000D01*
X143058000Y-54920000D02*
X144526000Y-56388000D01*
X132357436Y-54920000D02*
X143058000Y-54920000D01*
X130429000Y-54229000D02*
X131666436Y-54229000D01*
X131666436Y-54229000D02*
X132357436Y-54920000D01*
D39*
X134293968Y-53013968D02*
X135128000Y-53848000D01*
X129868030Y-53013968D02*
X134293968Y-53013968D01*
X129158631Y-53723367D02*
X129868030Y-53013968D01*
X130429000Y-56769000D02*
X129158631Y-55498631D01*
X129158631Y-55498631D02*
X129158631Y-53723367D01*
X134142000Y-58928000D02*
X135128000Y-58928000D01*
X130429000Y-61849000D02*
X131221000Y-61849000D01*
X131221000Y-61849000D02*
X134142000Y-58928000D01*
D42*
X148971000Y-61468000D02*
X150368000Y-61468000D01*
X142840420Y-55337420D02*
X148971000Y-61468000D01*
X133752580Y-55337420D02*
X142840420Y-55337420D01*
X131078613Y-58011387D02*
X133752580Y-55337420D01*
X127889000Y-56769000D02*
X129131387Y-58011387D01*
X129131387Y-58011387D02*
X131078613Y-58011387D01*
D39*
X130937000Y-60579000D02*
X135128000Y-56388000D01*
X127889000Y-61849000D02*
X129159000Y-60579000D01*
X129159000Y-60579000D02*
X130937000Y-60579000D01*
D42*
X149386580Y-62518580D02*
X143256000Y-56388000D01*
X143256000Y-56388000D02*
X136427820Y-56388000D01*
X166725600Y-65557400D02*
X166725600Y-63544131D01*
X166725600Y-63544131D02*
X165462269Y-62280800D01*
X136427820Y-56388000D02*
X135128000Y-56388000D01*
X165462269Y-62280800D02*
X152298400Y-62280800D01*
X152298400Y-62280800D02*
X152060620Y-62518580D01*
X165481000Y-66802000D02*
X166725600Y-65557400D01*
X152060620Y-62518580D02*
X149386580Y-62518580D01*
X151765000Y-64008000D02*
X150368000Y-64008000D01*
X152686001Y-63086999D02*
X151765000Y-64008000D01*
X158425001Y-63086999D02*
X152686001Y-63086999D01*
X159036001Y-63697999D02*
X158425001Y-63086999D01*
X160401000Y-66802000D02*
X159036001Y-65437001D01*
X159036001Y-65437001D02*
X159036001Y-63697999D01*
X163899811Y-62680811D02*
X152482589Y-62680811D01*
X152482589Y-62680811D02*
X152244809Y-62918591D01*
X152244809Y-62918591D02*
X149151591Y-62918591D01*
X149151591Y-62918591D02*
X147701000Y-61468000D01*
X136427820Y-61468000D02*
X135128000Y-61468000D01*
X147701000Y-61468000D02*
X136427820Y-61468000D01*
X165481000Y-64262000D02*
X163899811Y-62680811D01*
X160000999Y-61068001D02*
X160400998Y-61468000D01*
X157429198Y-58496200D02*
X160000999Y-61068001D01*
X155365450Y-58496200D02*
X157429198Y-58496200D01*
X150368000Y-53848000D02*
X150717250Y-53848000D01*
X150717250Y-53848000D02*
X155365450Y-58496200D01*
X156641800Y-58928000D02*
X150368000Y-58928000D01*
X159207200Y-61493400D02*
X156641800Y-58928000D01*
D37*
X81968340Y-80507840D02*
X81690639Y-80785541D01*
X81690639Y-90377439D02*
X85747860Y-94434660D01*
X81690639Y-80785541D02*
X81690639Y-90377439D01*
X85747860Y-94434660D02*
X85747860Y-97873820D01*
X101092000Y-76149200D02*
X100146001Y-77095199D01*
X85380981Y-77095199D02*
X81968340Y-80507840D01*
X100146001Y-77095199D02*
X85380981Y-77095199D01*
X114988340Y-80507840D02*
X114710639Y-80785541D01*
X114710639Y-90606039D02*
X118767860Y-94663260D01*
X114710639Y-80785541D02*
X114710639Y-90606039D01*
X118767860Y-94663260D02*
X118767860Y-97873820D01*
X114988340Y-80507840D02*
X114435184Y-80507840D01*
X114261511Y-80507840D02*
X114988340Y-80507840D01*
X106349800Y-76149200D02*
X109902871Y-76149200D01*
X109902871Y-76149200D02*
X114261511Y-80507840D01*
D43*
G36*
X84612602Y-52086862D02*
G01*
X84710633Y-52151639D01*
X85413258Y-52780303D01*
X85482987Y-52861793D01*
X85525170Y-52951032D01*
X85543878Y-53056635D01*
X85904354Y-61587899D01*
X85906915Y-61608461D01*
X85940107Y-61767648D01*
X85947553Y-61791405D01*
X85955000Y-61806173D01*
X86037519Y-61946291D01*
X86052195Y-61966402D01*
X86063988Y-61977999D01*
X86187106Y-62084227D01*
X86203846Y-62096438D01*
X88149998Y-63285753D01*
X88164451Y-63293355D01*
X88281617Y-63345661D01*
X88312834Y-63355018D01*
X88439454Y-63375784D01*
X88455705Y-63377385D01*
X88807416Y-63389308D01*
X88869198Y-63403513D01*
X88910939Y-63432701D01*
X88938695Y-63475405D01*
X88948464Y-63525632D01*
X88938596Y-63577349D01*
X88910253Y-63621995D01*
X88867457Y-63653072D01*
X88804392Y-63669240D01*
X88277366Y-63702179D01*
X88272223Y-63702606D01*
X88231817Y-63706785D01*
X88226697Y-63707420D01*
X85302442Y-64130504D01*
X85239960Y-64135000D01*
X83723301Y-64135000D01*
X83699884Y-64137178D01*
X83518660Y-64171176D01*
X83496046Y-64177633D01*
X79330246Y-65797666D01*
X79313076Y-65805873D01*
X79183466Y-65880234D01*
X79163190Y-65894681D01*
X79153737Y-65903830D01*
X79051889Y-66013170D01*
X79036787Y-66032963D01*
X79030460Y-66044495D01*
X78965469Y-66179048D01*
X78956891Y-66202420D01*
X78954254Y-66215308D01*
X78931926Y-66363057D01*
X78930500Y-66382034D01*
X78930500Y-67055672D01*
X78916731Y-67160257D01*
X78879577Y-67249955D01*
X78820476Y-67326976D01*
X78743455Y-67386077D01*
X78653757Y-67423231D01*
X78549172Y-67437000D01*
X77787828Y-67437000D01*
X77683243Y-67423231D01*
X77593545Y-67386077D01*
X77516524Y-67326976D01*
X77457423Y-67249955D01*
X77420269Y-67160257D01*
X77406500Y-67055672D01*
X77406500Y-66334202D01*
X77405379Y-66317366D01*
X77387804Y-66185965D01*
X77378955Y-66153475D01*
X77327465Y-66031312D01*
X77310389Y-66002291D01*
X77228605Y-65897953D01*
X77204501Y-65874438D01*
X77098171Y-65795261D01*
X77083998Y-65786105D01*
X74176748Y-64170966D01*
X74090823Y-64106983D01*
X74029998Y-64029383D01*
X73991702Y-63938524D01*
X73977500Y-63832343D01*
X73977500Y-61087328D01*
X73991269Y-60982743D01*
X74028423Y-60893045D01*
X74087524Y-60816024D01*
X74164545Y-60756923D01*
X74254243Y-60719769D01*
X74358828Y-60706000D01*
X77375287Y-60706000D01*
X77423501Y-60708670D01*
X80793952Y-61083165D01*
X80800954Y-61083748D01*
X80856170Y-61086806D01*
X80863193Y-61087000D01*
X83224274Y-61087000D01*
X83241505Y-61085826D01*
X83375932Y-61067417D01*
X83409127Y-61058151D01*
X83533655Y-61004278D01*
X83563136Y-60986429D01*
X83668595Y-60901060D01*
X83692192Y-60875942D01*
X83770816Y-60765363D01*
X83786791Y-60734827D01*
X83832791Y-60607181D01*
X83839967Y-60573474D01*
X83849956Y-60438161D01*
X83850054Y-60420889D01*
X83390980Y-53075712D01*
X83401642Y-52955046D01*
X83443936Y-52851932D01*
X83521081Y-52758526D01*
X84199367Y-52151639D01*
X84297398Y-52086862D01*
X84400942Y-52055742D01*
X84509058Y-52055742D01*
X84612602Y-52086862D01*
X84612602Y-52086862D01*
G37*
X84612602Y-52086862D02*
X84710633Y-52151639D01*
X85413258Y-52780303D01*
X85482987Y-52861793D01*
X85525170Y-52951032D01*
X85543878Y-53056635D01*
X85904354Y-61587899D01*
X85906915Y-61608461D01*
X85940107Y-61767648D01*
X85947553Y-61791405D01*
X85955000Y-61806173D01*
X86037519Y-61946291D01*
X86052195Y-61966402D01*
X86063988Y-61977999D01*
X86187106Y-62084227D01*
X86203846Y-62096438D01*
X88149998Y-63285753D01*
X88164451Y-63293355D01*
X88281617Y-63345661D01*
X88312834Y-63355018D01*
X88439454Y-63375784D01*
X88455705Y-63377385D01*
X88807416Y-63389308D01*
X88869198Y-63403513D01*
X88910939Y-63432701D01*
X88938695Y-63475405D01*
X88948464Y-63525632D01*
X88938596Y-63577349D01*
X88910253Y-63621995D01*
X88867457Y-63653072D01*
X88804392Y-63669240D01*
X88277366Y-63702179D01*
X88272223Y-63702606D01*
X88231817Y-63706785D01*
X88226697Y-63707420D01*
X85302442Y-64130504D01*
X85239960Y-64135000D01*
X83723301Y-64135000D01*
X83699884Y-64137178D01*
X83518660Y-64171176D01*
X83496046Y-64177633D01*
X79330246Y-65797666D01*
X79313076Y-65805873D01*
X79183466Y-65880234D01*
X79163190Y-65894681D01*
X79153737Y-65903830D01*
X79051889Y-66013170D01*
X79036787Y-66032963D01*
X79030460Y-66044495D01*
X78965469Y-66179048D01*
X78956891Y-66202420D01*
X78954254Y-66215308D01*
X78931926Y-66363057D01*
X78930500Y-66382034D01*
X78930500Y-67055672D01*
X78916731Y-67160257D01*
X78879577Y-67249955D01*
X78820476Y-67326976D01*
X78743455Y-67386077D01*
X78653757Y-67423231D01*
X78549172Y-67437000D01*
X77787828Y-67437000D01*
X77683243Y-67423231D01*
X77593545Y-67386077D01*
X77516524Y-67326976D01*
X77457423Y-67249955D01*
X77420269Y-67160257D01*
X77406500Y-67055672D01*
X77406500Y-66334202D01*
X77405379Y-66317366D01*
X77387804Y-66185965D01*
X77378955Y-66153475D01*
X77327465Y-66031312D01*
X77310389Y-66002291D01*
X77228605Y-65897953D01*
X77204501Y-65874438D01*
X77098171Y-65795261D01*
X77083998Y-65786105D01*
X74176748Y-64170966D01*
X74090823Y-64106983D01*
X74029998Y-64029383D01*
X73991702Y-63938524D01*
X73977500Y-63832343D01*
X73977500Y-61087328D01*
X73991269Y-60982743D01*
X74028423Y-60893045D01*
X74087524Y-60816024D01*
X74164545Y-60756923D01*
X74254243Y-60719769D01*
X74358828Y-60706000D01*
X77375287Y-60706000D01*
X77423501Y-60708670D01*
X80793952Y-61083165D01*
X80800954Y-61083748D01*
X80856170Y-61086806D01*
X80863193Y-61087000D01*
X83224274Y-61087000D01*
X83241505Y-61085826D01*
X83375932Y-61067417D01*
X83409127Y-61058151D01*
X83533655Y-61004278D01*
X83563136Y-60986429D01*
X83668595Y-60901060D01*
X83692192Y-60875942D01*
X83770816Y-60765363D01*
X83786791Y-60734827D01*
X83832791Y-60607181D01*
X83839967Y-60573474D01*
X83849956Y-60438161D01*
X83850054Y-60420889D01*
X83390980Y-53075712D01*
X83401642Y-52955046D01*
X83443936Y-52851932D01*
X83521081Y-52758526D01*
X84199367Y-52151639D01*
X84297398Y-52086862D01*
X84400942Y-52055742D01*
X84509058Y-52055742D01*
X84612602Y-52086862D01*
G36*
X89639257Y-58306769D02*
G01*
X89728955Y-58343923D01*
X89805976Y-58403024D01*
X89865077Y-58480045D01*
X89902231Y-58569743D01*
X89916000Y-58674328D01*
X89916000Y-59900635D01*
X89910860Y-59967427D01*
X89618584Y-61855040D01*
X89617462Y-61864728D01*
X89611574Y-61941235D01*
X89611200Y-61950980D01*
X89611200Y-62211140D01*
X89594883Y-62293170D01*
X89555504Y-62352104D01*
X89496570Y-62391483D01*
X89414540Y-62407800D01*
X88563260Y-62407800D01*
X88481230Y-62391483D01*
X88422296Y-62352104D01*
X88382917Y-62293170D01*
X88366600Y-62211140D01*
X88366600Y-61916092D01*
X88366636Y-61910490D01*
X88391947Y-59948864D01*
X88391955Y-59948052D01*
X88391997Y-59941601D01*
X88392000Y-59940774D01*
X88392000Y-58674328D01*
X88405769Y-58569743D01*
X88442923Y-58480045D01*
X88502024Y-58403024D01*
X88579045Y-58343923D01*
X88668743Y-58306769D01*
X88773328Y-58293000D01*
X89534672Y-58293000D01*
X89639257Y-58306769D01*
X89639257Y-58306769D01*
G37*
X89639257Y-58306769D02*
X89728955Y-58343923D01*
X89805976Y-58403024D01*
X89865077Y-58480045D01*
X89902231Y-58569743D01*
X89916000Y-58674328D01*
X89916000Y-59900635D01*
X89910860Y-59967427D01*
X89618584Y-61855040D01*
X89617462Y-61864728D01*
X89611574Y-61941235D01*
X89611200Y-61950980D01*
X89611200Y-62211140D01*
X89594883Y-62293170D01*
X89555504Y-62352104D01*
X89496570Y-62391483D01*
X89414540Y-62407800D01*
X88563260Y-62407800D01*
X88481230Y-62391483D01*
X88422296Y-62352104D01*
X88382917Y-62293170D01*
X88366600Y-62211140D01*
X88366600Y-61916092D01*
X88366636Y-61910490D01*
X88391947Y-59948864D01*
X88391955Y-59948052D01*
X88391997Y-59941601D01*
X88392000Y-59940774D01*
X88392000Y-58674328D01*
X88405769Y-58569743D01*
X88442923Y-58480045D01*
X88502024Y-58403024D01*
X88579045Y-58343923D01*
X88668743Y-58306769D01*
X88773328Y-58293000D01*
X89534672Y-58293000D01*
X89639257Y-58306769D01*
G36*
X99428856Y-58852821D02*
G01*
X99542895Y-58882374D01*
X99635511Y-58938686D01*
X99707942Y-59019330D01*
X99754020Y-59117440D01*
X99771200Y-59233985D01*
X99771200Y-59411346D01*
X99754914Y-59524887D01*
X99711161Y-59620946D01*
X99642167Y-59700835D01*
X99545820Y-59763070D01*
X95372255Y-61682464D01*
X95356410Y-61691167D01*
X95242947Y-61764458D01*
X95215738Y-61788130D01*
X95127451Y-61890360D01*
X95107993Y-61920725D01*
X95052003Y-62043650D01*
X95041866Y-62078261D01*
X95023175Y-62208567D01*
X95005566Y-62297090D01*
X94967564Y-62353964D01*
X94910690Y-62391966D01*
X94831089Y-62407800D01*
X93967111Y-62407800D01*
X93887510Y-62391966D01*
X93830636Y-62353964D01*
X93792634Y-62297090D01*
X93776800Y-62217489D01*
X93776800Y-61951674D01*
X93776622Y-61944958D01*
X93773826Y-61892158D01*
X93773294Y-61885463D01*
X93497507Y-59288468D01*
X93502614Y-59169043D01*
X93539269Y-59065354D01*
X93610354Y-58969252D01*
X94147938Y-58431668D01*
X94244202Y-58360498D01*
X94348081Y-58323858D01*
X94467695Y-58318884D01*
X99428856Y-58852821D01*
X99428856Y-58852821D01*
G37*
X99428856Y-58852821D02*
X99542895Y-58882374D01*
X99635511Y-58938686D01*
X99707942Y-59019330D01*
X99754020Y-59117440D01*
X99771200Y-59233985D01*
X99771200Y-59411346D01*
X99754914Y-59524887D01*
X99711161Y-59620946D01*
X99642167Y-59700835D01*
X99545820Y-59763070D01*
X95372255Y-61682464D01*
X95356410Y-61691167D01*
X95242947Y-61764458D01*
X95215738Y-61788130D01*
X95127451Y-61890360D01*
X95107993Y-61920725D01*
X95052003Y-62043650D01*
X95041866Y-62078261D01*
X95023175Y-62208567D01*
X95005566Y-62297090D01*
X94967564Y-62353964D01*
X94910690Y-62391966D01*
X94831089Y-62407800D01*
X93967111Y-62407800D01*
X93887510Y-62391966D01*
X93830636Y-62353964D01*
X93792634Y-62297090D01*
X93776800Y-62217489D01*
X93776800Y-61951674D01*
X93776622Y-61944958D01*
X93773826Y-61892158D01*
X93773294Y-61885463D01*
X93497507Y-59288468D01*
X93502614Y-59169043D01*
X93539269Y-59065354D01*
X93610354Y-58969252D01*
X94147938Y-58431668D01*
X94244202Y-58360498D01*
X94348081Y-58323858D01*
X94467695Y-58318884D01*
X99428856Y-58852821D01*
G36*
X93296857Y-51702769D02*
G01*
X93386555Y-51739923D01*
X93463576Y-51799024D01*
X93522677Y-51876045D01*
X93559831Y-51965743D01*
X93573600Y-52070328D01*
X93573600Y-53771973D01*
X93557987Y-53887632D01*
X92478443Y-57813244D01*
X92475039Y-57829929D01*
X92457142Y-57962507D01*
X92456000Y-57979497D01*
X92456000Y-58860558D01*
X92441723Y-58967016D01*
X92403232Y-59058069D01*
X92336818Y-59142491D01*
X91966091Y-59502626D01*
X91863872Y-59574874D01*
X91754003Y-59609345D01*
X91638852Y-59608510D01*
X91529497Y-59572453D01*
X91428335Y-59498729D01*
X91047134Y-59117528D01*
X90982922Y-59033845D01*
X90945769Y-58944150D01*
X90932000Y-58839565D01*
X90932000Y-58035849D01*
X90931065Y-58020468D01*
X90916398Y-57900252D01*
X90909002Y-57870393D01*
X90865861Y-57757230D01*
X90859509Y-57743192D01*
X88595308Y-53453126D01*
X88552245Y-53318483D01*
X88558265Y-53177252D01*
X88715513Y-52469634D01*
X88759009Y-52357047D01*
X88827851Y-52269912D01*
X88927316Y-52201549D01*
X89505758Y-51920592D01*
X89643797Y-51879942D01*
X91192904Y-51692171D01*
X91245422Y-51689000D01*
X93192272Y-51689000D01*
X93296857Y-51702769D01*
X93296857Y-51702769D01*
G37*
X93296857Y-51702769D02*
X93386555Y-51739923D01*
X93463576Y-51799024D01*
X93522677Y-51876045D01*
X93559831Y-51965743D01*
X93573600Y-52070328D01*
X93573600Y-53771973D01*
X93557987Y-53887632D01*
X92478443Y-57813244D01*
X92475039Y-57829929D01*
X92457142Y-57962507D01*
X92456000Y-57979497D01*
X92456000Y-58860558D01*
X92441723Y-58967016D01*
X92403232Y-59058069D01*
X92336818Y-59142491D01*
X91966091Y-59502626D01*
X91863872Y-59574874D01*
X91754003Y-59609345D01*
X91638852Y-59608510D01*
X91529497Y-59572453D01*
X91428335Y-59498729D01*
X91047134Y-59117528D01*
X90982922Y-59033845D01*
X90945769Y-58944150D01*
X90932000Y-58839565D01*
X90932000Y-58035849D01*
X90931065Y-58020468D01*
X90916398Y-57900252D01*
X90909002Y-57870393D01*
X90865861Y-57757230D01*
X90859509Y-57743192D01*
X88595308Y-53453126D01*
X88552245Y-53318483D01*
X88558265Y-53177252D01*
X88715513Y-52469634D01*
X88759009Y-52357047D01*
X88827851Y-52269912D01*
X88927316Y-52201549D01*
X89505758Y-51920592D01*
X89643797Y-51879942D01*
X91192904Y-51692171D01*
X91245422Y-51689000D01*
X93192272Y-51689000D01*
X93296857Y-51702769D01*
G36*
X95205111Y-63331609D02*
G01*
X97382490Y-63791278D01*
X97395535Y-63793330D01*
X97498814Y-63804113D01*
X97512002Y-63804800D01*
X98465808Y-63804800D01*
X98585196Y-63823709D01*
X98683885Y-63873994D01*
X98762206Y-63952315D01*
X98812491Y-64051004D01*
X98829817Y-64160400D01*
X98812491Y-64269796D01*
X98762206Y-64368485D01*
X98683885Y-64446806D01*
X98585196Y-64497091D01*
X98465808Y-64516000D01*
X97506103Y-64516000D01*
X97494392Y-64516541D01*
X97402574Y-64525044D01*
X97390963Y-64526663D01*
X95176365Y-64940379D01*
X95096228Y-64947800D01*
X94539128Y-64947800D01*
X94434543Y-64934031D01*
X94344845Y-64896877D01*
X94267824Y-64837776D01*
X94208723Y-64760755D01*
X94171569Y-64671057D01*
X94157800Y-64566472D01*
X94157800Y-63703528D01*
X94171569Y-63598943D01*
X94208723Y-63509245D01*
X94267824Y-63432224D01*
X94344845Y-63373123D01*
X94434543Y-63335969D01*
X94539128Y-63322200D01*
X95114990Y-63322200D01*
X95205111Y-63331609D01*
X95205111Y-63331609D01*
G37*
X95205111Y-63331609D02*
X97382490Y-63791278D01*
X97395535Y-63793330D01*
X97498814Y-63804113D01*
X97512002Y-63804800D01*
X98465808Y-63804800D01*
X98585196Y-63823709D01*
X98683885Y-63873994D01*
X98762206Y-63952315D01*
X98812491Y-64051004D01*
X98829817Y-64160400D01*
X98812491Y-64269796D01*
X98762206Y-64368485D01*
X98683885Y-64446806D01*
X98585196Y-64497091D01*
X98465808Y-64516000D01*
X97506103Y-64516000D01*
X97494392Y-64516541D01*
X97402574Y-64525044D01*
X97390963Y-64526663D01*
X95176365Y-64940379D01*
X95096228Y-64947800D01*
X94539128Y-64947800D01*
X94434543Y-64934031D01*
X94344845Y-64896877D01*
X94267824Y-64837776D01*
X94208723Y-64760755D01*
X94171569Y-64671057D01*
X94157800Y-64566472D01*
X94157800Y-63703528D01*
X94171569Y-63598943D01*
X94208723Y-63509245D01*
X94267824Y-63432224D01*
X94344845Y-63373123D01*
X94434543Y-63335969D01*
X94539128Y-63322200D01*
X95114990Y-63322200D01*
X95205111Y-63331609D01*
G36*
X134368685Y-65496141D02*
G01*
X133909406Y-65836348D01*
X133890949Y-65853057D01*
X133876107Y-65873045D01*
X133867386Y-65890483D01*
X133647720Y-66429664D01*
X133131492Y-66072276D01*
X132745223Y-65612432D01*
X133832562Y-65382418D01*
X134368685Y-65496141D01*
X134368685Y-65496141D01*
G37*
X134368685Y-65496141D02*
X133909406Y-65836348D01*
X133890949Y-65853057D01*
X133876107Y-65873045D01*
X133867386Y-65890483D01*
X133647720Y-66429664D01*
X133131492Y-66072276D01*
X132745223Y-65612432D01*
X133832562Y-65382418D01*
X134368685Y-65496141D01*
G36*
X105749275Y-65364082D02*
G01*
X105847284Y-65398926D01*
X105939121Y-65464811D01*
X106654726Y-66148610D01*
X106726956Y-66241262D01*
X106769466Y-66350778D01*
X107840787Y-71046351D01*
X107850633Y-71151199D01*
X107834454Y-71246761D01*
X107794129Y-71334901D01*
X107732403Y-71409626D01*
X107646637Y-71470727D01*
X106483279Y-72088762D01*
X106391373Y-72124012D01*
X106293667Y-72136000D01*
X101152161Y-72136000D01*
X101035935Y-72118916D01*
X100938047Y-72073093D01*
X100857479Y-72001036D01*
X100796155Y-71900838D01*
X100285233Y-70703366D01*
X100255900Y-70594579D01*
X100257608Y-70490905D01*
X100287880Y-70391738D01*
X100344365Y-70304789D01*
X100429450Y-70230935D01*
X104534782Y-67570848D01*
X104549785Y-67559462D01*
X104659308Y-67462746D01*
X104676265Y-67444516D01*
X104683479Y-67433990D01*
X104759919Y-67309465D01*
X104770801Y-67287073D01*
X104774620Y-67274897D01*
X104811289Y-67133458D01*
X104815144Y-67108862D01*
X104815234Y-67096100D01*
X104808922Y-66950122D01*
X104805414Y-66925474D01*
X104801767Y-66913245D01*
X104753028Y-66775499D01*
X104742463Y-66752956D01*
X104735398Y-66742328D01*
X104648496Y-66624866D01*
X104636203Y-66610597D01*
X104619530Y-66593924D01*
X104550579Y-66501790D01*
X104513614Y-66402558D01*
X104506131Y-66296925D01*
X104528740Y-66193471D01*
X104579604Y-66100593D01*
X104661100Y-66019342D01*
X105444784Y-65434689D01*
X105543943Y-65380442D01*
X105645456Y-65357755D01*
X105749275Y-65364082D01*
X105749275Y-65364082D01*
G37*
X105749275Y-65364082D02*
X105847284Y-65398926D01*
X105939121Y-65464811D01*
X106654726Y-66148610D01*
X106726956Y-66241262D01*
X106769466Y-66350778D01*
X107840787Y-71046351D01*
X107850633Y-71151199D01*
X107834454Y-71246761D01*
X107794129Y-71334901D01*
X107732403Y-71409626D01*
X107646637Y-71470727D01*
X106483279Y-72088762D01*
X106391373Y-72124012D01*
X106293667Y-72136000D01*
X101152161Y-72136000D01*
X101035935Y-72118916D01*
X100938047Y-72073093D01*
X100857479Y-72001036D01*
X100796155Y-71900838D01*
X100285233Y-70703366D01*
X100255900Y-70594579D01*
X100257608Y-70490905D01*
X100287880Y-70391738D01*
X100344365Y-70304789D01*
X100429450Y-70230935D01*
X104534782Y-67570848D01*
X104549785Y-67559462D01*
X104659308Y-67462746D01*
X104676265Y-67444516D01*
X104683479Y-67433990D01*
X104759919Y-67309465D01*
X104770801Y-67287073D01*
X104774620Y-67274897D01*
X104811289Y-67133458D01*
X104815144Y-67108862D01*
X104815234Y-67096100D01*
X104808922Y-66950122D01*
X104805414Y-66925474D01*
X104801767Y-66913245D01*
X104753028Y-66775499D01*
X104742463Y-66752956D01*
X104735398Y-66742328D01*
X104648496Y-66624866D01*
X104636203Y-66610597D01*
X104619530Y-66593924D01*
X104550579Y-66501790D01*
X104513614Y-66402558D01*
X104506131Y-66296925D01*
X104528740Y-66193471D01*
X104579604Y-66100593D01*
X104661100Y-66019342D01*
X105444784Y-65434689D01*
X105543943Y-65380442D01*
X105645456Y-65357755D01*
X105749275Y-65364082D01*
M02*
