G04 #@! TF.GenerationSoftware,KiCad,Pcbnew,(5.1.0)-1*
G04 #@! TF.CreationDate,2019-05-08T22:47:31-04:00*
G04 #@! TF.ProjectId,NixieClock,4e697869-6543-46c6-9f63-6b2e6b696361,rev?*
G04 #@! TF.SameCoordinates,Original*
G04 #@! TF.FileFunction,Soldermask,Top*
G04 #@! TF.FilePolarity,Negative*
%FSLAX46Y46*%
G04 Gerber Fmt 4.6, Leading zero omitted, Abs format (unit mm)*
G04 Created by KiCad (PCBNEW (5.1.0)-1) date 2019-05-08 22:47:31*
%MOMM*%
%LPD*%
G04 APERTURE LIST*
%ADD10C,0.350000*%
%ADD11C,0.200000*%
%ADD12C,0.025400*%
%ADD13C,2.540000*%
%ADD14C,0.100000*%
G04 APERTURE END LIST*
D10*
X134351714Y-51401571D02*
X134637428Y-51487285D01*
X135113619Y-51487285D01*
X135304095Y-51401571D01*
X135399333Y-51315857D01*
X135494571Y-51144428D01*
X135494571Y-50973000D01*
X135399333Y-50801571D01*
X135304095Y-50715857D01*
X135113619Y-50630142D01*
X134732666Y-50544428D01*
X134542190Y-50458714D01*
X134446952Y-50373000D01*
X134351714Y-50201571D01*
X134351714Y-50030142D01*
X134446952Y-49858714D01*
X134542190Y-49773000D01*
X134732666Y-49687285D01*
X135208857Y-49687285D01*
X135494571Y-49773000D01*
X136351714Y-50287285D02*
X136351714Y-52087285D01*
X136351714Y-50373000D02*
X136542190Y-50287285D01*
X136923142Y-50287285D01*
X137113619Y-50373000D01*
X137208857Y-50458714D01*
X137304095Y-50630142D01*
X137304095Y-51144428D01*
X137208857Y-51315857D01*
X137113619Y-51401571D01*
X136923142Y-51487285D01*
X136542190Y-51487285D01*
X136351714Y-51401571D01*
X138923142Y-51401571D02*
X138732666Y-51487285D01*
X138351714Y-51487285D01*
X138161238Y-51401571D01*
X138066000Y-51230142D01*
X138066000Y-50544428D01*
X138161238Y-50373000D01*
X138351714Y-50287285D01*
X138732666Y-50287285D01*
X138923142Y-50373000D01*
X139018380Y-50544428D01*
X139018380Y-50715857D01*
X138066000Y-50887285D01*
X139875523Y-50287285D02*
X139875523Y-51487285D01*
X139875523Y-50458714D02*
X139970761Y-50373000D01*
X140161238Y-50287285D01*
X140446952Y-50287285D01*
X140637428Y-50373000D01*
X140732666Y-50544428D01*
X140732666Y-51487285D01*
X142542190Y-51401571D02*
X142351714Y-51487285D01*
X141970761Y-51487285D01*
X141780285Y-51401571D01*
X141685047Y-51315857D01*
X141589809Y-51144428D01*
X141589809Y-50630142D01*
X141685047Y-50458714D01*
X141780285Y-50373000D01*
X141970761Y-50287285D01*
X142351714Y-50287285D01*
X142542190Y-50373000D01*
X144161238Y-51401571D02*
X143970761Y-51487285D01*
X143589809Y-51487285D01*
X143399333Y-51401571D01*
X143304095Y-51230142D01*
X143304095Y-50544428D01*
X143399333Y-50373000D01*
X143589809Y-50287285D01*
X143970761Y-50287285D01*
X144161238Y-50373000D01*
X144256476Y-50544428D01*
X144256476Y-50715857D01*
X143304095Y-50887285D01*
X145113619Y-51487285D02*
X145113619Y-50287285D01*
X145113619Y-50630142D02*
X145208857Y-50458714D01*
X145304095Y-50373000D01*
X145494571Y-50287285D01*
X145685047Y-50287285D01*
X147875523Y-51487285D02*
X147875523Y-49687285D01*
X149018380Y-51487285D02*
X148161238Y-50458714D01*
X149018380Y-49687285D02*
X147875523Y-50715857D01*
X150732666Y-50287285D02*
X150732666Y-51487285D01*
X149875523Y-50287285D02*
X149875523Y-51230142D01*
X149970761Y-51401571D01*
X150161238Y-51487285D01*
X150446952Y-51487285D01*
X150637428Y-51401571D01*
X150732666Y-51315857D01*
X151970761Y-51487285D02*
X151780285Y-51401571D01*
X151685047Y-51230142D01*
X151685047Y-49687285D01*
X152732666Y-51487285D02*
X152732666Y-49687285D01*
X152732666Y-50373000D02*
X152923142Y-50287285D01*
X153304095Y-50287285D01*
X153494571Y-50373000D01*
X153589809Y-50458714D01*
X153685047Y-50630142D01*
X153685047Y-51144428D01*
X153589809Y-51315857D01*
X153494571Y-51401571D01*
X153304095Y-51487285D01*
X152923142Y-51487285D01*
X152732666Y-51401571D01*
X155399333Y-51487285D02*
X155399333Y-50544428D01*
X155304095Y-50373000D01*
X155113619Y-50287285D01*
X154732666Y-50287285D01*
X154542190Y-50373000D01*
X155399333Y-51401571D02*
X155208857Y-51487285D01*
X154732666Y-51487285D01*
X154542190Y-51401571D01*
X154446952Y-51230142D01*
X154446952Y-51058714D01*
X154542190Y-50887285D01*
X154732666Y-50801571D01*
X155208857Y-50801571D01*
X155399333Y-50715857D01*
X157208857Y-51401571D02*
X157018380Y-51487285D01*
X156637428Y-51487285D01*
X156446952Y-51401571D01*
X156351714Y-51315857D01*
X156256476Y-51144428D01*
X156256476Y-50630142D01*
X156351714Y-50458714D01*
X156446952Y-50373000D01*
X156637428Y-50287285D01*
X157018380Y-50287285D01*
X157208857Y-50373000D01*
X158066000Y-51487285D02*
X158066000Y-49687285D01*
X158256476Y-50801571D02*
X158827904Y-51487285D01*
X158827904Y-50287285D02*
X158066000Y-50973000D01*
X159685047Y-51487285D02*
X159685047Y-50287285D01*
X159685047Y-49687285D02*
X159589809Y-49773000D01*
X159685047Y-49858714D01*
X159780285Y-49773000D01*
X159685047Y-49687285D01*
X159685047Y-49858714D01*
D11*
X157952928Y-53955071D02*
X157952928Y-52455071D01*
X158452928Y-53526500D01*
X158952928Y-52455071D01*
X158952928Y-53955071D01*
X160310071Y-53955071D02*
X160310071Y-53169357D01*
X160238642Y-53026500D01*
X160095785Y-52955071D01*
X159810071Y-52955071D01*
X159667214Y-53026500D01*
X160310071Y-53883642D02*
X160167214Y-53955071D01*
X159810071Y-53955071D01*
X159667214Y-53883642D01*
X159595785Y-53740785D01*
X159595785Y-53597928D01*
X159667214Y-53455071D01*
X159810071Y-53383642D01*
X160167214Y-53383642D01*
X160310071Y-53312214D01*
X160881500Y-52955071D02*
X161238642Y-53955071D01*
X161595785Y-52955071D02*
X161238642Y-53955071D01*
X161095785Y-54312214D01*
X161024357Y-54383642D01*
X160881500Y-54455071D01*
X163238642Y-52597928D02*
X163310071Y-52526500D01*
X163452928Y-52455071D01*
X163810071Y-52455071D01*
X163952928Y-52526500D01*
X164024357Y-52597928D01*
X164095785Y-52740785D01*
X164095785Y-52883642D01*
X164024357Y-53097928D01*
X163167214Y-53955071D01*
X164095785Y-53955071D01*
X165024357Y-52455071D02*
X165167214Y-52455071D01*
X165310071Y-52526500D01*
X165381500Y-52597928D01*
X165452928Y-52740785D01*
X165524357Y-53026500D01*
X165524357Y-53383642D01*
X165452928Y-53669357D01*
X165381500Y-53812214D01*
X165310071Y-53883642D01*
X165167214Y-53955071D01*
X165024357Y-53955071D01*
X164881500Y-53883642D01*
X164810071Y-53812214D01*
X164738642Y-53669357D01*
X164667214Y-53383642D01*
X164667214Y-53026500D01*
X164738642Y-52740785D01*
X164810071Y-52597928D01*
X164881500Y-52526500D01*
X165024357Y-52455071D01*
X166952928Y-53955071D02*
X166095785Y-53955071D01*
X166524357Y-53955071D02*
X166524357Y-52455071D01*
X166381500Y-52669357D01*
X166238642Y-52812214D01*
X166095785Y-52883642D01*
X167667214Y-53955071D02*
X167952928Y-53955071D01*
X168095785Y-53883642D01*
X168167214Y-53812214D01*
X168310071Y-53597928D01*
X168381500Y-53312214D01*
X168381500Y-52740785D01*
X168310071Y-52597928D01*
X168238642Y-52526500D01*
X168095785Y-52455071D01*
X167810071Y-52455071D01*
X167667214Y-52526500D01*
X167595785Y-52597928D01*
X167524357Y-52740785D01*
X167524357Y-53097928D01*
X167595785Y-53240785D01*
X167667214Y-53312214D01*
X167810071Y-53383642D01*
X168095785Y-53383642D01*
X168238642Y-53312214D01*
X168310071Y-53240785D01*
X168381500Y-53097928D01*
D12*
X120650000Y-88900000D02*
G75*
G03X120650000Y-88900000I-2540000J0D01*
G01*
D13*
X119380000Y-88900000D02*
G75*
G03X119380000Y-88900000I-1270000J0D01*
G01*
X86360000Y-88900000D02*
G75*
G03X86360000Y-88900000I-1270000J0D01*
G01*
D12*
X87630000Y-88900000D02*
G75*
G03X87630000Y-88900000I-2540000J0D01*
G01*
D14*
G36*
X145189080Y-99058083D02*
G01*
X145257065Y-99071606D01*
X145321105Y-99098132D01*
X145385146Y-99124659D01*
X145500411Y-99201676D01*
X145598444Y-99299709D01*
X145675461Y-99414974D01*
X145728514Y-99543056D01*
X145755560Y-99679023D01*
X145755560Y-99817657D01*
X145728514Y-99953624D01*
X145675461Y-100081706D01*
X145598444Y-100196971D01*
X145500411Y-100295004D01*
X145385146Y-100372021D01*
X145321105Y-100398548D01*
X145257065Y-100425074D01*
X145189080Y-100438597D01*
X145121097Y-100452120D01*
X144982463Y-100452120D01*
X144846495Y-100425074D01*
X144782455Y-100398547D01*
X144718414Y-100372021D01*
X144603149Y-100295004D01*
X144505116Y-100196971D01*
X144428099Y-100081706D01*
X144375046Y-99953624D01*
X144348000Y-99817657D01*
X144348000Y-99679023D01*
X144375046Y-99543056D01*
X144428099Y-99414974D01*
X144505116Y-99299709D01*
X144603149Y-99201676D01*
X144718414Y-99124659D01*
X144782455Y-99098133D01*
X144846495Y-99071606D01*
X144914480Y-99058083D01*
X144982463Y-99044560D01*
X145121097Y-99044560D01*
X145189080Y-99058083D01*
X145189080Y-99058083D01*
G37*
G36*
X165509080Y-99058083D02*
G01*
X165577065Y-99071606D01*
X165641105Y-99098132D01*
X165705146Y-99124659D01*
X165820411Y-99201676D01*
X165918444Y-99299709D01*
X165995461Y-99414974D01*
X166048514Y-99543056D01*
X166075560Y-99679023D01*
X166075560Y-99817657D01*
X166048514Y-99953624D01*
X165995461Y-100081706D01*
X165918444Y-100196971D01*
X165820411Y-100295004D01*
X165705146Y-100372021D01*
X165641105Y-100398548D01*
X165577065Y-100425074D01*
X165509080Y-100438597D01*
X165441097Y-100452120D01*
X165302463Y-100452120D01*
X165166495Y-100425074D01*
X165102455Y-100398547D01*
X165038414Y-100372021D01*
X164923149Y-100295004D01*
X164825116Y-100196971D01*
X164748099Y-100081706D01*
X164695046Y-99953624D01*
X164668000Y-99817657D01*
X164668000Y-99679023D01*
X164695046Y-99543056D01*
X164748099Y-99414974D01*
X164825116Y-99299709D01*
X164923149Y-99201676D01*
X165038414Y-99124659D01*
X165102455Y-99098133D01*
X165166495Y-99071606D01*
X165234480Y-99058083D01*
X165302463Y-99044560D01*
X165441097Y-99044560D01*
X165509080Y-99058083D01*
X165509080Y-99058083D01*
G37*
G36*
X167505520Y-99058083D02*
G01*
X167573505Y-99071606D01*
X167637545Y-99098132D01*
X167701586Y-99124659D01*
X167816851Y-99201676D01*
X167914884Y-99299709D01*
X167991901Y-99414974D01*
X168044954Y-99543056D01*
X168072000Y-99679023D01*
X168072000Y-99817657D01*
X168044954Y-99953624D01*
X167991901Y-100081706D01*
X167914884Y-100196971D01*
X167816851Y-100295004D01*
X167701586Y-100372021D01*
X167637545Y-100398548D01*
X167573505Y-100425074D01*
X167505520Y-100438597D01*
X167437537Y-100452120D01*
X167298903Y-100452120D01*
X167162935Y-100425074D01*
X167098895Y-100398547D01*
X167034854Y-100372021D01*
X166919589Y-100295004D01*
X166821556Y-100196971D01*
X166744539Y-100081706D01*
X166691486Y-99953624D01*
X166664440Y-99817657D01*
X166664440Y-99679023D01*
X166691486Y-99543056D01*
X166744539Y-99414974D01*
X166821556Y-99299709D01*
X166919589Y-99201676D01*
X167034854Y-99124659D01*
X167098895Y-99098133D01*
X167162935Y-99071606D01*
X167230920Y-99058083D01*
X167298903Y-99044560D01*
X167437537Y-99044560D01*
X167505520Y-99058083D01*
X167505520Y-99058083D01*
G37*
G36*
X147185520Y-99058083D02*
G01*
X147253505Y-99071606D01*
X147317545Y-99098132D01*
X147381586Y-99124659D01*
X147496851Y-99201676D01*
X147594884Y-99299709D01*
X147671901Y-99414974D01*
X147724954Y-99543056D01*
X147752000Y-99679023D01*
X147752000Y-99817657D01*
X147724954Y-99953624D01*
X147671901Y-100081706D01*
X147594884Y-100196971D01*
X147496851Y-100295004D01*
X147381586Y-100372021D01*
X147317545Y-100398548D01*
X147253505Y-100425074D01*
X147185520Y-100438597D01*
X147117537Y-100452120D01*
X146978903Y-100452120D01*
X146842935Y-100425074D01*
X146778895Y-100398547D01*
X146714854Y-100372021D01*
X146599589Y-100295004D01*
X146501556Y-100196971D01*
X146424539Y-100081706D01*
X146371486Y-99953624D01*
X146344440Y-99817657D01*
X146344440Y-99679023D01*
X146371486Y-99543056D01*
X146424539Y-99414974D01*
X146501556Y-99299709D01*
X146599589Y-99201676D01*
X146714854Y-99124659D01*
X146778895Y-99098133D01*
X146842935Y-99071606D01*
X146910920Y-99058083D01*
X146978903Y-99044560D01*
X147117537Y-99044560D01*
X147185520Y-99058083D01*
X147185520Y-99058083D01*
G37*
G36*
X143172665Y-98054360D02*
G01*
X143255545Y-98070846D01*
X143319585Y-98097372D01*
X143383626Y-98123899D01*
X143498891Y-98200916D01*
X143596924Y-98298949D01*
X143673941Y-98414214D01*
X143695333Y-98465860D01*
X143726994Y-98542295D01*
X143754040Y-98678263D01*
X143754040Y-98816897D01*
X143740517Y-98884880D01*
X143726994Y-98952865D01*
X143700468Y-99016905D01*
X143673941Y-99080946D01*
X143596924Y-99196211D01*
X143498891Y-99294244D01*
X143383626Y-99371261D01*
X143319585Y-99397788D01*
X143255545Y-99424314D01*
X143187560Y-99437837D01*
X143119577Y-99451360D01*
X142980943Y-99451360D01*
X142844975Y-99424314D01*
X142780935Y-99397788D01*
X142716894Y-99371261D01*
X142601629Y-99294244D01*
X142503596Y-99196211D01*
X142426579Y-99080946D01*
X142400052Y-99016905D01*
X142373526Y-98952865D01*
X142360003Y-98884880D01*
X142346480Y-98816897D01*
X142346480Y-98678263D01*
X142373526Y-98542295D01*
X142405187Y-98465860D01*
X142426579Y-98414214D01*
X142503596Y-98298949D01*
X142601629Y-98200916D01*
X142716894Y-98123899D01*
X142780935Y-98097372D01*
X142844975Y-98070846D01*
X142927855Y-98054360D01*
X142980943Y-98043800D01*
X143119577Y-98043800D01*
X143172665Y-98054360D01*
X143172665Y-98054360D01*
G37*
G36*
X163492665Y-98054360D02*
G01*
X163575545Y-98070846D01*
X163639585Y-98097372D01*
X163703626Y-98123899D01*
X163818891Y-98200916D01*
X163916924Y-98298949D01*
X163993941Y-98414214D01*
X164015333Y-98465860D01*
X164046994Y-98542295D01*
X164074040Y-98678263D01*
X164074040Y-98816897D01*
X164060517Y-98884880D01*
X164046994Y-98952865D01*
X164020468Y-99016905D01*
X163993941Y-99080946D01*
X163916924Y-99196211D01*
X163818891Y-99294244D01*
X163703626Y-99371261D01*
X163639585Y-99397788D01*
X163575545Y-99424314D01*
X163507560Y-99437837D01*
X163439577Y-99451360D01*
X163300943Y-99451360D01*
X163164975Y-99424314D01*
X163100935Y-99397788D01*
X163036894Y-99371261D01*
X162921629Y-99294244D01*
X162823596Y-99196211D01*
X162746579Y-99080946D01*
X162720052Y-99016905D01*
X162693526Y-98952865D01*
X162680003Y-98884880D01*
X162666480Y-98816897D01*
X162666480Y-98678263D01*
X162693526Y-98542295D01*
X162725187Y-98465860D01*
X162746579Y-98414214D01*
X162823596Y-98298949D01*
X162921629Y-98200916D01*
X163036894Y-98123899D01*
X163100935Y-98097372D01*
X163164975Y-98070846D01*
X163247855Y-98054360D01*
X163300943Y-98043800D01*
X163439577Y-98043800D01*
X163492665Y-98054360D01*
X163492665Y-98054360D01*
G37*
G36*
X149172145Y-98054360D02*
G01*
X149255025Y-98070846D01*
X149319065Y-98097372D01*
X149383106Y-98123899D01*
X149498371Y-98200916D01*
X149596404Y-98298949D01*
X149673421Y-98414214D01*
X149694813Y-98465860D01*
X149726474Y-98542295D01*
X149753520Y-98678263D01*
X149753520Y-98816897D01*
X149739997Y-98884880D01*
X149726474Y-98952865D01*
X149699948Y-99016905D01*
X149673421Y-99080946D01*
X149596404Y-99196211D01*
X149498371Y-99294244D01*
X149383106Y-99371261D01*
X149319065Y-99397788D01*
X149255025Y-99424314D01*
X149187040Y-99437837D01*
X149119057Y-99451360D01*
X148980423Y-99451360D01*
X148844455Y-99424314D01*
X148780415Y-99397788D01*
X148716374Y-99371261D01*
X148601109Y-99294244D01*
X148503076Y-99196211D01*
X148426059Y-99080946D01*
X148399532Y-99016905D01*
X148373006Y-98952865D01*
X148359483Y-98884880D01*
X148345960Y-98816897D01*
X148345960Y-98678263D01*
X148373006Y-98542295D01*
X148404667Y-98465860D01*
X148426059Y-98414214D01*
X148503076Y-98298949D01*
X148601109Y-98200916D01*
X148716374Y-98123899D01*
X148780415Y-98097372D01*
X148844455Y-98070846D01*
X148927335Y-98054360D01*
X148980423Y-98043800D01*
X149119057Y-98043800D01*
X149172145Y-98054360D01*
X149172145Y-98054360D01*
G37*
G36*
X169492145Y-98054360D02*
G01*
X169575025Y-98070846D01*
X169639065Y-98097372D01*
X169703106Y-98123899D01*
X169818371Y-98200916D01*
X169916404Y-98298949D01*
X169993421Y-98414214D01*
X170014813Y-98465860D01*
X170046474Y-98542295D01*
X170073520Y-98678263D01*
X170073520Y-98816897D01*
X170059997Y-98884880D01*
X170046474Y-98952865D01*
X170019948Y-99016905D01*
X169993421Y-99080946D01*
X169916404Y-99196211D01*
X169818371Y-99294244D01*
X169703106Y-99371261D01*
X169639065Y-99397788D01*
X169575025Y-99424314D01*
X169507040Y-99437837D01*
X169439057Y-99451360D01*
X169300423Y-99451360D01*
X169164455Y-99424314D01*
X169100415Y-99397788D01*
X169036374Y-99371261D01*
X168921109Y-99294244D01*
X168823076Y-99196211D01*
X168746059Y-99080946D01*
X168719532Y-99016905D01*
X168693006Y-98952865D01*
X168679483Y-98884880D01*
X168665960Y-98816897D01*
X168665960Y-98678263D01*
X168693006Y-98542295D01*
X168724667Y-98465860D01*
X168746059Y-98414214D01*
X168823076Y-98298949D01*
X168921109Y-98200916D01*
X169036374Y-98123899D01*
X169100415Y-98097372D01*
X169164455Y-98070846D01*
X169247335Y-98054360D01*
X169300423Y-98043800D01*
X169439057Y-98043800D01*
X169492145Y-98054360D01*
X169492145Y-98054360D01*
G37*
G36*
X85991700Y-96647956D02*
G01*
X86112437Y-96671972D01*
X86339900Y-96766190D01*
X86544612Y-96902975D01*
X86718705Y-97077068D01*
X86855490Y-97281780D01*
X86949708Y-97509243D01*
X86949708Y-97509245D01*
X86997740Y-97750716D01*
X86997740Y-97996924D01*
X86986315Y-98054360D01*
X86949708Y-98238397D01*
X86855490Y-98465860D01*
X86718705Y-98670572D01*
X86544612Y-98844665D01*
X86339900Y-98981450D01*
X86112437Y-99075668D01*
X85991699Y-99099684D01*
X85870964Y-99123700D01*
X85624756Y-99123700D01*
X85504020Y-99099684D01*
X85383283Y-99075668D01*
X85155820Y-98981450D01*
X84951108Y-98844665D01*
X84777015Y-98670572D01*
X84640230Y-98465860D01*
X84546012Y-98238397D01*
X84509405Y-98054360D01*
X84497980Y-97996924D01*
X84497980Y-97750716D01*
X84546012Y-97509245D01*
X84546012Y-97509243D01*
X84640230Y-97281780D01*
X84777015Y-97077068D01*
X84951108Y-96902975D01*
X85155820Y-96766190D01*
X85383283Y-96671972D01*
X85504021Y-96647956D01*
X85624756Y-96623940D01*
X85870964Y-96623940D01*
X85991700Y-96647956D01*
X85991700Y-96647956D01*
G37*
G36*
X119011700Y-96647956D02*
G01*
X119132437Y-96671972D01*
X119359900Y-96766190D01*
X119564612Y-96902975D01*
X119738705Y-97077068D01*
X119875490Y-97281780D01*
X119969708Y-97509243D01*
X119969708Y-97509245D01*
X120017740Y-97750716D01*
X120017740Y-97996924D01*
X120006315Y-98054360D01*
X119969708Y-98238397D01*
X119875490Y-98465860D01*
X119738705Y-98670572D01*
X119564612Y-98844665D01*
X119359900Y-98981450D01*
X119132437Y-99075668D01*
X119011699Y-99099684D01*
X118890964Y-99123700D01*
X118644756Y-99123700D01*
X118524020Y-99099684D01*
X118403283Y-99075668D01*
X118175820Y-98981450D01*
X117971108Y-98844665D01*
X117797015Y-98670572D01*
X117660230Y-98465860D01*
X117566012Y-98238397D01*
X117529405Y-98054360D01*
X117517980Y-97996924D01*
X117517980Y-97750716D01*
X117566012Y-97509245D01*
X117566012Y-97509243D01*
X117660230Y-97281780D01*
X117797015Y-97077068D01*
X117971108Y-96902975D01*
X118175820Y-96766190D01*
X118403283Y-96671972D01*
X118524021Y-96647956D01*
X118644756Y-96623940D01*
X118890964Y-96623940D01*
X119011700Y-96647956D01*
X119011700Y-96647956D01*
G37*
G36*
X82245200Y-96122176D02*
G01*
X82365937Y-96146192D01*
X82593400Y-96240410D01*
X82798112Y-96377195D01*
X82972205Y-96551288D01*
X83108990Y-96756000D01*
X83203208Y-96983463D01*
X83203208Y-96983465D01*
X83251240Y-97224936D01*
X83251240Y-97471144D01*
X83243661Y-97509245D01*
X83203208Y-97712617D01*
X83108990Y-97940080D01*
X82972205Y-98144792D01*
X82798112Y-98318885D01*
X82593400Y-98455670D01*
X82365937Y-98549888D01*
X82245199Y-98573904D01*
X82124464Y-98597920D01*
X81878256Y-98597920D01*
X81757520Y-98573904D01*
X81636783Y-98549888D01*
X81409320Y-98455670D01*
X81204608Y-98318885D01*
X81030515Y-98144792D01*
X80893730Y-97940080D01*
X80799512Y-97712617D01*
X80759059Y-97509245D01*
X80751480Y-97471144D01*
X80751480Y-97224936D01*
X80799512Y-96983465D01*
X80799512Y-96983463D01*
X80893730Y-96756000D01*
X81030515Y-96551288D01*
X81204608Y-96377195D01*
X81409320Y-96240410D01*
X81636783Y-96146192D01*
X81757521Y-96122176D01*
X81878256Y-96098160D01*
X82124464Y-96098160D01*
X82245200Y-96122176D01*
X82245200Y-96122176D01*
G37*
G36*
X115265200Y-96122176D02*
G01*
X115385937Y-96146192D01*
X115613400Y-96240410D01*
X115818112Y-96377195D01*
X115992205Y-96551288D01*
X116128990Y-96756000D01*
X116223208Y-96983463D01*
X116223208Y-96983465D01*
X116271240Y-97224936D01*
X116271240Y-97471144D01*
X116263661Y-97509245D01*
X116223208Y-97712617D01*
X116128990Y-97940080D01*
X115992205Y-98144792D01*
X115818112Y-98318885D01*
X115613400Y-98455670D01*
X115385937Y-98549888D01*
X115265199Y-98573904D01*
X115144464Y-98597920D01*
X114898256Y-98597920D01*
X114777520Y-98573904D01*
X114656783Y-98549888D01*
X114429320Y-98455670D01*
X114224608Y-98318885D01*
X114050515Y-98144792D01*
X113913730Y-97940080D01*
X113819512Y-97712617D01*
X113779059Y-97509245D01*
X113771480Y-97471144D01*
X113771480Y-97224936D01*
X113819512Y-96983465D01*
X113819512Y-96983463D01*
X113913730Y-96756000D01*
X114050515Y-96551288D01*
X114224608Y-96377195D01*
X114429320Y-96240410D01*
X114656783Y-96146192D01*
X114777521Y-96122176D01*
X114898256Y-96098160D01*
X115144464Y-96098160D01*
X115265200Y-96122176D01*
X115265200Y-96122176D01*
G37*
G36*
X122643899Y-95578616D02*
G01*
X122764637Y-95602632D01*
X122992100Y-95696850D01*
X123196812Y-95833635D01*
X123370905Y-96007728D01*
X123507690Y-96212440D01*
X123601908Y-96439903D01*
X123601908Y-96439905D01*
X123649940Y-96681376D01*
X123649940Y-96927584D01*
X123644708Y-96953885D01*
X123601908Y-97169057D01*
X123507690Y-97396520D01*
X123370905Y-97601232D01*
X123196812Y-97775325D01*
X122992100Y-97912110D01*
X122764637Y-98006328D01*
X122643900Y-98030344D01*
X122523164Y-98054360D01*
X122276956Y-98054360D01*
X122156220Y-98030344D01*
X122035483Y-98006328D01*
X121808020Y-97912110D01*
X121603308Y-97775325D01*
X121429215Y-97601232D01*
X121292430Y-97396520D01*
X121198212Y-97169057D01*
X121155412Y-96953885D01*
X121150180Y-96927584D01*
X121150180Y-96681376D01*
X121198212Y-96439905D01*
X121198212Y-96439903D01*
X121292430Y-96212440D01*
X121429215Y-96007728D01*
X121603308Y-95833635D01*
X121808020Y-95696850D01*
X122035483Y-95602632D01*
X122156220Y-95578616D01*
X122276956Y-95554600D01*
X122523164Y-95554600D01*
X122643899Y-95578616D01*
X122643899Y-95578616D01*
G37*
G36*
X89623899Y-95578616D02*
G01*
X89744637Y-95602632D01*
X89972100Y-95696850D01*
X90176812Y-95833635D01*
X90350905Y-96007728D01*
X90487690Y-96212440D01*
X90581908Y-96439903D01*
X90581908Y-96439905D01*
X90629940Y-96681376D01*
X90629940Y-96927584D01*
X90624708Y-96953885D01*
X90581908Y-97169057D01*
X90487690Y-97396520D01*
X90350905Y-97601232D01*
X90176812Y-97775325D01*
X89972100Y-97912110D01*
X89744637Y-98006328D01*
X89623900Y-98030344D01*
X89503164Y-98054360D01*
X89256956Y-98054360D01*
X89136220Y-98030344D01*
X89015483Y-98006328D01*
X88788020Y-97912110D01*
X88583308Y-97775325D01*
X88409215Y-97601232D01*
X88272430Y-97396520D01*
X88178212Y-97169057D01*
X88135412Y-96953885D01*
X88130180Y-96927584D01*
X88130180Y-96681376D01*
X88178212Y-96439905D01*
X88178212Y-96439903D01*
X88272430Y-96212440D01*
X88409215Y-96007728D01*
X88583308Y-95833635D01*
X88788020Y-95696850D01*
X89015483Y-95602632D01*
X89136220Y-95578616D01*
X89256956Y-95554600D01*
X89503164Y-95554600D01*
X89623899Y-95578616D01*
X89623899Y-95578616D01*
G37*
G36*
X150436720Y-96058343D02*
G01*
X150504705Y-96071866D01*
X150568184Y-96098160D01*
X150632786Y-96124919D01*
X150748051Y-96201936D01*
X150846084Y-96299969D01*
X150923101Y-96415234D01*
X150923101Y-96415235D01*
X150976154Y-96543315D01*
X151003200Y-96679284D01*
X151003200Y-96817916D01*
X150981386Y-96927584D01*
X150976154Y-96953884D01*
X150923101Y-97081966D01*
X150846084Y-97197231D01*
X150748051Y-97295264D01*
X150632786Y-97372281D01*
X150568745Y-97398807D01*
X150504705Y-97425334D01*
X150368737Y-97452380D01*
X150230103Y-97452380D01*
X150094135Y-97425334D01*
X150030095Y-97398807D01*
X149966054Y-97372281D01*
X149850789Y-97295264D01*
X149752756Y-97197231D01*
X149675739Y-97081966D01*
X149622686Y-96953884D01*
X149617455Y-96927584D01*
X149595640Y-96817916D01*
X149595640Y-96679284D01*
X149622686Y-96543315D01*
X149675739Y-96415235D01*
X149675739Y-96415234D01*
X149752756Y-96299969D01*
X149850789Y-96201936D01*
X149966054Y-96124919D01*
X150030656Y-96098160D01*
X150094135Y-96071866D01*
X150230103Y-96044820D01*
X150368737Y-96044820D01*
X150436720Y-96058343D01*
X150436720Y-96058343D01*
G37*
G36*
X162257880Y-96058343D02*
G01*
X162325865Y-96071866D01*
X162389344Y-96098160D01*
X162453946Y-96124919D01*
X162569211Y-96201936D01*
X162667244Y-96299969D01*
X162744261Y-96415234D01*
X162744261Y-96415235D01*
X162797314Y-96543315D01*
X162824360Y-96679284D01*
X162824360Y-96817916D01*
X162802546Y-96927584D01*
X162797314Y-96953884D01*
X162744261Y-97081966D01*
X162667244Y-97197231D01*
X162569211Y-97295264D01*
X162453946Y-97372281D01*
X162389905Y-97398807D01*
X162325865Y-97425334D01*
X162189897Y-97452380D01*
X162051263Y-97452380D01*
X161915295Y-97425334D01*
X161851255Y-97398807D01*
X161787214Y-97372281D01*
X161671949Y-97295264D01*
X161573916Y-97197231D01*
X161496899Y-97081966D01*
X161443846Y-96953884D01*
X161438615Y-96927584D01*
X161416800Y-96817916D01*
X161416800Y-96679284D01*
X161443846Y-96543315D01*
X161496899Y-96415235D01*
X161496899Y-96415234D01*
X161573916Y-96299969D01*
X161671949Y-96201936D01*
X161787214Y-96124919D01*
X161851816Y-96098160D01*
X161915295Y-96071866D01*
X162051263Y-96044820D01*
X162189897Y-96044820D01*
X162257880Y-96058343D01*
X162257880Y-96058343D01*
G37*
G36*
X141937880Y-96058343D02*
G01*
X142005865Y-96071866D01*
X142069344Y-96098160D01*
X142133946Y-96124919D01*
X142249211Y-96201936D01*
X142347244Y-96299969D01*
X142424261Y-96415234D01*
X142424261Y-96415235D01*
X142477314Y-96543315D01*
X142504360Y-96679284D01*
X142504360Y-96817916D01*
X142482546Y-96927584D01*
X142477314Y-96953884D01*
X142424261Y-97081966D01*
X142347244Y-97197231D01*
X142249211Y-97295264D01*
X142133946Y-97372281D01*
X142069905Y-97398807D01*
X142005865Y-97425334D01*
X141869897Y-97452380D01*
X141731263Y-97452380D01*
X141595295Y-97425334D01*
X141531255Y-97398807D01*
X141467214Y-97372281D01*
X141351949Y-97295264D01*
X141253916Y-97197231D01*
X141176899Y-97081966D01*
X141123846Y-96953884D01*
X141118615Y-96927584D01*
X141096800Y-96817916D01*
X141096800Y-96679284D01*
X141123846Y-96543315D01*
X141176899Y-96415235D01*
X141176899Y-96415234D01*
X141253916Y-96299969D01*
X141351949Y-96201936D01*
X141467214Y-96124919D01*
X141531816Y-96098160D01*
X141595295Y-96071866D01*
X141731263Y-96044820D01*
X141869897Y-96044820D01*
X141937880Y-96058343D01*
X141937880Y-96058343D01*
G37*
G36*
X170756720Y-96058343D02*
G01*
X170824705Y-96071866D01*
X170888184Y-96098160D01*
X170952786Y-96124919D01*
X171068051Y-96201936D01*
X171166084Y-96299969D01*
X171243101Y-96415234D01*
X171243101Y-96415235D01*
X171296154Y-96543315D01*
X171323200Y-96679284D01*
X171323200Y-96817916D01*
X171301386Y-96927584D01*
X171296154Y-96953884D01*
X171243101Y-97081966D01*
X171166084Y-97197231D01*
X171068051Y-97295264D01*
X170952786Y-97372281D01*
X170888745Y-97398807D01*
X170824705Y-97425334D01*
X170688737Y-97452380D01*
X170550103Y-97452380D01*
X170414135Y-97425334D01*
X170350095Y-97398807D01*
X170286054Y-97372281D01*
X170170789Y-97295264D01*
X170072756Y-97197231D01*
X169995739Y-97081966D01*
X169942686Y-96953884D01*
X169937455Y-96927584D01*
X169915640Y-96817916D01*
X169915640Y-96679284D01*
X169942686Y-96543315D01*
X169995739Y-96415235D01*
X169995739Y-96415234D01*
X170072756Y-96299969D01*
X170170789Y-96201936D01*
X170286054Y-96124919D01*
X170350656Y-96098160D01*
X170414135Y-96071866D01*
X170550103Y-96044820D01*
X170688737Y-96044820D01*
X170756720Y-96058343D01*
X170756720Y-96058343D01*
G37*
G36*
X111993565Y-94052067D02*
G01*
X112127117Y-94078632D01*
X112354580Y-94172850D01*
X112559292Y-94309635D01*
X112733385Y-94483728D01*
X112870170Y-94688440D01*
X112964388Y-94915903D01*
X112988404Y-95036640D01*
X112997338Y-95081552D01*
X113012420Y-95157378D01*
X113012420Y-95403582D01*
X112964388Y-95645057D01*
X112870170Y-95872520D01*
X112733385Y-96077232D01*
X112559292Y-96251325D01*
X112354580Y-96388110D01*
X112127117Y-96482328D01*
X112006379Y-96506344D01*
X111885644Y-96530360D01*
X111639436Y-96530360D01*
X111518701Y-96506344D01*
X111397963Y-96482328D01*
X111170500Y-96388110D01*
X110965788Y-96251325D01*
X110791695Y-96077232D01*
X110654910Y-95872520D01*
X110560692Y-95645057D01*
X110512660Y-95403582D01*
X110512660Y-95157378D01*
X110527743Y-95081552D01*
X110536676Y-95036640D01*
X110560692Y-94915903D01*
X110654910Y-94688440D01*
X110791695Y-94483728D01*
X110965788Y-94309635D01*
X111170500Y-94172850D01*
X111397963Y-94078632D01*
X111531515Y-94052067D01*
X111639436Y-94030600D01*
X111885644Y-94030600D01*
X111993565Y-94052067D01*
X111993565Y-94052067D01*
G37*
G36*
X78973565Y-94052067D02*
G01*
X79107117Y-94078632D01*
X79334580Y-94172850D01*
X79539292Y-94309635D01*
X79713385Y-94483728D01*
X79850170Y-94688440D01*
X79944388Y-94915903D01*
X79968404Y-95036640D01*
X79977338Y-95081552D01*
X79992420Y-95157378D01*
X79992420Y-95403582D01*
X79944388Y-95645057D01*
X79850170Y-95872520D01*
X79713385Y-96077232D01*
X79539292Y-96251325D01*
X79334580Y-96388110D01*
X79107117Y-96482328D01*
X78986379Y-96506344D01*
X78865644Y-96530360D01*
X78619436Y-96530360D01*
X78498701Y-96506344D01*
X78377963Y-96482328D01*
X78150500Y-96388110D01*
X77945788Y-96251325D01*
X77771695Y-96077232D01*
X77634910Y-95872520D01*
X77540692Y-95645057D01*
X77492660Y-95403582D01*
X77492660Y-95157378D01*
X77507743Y-95081552D01*
X77516676Y-95036640D01*
X77540692Y-94915903D01*
X77634910Y-94688440D01*
X77771695Y-94483728D01*
X77945788Y-94309635D01*
X78150500Y-94172850D01*
X78377963Y-94078632D01*
X78511515Y-94052067D01*
X78619436Y-94030600D01*
X78865644Y-94030600D01*
X78973565Y-94052067D01*
X78973565Y-94052067D01*
G37*
G36*
X125514376Y-93048381D02*
G01*
X125688177Y-93082952D01*
X125915640Y-93177170D01*
X126120352Y-93313955D01*
X126294445Y-93488048D01*
X126431230Y-93692760D01*
X126525448Y-93920223D01*
X126532174Y-93954039D01*
X126573480Y-94161696D01*
X126573480Y-94407904D01*
X126558397Y-94483729D01*
X126525448Y-94649377D01*
X126431230Y-94876840D01*
X126294445Y-95081552D01*
X126120352Y-95255645D01*
X125915640Y-95392430D01*
X125688177Y-95486648D01*
X125567439Y-95510664D01*
X125446704Y-95534680D01*
X125200496Y-95534680D01*
X125079760Y-95510664D01*
X124959023Y-95486648D01*
X124731560Y-95392430D01*
X124526848Y-95255645D01*
X124352755Y-95081552D01*
X124215970Y-94876840D01*
X124121752Y-94649377D01*
X124088803Y-94483729D01*
X124073720Y-94407904D01*
X124073720Y-94161696D01*
X124115026Y-93954039D01*
X124121752Y-93920223D01*
X124215970Y-93692760D01*
X124352755Y-93488048D01*
X124526848Y-93313955D01*
X124731560Y-93177170D01*
X124959023Y-93082952D01*
X125132824Y-93048381D01*
X125200496Y-93034920D01*
X125446704Y-93034920D01*
X125514376Y-93048381D01*
X125514376Y-93048381D01*
G37*
G36*
X92494376Y-93048381D02*
G01*
X92668177Y-93082952D01*
X92895640Y-93177170D01*
X93100352Y-93313955D01*
X93274445Y-93488048D01*
X93411230Y-93692760D01*
X93505448Y-93920223D01*
X93512174Y-93954039D01*
X93553480Y-94161696D01*
X93553480Y-94407904D01*
X93538397Y-94483729D01*
X93505448Y-94649377D01*
X93411230Y-94876840D01*
X93274445Y-95081552D01*
X93100352Y-95255645D01*
X92895640Y-95392430D01*
X92668177Y-95486648D01*
X92547439Y-95510664D01*
X92426704Y-95534680D01*
X92180496Y-95534680D01*
X92059760Y-95510664D01*
X91939023Y-95486648D01*
X91711560Y-95392430D01*
X91506848Y-95255645D01*
X91332755Y-95081552D01*
X91195970Y-94876840D01*
X91101752Y-94649377D01*
X91068803Y-94483729D01*
X91053720Y-94407904D01*
X91053720Y-94161696D01*
X91095026Y-93954039D01*
X91101752Y-93920223D01*
X91195970Y-93692760D01*
X91332755Y-93488048D01*
X91506848Y-93313955D01*
X91711560Y-93177170D01*
X91939023Y-93082952D01*
X92112824Y-93048381D01*
X92180496Y-93034920D01*
X92426704Y-93034920D01*
X92494376Y-93048381D01*
X92494376Y-93048381D01*
G37*
G36*
X171005640Y-93810443D02*
G01*
X171073625Y-93823966D01*
X171137665Y-93850493D01*
X171201706Y-93877019D01*
X171316971Y-93954036D01*
X171415004Y-94052069D01*
X171492021Y-94167334D01*
X171518548Y-94231375D01*
X171545074Y-94295415D01*
X171572120Y-94431384D01*
X171572120Y-94570016D01*
X171548564Y-94688442D01*
X171545074Y-94705984D01*
X171492021Y-94834066D01*
X171415004Y-94949331D01*
X171316971Y-95047364D01*
X171201706Y-95124381D01*
X171137665Y-95150908D01*
X171073625Y-95177434D01*
X170937657Y-95204480D01*
X170799023Y-95204480D01*
X170663055Y-95177434D01*
X170599015Y-95150908D01*
X170534974Y-95124381D01*
X170419709Y-95047364D01*
X170321676Y-94949331D01*
X170244659Y-94834066D01*
X170191606Y-94705984D01*
X170188117Y-94688442D01*
X170164560Y-94570016D01*
X170164560Y-94431384D01*
X170191606Y-94295415D01*
X170218132Y-94231375D01*
X170244659Y-94167334D01*
X170321676Y-94052069D01*
X170419709Y-93954036D01*
X170534974Y-93877019D01*
X170599015Y-93850492D01*
X170663055Y-93823966D01*
X170731040Y-93810443D01*
X170799023Y-93796920D01*
X170937657Y-93796920D01*
X171005640Y-93810443D01*
X171005640Y-93810443D01*
G37*
G36*
X162008960Y-93810443D02*
G01*
X162076945Y-93823966D01*
X162140985Y-93850493D01*
X162205026Y-93877019D01*
X162320291Y-93954036D01*
X162418324Y-94052069D01*
X162495341Y-94167334D01*
X162521868Y-94231375D01*
X162548394Y-94295415D01*
X162575440Y-94431384D01*
X162575440Y-94570016D01*
X162551884Y-94688442D01*
X162548394Y-94705984D01*
X162495341Y-94834066D01*
X162418324Y-94949331D01*
X162320291Y-95047364D01*
X162205026Y-95124381D01*
X162140985Y-95150908D01*
X162076945Y-95177434D01*
X161940977Y-95204480D01*
X161802343Y-95204480D01*
X161666375Y-95177434D01*
X161602335Y-95150908D01*
X161538294Y-95124381D01*
X161423029Y-95047364D01*
X161324996Y-94949331D01*
X161247979Y-94834066D01*
X161194926Y-94705984D01*
X161191437Y-94688442D01*
X161167880Y-94570016D01*
X161167880Y-94431384D01*
X161194926Y-94295415D01*
X161221452Y-94231375D01*
X161247979Y-94167334D01*
X161324996Y-94052069D01*
X161423029Y-93954036D01*
X161538294Y-93877019D01*
X161602335Y-93850492D01*
X161666375Y-93823966D01*
X161734360Y-93810443D01*
X161802343Y-93796920D01*
X161940977Y-93796920D01*
X162008960Y-93810443D01*
X162008960Y-93810443D01*
G37*
G36*
X150685640Y-93810443D02*
G01*
X150753625Y-93823966D01*
X150817665Y-93850493D01*
X150881706Y-93877019D01*
X150996971Y-93954036D01*
X151095004Y-94052069D01*
X151172021Y-94167334D01*
X151198548Y-94231375D01*
X151225074Y-94295415D01*
X151252120Y-94431384D01*
X151252120Y-94570016D01*
X151228564Y-94688442D01*
X151225074Y-94705984D01*
X151172021Y-94834066D01*
X151095004Y-94949331D01*
X150996971Y-95047364D01*
X150881706Y-95124381D01*
X150817665Y-95150908D01*
X150753625Y-95177434D01*
X150617657Y-95204480D01*
X150479023Y-95204480D01*
X150343055Y-95177434D01*
X150279015Y-95150908D01*
X150214974Y-95124381D01*
X150099709Y-95047364D01*
X150001676Y-94949331D01*
X149924659Y-94834066D01*
X149871606Y-94705984D01*
X149868117Y-94688442D01*
X149844560Y-94570016D01*
X149844560Y-94431384D01*
X149871606Y-94295415D01*
X149898132Y-94231375D01*
X149924659Y-94167334D01*
X150001676Y-94052069D01*
X150099709Y-93954036D01*
X150214974Y-93877019D01*
X150279015Y-93850492D01*
X150343055Y-93823966D01*
X150411040Y-93810443D01*
X150479023Y-93796920D01*
X150617657Y-93796920D01*
X150685640Y-93810443D01*
X150685640Y-93810443D01*
G37*
G36*
X141688960Y-93810443D02*
G01*
X141756945Y-93823966D01*
X141820985Y-93850493D01*
X141885026Y-93877019D01*
X142000291Y-93954036D01*
X142098324Y-94052069D01*
X142175341Y-94167334D01*
X142201868Y-94231375D01*
X142228394Y-94295415D01*
X142255440Y-94431384D01*
X142255440Y-94570016D01*
X142231884Y-94688442D01*
X142228394Y-94705984D01*
X142175341Y-94834066D01*
X142098324Y-94949331D01*
X142000291Y-95047364D01*
X141885026Y-95124381D01*
X141820985Y-95150908D01*
X141756945Y-95177434D01*
X141620977Y-95204480D01*
X141482343Y-95204480D01*
X141346375Y-95177434D01*
X141282335Y-95150908D01*
X141218294Y-95124381D01*
X141103029Y-95047364D01*
X141004996Y-94949331D01*
X140927979Y-94834066D01*
X140874926Y-94705984D01*
X140871437Y-94688442D01*
X140847880Y-94570016D01*
X140847880Y-94431384D01*
X140874926Y-94295415D01*
X140901452Y-94231375D01*
X140927979Y-94167334D01*
X141004996Y-94052069D01*
X141103029Y-93954036D01*
X141218294Y-93877019D01*
X141282335Y-93850492D01*
X141346375Y-93823966D01*
X141414360Y-93810443D01*
X141482343Y-93796920D01*
X141620977Y-93796920D01*
X141688960Y-93810443D01*
X141688960Y-93810443D01*
G37*
G36*
X76941679Y-90795796D02*
G01*
X77062417Y-90819812D01*
X77289880Y-90914030D01*
X77494592Y-91050815D01*
X77668685Y-91224908D01*
X77805470Y-91429620D01*
X77899688Y-91657083D01*
X77914722Y-91732665D01*
X77947720Y-91898556D01*
X77947720Y-92144764D01*
X77943027Y-92168355D01*
X77899688Y-92386237D01*
X77805470Y-92613700D01*
X77668685Y-92818412D01*
X77494592Y-92992505D01*
X77289880Y-93129290D01*
X77062417Y-93223508D01*
X76941679Y-93247524D01*
X76820944Y-93271540D01*
X76574736Y-93271540D01*
X76454001Y-93247524D01*
X76333263Y-93223508D01*
X76105800Y-93129290D01*
X75901088Y-92992505D01*
X75726995Y-92818412D01*
X75590210Y-92613700D01*
X75495992Y-92386237D01*
X75452653Y-92168355D01*
X75447960Y-92144764D01*
X75447960Y-91898556D01*
X75480958Y-91732665D01*
X75495992Y-91657083D01*
X75590210Y-91429620D01*
X75726995Y-91224908D01*
X75901088Y-91050815D01*
X76105800Y-90914030D01*
X76333263Y-90819812D01*
X76454001Y-90795796D01*
X76574736Y-90771780D01*
X76820944Y-90771780D01*
X76941679Y-90795796D01*
X76941679Y-90795796D01*
G37*
G36*
X109961679Y-90795796D02*
G01*
X110082417Y-90819812D01*
X110309880Y-90914030D01*
X110514592Y-91050815D01*
X110688685Y-91224908D01*
X110825470Y-91429620D01*
X110919688Y-91657083D01*
X110934722Y-91732665D01*
X110967720Y-91898556D01*
X110967720Y-92144764D01*
X110963027Y-92168355D01*
X110919688Y-92386237D01*
X110825470Y-92613700D01*
X110688685Y-92818412D01*
X110514592Y-92992505D01*
X110309880Y-93129290D01*
X110082417Y-93223508D01*
X109961679Y-93247524D01*
X109840944Y-93271540D01*
X109594736Y-93271540D01*
X109474001Y-93247524D01*
X109353263Y-93223508D01*
X109125800Y-93129290D01*
X108921088Y-92992505D01*
X108746995Y-92818412D01*
X108610210Y-92613700D01*
X108515992Y-92386237D01*
X108472653Y-92168355D01*
X108467960Y-92144764D01*
X108467960Y-91898556D01*
X108500958Y-91732665D01*
X108515992Y-91657083D01*
X108610210Y-91429620D01*
X108746995Y-91224908D01*
X108921088Y-91050815D01*
X109125800Y-90914030D01*
X109353263Y-90819812D01*
X109474001Y-90795796D01*
X109594736Y-90771780D01*
X109840944Y-90771780D01*
X109961679Y-90795796D01*
X109961679Y-90795796D01*
G37*
G36*
X142506245Y-91824986D02*
G01*
X142570285Y-91851512D01*
X142634326Y-91878039D01*
X142749591Y-91955056D01*
X142847624Y-92053089D01*
X142924641Y-92168354D01*
X142977694Y-92296436D01*
X143004740Y-92432403D01*
X143004740Y-92571037D01*
X142977694Y-92707004D01*
X142924641Y-92835086D01*
X142847624Y-92950351D01*
X142749591Y-93048384D01*
X142634326Y-93125401D01*
X142570285Y-93151928D01*
X142506245Y-93178454D01*
X142438260Y-93191977D01*
X142370277Y-93205500D01*
X142231643Y-93205500D01*
X142095675Y-93178454D01*
X142031635Y-93151927D01*
X141967594Y-93125401D01*
X141852329Y-93048384D01*
X141754296Y-92950351D01*
X141677279Y-92835086D01*
X141624226Y-92707004D01*
X141597180Y-92571037D01*
X141597180Y-92432403D01*
X141624226Y-92296436D01*
X141677279Y-92168354D01*
X141754296Y-92053089D01*
X141852329Y-91955056D01*
X141967594Y-91878039D01*
X142031635Y-91851512D01*
X142095675Y-91824986D01*
X142231643Y-91797940D01*
X142370277Y-91797940D01*
X142506245Y-91824986D01*
X142506245Y-91824986D01*
G37*
G36*
X150004325Y-91824986D02*
G01*
X150068365Y-91851512D01*
X150132406Y-91878039D01*
X150247671Y-91955056D01*
X150345704Y-92053089D01*
X150422721Y-92168354D01*
X150475774Y-92296436D01*
X150502820Y-92432403D01*
X150502820Y-92571037D01*
X150475774Y-92707004D01*
X150422721Y-92835086D01*
X150345704Y-92950351D01*
X150247671Y-93048384D01*
X150132406Y-93125401D01*
X150068365Y-93151928D01*
X150004325Y-93178454D01*
X149936340Y-93191977D01*
X149868357Y-93205500D01*
X149729723Y-93205500D01*
X149593755Y-93178454D01*
X149529715Y-93151927D01*
X149465674Y-93125401D01*
X149350409Y-93048384D01*
X149252376Y-92950351D01*
X149175359Y-92835086D01*
X149122306Y-92707004D01*
X149095260Y-92571037D01*
X149095260Y-92432403D01*
X149122306Y-92296436D01*
X149175359Y-92168354D01*
X149252376Y-92053089D01*
X149350409Y-91955056D01*
X149465674Y-91878039D01*
X149529715Y-91851512D01*
X149593755Y-91824986D01*
X149729723Y-91797940D01*
X149868357Y-91797940D01*
X150004325Y-91824986D01*
X150004325Y-91824986D01*
G37*
G36*
X170324325Y-91824986D02*
G01*
X170388365Y-91851512D01*
X170452406Y-91878039D01*
X170567671Y-91955056D01*
X170665704Y-92053089D01*
X170742721Y-92168354D01*
X170795774Y-92296436D01*
X170822820Y-92432403D01*
X170822820Y-92571037D01*
X170795774Y-92707004D01*
X170742721Y-92835086D01*
X170665704Y-92950351D01*
X170567671Y-93048384D01*
X170452406Y-93125401D01*
X170388365Y-93151928D01*
X170324325Y-93178454D01*
X170256340Y-93191977D01*
X170188357Y-93205500D01*
X170049723Y-93205500D01*
X169913755Y-93178454D01*
X169849715Y-93151927D01*
X169785674Y-93125401D01*
X169670409Y-93048384D01*
X169572376Y-92950351D01*
X169495359Y-92835086D01*
X169442306Y-92707004D01*
X169415260Y-92571037D01*
X169415260Y-92432403D01*
X169442306Y-92296436D01*
X169495359Y-92168354D01*
X169572376Y-92053089D01*
X169670409Y-91955056D01*
X169785674Y-91878039D01*
X169849715Y-91851512D01*
X169913755Y-91824986D01*
X170049723Y-91797940D01*
X170188357Y-91797940D01*
X170324325Y-91824986D01*
X170324325Y-91824986D01*
G37*
G36*
X162826245Y-91824986D02*
G01*
X162890285Y-91851512D01*
X162954326Y-91878039D01*
X163069591Y-91955056D01*
X163167624Y-92053089D01*
X163244641Y-92168354D01*
X163297694Y-92296436D01*
X163324740Y-92432403D01*
X163324740Y-92571037D01*
X163297694Y-92707004D01*
X163244641Y-92835086D01*
X163167624Y-92950351D01*
X163069591Y-93048384D01*
X162954326Y-93125401D01*
X162890285Y-93151928D01*
X162826245Y-93178454D01*
X162758260Y-93191977D01*
X162690277Y-93205500D01*
X162551643Y-93205500D01*
X162415675Y-93178454D01*
X162351635Y-93151927D01*
X162287594Y-93125401D01*
X162172329Y-93048384D01*
X162074296Y-92950351D01*
X161997279Y-92835086D01*
X161944226Y-92707004D01*
X161917180Y-92571037D01*
X161917180Y-92432403D01*
X161944226Y-92296436D01*
X161997279Y-92168354D01*
X162074296Y-92053089D01*
X162172329Y-91955056D01*
X162287594Y-91878039D01*
X162351635Y-91851512D01*
X162415675Y-91824986D01*
X162551643Y-91797940D01*
X162690277Y-91797940D01*
X162826245Y-91824986D01*
X162826245Y-91824986D01*
G37*
G36*
X94091760Y-89535956D02*
G01*
X94212497Y-89559972D01*
X94439960Y-89654190D01*
X94644672Y-89790975D01*
X94818765Y-89965068D01*
X94955550Y-90169780D01*
X95049768Y-90397243D01*
X95049768Y-90397245D01*
X95097800Y-90638716D01*
X95097800Y-90884924D01*
X95091086Y-90918675D01*
X95049768Y-91126397D01*
X94955550Y-91353860D01*
X94818765Y-91558572D01*
X94644672Y-91732665D01*
X94439960Y-91869450D01*
X94212497Y-91963668D01*
X94091759Y-91987684D01*
X93971024Y-92011700D01*
X93724816Y-92011700D01*
X93604081Y-91987684D01*
X93483343Y-91963668D01*
X93255880Y-91869450D01*
X93051168Y-91732665D01*
X92877075Y-91558572D01*
X92740290Y-91353860D01*
X92646072Y-91126397D01*
X92604754Y-90918675D01*
X92598040Y-90884924D01*
X92598040Y-90638716D01*
X92646072Y-90397245D01*
X92646072Y-90397243D01*
X92740290Y-90169780D01*
X92877075Y-89965068D01*
X93051168Y-89790975D01*
X93255880Y-89654190D01*
X93483343Y-89559972D01*
X93604080Y-89535956D01*
X93724816Y-89511940D01*
X93971024Y-89511940D01*
X94091760Y-89535956D01*
X94091760Y-89535956D01*
G37*
G36*
X127111760Y-89535956D02*
G01*
X127232497Y-89559972D01*
X127459960Y-89654190D01*
X127664672Y-89790975D01*
X127838765Y-89965068D01*
X127975550Y-90169780D01*
X128069768Y-90397243D01*
X128069768Y-90397245D01*
X128117800Y-90638716D01*
X128117800Y-90884924D01*
X128111086Y-90918675D01*
X128069768Y-91126397D01*
X127975550Y-91353860D01*
X127838765Y-91558572D01*
X127664672Y-91732665D01*
X127459960Y-91869450D01*
X127232497Y-91963668D01*
X127111759Y-91987684D01*
X126991024Y-92011700D01*
X126744816Y-92011700D01*
X126624081Y-91987684D01*
X126503343Y-91963668D01*
X126275880Y-91869450D01*
X126071168Y-91732665D01*
X125897075Y-91558572D01*
X125760290Y-91353860D01*
X125666072Y-91126397D01*
X125624754Y-90918675D01*
X125618040Y-90884924D01*
X125618040Y-90638716D01*
X125666072Y-90397245D01*
X125666072Y-90397243D01*
X125760290Y-90169780D01*
X125897075Y-89965068D01*
X126071168Y-89790975D01*
X126275880Y-89654190D01*
X126503343Y-89559972D01*
X126624080Y-89535956D01*
X126744816Y-89511940D01*
X126991024Y-89511940D01*
X127111760Y-89535956D01*
X127111760Y-89535956D01*
G37*
G36*
X164508320Y-90561783D02*
G01*
X164576305Y-90575306D01*
X164640345Y-90601832D01*
X164704386Y-90628359D01*
X164819651Y-90705376D01*
X164917684Y-90803409D01*
X164994701Y-90918674D01*
X164994701Y-90918675D01*
X165047754Y-91046755D01*
X165061277Y-91114740D01*
X165074800Y-91182723D01*
X165074800Y-91321357D01*
X165047754Y-91457324D01*
X164994701Y-91585406D01*
X164917684Y-91700671D01*
X164819651Y-91798704D01*
X164704386Y-91875721D01*
X164649257Y-91898556D01*
X164576305Y-91928774D01*
X164508320Y-91942297D01*
X164440337Y-91955820D01*
X164301703Y-91955820D01*
X164165735Y-91928774D01*
X164092783Y-91898556D01*
X164037654Y-91875721D01*
X163922389Y-91798704D01*
X163824356Y-91700671D01*
X163747339Y-91585406D01*
X163694286Y-91457324D01*
X163667240Y-91321357D01*
X163667240Y-91182723D01*
X163680763Y-91114740D01*
X163694286Y-91046755D01*
X163747339Y-90918675D01*
X163747339Y-90918674D01*
X163824356Y-90803409D01*
X163922389Y-90705376D01*
X164037654Y-90628359D01*
X164101695Y-90601832D01*
X164165735Y-90575306D01*
X164233720Y-90561783D01*
X164301703Y-90548260D01*
X164440337Y-90548260D01*
X164508320Y-90561783D01*
X164508320Y-90561783D01*
G37*
G36*
X144188320Y-90561783D02*
G01*
X144256305Y-90575306D01*
X144320345Y-90601832D01*
X144384386Y-90628359D01*
X144499651Y-90705376D01*
X144597684Y-90803409D01*
X144674701Y-90918674D01*
X144674701Y-90918675D01*
X144727754Y-91046755D01*
X144741277Y-91114740D01*
X144754800Y-91182723D01*
X144754800Y-91321357D01*
X144727754Y-91457324D01*
X144674701Y-91585406D01*
X144597684Y-91700671D01*
X144499651Y-91798704D01*
X144384386Y-91875721D01*
X144329257Y-91898556D01*
X144256305Y-91928774D01*
X144188320Y-91942297D01*
X144120337Y-91955820D01*
X143981703Y-91955820D01*
X143845735Y-91928774D01*
X143772783Y-91898556D01*
X143717654Y-91875721D01*
X143602389Y-91798704D01*
X143504356Y-91700671D01*
X143427339Y-91585406D01*
X143374286Y-91457324D01*
X143347240Y-91321357D01*
X143347240Y-91182723D01*
X143360763Y-91114740D01*
X143374286Y-91046755D01*
X143427339Y-90918675D01*
X143427339Y-90918674D01*
X143504356Y-90803409D01*
X143602389Y-90705376D01*
X143717654Y-90628359D01*
X143781695Y-90601832D01*
X143845735Y-90575306D01*
X143913720Y-90561783D01*
X143981703Y-90548260D01*
X144120337Y-90548260D01*
X144188320Y-90561783D01*
X144188320Y-90561783D01*
G37*
G36*
X148186280Y-90561783D02*
G01*
X148254265Y-90575306D01*
X148318305Y-90601832D01*
X148382346Y-90628359D01*
X148497611Y-90705376D01*
X148595644Y-90803409D01*
X148672661Y-90918674D01*
X148672661Y-90918675D01*
X148725714Y-91046755D01*
X148739237Y-91114740D01*
X148752760Y-91182723D01*
X148752760Y-91321357D01*
X148725714Y-91457324D01*
X148672661Y-91585406D01*
X148595644Y-91700671D01*
X148497611Y-91798704D01*
X148382346Y-91875721D01*
X148327217Y-91898556D01*
X148254265Y-91928774D01*
X148186280Y-91942297D01*
X148118297Y-91955820D01*
X147979663Y-91955820D01*
X147843695Y-91928774D01*
X147770743Y-91898556D01*
X147715614Y-91875721D01*
X147600349Y-91798704D01*
X147502316Y-91700671D01*
X147425299Y-91585406D01*
X147372246Y-91457324D01*
X147345200Y-91321357D01*
X147345200Y-91182723D01*
X147358723Y-91114740D01*
X147372246Y-91046755D01*
X147425299Y-90918675D01*
X147425299Y-90918674D01*
X147502316Y-90803409D01*
X147600349Y-90705376D01*
X147715614Y-90628359D01*
X147779655Y-90601832D01*
X147843695Y-90575306D01*
X147911680Y-90561783D01*
X147979663Y-90548260D01*
X148118297Y-90548260D01*
X148186280Y-90561783D01*
X148186280Y-90561783D01*
G37*
G36*
X168506280Y-90561783D02*
G01*
X168574265Y-90575306D01*
X168638305Y-90601832D01*
X168702346Y-90628359D01*
X168817611Y-90705376D01*
X168915644Y-90803409D01*
X168992661Y-90918674D01*
X168992661Y-90918675D01*
X169045714Y-91046755D01*
X169059237Y-91114740D01*
X169072760Y-91182723D01*
X169072760Y-91321357D01*
X169045714Y-91457324D01*
X168992661Y-91585406D01*
X168915644Y-91700671D01*
X168817611Y-91798704D01*
X168702346Y-91875721D01*
X168647217Y-91898556D01*
X168574265Y-91928774D01*
X168506280Y-91942297D01*
X168438297Y-91955820D01*
X168299663Y-91955820D01*
X168163695Y-91928774D01*
X168090743Y-91898556D01*
X168035614Y-91875721D01*
X167920349Y-91798704D01*
X167822316Y-91700671D01*
X167745299Y-91585406D01*
X167692246Y-91457324D01*
X167665200Y-91321357D01*
X167665200Y-91182723D01*
X167678723Y-91114740D01*
X167692246Y-91046755D01*
X167745299Y-90918675D01*
X167745299Y-90918674D01*
X167822316Y-90803409D01*
X167920349Y-90705376D01*
X168035614Y-90628359D01*
X168099655Y-90601832D01*
X168163695Y-90575306D01*
X168231680Y-90561783D01*
X168299663Y-90548260D01*
X168438297Y-90548260D01*
X168506280Y-90561783D01*
X168506280Y-90561783D01*
G37*
G36*
X118853911Y-86447648D02*
G01*
X118853914Y-86447649D01*
X118853913Y-86447649D01*
X119318048Y-86639900D01*
X119735760Y-86919006D01*
X120090994Y-87274240D01*
X120370100Y-87691952D01*
X120427240Y-87829900D01*
X120562352Y-88156089D01*
X120660360Y-88648810D01*
X120660360Y-89151190D01*
X120562352Y-89643911D01*
X120562351Y-89643913D01*
X120370100Y-90108048D01*
X120090994Y-90525760D01*
X119735760Y-90880994D01*
X119318048Y-91160100D01*
X119161585Y-91224909D01*
X118853911Y-91352352D01*
X118361190Y-91450360D01*
X117858810Y-91450360D01*
X117366089Y-91352352D01*
X117058415Y-91224909D01*
X116901952Y-91160100D01*
X116484240Y-90880994D01*
X116129006Y-90525760D01*
X115849900Y-90108048D01*
X115657649Y-89643913D01*
X115657648Y-89643911D01*
X115559640Y-89151190D01*
X115559640Y-88648810D01*
X115657648Y-88156089D01*
X115792760Y-87829900D01*
X115849900Y-87691952D01*
X116129006Y-87274240D01*
X116484240Y-86919006D01*
X116901952Y-86639900D01*
X117366087Y-86447649D01*
X117366086Y-86447649D01*
X117366089Y-86447648D01*
X117858810Y-86349640D01*
X118361190Y-86349640D01*
X118853911Y-86447648D01*
X118853911Y-86447648D01*
G37*
G36*
X85833911Y-86447648D02*
G01*
X85833914Y-86447649D01*
X85833913Y-86447649D01*
X86298048Y-86639900D01*
X86715760Y-86919006D01*
X87070994Y-87274240D01*
X87350100Y-87691952D01*
X87407240Y-87829900D01*
X87542352Y-88156089D01*
X87640360Y-88648810D01*
X87640360Y-89151190D01*
X87542352Y-89643911D01*
X87542351Y-89643913D01*
X87350100Y-90108048D01*
X87070994Y-90525760D01*
X86715760Y-90880994D01*
X86298048Y-91160100D01*
X86141585Y-91224909D01*
X85833911Y-91352352D01*
X85341190Y-91450360D01*
X84838810Y-91450360D01*
X84346089Y-91352352D01*
X84038415Y-91224909D01*
X83881952Y-91160100D01*
X83464240Y-90880994D01*
X83109006Y-90525760D01*
X82829900Y-90108048D01*
X82637649Y-89643913D01*
X82637648Y-89643911D01*
X82539640Y-89151190D01*
X82539640Y-88648810D01*
X82637648Y-88156089D01*
X82772760Y-87829900D01*
X82829900Y-87691952D01*
X83109006Y-87274240D01*
X83464240Y-86919006D01*
X83881952Y-86639900D01*
X84346087Y-86447649D01*
X84346086Y-86447649D01*
X84346089Y-86447648D01*
X84838810Y-86349640D01*
X85341190Y-86349640D01*
X85833911Y-86447648D01*
X85833911Y-86447648D01*
G37*
G36*
X156382028Y-86608503D02*
G01*
X156536900Y-86672653D01*
X156676281Y-86765785D01*
X156794815Y-86884319D01*
X156887947Y-87023700D01*
X156952097Y-87178572D01*
X156984800Y-87342984D01*
X156984800Y-87510616D01*
X156952097Y-87675028D01*
X156887947Y-87829900D01*
X156794815Y-87969281D01*
X156676281Y-88087815D01*
X156536900Y-88180947D01*
X156382028Y-88245097D01*
X156217616Y-88277800D01*
X156049984Y-88277800D01*
X155885572Y-88245097D01*
X155730700Y-88180947D01*
X155591319Y-88087815D01*
X155472785Y-87969281D01*
X155379653Y-87829900D01*
X155315503Y-87675028D01*
X155282800Y-87510616D01*
X155282800Y-87342984D01*
X155315503Y-87178572D01*
X155379653Y-87023700D01*
X155472785Y-86884319D01*
X155591319Y-86765785D01*
X155730700Y-86672653D01*
X155885572Y-86608503D01*
X156049984Y-86575800D01*
X156217616Y-86575800D01*
X156382028Y-86608503D01*
X156382028Y-86608503D01*
G37*
G36*
X138546023Y-86588113D02*
G01*
X138706442Y-86636776D01*
X138773561Y-86672652D01*
X138854278Y-86715796D01*
X138983859Y-86822141D01*
X139090204Y-86951722D01*
X139090205Y-86951724D01*
X139169224Y-87099558D01*
X139217887Y-87259977D01*
X139234317Y-87426800D01*
X139217887Y-87593623D01*
X139169224Y-87754042D01*
X139128677Y-87829900D01*
X139090204Y-87901878D01*
X138983859Y-88031459D01*
X138854278Y-88137804D01*
X138854276Y-88137805D01*
X138706442Y-88216824D01*
X138546023Y-88265487D01*
X138421004Y-88277800D01*
X138337396Y-88277800D01*
X138212377Y-88265487D01*
X138051958Y-88216824D01*
X137904124Y-88137805D01*
X137904122Y-88137804D01*
X137774541Y-88031459D01*
X137668196Y-87901878D01*
X137629723Y-87829900D01*
X137589176Y-87754042D01*
X137540513Y-87593623D01*
X137524083Y-87426800D01*
X137540513Y-87259977D01*
X137589176Y-87099558D01*
X137668195Y-86951724D01*
X137668196Y-86951722D01*
X137774541Y-86822141D01*
X137904122Y-86715796D01*
X137984839Y-86672652D01*
X138051958Y-86636776D01*
X138212377Y-86588113D01*
X138337396Y-86575800D01*
X138421004Y-86575800D01*
X138546023Y-86588113D01*
X138546023Y-86588113D01*
G37*
G36*
X158840623Y-86588113D02*
G01*
X159001042Y-86636776D01*
X159068161Y-86672652D01*
X159148878Y-86715796D01*
X159278459Y-86822141D01*
X159384804Y-86951722D01*
X159384805Y-86951724D01*
X159463824Y-87099558D01*
X159512487Y-87259977D01*
X159528917Y-87426800D01*
X159512487Y-87593623D01*
X159463824Y-87754042D01*
X159423277Y-87829900D01*
X159384804Y-87901878D01*
X159278459Y-88031459D01*
X159148878Y-88137804D01*
X159148876Y-88137805D01*
X159001042Y-88216824D01*
X158840623Y-88265487D01*
X158715604Y-88277800D01*
X158631996Y-88277800D01*
X158506977Y-88265487D01*
X158346558Y-88216824D01*
X158198724Y-88137805D01*
X158198722Y-88137804D01*
X158069141Y-88031459D01*
X157962796Y-87901878D01*
X157924323Y-87829900D01*
X157883776Y-87754042D01*
X157835113Y-87593623D01*
X157818683Y-87426800D01*
X157835113Y-87259977D01*
X157883776Y-87099558D01*
X157962795Y-86951724D01*
X157962796Y-86951722D01*
X158069141Y-86822141D01*
X158198722Y-86715796D01*
X158279439Y-86672652D01*
X158346558Y-86636776D01*
X158506977Y-86588113D01*
X158631996Y-86575800D01*
X158715604Y-86575800D01*
X158840623Y-86588113D01*
X158840623Y-86588113D01*
G37*
G36*
X136087428Y-86608503D02*
G01*
X136242300Y-86672653D01*
X136381681Y-86765785D01*
X136500215Y-86884319D01*
X136593347Y-87023700D01*
X136657497Y-87178572D01*
X136690200Y-87342984D01*
X136690200Y-87510616D01*
X136657497Y-87675028D01*
X136593347Y-87829900D01*
X136500215Y-87969281D01*
X136381681Y-88087815D01*
X136242300Y-88180947D01*
X136087428Y-88245097D01*
X135923016Y-88277800D01*
X135755384Y-88277800D01*
X135590972Y-88245097D01*
X135436100Y-88180947D01*
X135296719Y-88087815D01*
X135178185Y-87969281D01*
X135085053Y-87829900D01*
X135020903Y-87675028D01*
X134988200Y-87510616D01*
X134988200Y-87342984D01*
X135020903Y-87178572D01*
X135085053Y-87023700D01*
X135178185Y-86884319D01*
X135296719Y-86765785D01*
X135436100Y-86672653D01*
X135590972Y-86608503D01*
X135755384Y-86575800D01*
X135923016Y-86575800D01*
X136087428Y-86608503D01*
X136087428Y-86608503D01*
G37*
G36*
X127134619Y-85725956D02*
G01*
X127255357Y-85749972D01*
X127482820Y-85844190D01*
X127687532Y-85980975D01*
X127861625Y-86155068D01*
X127998410Y-86359780D01*
X128092628Y-86587243D01*
X128140660Y-86828718D01*
X128140660Y-87074922D01*
X128092628Y-87316397D01*
X127998410Y-87543860D01*
X127861625Y-87748572D01*
X127687532Y-87922665D01*
X127482820Y-88059450D01*
X127255357Y-88153668D01*
X127134619Y-88177684D01*
X127013884Y-88201700D01*
X126767676Y-88201700D01*
X126646941Y-88177684D01*
X126526203Y-88153668D01*
X126298740Y-88059450D01*
X126094028Y-87922665D01*
X125919935Y-87748572D01*
X125783150Y-87543860D01*
X125688932Y-87316397D01*
X125640900Y-87074922D01*
X125640900Y-86828718D01*
X125688932Y-86587243D01*
X125783150Y-86359780D01*
X125919935Y-86155068D01*
X126094028Y-85980975D01*
X126298740Y-85844190D01*
X126526203Y-85749972D01*
X126646941Y-85725956D01*
X126767676Y-85701940D01*
X127013884Y-85701940D01*
X127134619Y-85725956D01*
X127134619Y-85725956D01*
G37*
G36*
X94114619Y-85725956D02*
G01*
X94235357Y-85749972D01*
X94462820Y-85844190D01*
X94667532Y-85980975D01*
X94841625Y-86155068D01*
X94978410Y-86359780D01*
X95072628Y-86587243D01*
X95120660Y-86828718D01*
X95120660Y-87074922D01*
X95072628Y-87316397D01*
X94978410Y-87543860D01*
X94841625Y-87748572D01*
X94667532Y-87922665D01*
X94462820Y-88059450D01*
X94235357Y-88153668D01*
X94114619Y-88177684D01*
X93993884Y-88201700D01*
X93747676Y-88201700D01*
X93626941Y-88177684D01*
X93506203Y-88153668D01*
X93278740Y-88059450D01*
X93074028Y-87922665D01*
X92899935Y-87748572D01*
X92763150Y-87543860D01*
X92668932Y-87316397D01*
X92620900Y-87074922D01*
X92620900Y-86828718D01*
X92668932Y-86587243D01*
X92763150Y-86359780D01*
X92899935Y-86155068D01*
X93074028Y-85980975D01*
X93278740Y-85844190D01*
X93506203Y-85749972D01*
X93626941Y-85725956D01*
X93747676Y-85701940D01*
X93993884Y-85701940D01*
X94114619Y-85725956D01*
X94114619Y-85725956D01*
G37*
G36*
X109898179Y-84486436D02*
G01*
X110018917Y-84510452D01*
X110246380Y-84604670D01*
X110451092Y-84741455D01*
X110625185Y-84915548D01*
X110761970Y-85120260D01*
X110856188Y-85347723D01*
X110904220Y-85589198D01*
X110904220Y-85835402D01*
X110856188Y-86076877D01*
X110761970Y-86304340D01*
X110625185Y-86509052D01*
X110451092Y-86683145D01*
X110246380Y-86819930D01*
X110018917Y-86914148D01*
X109898179Y-86938164D01*
X109777444Y-86962180D01*
X109531236Y-86962180D01*
X109410500Y-86938164D01*
X109289763Y-86914148D01*
X109062300Y-86819930D01*
X108857588Y-86683145D01*
X108683495Y-86509052D01*
X108546710Y-86304340D01*
X108452492Y-86076877D01*
X108404460Y-85835402D01*
X108404460Y-85589198D01*
X108452492Y-85347723D01*
X108546710Y-85120260D01*
X108683495Y-84915548D01*
X108857588Y-84741455D01*
X109062300Y-84604670D01*
X109289763Y-84510452D01*
X109410501Y-84486436D01*
X109531236Y-84462420D01*
X109777444Y-84462420D01*
X109898179Y-84486436D01*
X109898179Y-84486436D01*
G37*
G36*
X76878179Y-84486436D02*
G01*
X76998917Y-84510452D01*
X77226380Y-84604670D01*
X77431092Y-84741455D01*
X77605185Y-84915548D01*
X77741970Y-85120260D01*
X77836188Y-85347723D01*
X77884220Y-85589198D01*
X77884220Y-85835402D01*
X77836188Y-86076877D01*
X77741970Y-86304340D01*
X77605185Y-86509052D01*
X77431092Y-86683145D01*
X77226380Y-86819930D01*
X76998917Y-86914148D01*
X76878180Y-86938164D01*
X76757444Y-86962180D01*
X76511236Y-86962180D01*
X76390500Y-86938164D01*
X76269763Y-86914148D01*
X76042300Y-86819930D01*
X75837588Y-86683145D01*
X75663495Y-86509052D01*
X75526710Y-86304340D01*
X75432492Y-86076877D01*
X75384460Y-85835402D01*
X75384460Y-85589198D01*
X75432492Y-85347723D01*
X75526710Y-85120260D01*
X75663495Y-84915548D01*
X75837588Y-84741455D01*
X76042300Y-84604670D01*
X76269763Y-84510452D01*
X76390501Y-84486436D01*
X76511236Y-84462420D01*
X76757444Y-84462420D01*
X76878179Y-84486436D01*
X76878179Y-84486436D01*
G37*
G36*
X125580139Y-82332516D02*
G01*
X125700877Y-82356532D01*
X125928340Y-82450750D01*
X126133052Y-82587535D01*
X126307145Y-82761628D01*
X126443930Y-82966340D01*
X126538148Y-83193803D01*
X126586180Y-83435278D01*
X126586180Y-83681482D01*
X126538148Y-83922957D01*
X126443930Y-84150420D01*
X126307145Y-84355132D01*
X126133052Y-84529225D01*
X125928340Y-84666010D01*
X125700877Y-84760228D01*
X125580140Y-84784244D01*
X125459404Y-84808260D01*
X125213196Y-84808260D01*
X125092460Y-84784244D01*
X124971723Y-84760228D01*
X124744260Y-84666010D01*
X124539548Y-84529225D01*
X124365455Y-84355132D01*
X124228670Y-84150420D01*
X124134452Y-83922957D01*
X124086420Y-83681482D01*
X124086420Y-83435278D01*
X124134452Y-83193803D01*
X124228670Y-82966340D01*
X124365455Y-82761628D01*
X124539548Y-82587535D01*
X124744260Y-82450750D01*
X124971723Y-82356532D01*
X125092461Y-82332516D01*
X125213196Y-82308500D01*
X125459404Y-82308500D01*
X125580139Y-82332516D01*
X125580139Y-82332516D01*
G37*
G36*
X92560139Y-82332516D02*
G01*
X92680877Y-82356532D01*
X92908340Y-82450750D01*
X93113052Y-82587535D01*
X93287145Y-82761628D01*
X93423930Y-82966340D01*
X93518148Y-83193803D01*
X93566180Y-83435278D01*
X93566180Y-83681482D01*
X93518148Y-83922957D01*
X93423930Y-84150420D01*
X93287145Y-84355132D01*
X93113052Y-84529225D01*
X92908340Y-84666010D01*
X92680877Y-84760228D01*
X92560140Y-84784244D01*
X92439404Y-84808260D01*
X92193196Y-84808260D01*
X92072460Y-84784244D01*
X91951723Y-84760228D01*
X91724260Y-84666010D01*
X91519548Y-84529225D01*
X91345455Y-84355132D01*
X91208670Y-84150420D01*
X91114452Y-83922957D01*
X91066420Y-83681482D01*
X91066420Y-83435278D01*
X91114452Y-83193803D01*
X91208670Y-82966340D01*
X91345455Y-82761628D01*
X91519548Y-82587535D01*
X91724260Y-82450750D01*
X91951723Y-82356532D01*
X92072461Y-82332516D01*
X92193196Y-82308500D01*
X92439404Y-82308500D01*
X92560139Y-82332516D01*
X92560139Y-82332516D01*
G37*
G36*
X112072419Y-81319056D02*
G01*
X112193157Y-81343072D01*
X112420620Y-81437290D01*
X112625332Y-81574075D01*
X112799425Y-81748168D01*
X112936210Y-81952880D01*
X113030428Y-82180343D01*
X113041395Y-82235479D01*
X113056637Y-82312103D01*
X113078460Y-82421818D01*
X113078460Y-82668022D01*
X113030428Y-82909497D01*
X112936210Y-83136960D01*
X112799425Y-83341672D01*
X112625332Y-83515765D01*
X112420620Y-83652550D01*
X112193157Y-83746768D01*
X112072420Y-83770784D01*
X111951684Y-83794800D01*
X111705476Y-83794800D01*
X111584740Y-83770784D01*
X111464003Y-83746768D01*
X111236540Y-83652550D01*
X111031828Y-83515765D01*
X110857735Y-83341672D01*
X110720950Y-83136960D01*
X110626732Y-82909497D01*
X110578700Y-82668022D01*
X110578700Y-82421818D01*
X110600524Y-82312103D01*
X110615765Y-82235479D01*
X110626732Y-82180343D01*
X110720950Y-81952880D01*
X110857735Y-81748168D01*
X111031828Y-81574075D01*
X111236540Y-81437290D01*
X111464003Y-81343072D01*
X111584741Y-81319056D01*
X111705476Y-81295040D01*
X111951684Y-81295040D01*
X112072419Y-81319056D01*
X112072419Y-81319056D01*
G37*
G36*
X79052419Y-81319056D02*
G01*
X79173157Y-81343072D01*
X79400620Y-81437290D01*
X79605332Y-81574075D01*
X79779425Y-81748168D01*
X79916210Y-81952880D01*
X80010428Y-82180343D01*
X80021395Y-82235479D01*
X80036637Y-82312103D01*
X80058460Y-82421818D01*
X80058460Y-82668022D01*
X80010428Y-82909497D01*
X79916210Y-83136960D01*
X79779425Y-83341672D01*
X79605332Y-83515765D01*
X79400620Y-83652550D01*
X79173157Y-83746768D01*
X79052420Y-83770784D01*
X78931684Y-83794800D01*
X78685476Y-83794800D01*
X78564740Y-83770784D01*
X78444003Y-83746768D01*
X78216540Y-83652550D01*
X78011828Y-83515765D01*
X77837735Y-83341672D01*
X77700950Y-83136960D01*
X77606732Y-82909497D01*
X77558700Y-82668022D01*
X77558700Y-82421818D01*
X77580524Y-82312103D01*
X77595765Y-82235479D01*
X77606732Y-82180343D01*
X77700950Y-81952880D01*
X77837735Y-81748168D01*
X78011828Y-81574075D01*
X78216540Y-81437290D01*
X78444003Y-81343072D01*
X78564741Y-81319056D01*
X78685476Y-81295040D01*
X78931684Y-81295040D01*
X79052419Y-81319056D01*
X79052419Y-81319056D01*
G37*
G36*
X158131104Y-81151585D02*
G01*
X158299626Y-81221389D01*
X158451291Y-81322728D01*
X158580272Y-81451709D01*
X158681611Y-81603374D01*
X158751415Y-81771896D01*
X158787000Y-81950797D01*
X158787000Y-82133203D01*
X158751415Y-82312104D01*
X158681611Y-82480626D01*
X158580272Y-82632291D01*
X158451291Y-82761272D01*
X158299626Y-82862611D01*
X158131104Y-82932415D01*
X157952203Y-82968000D01*
X157769797Y-82968000D01*
X157590896Y-82932415D01*
X157422374Y-82862611D01*
X157270709Y-82761272D01*
X157141728Y-82632291D01*
X157040389Y-82480626D01*
X156970585Y-82312104D01*
X156935000Y-82133203D01*
X156935000Y-81950797D01*
X156970585Y-81771896D01*
X157040389Y-81603374D01*
X157141728Y-81451709D01*
X157270709Y-81322728D01*
X157422374Y-81221389D01*
X157590896Y-81151585D01*
X157769797Y-81116000D01*
X157952203Y-81116000D01*
X158131104Y-81151585D01*
X158131104Y-81151585D01*
G37*
G36*
X160671104Y-81151585D02*
G01*
X160839626Y-81221389D01*
X160991291Y-81322728D01*
X161120272Y-81451709D01*
X161221611Y-81603374D01*
X161291415Y-81771896D01*
X161327000Y-81950797D01*
X161327000Y-82133203D01*
X161291415Y-82312104D01*
X161221611Y-82480626D01*
X161120272Y-82632291D01*
X160991291Y-82761272D01*
X160839626Y-82862611D01*
X160671104Y-82932415D01*
X160492203Y-82968000D01*
X160309797Y-82968000D01*
X160130896Y-82932415D01*
X159962374Y-82862611D01*
X159810709Y-82761272D01*
X159681728Y-82632291D01*
X159580389Y-82480626D01*
X159510585Y-82312104D01*
X159475000Y-82133203D01*
X159475000Y-81950797D01*
X159510585Y-81771896D01*
X159580389Y-81603374D01*
X159681728Y-81451709D01*
X159810709Y-81322728D01*
X159962374Y-81221389D01*
X160130896Y-81151585D01*
X160309797Y-81116000D01*
X160492203Y-81116000D01*
X160671104Y-81151585D01*
X160671104Y-81151585D01*
G37*
G36*
X163211104Y-81151585D02*
G01*
X163379626Y-81221389D01*
X163531291Y-81322728D01*
X163660272Y-81451709D01*
X163761611Y-81603374D01*
X163831415Y-81771896D01*
X163867000Y-81950797D01*
X163867000Y-82133203D01*
X163831415Y-82312104D01*
X163761611Y-82480626D01*
X163660272Y-82632291D01*
X163531291Y-82761272D01*
X163379626Y-82862611D01*
X163211104Y-82932415D01*
X163032203Y-82968000D01*
X162849797Y-82968000D01*
X162670896Y-82932415D01*
X162502374Y-82862611D01*
X162350709Y-82761272D01*
X162221728Y-82632291D01*
X162120389Y-82480626D01*
X162050585Y-82312104D01*
X162015000Y-82133203D01*
X162015000Y-81950797D01*
X162050585Y-81771896D01*
X162120389Y-81603374D01*
X162221728Y-81451709D01*
X162350709Y-81322728D01*
X162502374Y-81221389D01*
X162670896Y-81151585D01*
X162849797Y-81116000D01*
X163032203Y-81116000D01*
X163211104Y-81151585D01*
X163211104Y-81151585D01*
G37*
G36*
X168291104Y-81151585D02*
G01*
X168459626Y-81221389D01*
X168611291Y-81322728D01*
X168740272Y-81451709D01*
X168841611Y-81603374D01*
X168911415Y-81771896D01*
X168947000Y-81950797D01*
X168947000Y-82133203D01*
X168911415Y-82312104D01*
X168841611Y-82480626D01*
X168740272Y-82632291D01*
X168611291Y-82761272D01*
X168459626Y-82862611D01*
X168291104Y-82932415D01*
X168112203Y-82968000D01*
X167929797Y-82968000D01*
X167750896Y-82932415D01*
X167582374Y-82862611D01*
X167430709Y-82761272D01*
X167301728Y-82632291D01*
X167200389Y-82480626D01*
X167130585Y-82312104D01*
X167095000Y-82133203D01*
X167095000Y-81950797D01*
X167130585Y-81771896D01*
X167200389Y-81603374D01*
X167301728Y-81451709D01*
X167430709Y-81322728D01*
X167582374Y-81221389D01*
X167750896Y-81151585D01*
X167929797Y-81116000D01*
X168112203Y-81116000D01*
X168291104Y-81151585D01*
X168291104Y-81151585D01*
G37*
G36*
X165751104Y-81151585D02*
G01*
X165919626Y-81221389D01*
X166071291Y-81322728D01*
X166200272Y-81451709D01*
X166301611Y-81603374D01*
X166371415Y-81771896D01*
X166407000Y-81950797D01*
X166407000Y-82133203D01*
X166371415Y-82312104D01*
X166301611Y-82480626D01*
X166200272Y-82632291D01*
X166071291Y-82761272D01*
X165919626Y-82862611D01*
X165751104Y-82932415D01*
X165572203Y-82968000D01*
X165389797Y-82968000D01*
X165210896Y-82932415D01*
X165042374Y-82862611D01*
X164890709Y-82761272D01*
X164761728Y-82632291D01*
X164660389Y-82480626D01*
X164590585Y-82312104D01*
X164555000Y-82133203D01*
X164555000Y-81950797D01*
X164590585Y-81771896D01*
X164660389Y-81603374D01*
X164761728Y-81451709D01*
X164890709Y-81322728D01*
X165042374Y-81221389D01*
X165210896Y-81151585D01*
X165389797Y-81116000D01*
X165572203Y-81116000D01*
X165751104Y-81151585D01*
X165751104Y-81151585D01*
G37*
G36*
X170831104Y-81151585D02*
G01*
X170999626Y-81221389D01*
X171151291Y-81322728D01*
X171280272Y-81451709D01*
X171381611Y-81603374D01*
X171451415Y-81771896D01*
X171487000Y-81950797D01*
X171487000Y-82133203D01*
X171451415Y-82312104D01*
X171381611Y-82480626D01*
X171280272Y-82632291D01*
X171151291Y-82761272D01*
X170999626Y-82862611D01*
X170831104Y-82932415D01*
X170652203Y-82968000D01*
X170469797Y-82968000D01*
X170290896Y-82932415D01*
X170122374Y-82862611D01*
X169970709Y-82761272D01*
X169841728Y-82632291D01*
X169740389Y-82480626D01*
X169670585Y-82312104D01*
X169635000Y-82133203D01*
X169635000Y-81950797D01*
X169670585Y-81771896D01*
X169740389Y-81603374D01*
X169841728Y-81451709D01*
X169970709Y-81322728D01*
X170122374Y-81221389D01*
X170290896Y-81151585D01*
X170469797Y-81116000D01*
X170652203Y-81116000D01*
X170831104Y-81151585D01*
X170831104Y-81151585D01*
G37*
G36*
X150795878Y-80990296D02*
G01*
X150874385Y-80998028D01*
X151025482Y-81043863D01*
X151164733Y-81118294D01*
X151286788Y-81218462D01*
X151386956Y-81340517D01*
X151461387Y-81479768D01*
X151507222Y-81630865D01*
X151522698Y-81788000D01*
X151507222Y-81945135D01*
X151461387Y-82096232D01*
X151386956Y-82235483D01*
X151286788Y-82357538D01*
X151164733Y-82457706D01*
X151025482Y-82532137D01*
X150874385Y-82577972D01*
X150795878Y-82585704D01*
X150756626Y-82589570D01*
X149979374Y-82589570D01*
X149940122Y-82585704D01*
X149861615Y-82577972D01*
X149710518Y-82532137D01*
X149571267Y-82457706D01*
X149449212Y-82357538D01*
X149349044Y-82235483D01*
X149274613Y-82096232D01*
X149228778Y-81945135D01*
X149213302Y-81788000D01*
X149228778Y-81630865D01*
X149274613Y-81479768D01*
X149349044Y-81340517D01*
X149449212Y-81218462D01*
X149571267Y-81118294D01*
X149710518Y-81043863D01*
X149861615Y-80998028D01*
X149940122Y-80990296D01*
X149979374Y-80986430D01*
X150756626Y-80986430D01*
X150795878Y-80990296D01*
X150795878Y-80990296D01*
G37*
G36*
X135555878Y-80990296D02*
G01*
X135634385Y-80998028D01*
X135785482Y-81043863D01*
X135924733Y-81118294D01*
X136046788Y-81218462D01*
X136146956Y-81340517D01*
X136221387Y-81479768D01*
X136267222Y-81630865D01*
X136282698Y-81788000D01*
X136267222Y-81945135D01*
X136221387Y-82096232D01*
X136146956Y-82235483D01*
X136046788Y-82357538D01*
X135924733Y-82457706D01*
X135785482Y-82532137D01*
X135634385Y-82577972D01*
X135555878Y-82585704D01*
X135516626Y-82589570D01*
X134739374Y-82589570D01*
X134700122Y-82585704D01*
X134621615Y-82577972D01*
X134470518Y-82532137D01*
X134331267Y-82457706D01*
X134209212Y-82357538D01*
X134109044Y-82235483D01*
X134034613Y-82096232D01*
X133988778Y-81945135D01*
X133973302Y-81788000D01*
X133988778Y-81630865D01*
X134034613Y-81479768D01*
X134109044Y-81340517D01*
X134209212Y-81218462D01*
X134331267Y-81118294D01*
X134470518Y-81043863D01*
X134621615Y-80998028D01*
X134700122Y-80990296D01*
X134739374Y-80986430D01*
X135516626Y-80986430D01*
X135555878Y-80990296D01*
X135555878Y-80990296D01*
G37*
G36*
X89662000Y-79736636D02*
G01*
X89782737Y-79760652D01*
X90010200Y-79854870D01*
X90214912Y-79991655D01*
X90389005Y-80165748D01*
X90525790Y-80370460D01*
X90620008Y-80597923D01*
X90620008Y-80597925D01*
X90668040Y-80839396D01*
X90668040Y-81085604D01*
X90665200Y-81099880D01*
X90620008Y-81327077D01*
X90525790Y-81554540D01*
X90389005Y-81759252D01*
X90214912Y-81933345D01*
X90010200Y-82070130D01*
X89782737Y-82164348D01*
X89662000Y-82188364D01*
X89541264Y-82212380D01*
X89295056Y-82212380D01*
X89174320Y-82188364D01*
X89053583Y-82164348D01*
X88826120Y-82070130D01*
X88621408Y-81933345D01*
X88447315Y-81759252D01*
X88310530Y-81554540D01*
X88216312Y-81327077D01*
X88171120Y-81099880D01*
X88168280Y-81085604D01*
X88168280Y-80839396D01*
X88216312Y-80597925D01*
X88216312Y-80597923D01*
X88310530Y-80370460D01*
X88447315Y-80165748D01*
X88621408Y-79991655D01*
X88826120Y-79854870D01*
X89053583Y-79760652D01*
X89174320Y-79736636D01*
X89295056Y-79712620D01*
X89541264Y-79712620D01*
X89662000Y-79736636D01*
X89662000Y-79736636D01*
G37*
G36*
X122682000Y-79736636D02*
G01*
X122802737Y-79760652D01*
X123030200Y-79854870D01*
X123234912Y-79991655D01*
X123409005Y-80165748D01*
X123545790Y-80370460D01*
X123640008Y-80597923D01*
X123640008Y-80597925D01*
X123688040Y-80839396D01*
X123688040Y-81085604D01*
X123685200Y-81099880D01*
X123640008Y-81327077D01*
X123545790Y-81554540D01*
X123409005Y-81759252D01*
X123234912Y-81933345D01*
X123030200Y-82070130D01*
X122802737Y-82164348D01*
X122682000Y-82188364D01*
X122561264Y-82212380D01*
X122315056Y-82212380D01*
X122194320Y-82188364D01*
X122073583Y-82164348D01*
X121846120Y-82070130D01*
X121641408Y-81933345D01*
X121467315Y-81759252D01*
X121330530Y-81554540D01*
X121236312Y-81327077D01*
X121191120Y-81099880D01*
X121188280Y-81085604D01*
X121188280Y-80839396D01*
X121236312Y-80597925D01*
X121236312Y-80597923D01*
X121330530Y-80370460D01*
X121467315Y-80165748D01*
X121641408Y-79991655D01*
X121846120Y-79854870D01*
X122073583Y-79760652D01*
X122194320Y-79736636D01*
X122315056Y-79712620D01*
X122561264Y-79712620D01*
X122682000Y-79736636D01*
X122682000Y-79736636D01*
G37*
G36*
X82212179Y-79281976D02*
G01*
X82332917Y-79305992D01*
X82560380Y-79400210D01*
X82765092Y-79536995D01*
X82939185Y-79711088D01*
X83075970Y-79915800D01*
X83170188Y-80143263D01*
X83185705Y-80221272D01*
X83215381Y-80370462D01*
X83218220Y-80384738D01*
X83218220Y-80630942D01*
X83170188Y-80872417D01*
X83075970Y-81099880D01*
X82939185Y-81304592D01*
X82765092Y-81478685D01*
X82560380Y-81615470D01*
X82332917Y-81709688D01*
X82212180Y-81733704D01*
X82091444Y-81757720D01*
X81845236Y-81757720D01*
X81724500Y-81733704D01*
X81603763Y-81709688D01*
X81376300Y-81615470D01*
X81171588Y-81478685D01*
X80997495Y-81304592D01*
X80860710Y-81099880D01*
X80766492Y-80872417D01*
X80718460Y-80630942D01*
X80718460Y-80384738D01*
X80721300Y-80370462D01*
X80750975Y-80221272D01*
X80766492Y-80143263D01*
X80860710Y-79915800D01*
X80997495Y-79711088D01*
X81171588Y-79536995D01*
X81376300Y-79400210D01*
X81603763Y-79305992D01*
X81724501Y-79281976D01*
X81845236Y-79257960D01*
X82091444Y-79257960D01*
X82212179Y-79281976D01*
X82212179Y-79281976D01*
G37*
G36*
X115232179Y-79281976D02*
G01*
X115352917Y-79305992D01*
X115580380Y-79400210D01*
X115785092Y-79536995D01*
X115959185Y-79711088D01*
X116095970Y-79915800D01*
X116190188Y-80143263D01*
X116205705Y-80221272D01*
X116235381Y-80370462D01*
X116238220Y-80384738D01*
X116238220Y-80630942D01*
X116190188Y-80872417D01*
X116095970Y-81099880D01*
X115959185Y-81304592D01*
X115785092Y-81478685D01*
X115580380Y-81615470D01*
X115352917Y-81709688D01*
X115232180Y-81733704D01*
X115111444Y-81757720D01*
X114865236Y-81757720D01*
X114744500Y-81733704D01*
X114623763Y-81709688D01*
X114396300Y-81615470D01*
X114191588Y-81478685D01*
X114017495Y-81304592D01*
X113880710Y-81099880D01*
X113786492Y-80872417D01*
X113738460Y-80630942D01*
X113738460Y-80384738D01*
X113741300Y-80370462D01*
X113770975Y-80221272D01*
X113786492Y-80143263D01*
X113880710Y-79915800D01*
X114017495Y-79711088D01*
X114191588Y-79536995D01*
X114396300Y-79400210D01*
X114623763Y-79305992D01*
X114744501Y-79281976D01*
X114865236Y-79257960D01*
X115111444Y-79257960D01*
X115232179Y-79281976D01*
X115232179Y-79281976D01*
G37*
G36*
X85976460Y-78702856D02*
G01*
X86097197Y-78726872D01*
X86324660Y-78821090D01*
X86529372Y-78957875D01*
X86703465Y-79131968D01*
X86840250Y-79336680D01*
X86934468Y-79564143D01*
X86934468Y-79564145D01*
X86982500Y-79805616D01*
X86982500Y-80051824D01*
X86964311Y-80143263D01*
X86934468Y-80293297D01*
X86840250Y-80520760D01*
X86703465Y-80725472D01*
X86529372Y-80899565D01*
X86324660Y-81036350D01*
X86097197Y-81130568D01*
X85976459Y-81154584D01*
X85855724Y-81178600D01*
X85609516Y-81178600D01*
X85488781Y-81154584D01*
X85368043Y-81130568D01*
X85140580Y-81036350D01*
X84935868Y-80899565D01*
X84761775Y-80725472D01*
X84624990Y-80520760D01*
X84530772Y-80293297D01*
X84500929Y-80143263D01*
X84482740Y-80051824D01*
X84482740Y-79805616D01*
X84530772Y-79564145D01*
X84530772Y-79564143D01*
X84624990Y-79336680D01*
X84761775Y-79131968D01*
X84935868Y-78957875D01*
X85140580Y-78821090D01*
X85368043Y-78726872D01*
X85488780Y-78702856D01*
X85609516Y-78678840D01*
X85855724Y-78678840D01*
X85976460Y-78702856D01*
X85976460Y-78702856D01*
G37*
G36*
X118996460Y-78702856D02*
G01*
X119117197Y-78726872D01*
X119344660Y-78821090D01*
X119549372Y-78957875D01*
X119723465Y-79131968D01*
X119860250Y-79336680D01*
X119954468Y-79564143D01*
X119954468Y-79564145D01*
X120002500Y-79805616D01*
X120002500Y-80051824D01*
X119984311Y-80143263D01*
X119954468Y-80293297D01*
X119860250Y-80520760D01*
X119723465Y-80725472D01*
X119549372Y-80899565D01*
X119344660Y-81036350D01*
X119117197Y-81130568D01*
X118996459Y-81154584D01*
X118875724Y-81178600D01*
X118629516Y-81178600D01*
X118508781Y-81154584D01*
X118388043Y-81130568D01*
X118160580Y-81036350D01*
X117955868Y-80899565D01*
X117781775Y-80725472D01*
X117644990Y-80520760D01*
X117550772Y-80293297D01*
X117520929Y-80143263D01*
X117502740Y-80051824D01*
X117502740Y-79805616D01*
X117550772Y-79564145D01*
X117550772Y-79564143D01*
X117644990Y-79336680D01*
X117781775Y-79131968D01*
X117955868Y-78957875D01*
X118160580Y-78821090D01*
X118388043Y-78726872D01*
X118508780Y-78702856D01*
X118629516Y-78678840D01*
X118875724Y-78678840D01*
X118996460Y-78702856D01*
X118996460Y-78702856D01*
G37*
G36*
X170831104Y-78611585D02*
G01*
X170999626Y-78681389D01*
X171151291Y-78782728D01*
X171280272Y-78911709D01*
X171381611Y-79063374D01*
X171451415Y-79231896D01*
X171487000Y-79410797D01*
X171487000Y-79593203D01*
X171451415Y-79772104D01*
X171381611Y-79940626D01*
X171280272Y-80092291D01*
X171151291Y-80221272D01*
X170999626Y-80322611D01*
X170831104Y-80392415D01*
X170652203Y-80428000D01*
X170469797Y-80428000D01*
X170290896Y-80392415D01*
X170122374Y-80322611D01*
X169970709Y-80221272D01*
X169841728Y-80092291D01*
X169740389Y-79940626D01*
X169670585Y-79772104D01*
X169635000Y-79593203D01*
X169635000Y-79410797D01*
X169670585Y-79231896D01*
X169740389Y-79063374D01*
X169841728Y-78911709D01*
X169970709Y-78782728D01*
X170122374Y-78681389D01*
X170290896Y-78611585D01*
X170469797Y-78576000D01*
X170652203Y-78576000D01*
X170831104Y-78611585D01*
X170831104Y-78611585D01*
G37*
G36*
X163867000Y-80428000D02*
G01*
X162015000Y-80428000D01*
X162015000Y-78576000D01*
X163867000Y-78576000D01*
X163867000Y-80428000D01*
X163867000Y-80428000D01*
G37*
G36*
X165751104Y-78611585D02*
G01*
X165919626Y-78681389D01*
X166071291Y-78782728D01*
X166200272Y-78911709D01*
X166301611Y-79063374D01*
X166371415Y-79231896D01*
X166407000Y-79410797D01*
X166407000Y-79593203D01*
X166371415Y-79772104D01*
X166301611Y-79940626D01*
X166200272Y-80092291D01*
X166071291Y-80221272D01*
X165919626Y-80322611D01*
X165751104Y-80392415D01*
X165572203Y-80428000D01*
X165389797Y-80428000D01*
X165210896Y-80392415D01*
X165042374Y-80322611D01*
X164890709Y-80221272D01*
X164761728Y-80092291D01*
X164660389Y-79940626D01*
X164590585Y-79772104D01*
X164555000Y-79593203D01*
X164555000Y-79410797D01*
X164590585Y-79231896D01*
X164660389Y-79063374D01*
X164761728Y-78911709D01*
X164890709Y-78782728D01*
X165042374Y-78681389D01*
X165210896Y-78611585D01*
X165389797Y-78576000D01*
X165572203Y-78576000D01*
X165751104Y-78611585D01*
X165751104Y-78611585D01*
G37*
G36*
X173371104Y-78611585D02*
G01*
X173539626Y-78681389D01*
X173691291Y-78782728D01*
X173820272Y-78911709D01*
X173921611Y-79063374D01*
X173991415Y-79231896D01*
X174027000Y-79410797D01*
X174027000Y-79593203D01*
X173991415Y-79772104D01*
X173921611Y-79940626D01*
X173820272Y-80092291D01*
X173691291Y-80221272D01*
X173539626Y-80322611D01*
X173371104Y-80392415D01*
X173192203Y-80428000D01*
X173009797Y-80428000D01*
X172830896Y-80392415D01*
X172662374Y-80322611D01*
X172510709Y-80221272D01*
X172381728Y-80092291D01*
X172280389Y-79940626D01*
X172210585Y-79772104D01*
X172175000Y-79593203D01*
X172175000Y-79410797D01*
X172210585Y-79231896D01*
X172280389Y-79063374D01*
X172381728Y-78911709D01*
X172510709Y-78782728D01*
X172662374Y-78681389D01*
X172830896Y-78611585D01*
X173009797Y-78576000D01*
X173192203Y-78576000D01*
X173371104Y-78611585D01*
X173371104Y-78611585D01*
G37*
G36*
X168291104Y-78611585D02*
G01*
X168459626Y-78681389D01*
X168611291Y-78782728D01*
X168740272Y-78911709D01*
X168841611Y-79063374D01*
X168911415Y-79231896D01*
X168947000Y-79410797D01*
X168947000Y-79593203D01*
X168911415Y-79772104D01*
X168841611Y-79940626D01*
X168740272Y-80092291D01*
X168611291Y-80221272D01*
X168459626Y-80322611D01*
X168291104Y-80392415D01*
X168112203Y-80428000D01*
X167929797Y-80428000D01*
X167750896Y-80392415D01*
X167582374Y-80322611D01*
X167430709Y-80221272D01*
X167301728Y-80092291D01*
X167200389Y-79940626D01*
X167130585Y-79772104D01*
X167095000Y-79593203D01*
X167095000Y-79410797D01*
X167130585Y-79231896D01*
X167200389Y-79063374D01*
X167301728Y-78911709D01*
X167430709Y-78782728D01*
X167582374Y-78681389D01*
X167750896Y-78611585D01*
X167929797Y-78576000D01*
X168112203Y-78576000D01*
X168291104Y-78611585D01*
X168291104Y-78611585D01*
G37*
G36*
X160671104Y-78611585D02*
G01*
X160839626Y-78681389D01*
X160991291Y-78782728D01*
X161120272Y-78911709D01*
X161221611Y-79063374D01*
X161291415Y-79231896D01*
X161327000Y-79410797D01*
X161327000Y-79593203D01*
X161291415Y-79772104D01*
X161221611Y-79940626D01*
X161120272Y-80092291D01*
X160991291Y-80221272D01*
X160839626Y-80322611D01*
X160671104Y-80392415D01*
X160492203Y-80428000D01*
X160309797Y-80428000D01*
X160130896Y-80392415D01*
X159962374Y-80322611D01*
X159810709Y-80221272D01*
X159681728Y-80092291D01*
X159580389Y-79940626D01*
X159510585Y-79772104D01*
X159475000Y-79593203D01*
X159475000Y-79410797D01*
X159510585Y-79231896D01*
X159580389Y-79063374D01*
X159681728Y-78911709D01*
X159810709Y-78782728D01*
X159962374Y-78681389D01*
X160130896Y-78611585D01*
X160309797Y-78576000D01*
X160492203Y-78576000D01*
X160671104Y-78611585D01*
X160671104Y-78611585D01*
G37*
G36*
X158131104Y-78611585D02*
G01*
X158299626Y-78681389D01*
X158451291Y-78782728D01*
X158580272Y-78911709D01*
X158681611Y-79063374D01*
X158751415Y-79231896D01*
X158787000Y-79410797D01*
X158787000Y-79593203D01*
X158751415Y-79772104D01*
X158681611Y-79940626D01*
X158580272Y-80092291D01*
X158451291Y-80221272D01*
X158299626Y-80322611D01*
X158131104Y-80392415D01*
X157952203Y-80428000D01*
X157769797Y-80428000D01*
X157590896Y-80392415D01*
X157422374Y-80322611D01*
X157270709Y-80221272D01*
X157141728Y-80092291D01*
X157040389Y-79940626D01*
X156970585Y-79772104D01*
X156935000Y-79593203D01*
X156935000Y-79410797D01*
X156970585Y-79231896D01*
X157040389Y-79063374D01*
X157141728Y-78911709D01*
X157270709Y-78782728D01*
X157422374Y-78681389D01*
X157590896Y-78611585D01*
X157769797Y-78576000D01*
X157952203Y-78576000D01*
X158131104Y-78611585D01*
X158131104Y-78611585D01*
G37*
G36*
X155591104Y-78611585D02*
G01*
X155759626Y-78681389D01*
X155911291Y-78782728D01*
X156040272Y-78911709D01*
X156141611Y-79063374D01*
X156211415Y-79231896D01*
X156247000Y-79410797D01*
X156247000Y-79593203D01*
X156211415Y-79772104D01*
X156141611Y-79940626D01*
X156040272Y-80092291D01*
X155911291Y-80221272D01*
X155759626Y-80322611D01*
X155591104Y-80392415D01*
X155412203Y-80428000D01*
X155229797Y-80428000D01*
X155050896Y-80392415D01*
X154882374Y-80322611D01*
X154730709Y-80221272D01*
X154601728Y-80092291D01*
X154500389Y-79940626D01*
X154430585Y-79772104D01*
X154395000Y-79593203D01*
X154395000Y-79410797D01*
X154430585Y-79231896D01*
X154500389Y-79063374D01*
X154601728Y-78911709D01*
X154730709Y-78782728D01*
X154882374Y-78681389D01*
X155050896Y-78611585D01*
X155229797Y-78576000D01*
X155412203Y-78576000D01*
X155591104Y-78611585D01*
X155591104Y-78611585D01*
G37*
G36*
X150795878Y-78450296D02*
G01*
X150874385Y-78458028D01*
X151025482Y-78503863D01*
X151164733Y-78578294D01*
X151286788Y-78678462D01*
X151386956Y-78800517D01*
X151461387Y-78939768D01*
X151507222Y-79090865D01*
X151522698Y-79248000D01*
X151507222Y-79405135D01*
X151461387Y-79556232D01*
X151461386Y-79556234D01*
X151457157Y-79564145D01*
X151386956Y-79695483D01*
X151286788Y-79817538D01*
X151164733Y-79917706D01*
X151025482Y-79992137D01*
X150874385Y-80037972D01*
X150795878Y-80045704D01*
X150756626Y-80049570D01*
X149979374Y-80049570D01*
X149940122Y-80045704D01*
X149861615Y-80037972D01*
X149710518Y-79992137D01*
X149571267Y-79917706D01*
X149449212Y-79817538D01*
X149349044Y-79695483D01*
X149278843Y-79564145D01*
X149274614Y-79556234D01*
X149274613Y-79556232D01*
X149228778Y-79405135D01*
X149213302Y-79248000D01*
X149228778Y-79090865D01*
X149274613Y-78939768D01*
X149349044Y-78800517D01*
X149449212Y-78678462D01*
X149571267Y-78578294D01*
X149710518Y-78503863D01*
X149861615Y-78458028D01*
X149940122Y-78450296D01*
X149979374Y-78446430D01*
X150756626Y-78446430D01*
X150795878Y-78450296D01*
X150795878Y-78450296D01*
G37*
G36*
X135555878Y-78450296D02*
G01*
X135634385Y-78458028D01*
X135785482Y-78503863D01*
X135924733Y-78578294D01*
X136046788Y-78678462D01*
X136146956Y-78800517D01*
X136221387Y-78939768D01*
X136267222Y-79090865D01*
X136282698Y-79248000D01*
X136267222Y-79405135D01*
X136221387Y-79556232D01*
X136221386Y-79556234D01*
X136217157Y-79564145D01*
X136146956Y-79695483D01*
X136046788Y-79817538D01*
X135924733Y-79917706D01*
X135785482Y-79992137D01*
X135634385Y-80037972D01*
X135555878Y-80045704D01*
X135516626Y-80049570D01*
X134739374Y-80049570D01*
X134700122Y-80045704D01*
X134621615Y-80037972D01*
X134470518Y-79992137D01*
X134331267Y-79917706D01*
X134209212Y-79817538D01*
X134109044Y-79695483D01*
X134038843Y-79564145D01*
X134034614Y-79556234D01*
X134034613Y-79556232D01*
X133988778Y-79405135D01*
X133973302Y-79248000D01*
X133988778Y-79090865D01*
X134034613Y-78939768D01*
X134109044Y-78800517D01*
X134209212Y-78678462D01*
X134331267Y-78578294D01*
X134470518Y-78503863D01*
X134621615Y-78458028D01*
X134700122Y-78450296D01*
X134739374Y-78446430D01*
X135516626Y-78446430D01*
X135555878Y-78450296D01*
X135555878Y-78450296D01*
G37*
G36*
X170831104Y-76071585D02*
G01*
X170999626Y-76141389D01*
X171151291Y-76242728D01*
X171280272Y-76371709D01*
X171381611Y-76523374D01*
X171451415Y-76691896D01*
X171487000Y-76870797D01*
X171487000Y-77053203D01*
X171451415Y-77232104D01*
X171381611Y-77400626D01*
X171280272Y-77552291D01*
X171151291Y-77681272D01*
X170999626Y-77782611D01*
X170831104Y-77852415D01*
X170652203Y-77888000D01*
X170469797Y-77888000D01*
X170290896Y-77852415D01*
X170122374Y-77782611D01*
X169970709Y-77681272D01*
X169841728Y-77552291D01*
X169740389Y-77400626D01*
X169670585Y-77232104D01*
X169635000Y-77053203D01*
X169635000Y-76870797D01*
X169670585Y-76691896D01*
X169740389Y-76523374D01*
X169841728Y-76371709D01*
X169970709Y-76242728D01*
X170122374Y-76141389D01*
X170290896Y-76071585D01*
X170469797Y-76036000D01*
X170652203Y-76036000D01*
X170831104Y-76071585D01*
X170831104Y-76071585D01*
G37*
G36*
X155591104Y-76071585D02*
G01*
X155759626Y-76141389D01*
X155911291Y-76242728D01*
X156040272Y-76371709D01*
X156141611Y-76523374D01*
X156211415Y-76691896D01*
X156247000Y-76870797D01*
X156247000Y-77053203D01*
X156211415Y-77232104D01*
X156141611Y-77400626D01*
X156040272Y-77552291D01*
X155911291Y-77681272D01*
X155759626Y-77782611D01*
X155591104Y-77852415D01*
X155412203Y-77888000D01*
X155229797Y-77888000D01*
X155050896Y-77852415D01*
X154882374Y-77782611D01*
X154730709Y-77681272D01*
X154601728Y-77552291D01*
X154500389Y-77400626D01*
X154430585Y-77232104D01*
X154395000Y-77053203D01*
X154395000Y-76870797D01*
X154430585Y-76691896D01*
X154500389Y-76523374D01*
X154601728Y-76371709D01*
X154730709Y-76242728D01*
X154882374Y-76141389D01*
X155050896Y-76071585D01*
X155229797Y-76036000D01*
X155412203Y-76036000D01*
X155591104Y-76071585D01*
X155591104Y-76071585D01*
G37*
G36*
X158131104Y-76071585D02*
G01*
X158299626Y-76141389D01*
X158451291Y-76242728D01*
X158580272Y-76371709D01*
X158681611Y-76523374D01*
X158751415Y-76691896D01*
X158787000Y-76870797D01*
X158787000Y-77053203D01*
X158751415Y-77232104D01*
X158681611Y-77400626D01*
X158580272Y-77552291D01*
X158451291Y-77681272D01*
X158299626Y-77782611D01*
X158131104Y-77852415D01*
X157952203Y-77888000D01*
X157769797Y-77888000D01*
X157590896Y-77852415D01*
X157422374Y-77782611D01*
X157270709Y-77681272D01*
X157141728Y-77552291D01*
X157040389Y-77400626D01*
X156970585Y-77232104D01*
X156935000Y-77053203D01*
X156935000Y-76870797D01*
X156970585Y-76691896D01*
X157040389Y-76523374D01*
X157141728Y-76371709D01*
X157270709Y-76242728D01*
X157422374Y-76141389D01*
X157590896Y-76071585D01*
X157769797Y-76036000D01*
X157952203Y-76036000D01*
X158131104Y-76071585D01*
X158131104Y-76071585D01*
G37*
G36*
X173371104Y-76071585D02*
G01*
X173539626Y-76141389D01*
X173691291Y-76242728D01*
X173820272Y-76371709D01*
X173921611Y-76523374D01*
X173991415Y-76691896D01*
X174027000Y-76870797D01*
X174027000Y-77053203D01*
X173991415Y-77232104D01*
X173921611Y-77400626D01*
X173820272Y-77552291D01*
X173691291Y-77681272D01*
X173539626Y-77782611D01*
X173371104Y-77852415D01*
X173192203Y-77888000D01*
X173009797Y-77888000D01*
X172830896Y-77852415D01*
X172662374Y-77782611D01*
X172510709Y-77681272D01*
X172381728Y-77552291D01*
X172280389Y-77400626D01*
X172210585Y-77232104D01*
X172175000Y-77053203D01*
X172175000Y-76870797D01*
X172210585Y-76691896D01*
X172280389Y-76523374D01*
X172381728Y-76371709D01*
X172510709Y-76242728D01*
X172662374Y-76141389D01*
X172830896Y-76071585D01*
X173009797Y-76036000D01*
X173192203Y-76036000D01*
X173371104Y-76071585D01*
X173371104Y-76071585D01*
G37*
G36*
X150795878Y-75910296D02*
G01*
X150874385Y-75918028D01*
X151025482Y-75963863D01*
X151164733Y-76038294D01*
X151286788Y-76138462D01*
X151386956Y-76260517D01*
X151461387Y-76399768D01*
X151507222Y-76550865D01*
X151522698Y-76708000D01*
X151507222Y-76865135D01*
X151461387Y-77016232D01*
X151386956Y-77155483D01*
X151286788Y-77277538D01*
X151164733Y-77377706D01*
X151025482Y-77452137D01*
X150874385Y-77497972D01*
X150795878Y-77505704D01*
X150756626Y-77509570D01*
X149979374Y-77509570D01*
X149940122Y-77505704D01*
X149861615Y-77497972D01*
X149710518Y-77452137D01*
X149571267Y-77377706D01*
X149449212Y-77277538D01*
X149349044Y-77155483D01*
X149274613Y-77016232D01*
X149228778Y-76865135D01*
X149213302Y-76708000D01*
X149228778Y-76550865D01*
X149274613Y-76399768D01*
X149349044Y-76260517D01*
X149449212Y-76138462D01*
X149571267Y-76038294D01*
X149710518Y-75963863D01*
X149861615Y-75918028D01*
X149940122Y-75910296D01*
X149979374Y-75906430D01*
X150756626Y-75906430D01*
X150795878Y-75910296D01*
X150795878Y-75910296D01*
G37*
G36*
X135555878Y-75910296D02*
G01*
X135634385Y-75918028D01*
X135785482Y-75963863D01*
X135924733Y-76038294D01*
X136046788Y-76138462D01*
X136146956Y-76260517D01*
X136221387Y-76399768D01*
X136267222Y-76550865D01*
X136282698Y-76708000D01*
X136267222Y-76865135D01*
X136221387Y-77016232D01*
X136146956Y-77155483D01*
X136046788Y-77277538D01*
X135924733Y-77377706D01*
X135785482Y-77452137D01*
X135634385Y-77497972D01*
X135555878Y-77505704D01*
X135516626Y-77509570D01*
X134739374Y-77509570D01*
X134700122Y-77505704D01*
X134621615Y-77497972D01*
X134470518Y-77452137D01*
X134331267Y-77377706D01*
X134209212Y-77277538D01*
X134109044Y-77155483D01*
X134034613Y-77016232D01*
X133988778Y-76865135D01*
X133973302Y-76708000D01*
X133988778Y-76550865D01*
X134034613Y-76399768D01*
X134109044Y-76260517D01*
X134209212Y-76138462D01*
X134331267Y-76038294D01*
X134470518Y-75963863D01*
X134621615Y-75918028D01*
X134700122Y-75910296D01*
X134739374Y-75906430D01*
X135516626Y-75906430D01*
X135555878Y-75910296D01*
X135555878Y-75910296D01*
G37*
G36*
X106595039Y-74916301D02*
G01*
X106830853Y-74987834D01*
X107048181Y-75103999D01*
X107238671Y-75260329D01*
X107395001Y-75450819D01*
X107511166Y-75668147D01*
X107582699Y-75903961D01*
X107606853Y-76149200D01*
X107582699Y-76394439D01*
X107511166Y-76630253D01*
X107395001Y-76847581D01*
X107238671Y-77038071D01*
X107048181Y-77194401D01*
X106830853Y-77310566D01*
X106595039Y-77382099D01*
X106411257Y-77400200D01*
X106288343Y-77400200D01*
X106104561Y-77382099D01*
X105868747Y-77310566D01*
X105651419Y-77194401D01*
X105460929Y-77038071D01*
X105304599Y-76847581D01*
X105188434Y-76630253D01*
X105116901Y-76394439D01*
X105092747Y-76149200D01*
X105116901Y-75903961D01*
X105188434Y-75668147D01*
X105304599Y-75450819D01*
X105460929Y-75260329D01*
X105651419Y-75103999D01*
X105868747Y-74987834D01*
X106104561Y-74916301D01*
X106288343Y-74898200D01*
X106411257Y-74898200D01*
X106595039Y-74916301D01*
X106595039Y-74916301D01*
G37*
G36*
X101337239Y-74916301D02*
G01*
X101573053Y-74987834D01*
X101790381Y-75103999D01*
X101980871Y-75260329D01*
X102137201Y-75450819D01*
X102253366Y-75668147D01*
X102324899Y-75903961D01*
X102349053Y-76149200D01*
X102324899Y-76394439D01*
X102253366Y-76630253D01*
X102137201Y-76847581D01*
X101980871Y-77038071D01*
X101790381Y-77194401D01*
X101573053Y-77310566D01*
X101337239Y-77382099D01*
X101153457Y-77400200D01*
X101030543Y-77400200D01*
X100846761Y-77382099D01*
X100610947Y-77310566D01*
X100393619Y-77194401D01*
X100203129Y-77038071D01*
X100046799Y-76847581D01*
X99930634Y-76630253D01*
X99859101Y-76394439D01*
X99834947Y-76149200D01*
X99859101Y-75903961D01*
X99930634Y-75668147D01*
X100046799Y-75450819D01*
X100203129Y-75260329D01*
X100393619Y-75103999D01*
X100610947Y-74987834D01*
X100846761Y-74916301D01*
X101030543Y-74898200D01*
X101153457Y-74898200D01*
X101337239Y-74916301D01*
X101337239Y-74916301D01*
G37*
G36*
X91939000Y-76073000D02*
G01*
X90837000Y-76073000D01*
X90837000Y-72771000D01*
X91939000Y-72771000D01*
X91939000Y-76073000D01*
X91939000Y-76073000D01*
G37*
G36*
X98139000Y-76073000D02*
G01*
X97037000Y-76073000D01*
X97037000Y-72771000D01*
X98139000Y-72771000D01*
X98139000Y-76073000D01*
X98139000Y-76073000D01*
G37*
G36*
X173371104Y-73531585D02*
G01*
X173539626Y-73601389D01*
X173691291Y-73702728D01*
X173820272Y-73831709D01*
X173921611Y-73983374D01*
X173991415Y-74151896D01*
X174027000Y-74330797D01*
X174027000Y-74513203D01*
X173991415Y-74692104D01*
X173921611Y-74860626D01*
X173820272Y-75012291D01*
X173691291Y-75141272D01*
X173539626Y-75242611D01*
X173371104Y-75312415D01*
X173192203Y-75348000D01*
X173009797Y-75348000D01*
X172830896Y-75312415D01*
X172662374Y-75242611D01*
X172510709Y-75141272D01*
X172381728Y-75012291D01*
X172280389Y-74860626D01*
X172210585Y-74692104D01*
X172175000Y-74513203D01*
X172175000Y-74330797D01*
X172210585Y-74151896D01*
X172280389Y-73983374D01*
X172381728Y-73831709D01*
X172510709Y-73702728D01*
X172662374Y-73601389D01*
X172830896Y-73531585D01*
X173009797Y-73496000D01*
X173192203Y-73496000D01*
X173371104Y-73531585D01*
X173371104Y-73531585D01*
G37*
G36*
X170831104Y-73531585D02*
G01*
X170999626Y-73601389D01*
X171151291Y-73702728D01*
X171280272Y-73831709D01*
X171381611Y-73983374D01*
X171451415Y-74151896D01*
X171487000Y-74330797D01*
X171487000Y-74513203D01*
X171451415Y-74692104D01*
X171381611Y-74860626D01*
X171280272Y-75012291D01*
X171151291Y-75141272D01*
X170999626Y-75242611D01*
X170831104Y-75312415D01*
X170652203Y-75348000D01*
X170469797Y-75348000D01*
X170290896Y-75312415D01*
X170122374Y-75242611D01*
X169970709Y-75141272D01*
X169841728Y-75012291D01*
X169740389Y-74860626D01*
X169670585Y-74692104D01*
X169635000Y-74513203D01*
X169635000Y-74330797D01*
X169670585Y-74151896D01*
X169740389Y-73983374D01*
X169841728Y-73831709D01*
X169970709Y-73702728D01*
X170122374Y-73601389D01*
X170290896Y-73531585D01*
X170469797Y-73496000D01*
X170652203Y-73496000D01*
X170831104Y-73531585D01*
X170831104Y-73531585D01*
G37*
G36*
X158131104Y-73531585D02*
G01*
X158299626Y-73601389D01*
X158451291Y-73702728D01*
X158580272Y-73831709D01*
X158681611Y-73983374D01*
X158751415Y-74151896D01*
X158787000Y-74330797D01*
X158787000Y-74513203D01*
X158751415Y-74692104D01*
X158681611Y-74860626D01*
X158580272Y-75012291D01*
X158451291Y-75141272D01*
X158299626Y-75242611D01*
X158131104Y-75312415D01*
X157952203Y-75348000D01*
X157769797Y-75348000D01*
X157590896Y-75312415D01*
X157422374Y-75242611D01*
X157270709Y-75141272D01*
X157141728Y-75012291D01*
X157040389Y-74860626D01*
X156970585Y-74692104D01*
X156935000Y-74513203D01*
X156935000Y-74330797D01*
X156970585Y-74151896D01*
X157040389Y-73983374D01*
X157141728Y-73831709D01*
X157270709Y-73702728D01*
X157422374Y-73601389D01*
X157590896Y-73531585D01*
X157769797Y-73496000D01*
X157952203Y-73496000D01*
X158131104Y-73531585D01*
X158131104Y-73531585D01*
G37*
G36*
X155591104Y-73531585D02*
G01*
X155759626Y-73601389D01*
X155911291Y-73702728D01*
X156040272Y-73831709D01*
X156141611Y-73983374D01*
X156211415Y-74151896D01*
X156247000Y-74330797D01*
X156247000Y-74513203D01*
X156211415Y-74692104D01*
X156141611Y-74860626D01*
X156040272Y-75012291D01*
X155911291Y-75141272D01*
X155759626Y-75242611D01*
X155591104Y-75312415D01*
X155412203Y-75348000D01*
X155229797Y-75348000D01*
X155050896Y-75312415D01*
X154882374Y-75242611D01*
X154730709Y-75141272D01*
X154601728Y-75012291D01*
X154500389Y-74860626D01*
X154430585Y-74692104D01*
X154395000Y-74513203D01*
X154395000Y-74330797D01*
X154430585Y-74151896D01*
X154500389Y-73983374D01*
X154601728Y-73831709D01*
X154730709Y-73702728D01*
X154882374Y-73601389D01*
X155050896Y-73531585D01*
X155229797Y-73496000D01*
X155412203Y-73496000D01*
X155591104Y-73531585D01*
X155591104Y-73531585D01*
G37*
G36*
X150795878Y-73370296D02*
G01*
X150874385Y-73378028D01*
X151025482Y-73423863D01*
X151164733Y-73498294D01*
X151286788Y-73598462D01*
X151386956Y-73720517D01*
X151461387Y-73859768D01*
X151507222Y-74010865D01*
X151522698Y-74168000D01*
X151507222Y-74325135D01*
X151461387Y-74476232D01*
X151386956Y-74615483D01*
X151286788Y-74737538D01*
X151164733Y-74837706D01*
X151025482Y-74912137D01*
X150874385Y-74957972D01*
X150795878Y-74965704D01*
X150756626Y-74969570D01*
X149979374Y-74969570D01*
X149940122Y-74965704D01*
X149861615Y-74957972D01*
X149710518Y-74912137D01*
X149571267Y-74837706D01*
X149449212Y-74737538D01*
X149349044Y-74615483D01*
X149274613Y-74476232D01*
X149228778Y-74325135D01*
X149213302Y-74168000D01*
X149228778Y-74010865D01*
X149274613Y-73859768D01*
X149349044Y-73720517D01*
X149449212Y-73598462D01*
X149571267Y-73498294D01*
X149710518Y-73423863D01*
X149861615Y-73378028D01*
X149940122Y-73370296D01*
X149979374Y-73366430D01*
X150756626Y-73366430D01*
X150795878Y-73370296D01*
X150795878Y-73370296D01*
G37*
G36*
X135555878Y-73370296D02*
G01*
X135634385Y-73378028D01*
X135785482Y-73423863D01*
X135924733Y-73498294D01*
X136046788Y-73598462D01*
X136146956Y-73720517D01*
X136221387Y-73859768D01*
X136267222Y-74010865D01*
X136282698Y-74168000D01*
X136267222Y-74325135D01*
X136221387Y-74476232D01*
X136146956Y-74615483D01*
X136046788Y-74737538D01*
X135924733Y-74837706D01*
X135785482Y-74912137D01*
X135634385Y-74957972D01*
X135555878Y-74965704D01*
X135516626Y-74969570D01*
X134739374Y-74969570D01*
X134700122Y-74965704D01*
X134621615Y-74957972D01*
X134470518Y-74912137D01*
X134331267Y-74837706D01*
X134209212Y-74737538D01*
X134109044Y-74615483D01*
X134034613Y-74476232D01*
X133988778Y-74325135D01*
X133973302Y-74168000D01*
X133988778Y-74010865D01*
X134034613Y-73859768D01*
X134109044Y-73720517D01*
X134209212Y-73598462D01*
X134331267Y-73498294D01*
X134470518Y-73423863D01*
X134621615Y-73378028D01*
X134700122Y-73370296D01*
X134739374Y-73366430D01*
X135516626Y-73366430D01*
X135555878Y-73370296D01*
X135555878Y-73370296D01*
G37*
G36*
X155591104Y-70991585D02*
G01*
X155759626Y-71061389D01*
X155911291Y-71162728D01*
X156040272Y-71291709D01*
X156141611Y-71443374D01*
X156211415Y-71611896D01*
X156247000Y-71790797D01*
X156247000Y-71973203D01*
X156211415Y-72152104D01*
X156141611Y-72320626D01*
X156040272Y-72472291D01*
X155911291Y-72601272D01*
X155759626Y-72702611D01*
X155591104Y-72772415D01*
X155412203Y-72808000D01*
X155229797Y-72808000D01*
X155050896Y-72772415D01*
X154882374Y-72702611D01*
X154730709Y-72601272D01*
X154601728Y-72472291D01*
X154500389Y-72320626D01*
X154430585Y-72152104D01*
X154395000Y-71973203D01*
X154395000Y-71790797D01*
X154430585Y-71611896D01*
X154500389Y-71443374D01*
X154601728Y-71291709D01*
X154730709Y-71162728D01*
X154882374Y-71061389D01*
X155050896Y-70991585D01*
X155229797Y-70956000D01*
X155412203Y-70956000D01*
X155591104Y-70991585D01*
X155591104Y-70991585D01*
G37*
G36*
X173371104Y-70991585D02*
G01*
X173539626Y-71061389D01*
X173691291Y-71162728D01*
X173820272Y-71291709D01*
X173921611Y-71443374D01*
X173991415Y-71611896D01*
X174027000Y-71790797D01*
X174027000Y-71973203D01*
X173991415Y-72152104D01*
X173921611Y-72320626D01*
X173820272Y-72472291D01*
X173691291Y-72601272D01*
X173539626Y-72702611D01*
X173371104Y-72772415D01*
X173192203Y-72808000D01*
X173009797Y-72808000D01*
X172830896Y-72772415D01*
X172662374Y-72702611D01*
X172510709Y-72601272D01*
X172381728Y-72472291D01*
X172280389Y-72320626D01*
X172210585Y-72152104D01*
X172175000Y-71973203D01*
X172175000Y-71790797D01*
X172210585Y-71611896D01*
X172280389Y-71443374D01*
X172381728Y-71291709D01*
X172510709Y-71162728D01*
X172662374Y-71061389D01*
X172830896Y-70991585D01*
X173009797Y-70956000D01*
X173192203Y-70956000D01*
X173371104Y-70991585D01*
X173371104Y-70991585D01*
G37*
G36*
X158131104Y-70991585D02*
G01*
X158299626Y-71061389D01*
X158451291Y-71162728D01*
X158580272Y-71291709D01*
X158681611Y-71443374D01*
X158751415Y-71611896D01*
X158787000Y-71790797D01*
X158787000Y-71973203D01*
X158751415Y-72152104D01*
X158681611Y-72320626D01*
X158580272Y-72472291D01*
X158451291Y-72601272D01*
X158299626Y-72702611D01*
X158131104Y-72772415D01*
X157952203Y-72808000D01*
X157769797Y-72808000D01*
X157590896Y-72772415D01*
X157422374Y-72702611D01*
X157270709Y-72601272D01*
X157141728Y-72472291D01*
X157040389Y-72320626D01*
X156970585Y-72152104D01*
X156935000Y-71973203D01*
X156935000Y-71790797D01*
X156970585Y-71611896D01*
X157040389Y-71443374D01*
X157141728Y-71291709D01*
X157270709Y-71162728D01*
X157422374Y-71061389D01*
X157590896Y-70991585D01*
X157769797Y-70956000D01*
X157952203Y-70956000D01*
X158131104Y-70991585D01*
X158131104Y-70991585D01*
G37*
G36*
X170831104Y-70991585D02*
G01*
X170999626Y-71061389D01*
X171151291Y-71162728D01*
X171280272Y-71291709D01*
X171381611Y-71443374D01*
X171451415Y-71611896D01*
X171487000Y-71790797D01*
X171487000Y-71973203D01*
X171451415Y-72152104D01*
X171381611Y-72320626D01*
X171280272Y-72472291D01*
X171151291Y-72601272D01*
X170999626Y-72702611D01*
X170831104Y-72772415D01*
X170652203Y-72808000D01*
X170469797Y-72808000D01*
X170290896Y-72772415D01*
X170122374Y-72702611D01*
X169970709Y-72601272D01*
X169841728Y-72472291D01*
X169740389Y-72320626D01*
X169670585Y-72152104D01*
X169635000Y-71973203D01*
X169635000Y-71790797D01*
X169670585Y-71611896D01*
X169740389Y-71443374D01*
X169841728Y-71291709D01*
X169970709Y-71162728D01*
X170122374Y-71061389D01*
X170290896Y-70991585D01*
X170469797Y-70956000D01*
X170652203Y-70956000D01*
X170831104Y-70991585D01*
X170831104Y-70991585D01*
G37*
G36*
X78353228Y-70983703D02*
G01*
X78508100Y-71047853D01*
X78647481Y-71140985D01*
X78766015Y-71259519D01*
X78859147Y-71398900D01*
X78923297Y-71553772D01*
X78956000Y-71718184D01*
X78956000Y-71885816D01*
X78923297Y-72050228D01*
X78859147Y-72205100D01*
X78766015Y-72344481D01*
X78647481Y-72463015D01*
X78508100Y-72556147D01*
X78353228Y-72620297D01*
X78188816Y-72653000D01*
X78021184Y-72653000D01*
X77856772Y-72620297D01*
X77701900Y-72556147D01*
X77562519Y-72463015D01*
X77443985Y-72344481D01*
X77350853Y-72205100D01*
X77286703Y-72050228D01*
X77254000Y-71885816D01*
X77254000Y-71718184D01*
X77286703Y-71553772D01*
X77350853Y-71398900D01*
X77443985Y-71259519D01*
X77562519Y-71140985D01*
X77701900Y-71047853D01*
X77856772Y-70983703D01*
X78021184Y-70951000D01*
X78188816Y-70951000D01*
X78353228Y-70983703D01*
X78353228Y-70983703D01*
G37*
G36*
X135555878Y-70830296D02*
G01*
X135634385Y-70838028D01*
X135785482Y-70883863D01*
X135924733Y-70958294D01*
X136046788Y-71058462D01*
X136146956Y-71180517D01*
X136221387Y-71319768D01*
X136267222Y-71470865D01*
X136282698Y-71628000D01*
X136267222Y-71785135D01*
X136221387Y-71936232D01*
X136146956Y-72075483D01*
X136046788Y-72197538D01*
X135924733Y-72297706D01*
X135785482Y-72372137D01*
X135634385Y-72417972D01*
X135555878Y-72425704D01*
X135516626Y-72429570D01*
X134739374Y-72429570D01*
X134700122Y-72425704D01*
X134621615Y-72417972D01*
X134470518Y-72372137D01*
X134331267Y-72297706D01*
X134209212Y-72197538D01*
X134109044Y-72075483D01*
X134034613Y-71936232D01*
X133988778Y-71785135D01*
X133973302Y-71628000D01*
X133988778Y-71470865D01*
X134034613Y-71319768D01*
X134109044Y-71180517D01*
X134209212Y-71058462D01*
X134331267Y-70958294D01*
X134470518Y-70883863D01*
X134621615Y-70838028D01*
X134700122Y-70830296D01*
X134739374Y-70826430D01*
X135516626Y-70826430D01*
X135555878Y-70830296D01*
X135555878Y-70830296D01*
G37*
G36*
X150795878Y-70830296D02*
G01*
X150874385Y-70838028D01*
X151025482Y-70883863D01*
X151164733Y-70958294D01*
X151286788Y-71058462D01*
X151386956Y-71180517D01*
X151461387Y-71319768D01*
X151507222Y-71470865D01*
X151522698Y-71628000D01*
X151507222Y-71785135D01*
X151461387Y-71936232D01*
X151386956Y-72075483D01*
X151286788Y-72197538D01*
X151164733Y-72297706D01*
X151025482Y-72372137D01*
X150874385Y-72417972D01*
X150795878Y-72425704D01*
X150756626Y-72429570D01*
X149979374Y-72429570D01*
X149940122Y-72425704D01*
X149861615Y-72417972D01*
X149710518Y-72372137D01*
X149571267Y-72297706D01*
X149449212Y-72197538D01*
X149349044Y-72075483D01*
X149274613Y-71936232D01*
X149228778Y-71785135D01*
X149213302Y-71628000D01*
X149228778Y-71470865D01*
X149274613Y-71319768D01*
X149349044Y-71180517D01*
X149449212Y-71058462D01*
X149571267Y-70958294D01*
X149710518Y-70883863D01*
X149861615Y-70838028D01*
X149940122Y-70830296D01*
X149979374Y-70826430D01*
X150756626Y-70826430D01*
X150795878Y-70830296D01*
X150795878Y-70830296D01*
G37*
G36*
X106714703Y-69866275D02*
G01*
X106837621Y-69917189D01*
X106942371Y-69960578D01*
X107147266Y-70097485D01*
X107321515Y-70271734D01*
X107443616Y-70454471D01*
X107458423Y-70476631D01*
X107552725Y-70704297D01*
X107600800Y-70945986D01*
X107600800Y-71192414D01*
X107552725Y-71434103D01*
X107472411Y-71628000D01*
X107458422Y-71661771D01*
X107321515Y-71866666D01*
X107147266Y-72040915D01*
X106942371Y-72177822D01*
X106942370Y-72177823D01*
X106942369Y-72177823D01*
X106714703Y-72272125D01*
X106473014Y-72320200D01*
X106226586Y-72320200D01*
X105984897Y-72272125D01*
X105757231Y-72177823D01*
X105757230Y-72177823D01*
X105757229Y-72177822D01*
X105552334Y-72040915D01*
X105378085Y-71866666D01*
X105241178Y-71661771D01*
X105227190Y-71628000D01*
X105146875Y-71434103D01*
X105098800Y-71192414D01*
X105098800Y-70945986D01*
X105146875Y-70704297D01*
X105241177Y-70476631D01*
X105255984Y-70454471D01*
X105378085Y-70271734D01*
X105552334Y-70097485D01*
X105757229Y-69960578D01*
X105861980Y-69917189D01*
X105984897Y-69866275D01*
X106226586Y-69818200D01*
X106473014Y-69818200D01*
X106714703Y-69866275D01*
X106714703Y-69866275D01*
G37*
G36*
X101456903Y-69866275D02*
G01*
X101579821Y-69917189D01*
X101684571Y-69960578D01*
X101889466Y-70097485D01*
X102063715Y-70271734D01*
X102185816Y-70454471D01*
X102200623Y-70476631D01*
X102294925Y-70704297D01*
X102343000Y-70945986D01*
X102343000Y-71192414D01*
X102294925Y-71434103D01*
X102214611Y-71628000D01*
X102200622Y-71661771D01*
X102063715Y-71866666D01*
X101889466Y-72040915D01*
X101684571Y-72177822D01*
X101684570Y-72177823D01*
X101684569Y-72177823D01*
X101456903Y-72272125D01*
X101215214Y-72320200D01*
X100968786Y-72320200D01*
X100727097Y-72272125D01*
X100499431Y-72177823D01*
X100499430Y-72177823D01*
X100499429Y-72177822D01*
X100294534Y-72040915D01*
X100120285Y-71866666D01*
X99983378Y-71661771D01*
X99969390Y-71628000D01*
X99889075Y-71434103D01*
X99841000Y-71192414D01*
X99841000Y-70945986D01*
X99889075Y-70704297D01*
X99983377Y-70476631D01*
X99998184Y-70454471D01*
X100120285Y-70271734D01*
X100294534Y-70097485D01*
X100499429Y-69960578D01*
X100604180Y-69917189D01*
X100727097Y-69866275D01*
X100968786Y-69818200D01*
X101215214Y-69818200D01*
X101456903Y-69866275D01*
X101456903Y-69866275D01*
G37*
G36*
X85548681Y-70395000D02*
G01*
X85563059Y-70397860D01*
X85699732Y-70454472D01*
X85822735Y-70536660D01*
X85927340Y-70641265D01*
X85973935Y-70711000D01*
X86009529Y-70764270D01*
X86066140Y-70900941D01*
X86082603Y-70983705D01*
X86095000Y-71046033D01*
X86095000Y-71193967D01*
X86066140Y-71339059D01*
X86009528Y-71475732D01*
X85927340Y-71598735D01*
X85822735Y-71703340D01*
X85699732Y-71785528D01*
X85699731Y-71785529D01*
X85699730Y-71785529D01*
X85563059Y-71842140D01*
X85417968Y-71871000D01*
X85270032Y-71871000D01*
X85124941Y-71842140D01*
X84988270Y-71785529D01*
X84988269Y-71785529D01*
X84988268Y-71785528D01*
X84865265Y-71703340D01*
X84760660Y-71598735D01*
X84678472Y-71475732D01*
X84621860Y-71339059D01*
X84593000Y-71193967D01*
X84593000Y-71046033D01*
X84605398Y-70983705D01*
X84621860Y-70900941D01*
X84678471Y-70764270D01*
X84714065Y-70711000D01*
X84760660Y-70641265D01*
X84865265Y-70536660D01*
X84988268Y-70454472D01*
X85124941Y-70397860D01*
X85139319Y-70395000D01*
X85270032Y-70369000D01*
X85417968Y-70369000D01*
X85548681Y-70395000D01*
X85548681Y-70395000D01*
G37*
G36*
X91945143Y-69022087D02*
G01*
X92101838Y-69086992D01*
X92242853Y-69181215D01*
X92362785Y-69301147D01*
X92457008Y-69442162D01*
X92521913Y-69598857D01*
X92555000Y-69765198D01*
X92555000Y-69934802D01*
X92521913Y-70101143D01*
X92457008Y-70257838D01*
X92362785Y-70398853D01*
X92242853Y-70518785D01*
X92101838Y-70613008D01*
X91945143Y-70677913D01*
X91778802Y-70711000D01*
X91609198Y-70711000D01*
X91442857Y-70677913D01*
X91286162Y-70613008D01*
X91145147Y-70518785D01*
X91025215Y-70398853D01*
X90930992Y-70257838D01*
X90866087Y-70101143D01*
X90833000Y-69934802D01*
X90833000Y-69765198D01*
X90866087Y-69598857D01*
X90930992Y-69442162D01*
X91025215Y-69301147D01*
X91145147Y-69181215D01*
X91286162Y-69086992D01*
X91442857Y-69022087D01*
X91609198Y-68989000D01*
X91778802Y-68989000D01*
X91945143Y-69022087D01*
X91945143Y-69022087D01*
G37*
G36*
X90015000Y-70711000D02*
G01*
X88293000Y-70711000D01*
X88293000Y-68989000D01*
X90015000Y-68989000D01*
X90015000Y-70711000D01*
X90015000Y-70711000D01*
G37*
G36*
X94485143Y-69022087D02*
G01*
X94641838Y-69086992D01*
X94782853Y-69181215D01*
X94902785Y-69301147D01*
X94997008Y-69442162D01*
X95061913Y-69598857D01*
X95095000Y-69765198D01*
X95095000Y-69934802D01*
X95061913Y-70101143D01*
X94997008Y-70257838D01*
X94902785Y-70398853D01*
X94782853Y-70518785D01*
X94641838Y-70613008D01*
X94485143Y-70677913D01*
X94318802Y-70711000D01*
X94149198Y-70711000D01*
X93982857Y-70677913D01*
X93826162Y-70613008D01*
X93685147Y-70518785D01*
X93565215Y-70398853D01*
X93470992Y-70257838D01*
X93406087Y-70101143D01*
X93373000Y-69934802D01*
X93373000Y-69765198D01*
X93406087Y-69598857D01*
X93470992Y-69442162D01*
X93565215Y-69301147D01*
X93685147Y-69181215D01*
X93826162Y-69086992D01*
X93982857Y-69022087D01*
X94149198Y-68989000D01*
X94318802Y-68989000D01*
X94485143Y-69022087D01*
X94485143Y-69022087D01*
G37*
G36*
X115459104Y-68578585D02*
G01*
X115627626Y-68648389D01*
X115779291Y-68749728D01*
X115908272Y-68878709D01*
X116009611Y-69030374D01*
X116079415Y-69198896D01*
X116115000Y-69377797D01*
X116115000Y-69560203D01*
X116079415Y-69739104D01*
X116009611Y-69907626D01*
X115908272Y-70059291D01*
X115779291Y-70188272D01*
X115627626Y-70289611D01*
X115459104Y-70359415D01*
X115280203Y-70395000D01*
X115097797Y-70395000D01*
X114918896Y-70359415D01*
X114750374Y-70289611D01*
X114598709Y-70188272D01*
X114469728Y-70059291D01*
X114368389Y-69907626D01*
X114298585Y-69739104D01*
X114263000Y-69560203D01*
X114263000Y-69377797D01*
X114298585Y-69198896D01*
X114368389Y-69030374D01*
X114469728Y-68878709D01*
X114598709Y-68749728D01*
X114750374Y-68648389D01*
X114918896Y-68578585D01*
X115097797Y-68543000D01*
X115280203Y-68543000D01*
X115459104Y-68578585D01*
X115459104Y-68578585D01*
G37*
G36*
X120539104Y-68578585D02*
G01*
X120707626Y-68648389D01*
X120859291Y-68749728D01*
X120988272Y-68878709D01*
X121089611Y-69030374D01*
X121159415Y-69198896D01*
X121195000Y-69377797D01*
X121195000Y-69560203D01*
X121159415Y-69739104D01*
X121089611Y-69907626D01*
X120988272Y-70059291D01*
X120859291Y-70188272D01*
X120707626Y-70289611D01*
X120539104Y-70359415D01*
X120360203Y-70395000D01*
X120177797Y-70395000D01*
X119998896Y-70359415D01*
X119830374Y-70289611D01*
X119678709Y-70188272D01*
X119549728Y-70059291D01*
X119448389Y-69907626D01*
X119378585Y-69739104D01*
X119343000Y-69560203D01*
X119343000Y-69377797D01*
X119378585Y-69198896D01*
X119448389Y-69030374D01*
X119549728Y-68878709D01*
X119678709Y-68749728D01*
X119830374Y-68648389D01*
X119998896Y-68578585D01*
X120177797Y-68543000D01*
X120360203Y-68543000D01*
X120539104Y-68578585D01*
X120539104Y-68578585D01*
G37*
G36*
X123079104Y-68578585D02*
G01*
X123247626Y-68648389D01*
X123399291Y-68749728D01*
X123528272Y-68878709D01*
X123629611Y-69030374D01*
X123699415Y-69198896D01*
X123735000Y-69377797D01*
X123735000Y-69560203D01*
X123699415Y-69739104D01*
X123629611Y-69907626D01*
X123528272Y-70059291D01*
X123399291Y-70188272D01*
X123247626Y-70289611D01*
X123079104Y-70359415D01*
X122900203Y-70395000D01*
X122717797Y-70395000D01*
X122538896Y-70359415D01*
X122370374Y-70289611D01*
X122218709Y-70188272D01*
X122089728Y-70059291D01*
X121988389Y-69907626D01*
X121918585Y-69739104D01*
X121883000Y-69560203D01*
X121883000Y-69377797D01*
X121918585Y-69198896D01*
X121988389Y-69030374D01*
X122089728Y-68878709D01*
X122218709Y-68749728D01*
X122370374Y-68648389D01*
X122538896Y-68578585D01*
X122717797Y-68543000D01*
X122900203Y-68543000D01*
X123079104Y-68578585D01*
X123079104Y-68578585D01*
G37*
G36*
X128159104Y-68578585D02*
G01*
X128327626Y-68648389D01*
X128479291Y-68749728D01*
X128608272Y-68878709D01*
X128709611Y-69030374D01*
X128779415Y-69198896D01*
X128815000Y-69377797D01*
X128815000Y-69560203D01*
X128779415Y-69739104D01*
X128709611Y-69907626D01*
X128608272Y-70059291D01*
X128479291Y-70188272D01*
X128327626Y-70289611D01*
X128159104Y-70359415D01*
X127980203Y-70395000D01*
X127797797Y-70395000D01*
X127618896Y-70359415D01*
X127450374Y-70289611D01*
X127298709Y-70188272D01*
X127169728Y-70059291D01*
X127068389Y-69907626D01*
X126998585Y-69739104D01*
X126963000Y-69560203D01*
X126963000Y-69377797D01*
X126998585Y-69198896D01*
X127068389Y-69030374D01*
X127169728Y-68878709D01*
X127298709Y-68749728D01*
X127450374Y-68648389D01*
X127618896Y-68578585D01*
X127797797Y-68543000D01*
X127980203Y-68543000D01*
X128159104Y-68578585D01*
X128159104Y-68578585D01*
G37*
G36*
X125619104Y-68578585D02*
G01*
X125787626Y-68648389D01*
X125939291Y-68749728D01*
X126068272Y-68878709D01*
X126169611Y-69030374D01*
X126239415Y-69198896D01*
X126275000Y-69377797D01*
X126275000Y-69560203D01*
X126239415Y-69739104D01*
X126169611Y-69907626D01*
X126068272Y-70059291D01*
X125939291Y-70188272D01*
X125787626Y-70289611D01*
X125619104Y-70359415D01*
X125440203Y-70395000D01*
X125257797Y-70395000D01*
X125078896Y-70359415D01*
X124910374Y-70289611D01*
X124758709Y-70188272D01*
X124629728Y-70059291D01*
X124528389Y-69907626D01*
X124458585Y-69739104D01*
X124423000Y-69560203D01*
X124423000Y-69377797D01*
X124458585Y-69198896D01*
X124528389Y-69030374D01*
X124629728Y-68878709D01*
X124758709Y-68749728D01*
X124910374Y-68648389D01*
X125078896Y-68578585D01*
X125257797Y-68543000D01*
X125440203Y-68543000D01*
X125619104Y-68578585D01*
X125619104Y-68578585D01*
G37*
G36*
X117999104Y-68578585D02*
G01*
X118167626Y-68648389D01*
X118319291Y-68749728D01*
X118448272Y-68878709D01*
X118549611Y-69030374D01*
X118619415Y-69198896D01*
X118655000Y-69377797D01*
X118655000Y-69560203D01*
X118619415Y-69739104D01*
X118549611Y-69907626D01*
X118448272Y-70059291D01*
X118319291Y-70188272D01*
X118167626Y-70289611D01*
X117999104Y-70359415D01*
X117820203Y-70395000D01*
X117637797Y-70395000D01*
X117458896Y-70359415D01*
X117290374Y-70289611D01*
X117138709Y-70188272D01*
X117009728Y-70059291D01*
X116908389Y-69907626D01*
X116838585Y-69739104D01*
X116803000Y-69560203D01*
X116803000Y-69377797D01*
X116838585Y-69198896D01*
X116908389Y-69030374D01*
X117009728Y-68878709D01*
X117138709Y-68749728D01*
X117290374Y-68648389D01*
X117458896Y-68578585D01*
X117637797Y-68543000D01*
X117820203Y-68543000D01*
X117999104Y-68578585D01*
X117999104Y-68578585D01*
G37*
G36*
X170831104Y-68451585D02*
G01*
X170999626Y-68521389D01*
X171151291Y-68622728D01*
X171280272Y-68751709D01*
X171381611Y-68903374D01*
X171451415Y-69071896D01*
X171487000Y-69250797D01*
X171487000Y-69433203D01*
X171451415Y-69612104D01*
X171381611Y-69780626D01*
X171280272Y-69932291D01*
X171151291Y-70061272D01*
X170999626Y-70162611D01*
X170831104Y-70232415D01*
X170652203Y-70268000D01*
X170469797Y-70268000D01*
X170290896Y-70232415D01*
X170122374Y-70162611D01*
X169970709Y-70061272D01*
X169841728Y-69932291D01*
X169740389Y-69780626D01*
X169670585Y-69612104D01*
X169635000Y-69433203D01*
X169635000Y-69250797D01*
X169670585Y-69071896D01*
X169740389Y-68903374D01*
X169841728Y-68751709D01*
X169970709Y-68622728D01*
X170122374Y-68521389D01*
X170290896Y-68451585D01*
X170469797Y-68416000D01*
X170652203Y-68416000D01*
X170831104Y-68451585D01*
X170831104Y-68451585D01*
G37*
G36*
X155591104Y-68451585D02*
G01*
X155759626Y-68521389D01*
X155911291Y-68622728D01*
X156040272Y-68751709D01*
X156141611Y-68903374D01*
X156211415Y-69071896D01*
X156247000Y-69250797D01*
X156247000Y-69433203D01*
X156211415Y-69612104D01*
X156141611Y-69780626D01*
X156040272Y-69932291D01*
X155911291Y-70061272D01*
X155759626Y-70162611D01*
X155591104Y-70232415D01*
X155412203Y-70268000D01*
X155229797Y-70268000D01*
X155050896Y-70232415D01*
X154882374Y-70162611D01*
X154730709Y-70061272D01*
X154601728Y-69932291D01*
X154500389Y-69780626D01*
X154430585Y-69612104D01*
X154395000Y-69433203D01*
X154395000Y-69250797D01*
X154430585Y-69071896D01*
X154500389Y-68903374D01*
X154601728Y-68751709D01*
X154730709Y-68622728D01*
X154882374Y-68521389D01*
X155050896Y-68451585D01*
X155229797Y-68416000D01*
X155412203Y-68416000D01*
X155591104Y-68451585D01*
X155591104Y-68451585D01*
G37*
G36*
X173371104Y-68451585D02*
G01*
X173539626Y-68521389D01*
X173691291Y-68622728D01*
X173820272Y-68751709D01*
X173921611Y-68903374D01*
X173991415Y-69071896D01*
X174027000Y-69250797D01*
X174027000Y-69433203D01*
X173991415Y-69612104D01*
X173921611Y-69780626D01*
X173820272Y-69932291D01*
X173691291Y-70061272D01*
X173539626Y-70162611D01*
X173371104Y-70232415D01*
X173192203Y-70268000D01*
X173009797Y-70268000D01*
X172830896Y-70232415D01*
X172662374Y-70162611D01*
X172510709Y-70061272D01*
X172381728Y-69932291D01*
X172280389Y-69780626D01*
X172210585Y-69612104D01*
X172175000Y-69433203D01*
X172175000Y-69250797D01*
X172210585Y-69071896D01*
X172280389Y-68903374D01*
X172381728Y-68751709D01*
X172510709Y-68622728D01*
X172662374Y-68521389D01*
X172830896Y-68451585D01*
X173009797Y-68416000D01*
X173192203Y-68416000D01*
X173371104Y-68451585D01*
X173371104Y-68451585D01*
G37*
G36*
X158131104Y-68451585D02*
G01*
X158299626Y-68521389D01*
X158451291Y-68622728D01*
X158580272Y-68751709D01*
X158681611Y-68903374D01*
X158751415Y-69071896D01*
X158787000Y-69250797D01*
X158787000Y-69433203D01*
X158751415Y-69612104D01*
X158681611Y-69780626D01*
X158580272Y-69932291D01*
X158451291Y-70061272D01*
X158299626Y-70162611D01*
X158131104Y-70232415D01*
X157952203Y-70268000D01*
X157769797Y-70268000D01*
X157590896Y-70232415D01*
X157422374Y-70162611D01*
X157270709Y-70061272D01*
X157141728Y-69932291D01*
X157040389Y-69780626D01*
X156970585Y-69612104D01*
X156935000Y-69433203D01*
X156935000Y-69250797D01*
X156970585Y-69071896D01*
X157040389Y-68903374D01*
X157141728Y-68751709D01*
X157270709Y-68622728D01*
X157422374Y-68521389D01*
X157590896Y-68451585D01*
X157769797Y-68416000D01*
X157952203Y-68416000D01*
X158131104Y-68451585D01*
X158131104Y-68451585D01*
G37*
G36*
X85417665Y-68472622D02*
G01*
X85491222Y-68479867D01*
X85632786Y-68522810D01*
X85763252Y-68592546D01*
X85793040Y-68616992D01*
X85877607Y-68686393D01*
X85929583Y-68749728D01*
X85971454Y-68800748D01*
X85971455Y-68800750D01*
X86041004Y-68930865D01*
X86041190Y-68931214D01*
X86084133Y-69072778D01*
X86098633Y-69220000D01*
X86084133Y-69367222D01*
X86041190Y-69508786D01*
X85971454Y-69639252D01*
X85956448Y-69657537D01*
X85877607Y-69753607D01*
X85798898Y-69818200D01*
X85763252Y-69847454D01*
X85632786Y-69917190D01*
X85491222Y-69960133D01*
X85417665Y-69967378D01*
X85380888Y-69971000D01*
X85307112Y-69971000D01*
X85270335Y-69967378D01*
X85196778Y-69960133D01*
X85055214Y-69917190D01*
X84924748Y-69847454D01*
X84889102Y-69818200D01*
X84810393Y-69753607D01*
X84731552Y-69657537D01*
X84716546Y-69639252D01*
X84646810Y-69508786D01*
X84603867Y-69367222D01*
X84589367Y-69220000D01*
X84603867Y-69072778D01*
X84646810Y-68931214D01*
X84646997Y-68930865D01*
X84716545Y-68800750D01*
X84716546Y-68800748D01*
X84758417Y-68749728D01*
X84810393Y-68686393D01*
X84894960Y-68616992D01*
X84924748Y-68592546D01*
X85055214Y-68522810D01*
X85196778Y-68479867D01*
X85270335Y-68472622D01*
X85307112Y-68469000D01*
X85380888Y-68469000D01*
X85417665Y-68472622D01*
X85417665Y-68472622D01*
G37*
G36*
X135555878Y-68290296D02*
G01*
X135634385Y-68298028D01*
X135785482Y-68343863D01*
X135924733Y-68418294D01*
X136046788Y-68518462D01*
X136146956Y-68640517D01*
X136221387Y-68779768D01*
X136267222Y-68930865D01*
X136282698Y-69088000D01*
X136267222Y-69245135D01*
X136221387Y-69396232D01*
X136146956Y-69535483D01*
X136046788Y-69657538D01*
X135924733Y-69757706D01*
X135785482Y-69832137D01*
X135634385Y-69877972D01*
X135555878Y-69885704D01*
X135516626Y-69889570D01*
X134739374Y-69889570D01*
X134700122Y-69885704D01*
X134621615Y-69877972D01*
X134470518Y-69832137D01*
X134331267Y-69757706D01*
X134209212Y-69657538D01*
X134109044Y-69535483D01*
X134034613Y-69396232D01*
X133988778Y-69245135D01*
X133973302Y-69088000D01*
X133988778Y-68930865D01*
X134034613Y-68779768D01*
X134109044Y-68640517D01*
X134209212Y-68518462D01*
X134331267Y-68418294D01*
X134470518Y-68343863D01*
X134621615Y-68298028D01*
X134700122Y-68290296D01*
X134739374Y-68286430D01*
X135516626Y-68286430D01*
X135555878Y-68290296D01*
X135555878Y-68290296D01*
G37*
G36*
X150795878Y-68290296D02*
G01*
X150874385Y-68298028D01*
X151025482Y-68343863D01*
X151164733Y-68418294D01*
X151286788Y-68518462D01*
X151386956Y-68640517D01*
X151461387Y-68779768D01*
X151507222Y-68930865D01*
X151522698Y-69088000D01*
X151507222Y-69245135D01*
X151461387Y-69396232D01*
X151386956Y-69535483D01*
X151286788Y-69657538D01*
X151164733Y-69757706D01*
X151025482Y-69832137D01*
X150874385Y-69877972D01*
X150795878Y-69885704D01*
X150756626Y-69889570D01*
X149979374Y-69889570D01*
X149940122Y-69885704D01*
X149861615Y-69877972D01*
X149710518Y-69832137D01*
X149571267Y-69757706D01*
X149449212Y-69657538D01*
X149349044Y-69535483D01*
X149274613Y-69396232D01*
X149228778Y-69245135D01*
X149213302Y-69088000D01*
X149228778Y-68930865D01*
X149274613Y-68779768D01*
X149349044Y-68640517D01*
X149449212Y-68518462D01*
X149571267Y-68418294D01*
X149710518Y-68343863D01*
X149861615Y-68298028D01*
X149940122Y-68290296D01*
X149979374Y-68286430D01*
X150756626Y-68286430D01*
X150795878Y-68290296D01*
X150795878Y-68290296D01*
G37*
G36*
X128159104Y-66038585D02*
G01*
X128327626Y-66108389D01*
X128479291Y-66209728D01*
X128608272Y-66338709D01*
X128709611Y-66490374D01*
X128779415Y-66658896D01*
X128815000Y-66837797D01*
X128815000Y-67020203D01*
X128779415Y-67199104D01*
X128709611Y-67367626D01*
X128608272Y-67519291D01*
X128479291Y-67648272D01*
X128327626Y-67749611D01*
X128159104Y-67819415D01*
X127980203Y-67855000D01*
X127797797Y-67855000D01*
X127618896Y-67819415D01*
X127450374Y-67749611D01*
X127298709Y-67648272D01*
X127169728Y-67519291D01*
X127068389Y-67367626D01*
X126998585Y-67199104D01*
X126963000Y-67020203D01*
X126963000Y-66837797D01*
X126998585Y-66658896D01*
X127068389Y-66490374D01*
X127169728Y-66338709D01*
X127298709Y-66209728D01*
X127450374Y-66108389D01*
X127618896Y-66038585D01*
X127797797Y-66003000D01*
X127980203Y-66003000D01*
X128159104Y-66038585D01*
X128159104Y-66038585D01*
G37*
G36*
X130699104Y-66038585D02*
G01*
X130867626Y-66108389D01*
X131019291Y-66209728D01*
X131148272Y-66338709D01*
X131249611Y-66490374D01*
X131319415Y-66658896D01*
X131355000Y-66837797D01*
X131355000Y-67020203D01*
X131319415Y-67199104D01*
X131249611Y-67367626D01*
X131148272Y-67519291D01*
X131019291Y-67648272D01*
X130867626Y-67749611D01*
X130699104Y-67819415D01*
X130520203Y-67855000D01*
X130337797Y-67855000D01*
X130158896Y-67819415D01*
X129990374Y-67749611D01*
X129838709Y-67648272D01*
X129709728Y-67519291D01*
X129608389Y-67367626D01*
X129538585Y-67199104D01*
X129503000Y-67020203D01*
X129503000Y-66837797D01*
X129538585Y-66658896D01*
X129608389Y-66490374D01*
X129709728Y-66338709D01*
X129838709Y-66209728D01*
X129990374Y-66108389D01*
X130158896Y-66038585D01*
X130337797Y-66003000D01*
X130520203Y-66003000D01*
X130699104Y-66038585D01*
X130699104Y-66038585D01*
G37*
G36*
X112919104Y-66038585D02*
G01*
X113087626Y-66108389D01*
X113239291Y-66209728D01*
X113368272Y-66338709D01*
X113469611Y-66490374D01*
X113539415Y-66658896D01*
X113575000Y-66837797D01*
X113575000Y-67020203D01*
X113539415Y-67199104D01*
X113469611Y-67367626D01*
X113368272Y-67519291D01*
X113239291Y-67648272D01*
X113087626Y-67749611D01*
X112919104Y-67819415D01*
X112740203Y-67855000D01*
X112557797Y-67855000D01*
X112378896Y-67819415D01*
X112210374Y-67749611D01*
X112058709Y-67648272D01*
X111929728Y-67519291D01*
X111828389Y-67367626D01*
X111758585Y-67199104D01*
X111723000Y-67020203D01*
X111723000Y-66837797D01*
X111758585Y-66658896D01*
X111828389Y-66490374D01*
X111929728Y-66338709D01*
X112058709Y-66209728D01*
X112210374Y-66108389D01*
X112378896Y-66038585D01*
X112557797Y-66003000D01*
X112740203Y-66003000D01*
X112919104Y-66038585D01*
X112919104Y-66038585D01*
G37*
G36*
X125619104Y-66038585D02*
G01*
X125787626Y-66108389D01*
X125939291Y-66209728D01*
X126068272Y-66338709D01*
X126169611Y-66490374D01*
X126239415Y-66658896D01*
X126275000Y-66837797D01*
X126275000Y-67020203D01*
X126239415Y-67199104D01*
X126169611Y-67367626D01*
X126068272Y-67519291D01*
X125939291Y-67648272D01*
X125787626Y-67749611D01*
X125619104Y-67819415D01*
X125440203Y-67855000D01*
X125257797Y-67855000D01*
X125078896Y-67819415D01*
X124910374Y-67749611D01*
X124758709Y-67648272D01*
X124629728Y-67519291D01*
X124528389Y-67367626D01*
X124458585Y-67199104D01*
X124423000Y-67020203D01*
X124423000Y-66837797D01*
X124458585Y-66658896D01*
X124528389Y-66490374D01*
X124629728Y-66338709D01*
X124758709Y-66209728D01*
X124910374Y-66108389D01*
X125078896Y-66038585D01*
X125257797Y-66003000D01*
X125440203Y-66003000D01*
X125619104Y-66038585D01*
X125619104Y-66038585D01*
G37*
G36*
X123079104Y-66038585D02*
G01*
X123247626Y-66108389D01*
X123399291Y-66209728D01*
X123528272Y-66338709D01*
X123629611Y-66490374D01*
X123699415Y-66658896D01*
X123735000Y-66837797D01*
X123735000Y-67020203D01*
X123699415Y-67199104D01*
X123629611Y-67367626D01*
X123528272Y-67519291D01*
X123399291Y-67648272D01*
X123247626Y-67749611D01*
X123079104Y-67819415D01*
X122900203Y-67855000D01*
X122717797Y-67855000D01*
X122538896Y-67819415D01*
X122370374Y-67749611D01*
X122218709Y-67648272D01*
X122089728Y-67519291D01*
X121988389Y-67367626D01*
X121918585Y-67199104D01*
X121883000Y-67020203D01*
X121883000Y-66837797D01*
X121918585Y-66658896D01*
X121988389Y-66490374D01*
X122089728Y-66338709D01*
X122218709Y-66209728D01*
X122370374Y-66108389D01*
X122538896Y-66038585D01*
X122717797Y-66003000D01*
X122900203Y-66003000D01*
X123079104Y-66038585D01*
X123079104Y-66038585D01*
G37*
G36*
X120539104Y-66038585D02*
G01*
X120707626Y-66108389D01*
X120859291Y-66209728D01*
X120988272Y-66338709D01*
X121089611Y-66490374D01*
X121159415Y-66658896D01*
X121195000Y-66837797D01*
X121195000Y-67020203D01*
X121159415Y-67199104D01*
X121089611Y-67367626D01*
X120988272Y-67519291D01*
X120859291Y-67648272D01*
X120707626Y-67749611D01*
X120539104Y-67819415D01*
X120360203Y-67855000D01*
X120177797Y-67855000D01*
X119998896Y-67819415D01*
X119830374Y-67749611D01*
X119678709Y-67648272D01*
X119549728Y-67519291D01*
X119448389Y-67367626D01*
X119378585Y-67199104D01*
X119343000Y-67020203D01*
X119343000Y-66837797D01*
X119378585Y-66658896D01*
X119448389Y-66490374D01*
X119549728Y-66338709D01*
X119678709Y-66209728D01*
X119830374Y-66108389D01*
X119998896Y-66038585D01*
X120177797Y-66003000D01*
X120360203Y-66003000D01*
X120539104Y-66038585D01*
X120539104Y-66038585D01*
G37*
G36*
X117999104Y-66038585D02*
G01*
X118167626Y-66108389D01*
X118319291Y-66209728D01*
X118448272Y-66338709D01*
X118549611Y-66490374D01*
X118619415Y-66658896D01*
X118655000Y-66837797D01*
X118655000Y-67020203D01*
X118619415Y-67199104D01*
X118549611Y-67367626D01*
X118448272Y-67519291D01*
X118319291Y-67648272D01*
X118167626Y-67749611D01*
X117999104Y-67819415D01*
X117820203Y-67855000D01*
X117637797Y-67855000D01*
X117458896Y-67819415D01*
X117290374Y-67749611D01*
X117138709Y-67648272D01*
X117009728Y-67519291D01*
X116908389Y-67367626D01*
X116838585Y-67199104D01*
X116803000Y-67020203D01*
X116803000Y-66837797D01*
X116838585Y-66658896D01*
X116908389Y-66490374D01*
X117009728Y-66338709D01*
X117138709Y-66209728D01*
X117290374Y-66108389D01*
X117458896Y-66038585D01*
X117637797Y-66003000D01*
X117820203Y-66003000D01*
X117999104Y-66038585D01*
X117999104Y-66038585D01*
G37*
G36*
X115459104Y-66038585D02*
G01*
X115627626Y-66108389D01*
X115779291Y-66209728D01*
X115908272Y-66338709D01*
X116009611Y-66490374D01*
X116079415Y-66658896D01*
X116115000Y-66837797D01*
X116115000Y-67020203D01*
X116079415Y-67199104D01*
X116009611Y-67367626D01*
X115908272Y-67519291D01*
X115779291Y-67648272D01*
X115627626Y-67749611D01*
X115459104Y-67819415D01*
X115280203Y-67855000D01*
X115097797Y-67855000D01*
X114918896Y-67819415D01*
X114750374Y-67749611D01*
X114598709Y-67648272D01*
X114469728Y-67519291D01*
X114368389Y-67367626D01*
X114298585Y-67199104D01*
X114263000Y-67020203D01*
X114263000Y-66837797D01*
X114298585Y-66658896D01*
X114368389Y-66490374D01*
X114469728Y-66338709D01*
X114598709Y-66209728D01*
X114750374Y-66108389D01*
X114918896Y-66038585D01*
X115097797Y-66003000D01*
X115280203Y-66003000D01*
X115459104Y-66038585D01*
X115459104Y-66038585D01*
G37*
G36*
X158131104Y-65911585D02*
G01*
X158299626Y-65981389D01*
X158451291Y-66082728D01*
X158580272Y-66211709D01*
X158681611Y-66363374D01*
X158751415Y-66531896D01*
X158787000Y-66710797D01*
X158787000Y-66893203D01*
X158751415Y-67072104D01*
X158681611Y-67240626D01*
X158580272Y-67392291D01*
X158451291Y-67521272D01*
X158299626Y-67622611D01*
X158131104Y-67692415D01*
X157952203Y-67728000D01*
X157769797Y-67728000D01*
X157590896Y-67692415D01*
X157422374Y-67622611D01*
X157270709Y-67521272D01*
X157141728Y-67392291D01*
X157040389Y-67240626D01*
X156970585Y-67072104D01*
X156935000Y-66893203D01*
X156935000Y-66710797D01*
X156970585Y-66531896D01*
X157040389Y-66363374D01*
X157141728Y-66211709D01*
X157270709Y-66082728D01*
X157422374Y-65981389D01*
X157590896Y-65911585D01*
X157769797Y-65876000D01*
X157952203Y-65876000D01*
X158131104Y-65911585D01*
X158131104Y-65911585D01*
G37*
G36*
X155591104Y-65911585D02*
G01*
X155759626Y-65981389D01*
X155911291Y-66082728D01*
X156040272Y-66211709D01*
X156141611Y-66363374D01*
X156211415Y-66531896D01*
X156247000Y-66710797D01*
X156247000Y-66893203D01*
X156211415Y-67072104D01*
X156141611Y-67240626D01*
X156040272Y-67392291D01*
X155911291Y-67521272D01*
X155759626Y-67622611D01*
X155591104Y-67692415D01*
X155412203Y-67728000D01*
X155229797Y-67728000D01*
X155050896Y-67692415D01*
X154882374Y-67622611D01*
X154730709Y-67521272D01*
X154601728Y-67392291D01*
X154500389Y-67240626D01*
X154430585Y-67072104D01*
X154395000Y-66893203D01*
X154395000Y-66710797D01*
X154430585Y-66531896D01*
X154500389Y-66363374D01*
X154601728Y-66211709D01*
X154730709Y-66082728D01*
X154882374Y-65981389D01*
X155050896Y-65911585D01*
X155229797Y-65876000D01*
X155412203Y-65876000D01*
X155591104Y-65911585D01*
X155591104Y-65911585D01*
G37*
G36*
X173371104Y-65911585D02*
G01*
X173539626Y-65981389D01*
X173691291Y-66082728D01*
X173820272Y-66211709D01*
X173921611Y-66363374D01*
X173991415Y-66531896D01*
X174027000Y-66710797D01*
X174027000Y-66893203D01*
X173991415Y-67072104D01*
X173921611Y-67240626D01*
X173820272Y-67392291D01*
X173691291Y-67521272D01*
X173539626Y-67622611D01*
X173371104Y-67692415D01*
X173192203Y-67728000D01*
X173009797Y-67728000D01*
X172830896Y-67692415D01*
X172662374Y-67622611D01*
X172510709Y-67521272D01*
X172381728Y-67392291D01*
X172280389Y-67240626D01*
X172210585Y-67072104D01*
X172175000Y-66893203D01*
X172175000Y-66710797D01*
X172210585Y-66531896D01*
X172280389Y-66363374D01*
X172381728Y-66211709D01*
X172510709Y-66082728D01*
X172662374Y-65981389D01*
X172830896Y-65911585D01*
X173009797Y-65876000D01*
X173192203Y-65876000D01*
X173371104Y-65911585D01*
X173371104Y-65911585D01*
G37*
G36*
X160671104Y-65911585D02*
G01*
X160839626Y-65981389D01*
X160991291Y-66082728D01*
X161120272Y-66211709D01*
X161221611Y-66363374D01*
X161291415Y-66531896D01*
X161327000Y-66710797D01*
X161327000Y-66893203D01*
X161291415Y-67072104D01*
X161221611Y-67240626D01*
X161120272Y-67392291D01*
X160991291Y-67521272D01*
X160839626Y-67622611D01*
X160671104Y-67692415D01*
X160492203Y-67728000D01*
X160309797Y-67728000D01*
X160130896Y-67692415D01*
X159962374Y-67622611D01*
X159810709Y-67521272D01*
X159681728Y-67392291D01*
X159580389Y-67240626D01*
X159510585Y-67072104D01*
X159475000Y-66893203D01*
X159475000Y-66710797D01*
X159510585Y-66531896D01*
X159580389Y-66363374D01*
X159681728Y-66211709D01*
X159810709Y-66082728D01*
X159962374Y-65981389D01*
X160130896Y-65911585D01*
X160309797Y-65876000D01*
X160492203Y-65876000D01*
X160671104Y-65911585D01*
X160671104Y-65911585D01*
G37*
G36*
X170831104Y-65911585D02*
G01*
X170999626Y-65981389D01*
X171151291Y-66082728D01*
X171280272Y-66211709D01*
X171381611Y-66363374D01*
X171451415Y-66531896D01*
X171487000Y-66710797D01*
X171487000Y-66893203D01*
X171451415Y-67072104D01*
X171381611Y-67240626D01*
X171280272Y-67392291D01*
X171151291Y-67521272D01*
X170999626Y-67622611D01*
X170831104Y-67692415D01*
X170652203Y-67728000D01*
X170469797Y-67728000D01*
X170290896Y-67692415D01*
X170122374Y-67622611D01*
X169970709Y-67521272D01*
X169841728Y-67392291D01*
X169740389Y-67240626D01*
X169670585Y-67072104D01*
X169635000Y-66893203D01*
X169635000Y-66710797D01*
X169670585Y-66531896D01*
X169740389Y-66363374D01*
X169841728Y-66211709D01*
X169970709Y-66082728D01*
X170122374Y-65981389D01*
X170290896Y-65911585D01*
X170469797Y-65876000D01*
X170652203Y-65876000D01*
X170831104Y-65911585D01*
X170831104Y-65911585D01*
G37*
G36*
X168291104Y-65911585D02*
G01*
X168459626Y-65981389D01*
X168611291Y-66082728D01*
X168740272Y-66211709D01*
X168841611Y-66363374D01*
X168911415Y-66531896D01*
X168947000Y-66710797D01*
X168947000Y-66893203D01*
X168911415Y-67072104D01*
X168841611Y-67240626D01*
X168740272Y-67392291D01*
X168611291Y-67521272D01*
X168459626Y-67622611D01*
X168291104Y-67692415D01*
X168112203Y-67728000D01*
X167929797Y-67728000D01*
X167750896Y-67692415D01*
X167582374Y-67622611D01*
X167430709Y-67521272D01*
X167301728Y-67392291D01*
X167200389Y-67240626D01*
X167130585Y-67072104D01*
X167095000Y-66893203D01*
X167095000Y-66710797D01*
X167130585Y-66531896D01*
X167200389Y-66363374D01*
X167301728Y-66211709D01*
X167430709Y-66082728D01*
X167582374Y-65981389D01*
X167750896Y-65911585D01*
X167929797Y-65876000D01*
X168112203Y-65876000D01*
X168291104Y-65911585D01*
X168291104Y-65911585D01*
G37*
G36*
X165751104Y-65911585D02*
G01*
X165919626Y-65981389D01*
X166071291Y-66082728D01*
X166200272Y-66211709D01*
X166301611Y-66363374D01*
X166371415Y-66531896D01*
X166407000Y-66710797D01*
X166407000Y-66893203D01*
X166371415Y-67072104D01*
X166301611Y-67240626D01*
X166200272Y-67392291D01*
X166071291Y-67521272D01*
X165919626Y-67622611D01*
X165751104Y-67692415D01*
X165572203Y-67728000D01*
X165389797Y-67728000D01*
X165210896Y-67692415D01*
X165042374Y-67622611D01*
X164890709Y-67521272D01*
X164761728Y-67392291D01*
X164660389Y-67240626D01*
X164590585Y-67072104D01*
X164555000Y-66893203D01*
X164555000Y-66710797D01*
X164590585Y-66531896D01*
X164660389Y-66363374D01*
X164761728Y-66211709D01*
X164890709Y-66082728D01*
X165042374Y-65981389D01*
X165210896Y-65911585D01*
X165389797Y-65876000D01*
X165572203Y-65876000D01*
X165751104Y-65911585D01*
X165751104Y-65911585D01*
G37*
G36*
X163211104Y-65911585D02*
G01*
X163379626Y-65981389D01*
X163531291Y-66082728D01*
X163660272Y-66211709D01*
X163761611Y-66363374D01*
X163831415Y-66531896D01*
X163867000Y-66710797D01*
X163867000Y-66893203D01*
X163831415Y-67072104D01*
X163761611Y-67240626D01*
X163660272Y-67392291D01*
X163531291Y-67521272D01*
X163379626Y-67622611D01*
X163211104Y-67692415D01*
X163032203Y-67728000D01*
X162849797Y-67728000D01*
X162670896Y-67692415D01*
X162502374Y-67622611D01*
X162350709Y-67521272D01*
X162221728Y-67392291D01*
X162120389Y-67240626D01*
X162050585Y-67072104D01*
X162015000Y-66893203D01*
X162015000Y-66710797D01*
X162050585Y-66531896D01*
X162120389Y-66363374D01*
X162221728Y-66211709D01*
X162350709Y-66082728D01*
X162502374Y-65981389D01*
X162670896Y-65911585D01*
X162849797Y-65876000D01*
X163032203Y-65876000D01*
X163211104Y-65911585D01*
X163211104Y-65911585D01*
G37*
G36*
X106224564Y-65664389D02*
G01*
X106415833Y-65743615D01*
X106415835Y-65743616D01*
X106506001Y-65803863D01*
X106587973Y-65858635D01*
X106734365Y-66005027D01*
X106849385Y-66177167D01*
X106928611Y-66368436D01*
X106969000Y-66571484D01*
X106969000Y-66778516D01*
X106928611Y-66981564D01*
X106872289Y-67117537D01*
X106849384Y-67172835D01*
X106734365Y-67344973D01*
X106587973Y-67491365D01*
X106415835Y-67606384D01*
X106415834Y-67606385D01*
X106415833Y-67606385D01*
X106224564Y-67685611D01*
X106021516Y-67726000D01*
X105814484Y-67726000D01*
X105611436Y-67685611D01*
X105420167Y-67606385D01*
X105420166Y-67606385D01*
X105420165Y-67606384D01*
X105248027Y-67491365D01*
X105101635Y-67344973D01*
X104986616Y-67172835D01*
X104963711Y-67117537D01*
X104907389Y-66981564D01*
X104867000Y-66778516D01*
X104867000Y-66571484D01*
X104907389Y-66368436D01*
X104986615Y-66177167D01*
X105101635Y-66005027D01*
X105248027Y-65858635D01*
X105329999Y-65803863D01*
X105420165Y-65743616D01*
X105420167Y-65743615D01*
X105611436Y-65664389D01*
X105814484Y-65624000D01*
X106021516Y-65624000D01*
X106224564Y-65664389D01*
X106224564Y-65664389D01*
G37*
G36*
X78956000Y-67653000D02*
G01*
X77254000Y-67653000D01*
X77254000Y-65951000D01*
X78956000Y-65951000D01*
X78956000Y-67653000D01*
X78956000Y-67653000D01*
G37*
G36*
X101300228Y-65856703D02*
G01*
X101455100Y-65920853D01*
X101594481Y-66013985D01*
X101713015Y-66132519D01*
X101806147Y-66271900D01*
X101870297Y-66426772D01*
X101903000Y-66591184D01*
X101903000Y-66758816D01*
X101870297Y-66923228D01*
X101806147Y-67078100D01*
X101713015Y-67217481D01*
X101594481Y-67336015D01*
X101455100Y-67429147D01*
X101300228Y-67493297D01*
X101135816Y-67526000D01*
X100968184Y-67526000D01*
X100803772Y-67493297D01*
X100648900Y-67429147D01*
X100509519Y-67336015D01*
X100390985Y-67217481D01*
X100297853Y-67078100D01*
X100233703Y-66923228D01*
X100201000Y-66758816D01*
X100201000Y-66591184D01*
X100233703Y-66426772D01*
X100297853Y-66271900D01*
X100390985Y-66132519D01*
X100509519Y-66013985D01*
X100648900Y-65920853D01*
X100803772Y-65856703D01*
X100968184Y-65824000D01*
X101135816Y-65824000D01*
X101300228Y-65856703D01*
X101300228Y-65856703D01*
G37*
G36*
X98800228Y-65856703D02*
G01*
X98955100Y-65920853D01*
X99094481Y-66013985D01*
X99213015Y-66132519D01*
X99306147Y-66271900D01*
X99370297Y-66426772D01*
X99403000Y-66591184D01*
X99403000Y-66758816D01*
X99370297Y-66923228D01*
X99306147Y-67078100D01*
X99213015Y-67217481D01*
X99094481Y-67336015D01*
X98955100Y-67429147D01*
X98800228Y-67493297D01*
X98635816Y-67526000D01*
X98468184Y-67526000D01*
X98303772Y-67493297D01*
X98148900Y-67429147D01*
X98009519Y-67336015D01*
X97890985Y-67217481D01*
X97797853Y-67078100D01*
X97733703Y-66923228D01*
X97701000Y-66758816D01*
X97701000Y-66591184D01*
X97733703Y-66426772D01*
X97797853Y-66271900D01*
X97890985Y-66132519D01*
X98009519Y-66013985D01*
X98148900Y-65920853D01*
X98303772Y-65856703D01*
X98468184Y-65824000D01*
X98635816Y-65824000D01*
X98800228Y-65856703D01*
X98800228Y-65856703D01*
G37*
G36*
X150795878Y-65750296D02*
G01*
X150874385Y-65758028D01*
X151025482Y-65803863D01*
X151164733Y-65878294D01*
X151286788Y-65978462D01*
X151386956Y-66100517D01*
X151461387Y-66239768D01*
X151507222Y-66390865D01*
X151522698Y-66548000D01*
X151507222Y-66705135D01*
X151461387Y-66856232D01*
X151386956Y-66995483D01*
X151286788Y-67117538D01*
X151164733Y-67217706D01*
X151025482Y-67292137D01*
X150874385Y-67337972D01*
X150795878Y-67345704D01*
X150756626Y-67349570D01*
X149979374Y-67349570D01*
X149940122Y-67345704D01*
X149861615Y-67337972D01*
X149710518Y-67292137D01*
X149571267Y-67217706D01*
X149449212Y-67117538D01*
X149349044Y-66995483D01*
X149274613Y-66856232D01*
X149228778Y-66705135D01*
X149213302Y-66548000D01*
X149228778Y-66390865D01*
X149274613Y-66239768D01*
X149349044Y-66100517D01*
X149449212Y-65978462D01*
X149571267Y-65878294D01*
X149710518Y-65803863D01*
X149861615Y-65758028D01*
X149940122Y-65750296D01*
X149979374Y-65746430D01*
X150756626Y-65746430D01*
X150795878Y-65750296D01*
X150795878Y-65750296D01*
G37*
G36*
X135555878Y-65750296D02*
G01*
X135634385Y-65758028D01*
X135785482Y-65803863D01*
X135924733Y-65878294D01*
X136046788Y-65978462D01*
X136146956Y-66100517D01*
X136221387Y-66239768D01*
X136267222Y-66390865D01*
X136282698Y-66548000D01*
X136267222Y-66705135D01*
X136221387Y-66856232D01*
X136146956Y-66995483D01*
X136046788Y-67117538D01*
X135924733Y-67217706D01*
X135785482Y-67292137D01*
X135634385Y-67337972D01*
X135555878Y-67345704D01*
X135516626Y-67349570D01*
X134739374Y-67349570D01*
X134700122Y-67345704D01*
X134621615Y-67337972D01*
X134470518Y-67292137D01*
X134331267Y-67217706D01*
X134209212Y-67117538D01*
X134109044Y-66995483D01*
X134034613Y-66856232D01*
X133988778Y-66705135D01*
X133973302Y-66548000D01*
X133988778Y-66390865D01*
X134034613Y-66239768D01*
X134109044Y-66100517D01*
X134209212Y-65978462D01*
X134331267Y-65878294D01*
X134470518Y-65803863D01*
X134621615Y-65758028D01*
X134700122Y-65750296D01*
X134739374Y-65746430D01*
X135516626Y-65746430D01*
X135555878Y-65750296D01*
X135555878Y-65750296D01*
G37*
G36*
X84576228Y-65054703D02*
G01*
X84731100Y-65118853D01*
X84870481Y-65211985D01*
X84989015Y-65330519D01*
X85082147Y-65469900D01*
X85146297Y-65624772D01*
X85179000Y-65789184D01*
X85179000Y-65956816D01*
X85146297Y-66121228D01*
X85082147Y-66276100D01*
X84989015Y-66415481D01*
X84870481Y-66534015D01*
X84731100Y-66627147D01*
X84576228Y-66691297D01*
X84411816Y-66724000D01*
X84244184Y-66724000D01*
X84079772Y-66691297D01*
X83924900Y-66627147D01*
X83785519Y-66534015D01*
X83666985Y-66415481D01*
X83573853Y-66276100D01*
X83509703Y-66121228D01*
X83477000Y-65956816D01*
X83477000Y-65789184D01*
X83509703Y-65624772D01*
X83573853Y-65469900D01*
X83666985Y-65330519D01*
X83785519Y-65211985D01*
X83924900Y-65118853D01*
X84079772Y-65054703D01*
X84244184Y-65022000D01*
X84411816Y-65022000D01*
X84576228Y-65054703D01*
X84576228Y-65054703D01*
G37*
G36*
X89795500Y-66416000D02*
G01*
X88168500Y-66416000D01*
X88168500Y-65664000D01*
X89795500Y-65664000D01*
X89795500Y-66416000D01*
X89795500Y-66416000D01*
G37*
G36*
X95219500Y-66416000D02*
G01*
X93592500Y-66416000D01*
X93592500Y-65664000D01*
X95219500Y-65664000D01*
X95219500Y-66416000D01*
X95219500Y-66416000D01*
G37*
G36*
X115459104Y-63498585D02*
G01*
X115627626Y-63568389D01*
X115779291Y-63669728D01*
X115908272Y-63798709D01*
X116009611Y-63950374D01*
X116079415Y-64118896D01*
X116115000Y-64297797D01*
X116115000Y-64480203D01*
X116079415Y-64659104D01*
X116009611Y-64827626D01*
X115908272Y-64979291D01*
X115779291Y-65108272D01*
X115627626Y-65209611D01*
X115459104Y-65279415D01*
X115280203Y-65315000D01*
X115097797Y-65315000D01*
X114918896Y-65279415D01*
X114750374Y-65209611D01*
X114598709Y-65108272D01*
X114469728Y-64979291D01*
X114368389Y-64827626D01*
X114298585Y-64659104D01*
X114263000Y-64480203D01*
X114263000Y-64297797D01*
X114298585Y-64118896D01*
X114368389Y-63950374D01*
X114469728Y-63798709D01*
X114598709Y-63669728D01*
X114750374Y-63568389D01*
X114918896Y-63498585D01*
X115097797Y-63463000D01*
X115280203Y-63463000D01*
X115459104Y-63498585D01*
X115459104Y-63498585D01*
G37*
G36*
X130699104Y-63498585D02*
G01*
X130867626Y-63568389D01*
X131019291Y-63669728D01*
X131148272Y-63798709D01*
X131249611Y-63950374D01*
X131319415Y-64118896D01*
X131355000Y-64297797D01*
X131355000Y-64480203D01*
X131319415Y-64659104D01*
X131249611Y-64827626D01*
X131148272Y-64979291D01*
X131019291Y-65108272D01*
X130867626Y-65209611D01*
X130699104Y-65279415D01*
X130520203Y-65315000D01*
X130337797Y-65315000D01*
X130158896Y-65279415D01*
X129990374Y-65209611D01*
X129838709Y-65108272D01*
X129709728Y-64979291D01*
X129608389Y-64827626D01*
X129538585Y-64659104D01*
X129503000Y-64480203D01*
X129503000Y-64297797D01*
X129538585Y-64118896D01*
X129608389Y-63950374D01*
X129709728Y-63798709D01*
X129838709Y-63669728D01*
X129990374Y-63568389D01*
X130158896Y-63498585D01*
X130337797Y-63463000D01*
X130520203Y-63463000D01*
X130699104Y-63498585D01*
X130699104Y-63498585D01*
G37*
G36*
X128159104Y-63498585D02*
G01*
X128327626Y-63568389D01*
X128479291Y-63669728D01*
X128608272Y-63798709D01*
X128709611Y-63950374D01*
X128779415Y-64118896D01*
X128815000Y-64297797D01*
X128815000Y-64480203D01*
X128779415Y-64659104D01*
X128709611Y-64827626D01*
X128608272Y-64979291D01*
X128479291Y-65108272D01*
X128327626Y-65209611D01*
X128159104Y-65279415D01*
X127980203Y-65315000D01*
X127797797Y-65315000D01*
X127618896Y-65279415D01*
X127450374Y-65209611D01*
X127298709Y-65108272D01*
X127169728Y-64979291D01*
X127068389Y-64827626D01*
X126998585Y-64659104D01*
X126963000Y-64480203D01*
X126963000Y-64297797D01*
X126998585Y-64118896D01*
X127068389Y-63950374D01*
X127169728Y-63798709D01*
X127298709Y-63669728D01*
X127450374Y-63568389D01*
X127618896Y-63498585D01*
X127797797Y-63463000D01*
X127980203Y-63463000D01*
X128159104Y-63498585D01*
X128159104Y-63498585D01*
G37*
G36*
X112919104Y-63498585D02*
G01*
X113087626Y-63568389D01*
X113239291Y-63669728D01*
X113368272Y-63798709D01*
X113469611Y-63950374D01*
X113539415Y-64118896D01*
X113575000Y-64297797D01*
X113575000Y-64480203D01*
X113539415Y-64659104D01*
X113469611Y-64827626D01*
X113368272Y-64979291D01*
X113239291Y-65108272D01*
X113087626Y-65209611D01*
X112919104Y-65279415D01*
X112740203Y-65315000D01*
X112557797Y-65315000D01*
X112378896Y-65279415D01*
X112210374Y-65209611D01*
X112058709Y-65108272D01*
X111929728Y-64979291D01*
X111828389Y-64827626D01*
X111758585Y-64659104D01*
X111723000Y-64480203D01*
X111723000Y-64297797D01*
X111758585Y-64118896D01*
X111828389Y-63950374D01*
X111929728Y-63798709D01*
X112058709Y-63669728D01*
X112210374Y-63568389D01*
X112378896Y-63498585D01*
X112557797Y-63463000D01*
X112740203Y-63463000D01*
X112919104Y-63498585D01*
X112919104Y-63498585D01*
G37*
G36*
X165751104Y-63371585D02*
G01*
X165919626Y-63441389D01*
X166071291Y-63542728D01*
X166200272Y-63671709D01*
X166301611Y-63823374D01*
X166371415Y-63991896D01*
X166407000Y-64170797D01*
X166407000Y-64353203D01*
X166371415Y-64532104D01*
X166301611Y-64700626D01*
X166200272Y-64852291D01*
X166071291Y-64981272D01*
X165919626Y-65082611D01*
X165751104Y-65152415D01*
X165572203Y-65188000D01*
X165389797Y-65188000D01*
X165210896Y-65152415D01*
X165042374Y-65082611D01*
X164890709Y-64981272D01*
X164761728Y-64852291D01*
X164660389Y-64700626D01*
X164590585Y-64532104D01*
X164555000Y-64353203D01*
X164555000Y-64170797D01*
X164590585Y-63991896D01*
X164660389Y-63823374D01*
X164761728Y-63671709D01*
X164890709Y-63542728D01*
X165042374Y-63441389D01*
X165210896Y-63371585D01*
X165389797Y-63336000D01*
X165572203Y-63336000D01*
X165751104Y-63371585D01*
X165751104Y-63371585D01*
G37*
G36*
X170831104Y-63371585D02*
G01*
X170999626Y-63441389D01*
X171151291Y-63542728D01*
X171280272Y-63671709D01*
X171381611Y-63823374D01*
X171451415Y-63991896D01*
X171487000Y-64170797D01*
X171487000Y-64353203D01*
X171451415Y-64532104D01*
X171381611Y-64700626D01*
X171280272Y-64852291D01*
X171151291Y-64981272D01*
X170999626Y-65082611D01*
X170831104Y-65152415D01*
X170652203Y-65188000D01*
X170469797Y-65188000D01*
X170290896Y-65152415D01*
X170122374Y-65082611D01*
X169970709Y-64981272D01*
X169841728Y-64852291D01*
X169740389Y-64700626D01*
X169670585Y-64532104D01*
X169635000Y-64353203D01*
X169635000Y-64170797D01*
X169670585Y-63991896D01*
X169740389Y-63823374D01*
X169841728Y-63671709D01*
X169970709Y-63542728D01*
X170122374Y-63441389D01*
X170290896Y-63371585D01*
X170469797Y-63336000D01*
X170652203Y-63336000D01*
X170831104Y-63371585D01*
X170831104Y-63371585D01*
G37*
G36*
X168291104Y-63371585D02*
G01*
X168459626Y-63441389D01*
X168611291Y-63542728D01*
X168740272Y-63671709D01*
X168841611Y-63823374D01*
X168911415Y-63991896D01*
X168947000Y-64170797D01*
X168947000Y-64353203D01*
X168911415Y-64532104D01*
X168841611Y-64700626D01*
X168740272Y-64852291D01*
X168611291Y-64981272D01*
X168459626Y-65082611D01*
X168291104Y-65152415D01*
X168112203Y-65188000D01*
X167929797Y-65188000D01*
X167750896Y-65152415D01*
X167582374Y-65082611D01*
X167430709Y-64981272D01*
X167301728Y-64852291D01*
X167200389Y-64700626D01*
X167130585Y-64532104D01*
X167095000Y-64353203D01*
X167095000Y-64170797D01*
X167130585Y-63991896D01*
X167200389Y-63823374D01*
X167301728Y-63671709D01*
X167430709Y-63542728D01*
X167582374Y-63441389D01*
X167750896Y-63371585D01*
X167929797Y-63336000D01*
X168112203Y-63336000D01*
X168291104Y-63371585D01*
X168291104Y-63371585D01*
G37*
G36*
X163211104Y-63371585D02*
G01*
X163379626Y-63441389D01*
X163531291Y-63542728D01*
X163660272Y-63671709D01*
X163761611Y-63823374D01*
X163831415Y-63991896D01*
X163867000Y-64170797D01*
X163867000Y-64353203D01*
X163831415Y-64532104D01*
X163761611Y-64700626D01*
X163660272Y-64852291D01*
X163531291Y-64981272D01*
X163379626Y-65082611D01*
X163211104Y-65152415D01*
X163032203Y-65188000D01*
X162849797Y-65188000D01*
X162670896Y-65152415D01*
X162502374Y-65082611D01*
X162350709Y-64981272D01*
X162221728Y-64852291D01*
X162120389Y-64700626D01*
X162050585Y-64532104D01*
X162015000Y-64353203D01*
X162015000Y-64170797D01*
X162050585Y-63991896D01*
X162120389Y-63823374D01*
X162221728Y-63671709D01*
X162350709Y-63542728D01*
X162502374Y-63441389D01*
X162670896Y-63371585D01*
X162849797Y-63336000D01*
X163032203Y-63336000D01*
X163211104Y-63371585D01*
X163211104Y-63371585D01*
G37*
G36*
X158131104Y-63371585D02*
G01*
X158299626Y-63441389D01*
X158451291Y-63542728D01*
X158580272Y-63671709D01*
X158681611Y-63823374D01*
X158751415Y-63991896D01*
X158787000Y-64170797D01*
X158787000Y-64353203D01*
X158751415Y-64532104D01*
X158681611Y-64700626D01*
X158580272Y-64852291D01*
X158451291Y-64981272D01*
X158299626Y-65082611D01*
X158131104Y-65152415D01*
X157952203Y-65188000D01*
X157769797Y-65188000D01*
X157590896Y-65152415D01*
X157422374Y-65082611D01*
X157270709Y-64981272D01*
X157141728Y-64852291D01*
X157040389Y-64700626D01*
X156970585Y-64532104D01*
X156935000Y-64353203D01*
X156935000Y-64170797D01*
X156970585Y-63991896D01*
X157040389Y-63823374D01*
X157141728Y-63671709D01*
X157270709Y-63542728D01*
X157422374Y-63441389D01*
X157590896Y-63371585D01*
X157769797Y-63336000D01*
X157952203Y-63336000D01*
X158131104Y-63371585D01*
X158131104Y-63371585D01*
G37*
G36*
X160671104Y-63371585D02*
G01*
X160839626Y-63441389D01*
X160991291Y-63542728D01*
X161120272Y-63671709D01*
X161221611Y-63823374D01*
X161291415Y-63991896D01*
X161327000Y-64170797D01*
X161327000Y-64353203D01*
X161291415Y-64532104D01*
X161221611Y-64700626D01*
X161120272Y-64852291D01*
X160991291Y-64981272D01*
X160839626Y-65082611D01*
X160671104Y-65152415D01*
X160492203Y-65188000D01*
X160309797Y-65188000D01*
X160130896Y-65152415D01*
X159962374Y-65082611D01*
X159810709Y-64981272D01*
X159681728Y-64852291D01*
X159580389Y-64700626D01*
X159510585Y-64532104D01*
X159475000Y-64353203D01*
X159475000Y-64170797D01*
X159510585Y-63991896D01*
X159580389Y-63823374D01*
X159681728Y-63671709D01*
X159810709Y-63542728D01*
X159962374Y-63441389D01*
X160130896Y-63371585D01*
X160309797Y-63336000D01*
X160492203Y-63336000D01*
X160671104Y-63371585D01*
X160671104Y-63371585D01*
G37*
G36*
X89795500Y-65146000D02*
G01*
X88168500Y-65146000D01*
X88168500Y-64394000D01*
X89795500Y-64394000D01*
X89795500Y-65146000D01*
X89795500Y-65146000D01*
G37*
G36*
X95219500Y-65146000D02*
G01*
X93592500Y-65146000D01*
X93592500Y-64394000D01*
X95219500Y-64394000D01*
X95219500Y-65146000D01*
X95219500Y-65146000D01*
G37*
G36*
X150795878Y-63210296D02*
G01*
X150874385Y-63218028D01*
X151025482Y-63263863D01*
X151164733Y-63338294D01*
X151286788Y-63438462D01*
X151386956Y-63560517D01*
X151461387Y-63699768D01*
X151507222Y-63850865D01*
X151522698Y-64008000D01*
X151507222Y-64165135D01*
X151461387Y-64316232D01*
X151386956Y-64455483D01*
X151286788Y-64577538D01*
X151164733Y-64677706D01*
X151025482Y-64752137D01*
X150874385Y-64797972D01*
X150795878Y-64805704D01*
X150756626Y-64809570D01*
X149979374Y-64809570D01*
X149940122Y-64805704D01*
X149861615Y-64797972D01*
X149710518Y-64752137D01*
X149571267Y-64677706D01*
X149449212Y-64577538D01*
X149349044Y-64455483D01*
X149274613Y-64316232D01*
X149228778Y-64165135D01*
X149213302Y-64008000D01*
X149228778Y-63850865D01*
X149274613Y-63699768D01*
X149349044Y-63560517D01*
X149449212Y-63438462D01*
X149571267Y-63338294D01*
X149710518Y-63263863D01*
X149861615Y-63218028D01*
X149940122Y-63210296D01*
X149979374Y-63206430D01*
X150756626Y-63206430D01*
X150795878Y-63210296D01*
X150795878Y-63210296D01*
G37*
G36*
X135555878Y-63210296D02*
G01*
X135634385Y-63218028D01*
X135785482Y-63263863D01*
X135924733Y-63338294D01*
X136046788Y-63438462D01*
X136146956Y-63560517D01*
X136221387Y-63699768D01*
X136267222Y-63850865D01*
X136282698Y-64008000D01*
X136267222Y-64165135D01*
X136221387Y-64316232D01*
X136146956Y-64455483D01*
X136046788Y-64577538D01*
X135924733Y-64677706D01*
X135785482Y-64752137D01*
X135634385Y-64797972D01*
X135555878Y-64805704D01*
X135516626Y-64809570D01*
X134739374Y-64809570D01*
X134700122Y-64805704D01*
X134621615Y-64797972D01*
X134470518Y-64752137D01*
X134331267Y-64677706D01*
X134209212Y-64577538D01*
X134109044Y-64455483D01*
X134034613Y-64316232D01*
X133988778Y-64165135D01*
X133973302Y-64008000D01*
X133988778Y-63850865D01*
X134034613Y-63699768D01*
X134109044Y-63560517D01*
X134209212Y-63438462D01*
X134331267Y-63338294D01*
X134470518Y-63263863D01*
X134621615Y-63218028D01*
X134700122Y-63210296D01*
X134739374Y-63206430D01*
X135516626Y-63206430D01*
X135555878Y-63210296D01*
X135555878Y-63210296D01*
G37*
G36*
X99980000Y-64723000D02*
G01*
X97378000Y-64723000D01*
X97378000Y-63621000D01*
X99980000Y-63621000D01*
X99980000Y-64723000D01*
X99980000Y-64723000D01*
G37*
G36*
X85179000Y-64224000D02*
G01*
X83477000Y-64224000D01*
X83477000Y-62522000D01*
X85179000Y-62522000D01*
X85179000Y-64224000D01*
X85179000Y-64224000D01*
G37*
G36*
X77366000Y-64158000D02*
G01*
X73764000Y-64158000D01*
X73764000Y-60556000D01*
X77366000Y-60556000D01*
X77366000Y-64158000D01*
X77366000Y-64158000D01*
G37*
G36*
X89795500Y-63876000D02*
G01*
X88168500Y-63876000D01*
X88168500Y-63124000D01*
X89795500Y-63124000D01*
X89795500Y-63876000D01*
X89795500Y-63876000D01*
G37*
G36*
X95219500Y-63876000D02*
G01*
X93592500Y-63876000D01*
X93592500Y-63124000D01*
X95219500Y-63124000D01*
X95219500Y-63876000D01*
X95219500Y-63876000D01*
G37*
G36*
X130699104Y-60958585D02*
G01*
X130867626Y-61028389D01*
X131019291Y-61129728D01*
X131148272Y-61258709D01*
X131249611Y-61410374D01*
X131319415Y-61578896D01*
X131355000Y-61757797D01*
X131355000Y-61940203D01*
X131319415Y-62119104D01*
X131249611Y-62287626D01*
X131148272Y-62439291D01*
X131019291Y-62568272D01*
X130867626Y-62669611D01*
X130699104Y-62739415D01*
X130520203Y-62775000D01*
X130337797Y-62775000D01*
X130158896Y-62739415D01*
X129990374Y-62669611D01*
X129838709Y-62568272D01*
X129709728Y-62439291D01*
X129608389Y-62287626D01*
X129538585Y-62119104D01*
X129503000Y-61940203D01*
X129503000Y-61757797D01*
X129538585Y-61578896D01*
X129608389Y-61410374D01*
X129709728Y-61258709D01*
X129838709Y-61129728D01*
X129990374Y-61028389D01*
X130158896Y-60958585D01*
X130337797Y-60923000D01*
X130520203Y-60923000D01*
X130699104Y-60958585D01*
X130699104Y-60958585D01*
G37*
G36*
X115459104Y-60958585D02*
G01*
X115627626Y-61028389D01*
X115779291Y-61129728D01*
X115908272Y-61258709D01*
X116009611Y-61410374D01*
X116079415Y-61578896D01*
X116115000Y-61757797D01*
X116115000Y-61940203D01*
X116079415Y-62119104D01*
X116009611Y-62287626D01*
X115908272Y-62439291D01*
X115779291Y-62568272D01*
X115627626Y-62669611D01*
X115459104Y-62739415D01*
X115280203Y-62775000D01*
X115097797Y-62775000D01*
X114918896Y-62739415D01*
X114750374Y-62669611D01*
X114598709Y-62568272D01*
X114469728Y-62439291D01*
X114368389Y-62287626D01*
X114298585Y-62119104D01*
X114263000Y-61940203D01*
X114263000Y-61757797D01*
X114298585Y-61578896D01*
X114368389Y-61410374D01*
X114469728Y-61258709D01*
X114598709Y-61129728D01*
X114750374Y-61028389D01*
X114918896Y-60958585D01*
X115097797Y-60923000D01*
X115280203Y-60923000D01*
X115459104Y-60958585D01*
X115459104Y-60958585D01*
G37*
G36*
X112919104Y-60958585D02*
G01*
X113087626Y-61028389D01*
X113239291Y-61129728D01*
X113368272Y-61258709D01*
X113469611Y-61410374D01*
X113539415Y-61578896D01*
X113575000Y-61757797D01*
X113575000Y-61940203D01*
X113539415Y-62119104D01*
X113469611Y-62287626D01*
X113368272Y-62439291D01*
X113239291Y-62568272D01*
X113087626Y-62669611D01*
X112919104Y-62739415D01*
X112740203Y-62775000D01*
X112557797Y-62775000D01*
X112378896Y-62739415D01*
X112210374Y-62669611D01*
X112058709Y-62568272D01*
X111929728Y-62439291D01*
X111828389Y-62287626D01*
X111758585Y-62119104D01*
X111723000Y-61940203D01*
X111723000Y-61757797D01*
X111758585Y-61578896D01*
X111828389Y-61410374D01*
X111929728Y-61258709D01*
X112058709Y-61129728D01*
X112210374Y-61028389D01*
X112378896Y-60958585D01*
X112557797Y-60923000D01*
X112740203Y-60923000D01*
X112919104Y-60958585D01*
X112919104Y-60958585D01*
G37*
G36*
X128159104Y-60958585D02*
G01*
X128327626Y-61028389D01*
X128479291Y-61129728D01*
X128608272Y-61258709D01*
X128709611Y-61410374D01*
X128779415Y-61578896D01*
X128815000Y-61757797D01*
X128815000Y-61940203D01*
X128779415Y-62119104D01*
X128709611Y-62287626D01*
X128608272Y-62439291D01*
X128479291Y-62568272D01*
X128327626Y-62669611D01*
X128159104Y-62739415D01*
X127980203Y-62775000D01*
X127797797Y-62775000D01*
X127618896Y-62739415D01*
X127450374Y-62669611D01*
X127298709Y-62568272D01*
X127169728Y-62439291D01*
X127068389Y-62287626D01*
X126998585Y-62119104D01*
X126963000Y-61940203D01*
X126963000Y-61757797D01*
X126998585Y-61578896D01*
X127068389Y-61410374D01*
X127169728Y-61258709D01*
X127298709Y-61129728D01*
X127450374Y-61028389D01*
X127618896Y-60958585D01*
X127797797Y-60923000D01*
X127980203Y-60923000D01*
X128159104Y-60958585D01*
X128159104Y-60958585D01*
G37*
G36*
X89795500Y-62606000D02*
G01*
X88168500Y-62606000D01*
X88168500Y-61854000D01*
X89795500Y-61854000D01*
X89795500Y-62606000D01*
X89795500Y-62606000D01*
G37*
G36*
X95219500Y-62606000D02*
G01*
X93592500Y-62606000D01*
X93592500Y-61854000D01*
X95219500Y-61854000D01*
X95219500Y-62606000D01*
X95219500Y-62606000D01*
G37*
G36*
X135555878Y-60670296D02*
G01*
X135634385Y-60678028D01*
X135785482Y-60723863D01*
X135924733Y-60798294D01*
X136046788Y-60898462D01*
X136146956Y-61020517D01*
X136221387Y-61159768D01*
X136267222Y-61310865D01*
X136282698Y-61468000D01*
X136267222Y-61625135D01*
X136221387Y-61776232D01*
X136146956Y-61915483D01*
X136046788Y-62037538D01*
X135924733Y-62137706D01*
X135785482Y-62212137D01*
X135634385Y-62257972D01*
X135555878Y-62265704D01*
X135516626Y-62269570D01*
X134739374Y-62269570D01*
X134700122Y-62265704D01*
X134621615Y-62257972D01*
X134470518Y-62212137D01*
X134331267Y-62137706D01*
X134209212Y-62037538D01*
X134109044Y-61915483D01*
X134034613Y-61776232D01*
X133988778Y-61625135D01*
X133973302Y-61468000D01*
X133988778Y-61310865D01*
X134034613Y-61159768D01*
X134109044Y-61020517D01*
X134209212Y-60898462D01*
X134331267Y-60798294D01*
X134470518Y-60723863D01*
X134621615Y-60678028D01*
X134700122Y-60670296D01*
X134739374Y-60666430D01*
X135516626Y-60666430D01*
X135555878Y-60670296D01*
X135555878Y-60670296D01*
G37*
G36*
X150795878Y-60670296D02*
G01*
X150874385Y-60678028D01*
X151025482Y-60723863D01*
X151164733Y-60798294D01*
X151286788Y-60898462D01*
X151386956Y-61020517D01*
X151461387Y-61159768D01*
X151507222Y-61310865D01*
X151522698Y-61468000D01*
X151507222Y-61625135D01*
X151461387Y-61776232D01*
X151386956Y-61915483D01*
X151286788Y-62037538D01*
X151164733Y-62137706D01*
X151025482Y-62212137D01*
X150874385Y-62257972D01*
X150795878Y-62265704D01*
X150756626Y-62269570D01*
X149979374Y-62269570D01*
X149940122Y-62265704D01*
X149861615Y-62257972D01*
X149710518Y-62212137D01*
X149571267Y-62137706D01*
X149449212Y-62037538D01*
X149349044Y-61915483D01*
X149274613Y-61776232D01*
X149228778Y-61625135D01*
X149213302Y-61468000D01*
X149228778Y-61310865D01*
X149274613Y-61159768D01*
X149349044Y-61020517D01*
X149449212Y-60898462D01*
X149571267Y-60798294D01*
X149710518Y-60723863D01*
X149861615Y-60678028D01*
X149940122Y-60670296D01*
X149979374Y-60666430D01*
X150756626Y-60666430D01*
X150795878Y-60670296D01*
X150795878Y-60670296D01*
G37*
G36*
X72666000Y-61158000D02*
G01*
X69064000Y-61158000D01*
X69064000Y-57556000D01*
X72666000Y-57556000D01*
X72666000Y-61158000D01*
X72666000Y-61158000D01*
G37*
G36*
X82330228Y-58744703D02*
G01*
X82485100Y-58808853D01*
X82624481Y-58901985D01*
X82743015Y-59020519D01*
X82836147Y-59159900D01*
X82900297Y-59314772D01*
X82933000Y-59479184D01*
X82933000Y-59646816D01*
X82900297Y-59811228D01*
X82836147Y-59966100D01*
X82743015Y-60105481D01*
X82624481Y-60224015D01*
X82485100Y-60317147D01*
X82330228Y-60381297D01*
X82165816Y-60414000D01*
X81998184Y-60414000D01*
X81833772Y-60381297D01*
X81678900Y-60317147D01*
X81539519Y-60224015D01*
X81420985Y-60105481D01*
X81327853Y-59966100D01*
X81263703Y-59811228D01*
X81231000Y-59646816D01*
X81231000Y-59479184D01*
X81263703Y-59314772D01*
X81327853Y-59159900D01*
X81420985Y-59020519D01*
X81539519Y-58901985D01*
X81678900Y-58808853D01*
X81833772Y-58744703D01*
X81998184Y-58712000D01*
X82165816Y-58712000D01*
X82330228Y-58744703D01*
X82330228Y-58744703D01*
G37*
G36*
X84830228Y-58744703D02*
G01*
X84985100Y-58808853D01*
X85124481Y-58901985D01*
X85243015Y-59020519D01*
X85336147Y-59159900D01*
X85400297Y-59314772D01*
X85433000Y-59479184D01*
X85433000Y-59646816D01*
X85400297Y-59811228D01*
X85336147Y-59966100D01*
X85243015Y-60105481D01*
X85124481Y-60224015D01*
X84985100Y-60317147D01*
X84830228Y-60381297D01*
X84665816Y-60414000D01*
X84498184Y-60414000D01*
X84333772Y-60381297D01*
X84178900Y-60317147D01*
X84039519Y-60224015D01*
X83920985Y-60105481D01*
X83827853Y-59966100D01*
X83763703Y-59811228D01*
X83731000Y-59646816D01*
X83731000Y-59479184D01*
X83763703Y-59314772D01*
X83827853Y-59159900D01*
X83920985Y-59020519D01*
X84039519Y-58901985D01*
X84178900Y-58808853D01*
X84333772Y-58744703D01*
X84498184Y-58712000D01*
X84665816Y-58712000D01*
X84830228Y-58744703D01*
X84830228Y-58744703D01*
G37*
G36*
X112919104Y-58418585D02*
G01*
X113087626Y-58488389D01*
X113239291Y-58589728D01*
X113368272Y-58718709D01*
X113469611Y-58870374D01*
X113539415Y-59038896D01*
X113575000Y-59217797D01*
X113575000Y-59400203D01*
X113539415Y-59579104D01*
X113469611Y-59747626D01*
X113368272Y-59899291D01*
X113239291Y-60028272D01*
X113087626Y-60129611D01*
X112919104Y-60199415D01*
X112740203Y-60235000D01*
X112557797Y-60235000D01*
X112378896Y-60199415D01*
X112210374Y-60129611D01*
X112058709Y-60028272D01*
X111929728Y-59899291D01*
X111828389Y-59747626D01*
X111758585Y-59579104D01*
X111723000Y-59400203D01*
X111723000Y-59217797D01*
X111758585Y-59038896D01*
X111828389Y-58870374D01*
X111929728Y-58718709D01*
X112058709Y-58589728D01*
X112210374Y-58488389D01*
X112378896Y-58418585D01*
X112557797Y-58383000D01*
X112740203Y-58383000D01*
X112919104Y-58418585D01*
X112919104Y-58418585D01*
G37*
G36*
X130699104Y-58418585D02*
G01*
X130867626Y-58488389D01*
X131019291Y-58589728D01*
X131148272Y-58718709D01*
X131249611Y-58870374D01*
X131319415Y-59038896D01*
X131355000Y-59217797D01*
X131355000Y-59400203D01*
X131319415Y-59579104D01*
X131249611Y-59747626D01*
X131148272Y-59899291D01*
X131019291Y-60028272D01*
X130867626Y-60129611D01*
X130699104Y-60199415D01*
X130520203Y-60235000D01*
X130337797Y-60235000D01*
X130158896Y-60199415D01*
X129990374Y-60129611D01*
X129838709Y-60028272D01*
X129709728Y-59899291D01*
X129608389Y-59747626D01*
X129538585Y-59579104D01*
X129503000Y-59400203D01*
X129503000Y-59217797D01*
X129538585Y-59038896D01*
X129608389Y-58870374D01*
X129709728Y-58718709D01*
X129838709Y-58589728D01*
X129990374Y-58488389D01*
X130158896Y-58418585D01*
X130337797Y-58383000D01*
X130520203Y-58383000D01*
X130699104Y-58418585D01*
X130699104Y-58418585D01*
G37*
G36*
X116115000Y-60235000D02*
G01*
X114263000Y-60235000D01*
X114263000Y-58383000D01*
X116115000Y-58383000D01*
X116115000Y-60235000D01*
X116115000Y-60235000D01*
G37*
G36*
X128159104Y-58418585D02*
G01*
X128327626Y-58488389D01*
X128479291Y-58589728D01*
X128608272Y-58718709D01*
X128709611Y-58870374D01*
X128779415Y-59038896D01*
X128815000Y-59217797D01*
X128815000Y-59400203D01*
X128779415Y-59579104D01*
X128709611Y-59747626D01*
X128608272Y-59899291D01*
X128479291Y-60028272D01*
X128327626Y-60129611D01*
X128159104Y-60199415D01*
X127980203Y-60235000D01*
X127797797Y-60235000D01*
X127618896Y-60199415D01*
X127450374Y-60129611D01*
X127298709Y-60028272D01*
X127169728Y-59899291D01*
X127068389Y-59747626D01*
X126998585Y-59579104D01*
X126963000Y-59400203D01*
X126963000Y-59217797D01*
X126998585Y-59038896D01*
X127068389Y-58870374D01*
X127169728Y-58718709D01*
X127298709Y-58589728D01*
X127450374Y-58488389D01*
X127618896Y-58418585D01*
X127797797Y-58383000D01*
X127980203Y-58383000D01*
X128159104Y-58418585D01*
X128159104Y-58418585D01*
G37*
G36*
X106224564Y-58164389D02*
G01*
X106415833Y-58243615D01*
X106415835Y-58243616D01*
X106587973Y-58358635D01*
X106734365Y-58505027D01*
X106811033Y-58619768D01*
X106849385Y-58677167D01*
X106928611Y-58868436D01*
X106969000Y-59071484D01*
X106969000Y-59278516D01*
X106928611Y-59481564D01*
X106849674Y-59672136D01*
X106849384Y-59672835D01*
X106734365Y-59844973D01*
X106587973Y-59991365D01*
X106415835Y-60106384D01*
X106415834Y-60106385D01*
X106415833Y-60106385D01*
X106224564Y-60185611D01*
X106021516Y-60226000D01*
X105814484Y-60226000D01*
X105611436Y-60185611D01*
X105420167Y-60106385D01*
X105420166Y-60106385D01*
X105420165Y-60106384D01*
X105248027Y-59991365D01*
X105101635Y-59844973D01*
X104986616Y-59672835D01*
X104986326Y-59672136D01*
X104907389Y-59481564D01*
X104867000Y-59278516D01*
X104867000Y-59071484D01*
X104907389Y-58868436D01*
X104986615Y-58677167D01*
X105024968Y-58619768D01*
X105101635Y-58505027D01*
X105248027Y-58358635D01*
X105420165Y-58243616D01*
X105420167Y-58243615D01*
X105611436Y-58164389D01*
X105814484Y-58124000D01*
X106021516Y-58124000D01*
X106224564Y-58164389D01*
X106224564Y-58164389D01*
G37*
G36*
X91880425Y-58117760D02*
G01*
X91880428Y-58117761D01*
X91880429Y-58117761D01*
X92059693Y-58172140D01*
X92059696Y-58172142D01*
X92059697Y-58172142D01*
X92224903Y-58260446D01*
X92369712Y-58379288D01*
X92488554Y-58524097D01*
X92570370Y-58677165D01*
X92576860Y-58689307D01*
X92631198Y-58868435D01*
X92631240Y-58868575D01*
X92649601Y-59055000D01*
X92631240Y-59241425D01*
X92631239Y-59241428D01*
X92631239Y-59241429D01*
X92576860Y-59420693D01*
X92576858Y-59420696D01*
X92576858Y-59420697D01*
X92488554Y-59585903D01*
X92369712Y-59730712D01*
X92224903Y-59849554D01*
X92059697Y-59937858D01*
X92059693Y-59937860D01*
X91880429Y-59992239D01*
X91880428Y-59992239D01*
X91880425Y-59992240D01*
X91740718Y-60006000D01*
X91647282Y-60006000D01*
X91507575Y-59992240D01*
X91507572Y-59992239D01*
X91507571Y-59992239D01*
X91328307Y-59937860D01*
X91328303Y-59937858D01*
X91163097Y-59849554D01*
X91018288Y-59730712D01*
X90899446Y-59585903D01*
X90811142Y-59420697D01*
X90811142Y-59420696D01*
X90811140Y-59420693D01*
X90756761Y-59241429D01*
X90756761Y-59241428D01*
X90756760Y-59241425D01*
X90738399Y-59055000D01*
X90756760Y-58868575D01*
X90756802Y-58868435D01*
X90811140Y-58689307D01*
X90817630Y-58677165D01*
X90899446Y-58524097D01*
X91018288Y-58379288D01*
X91163097Y-58260446D01*
X91328303Y-58172142D01*
X91328304Y-58172142D01*
X91328307Y-58172140D01*
X91507571Y-58117761D01*
X91507572Y-58117761D01*
X91507575Y-58117760D01*
X91647282Y-58104000D01*
X91740718Y-58104000D01*
X91880425Y-58117760D01*
X91880425Y-58117760D01*
G37*
G36*
X90105000Y-60006000D02*
G01*
X88203000Y-60006000D01*
X88203000Y-58104000D01*
X90105000Y-58104000D01*
X90105000Y-60006000D01*
X90105000Y-60006000D01*
G37*
G36*
X94420425Y-58117760D02*
G01*
X94420428Y-58117761D01*
X94420429Y-58117761D01*
X94599693Y-58172140D01*
X94599696Y-58172142D01*
X94599697Y-58172142D01*
X94764903Y-58260446D01*
X94909712Y-58379288D01*
X95028554Y-58524097D01*
X95110370Y-58677165D01*
X95116860Y-58689307D01*
X95171198Y-58868435D01*
X95171240Y-58868575D01*
X95189601Y-59055000D01*
X95171240Y-59241425D01*
X95171239Y-59241428D01*
X95171239Y-59241429D01*
X95116860Y-59420693D01*
X95116858Y-59420696D01*
X95116858Y-59420697D01*
X95028554Y-59585903D01*
X94909712Y-59730712D01*
X94764903Y-59849554D01*
X94599697Y-59937858D01*
X94599693Y-59937860D01*
X94420429Y-59992239D01*
X94420428Y-59992239D01*
X94420425Y-59992240D01*
X94280718Y-60006000D01*
X94187282Y-60006000D01*
X94047575Y-59992240D01*
X94047572Y-59992239D01*
X94047571Y-59992239D01*
X93868307Y-59937860D01*
X93868303Y-59937858D01*
X93703097Y-59849554D01*
X93558288Y-59730712D01*
X93439446Y-59585903D01*
X93351142Y-59420697D01*
X93351142Y-59420696D01*
X93351140Y-59420693D01*
X93296761Y-59241429D01*
X93296761Y-59241428D01*
X93296760Y-59241425D01*
X93278399Y-59055000D01*
X93296760Y-58868575D01*
X93296802Y-58868435D01*
X93351140Y-58689307D01*
X93357630Y-58677165D01*
X93439446Y-58524097D01*
X93558288Y-58379288D01*
X93703097Y-58260446D01*
X93868303Y-58172142D01*
X93868304Y-58172142D01*
X93868307Y-58172140D01*
X94047571Y-58117761D01*
X94047572Y-58117761D01*
X94047575Y-58117760D01*
X94187282Y-58104000D01*
X94280718Y-58104000D01*
X94420425Y-58117760D01*
X94420425Y-58117760D01*
G37*
G36*
X99980000Y-59823000D02*
G01*
X97378000Y-59823000D01*
X97378000Y-58721000D01*
X99980000Y-58721000D01*
X99980000Y-59823000D01*
X99980000Y-59823000D01*
G37*
G36*
X135555878Y-58130296D02*
G01*
X135634385Y-58138028D01*
X135785482Y-58183863D01*
X135924733Y-58258294D01*
X136046788Y-58358462D01*
X136146956Y-58480517D01*
X136221387Y-58619768D01*
X136267222Y-58770865D01*
X136282698Y-58928000D01*
X136267222Y-59085135D01*
X136221387Y-59236232D01*
X136146956Y-59375483D01*
X136046788Y-59497538D01*
X135924733Y-59597706D01*
X135785482Y-59672137D01*
X135634385Y-59717972D01*
X135555878Y-59725704D01*
X135516626Y-59729570D01*
X134739374Y-59729570D01*
X134700122Y-59725704D01*
X134621615Y-59717972D01*
X134470518Y-59672137D01*
X134331267Y-59597706D01*
X134209212Y-59497538D01*
X134109044Y-59375483D01*
X134034613Y-59236232D01*
X133988778Y-59085135D01*
X133973302Y-58928000D01*
X133988778Y-58770865D01*
X134034613Y-58619768D01*
X134109044Y-58480517D01*
X134209212Y-58358462D01*
X134331267Y-58258294D01*
X134470518Y-58183863D01*
X134621615Y-58138028D01*
X134700122Y-58130296D01*
X134739374Y-58126430D01*
X135516626Y-58126430D01*
X135555878Y-58130296D01*
X135555878Y-58130296D01*
G37*
G36*
X150795878Y-58130296D02*
G01*
X150874385Y-58138028D01*
X151025482Y-58183863D01*
X151164733Y-58258294D01*
X151286788Y-58358462D01*
X151386956Y-58480517D01*
X151461387Y-58619768D01*
X151507222Y-58770865D01*
X151522698Y-58928000D01*
X151507222Y-59085135D01*
X151461387Y-59236232D01*
X151386956Y-59375483D01*
X151286788Y-59497538D01*
X151164733Y-59597706D01*
X151025482Y-59672137D01*
X150874385Y-59717972D01*
X150795878Y-59725704D01*
X150756626Y-59729570D01*
X149979374Y-59729570D01*
X149940122Y-59725704D01*
X149861615Y-59717972D01*
X149710518Y-59672137D01*
X149571267Y-59597706D01*
X149449212Y-59497538D01*
X149349044Y-59375483D01*
X149274613Y-59236232D01*
X149228778Y-59085135D01*
X149213302Y-58928000D01*
X149228778Y-58770865D01*
X149274613Y-58619768D01*
X149349044Y-58480517D01*
X149449212Y-58358462D01*
X149571267Y-58258294D01*
X149710518Y-58183863D01*
X149861615Y-58138028D01*
X149940122Y-58130296D01*
X149979374Y-58126430D01*
X150756626Y-58126430D01*
X150795878Y-58130296D01*
X150795878Y-58130296D01*
G37*
G36*
X77366000Y-58158000D02*
G01*
X73764000Y-58158000D01*
X73764000Y-54556000D01*
X77366000Y-54556000D01*
X77366000Y-58158000D01*
X77366000Y-58158000D01*
G37*
G36*
X128159104Y-55878585D02*
G01*
X128327626Y-55948389D01*
X128479291Y-56049728D01*
X128608272Y-56178709D01*
X128709611Y-56330374D01*
X128779415Y-56498896D01*
X128815000Y-56677797D01*
X128815000Y-56860203D01*
X128779415Y-57039104D01*
X128709611Y-57207626D01*
X128608272Y-57359291D01*
X128479291Y-57488272D01*
X128327626Y-57589611D01*
X128159104Y-57659415D01*
X127980203Y-57695000D01*
X127797797Y-57695000D01*
X127618896Y-57659415D01*
X127450374Y-57589611D01*
X127298709Y-57488272D01*
X127169728Y-57359291D01*
X127068389Y-57207626D01*
X126998585Y-57039104D01*
X126963000Y-56860203D01*
X126963000Y-56677797D01*
X126998585Y-56498896D01*
X127068389Y-56330374D01*
X127169728Y-56178709D01*
X127298709Y-56049728D01*
X127450374Y-55948389D01*
X127618896Y-55878585D01*
X127797797Y-55843000D01*
X127980203Y-55843000D01*
X128159104Y-55878585D01*
X128159104Y-55878585D01*
G37*
G36*
X112919104Y-55878585D02*
G01*
X113087626Y-55948389D01*
X113239291Y-56049728D01*
X113368272Y-56178709D01*
X113469611Y-56330374D01*
X113539415Y-56498896D01*
X113575000Y-56677797D01*
X113575000Y-56860203D01*
X113539415Y-57039104D01*
X113469611Y-57207626D01*
X113368272Y-57359291D01*
X113239291Y-57488272D01*
X113087626Y-57589611D01*
X112919104Y-57659415D01*
X112740203Y-57695000D01*
X112557797Y-57695000D01*
X112378896Y-57659415D01*
X112210374Y-57589611D01*
X112058709Y-57488272D01*
X111929728Y-57359291D01*
X111828389Y-57207626D01*
X111758585Y-57039104D01*
X111723000Y-56860203D01*
X111723000Y-56677797D01*
X111758585Y-56498896D01*
X111828389Y-56330374D01*
X111929728Y-56178709D01*
X112058709Y-56049728D01*
X112210374Y-55948389D01*
X112378896Y-55878585D01*
X112557797Y-55843000D01*
X112740203Y-55843000D01*
X112919104Y-55878585D01*
X112919104Y-55878585D01*
G37*
G36*
X130699104Y-55878585D02*
G01*
X130867626Y-55948389D01*
X131019291Y-56049728D01*
X131148272Y-56178709D01*
X131249611Y-56330374D01*
X131319415Y-56498896D01*
X131355000Y-56677797D01*
X131355000Y-56860203D01*
X131319415Y-57039104D01*
X131249611Y-57207626D01*
X131148272Y-57359291D01*
X131019291Y-57488272D01*
X130867626Y-57589611D01*
X130699104Y-57659415D01*
X130520203Y-57695000D01*
X130337797Y-57695000D01*
X130158896Y-57659415D01*
X129990374Y-57589611D01*
X129838709Y-57488272D01*
X129709728Y-57359291D01*
X129608389Y-57207626D01*
X129538585Y-57039104D01*
X129503000Y-56860203D01*
X129503000Y-56677797D01*
X129538585Y-56498896D01*
X129608389Y-56330374D01*
X129709728Y-56178709D01*
X129838709Y-56049728D01*
X129990374Y-55948389D01*
X130158896Y-55878585D01*
X130337797Y-55843000D01*
X130520203Y-55843000D01*
X130699104Y-55878585D01*
X130699104Y-55878585D01*
G37*
G36*
X115459104Y-55878585D02*
G01*
X115627626Y-55948389D01*
X115779291Y-56049728D01*
X115908272Y-56178709D01*
X116009611Y-56330374D01*
X116079415Y-56498896D01*
X116115000Y-56677797D01*
X116115000Y-56860203D01*
X116079415Y-57039104D01*
X116009611Y-57207626D01*
X115908272Y-57359291D01*
X115779291Y-57488272D01*
X115627626Y-57589611D01*
X115459104Y-57659415D01*
X115280203Y-57695000D01*
X115097797Y-57695000D01*
X114918896Y-57659415D01*
X114750374Y-57589611D01*
X114598709Y-57488272D01*
X114469728Y-57359291D01*
X114368389Y-57207626D01*
X114298585Y-57039104D01*
X114263000Y-56860203D01*
X114263000Y-56677797D01*
X114298585Y-56498896D01*
X114368389Y-56330374D01*
X114469728Y-56178709D01*
X114598709Y-56049728D01*
X114750374Y-55948389D01*
X114918896Y-55878585D01*
X115097797Y-55843000D01*
X115280203Y-55843000D01*
X115459104Y-55878585D01*
X115459104Y-55878585D01*
G37*
G36*
X160638442Y-55874518D02*
G01*
X160704627Y-55881037D01*
X160874466Y-55932557D01*
X160874468Y-55932558D01*
X160904085Y-55948389D01*
X161030991Y-56016222D01*
X161066729Y-56045552D01*
X161168186Y-56128814D01*
X161251448Y-56230271D01*
X161280778Y-56266009D01*
X161364443Y-56422534D01*
X161415963Y-56592373D01*
X161433359Y-56769000D01*
X161415963Y-56945627D01*
X161364443Y-57115466D01*
X161280778Y-57271991D01*
X161251448Y-57307729D01*
X161168186Y-57409186D01*
X161071819Y-57488271D01*
X161030991Y-57521778D01*
X160874466Y-57605443D01*
X160704627Y-57656963D01*
X160638442Y-57663482D01*
X160572260Y-57670000D01*
X160483740Y-57670000D01*
X160417558Y-57663482D01*
X160351373Y-57656963D01*
X160181534Y-57605443D01*
X160025009Y-57521778D01*
X159984181Y-57488271D01*
X159887814Y-57409186D01*
X159804552Y-57307729D01*
X159775222Y-57271991D01*
X159691557Y-57115466D01*
X159640037Y-56945627D01*
X159622641Y-56769000D01*
X159640037Y-56592373D01*
X159691557Y-56422534D01*
X159775222Y-56266009D01*
X159804552Y-56230271D01*
X159887814Y-56128814D01*
X159989271Y-56045552D01*
X160025009Y-56016222D01*
X160151915Y-55948389D01*
X160181532Y-55932558D01*
X160181534Y-55932557D01*
X160351373Y-55881037D01*
X160417558Y-55874518D01*
X160483740Y-55868000D01*
X160572260Y-55868000D01*
X160638442Y-55874518D01*
X160638442Y-55874518D01*
G37*
G36*
X165718442Y-55874518D02*
G01*
X165784627Y-55881037D01*
X165954466Y-55932557D01*
X165954468Y-55932558D01*
X165984085Y-55948389D01*
X166110991Y-56016222D01*
X166146729Y-56045552D01*
X166248186Y-56128814D01*
X166331448Y-56230271D01*
X166360778Y-56266009D01*
X166444443Y-56422534D01*
X166495963Y-56592373D01*
X166513359Y-56769000D01*
X166495963Y-56945627D01*
X166444443Y-57115466D01*
X166360778Y-57271991D01*
X166331448Y-57307729D01*
X166248186Y-57409186D01*
X166151819Y-57488271D01*
X166110991Y-57521778D01*
X165954466Y-57605443D01*
X165784627Y-57656963D01*
X165718442Y-57663482D01*
X165652260Y-57670000D01*
X165563740Y-57670000D01*
X165497558Y-57663482D01*
X165431373Y-57656963D01*
X165261534Y-57605443D01*
X165105009Y-57521778D01*
X165064181Y-57488271D01*
X164967814Y-57409186D01*
X164884552Y-57307729D01*
X164855222Y-57271991D01*
X164771557Y-57115466D01*
X164720037Y-56945627D01*
X164702641Y-56769000D01*
X164720037Y-56592373D01*
X164771557Y-56422534D01*
X164855222Y-56266009D01*
X164884552Y-56230271D01*
X164967814Y-56128814D01*
X165069271Y-56045552D01*
X165105009Y-56016222D01*
X165231915Y-55948389D01*
X165261532Y-55932558D01*
X165261534Y-55932557D01*
X165431373Y-55881037D01*
X165497558Y-55874518D01*
X165563740Y-55868000D01*
X165652260Y-55868000D01*
X165718442Y-55874518D01*
X165718442Y-55874518D01*
G37*
G36*
X169049000Y-57670000D02*
G01*
X167247000Y-57670000D01*
X167247000Y-55868000D01*
X169049000Y-55868000D01*
X169049000Y-57670000D01*
X169049000Y-57670000D01*
G37*
G36*
X163178442Y-55874518D02*
G01*
X163244627Y-55881037D01*
X163414466Y-55932557D01*
X163414468Y-55932558D01*
X163444085Y-55948389D01*
X163570991Y-56016222D01*
X163606729Y-56045552D01*
X163708186Y-56128814D01*
X163791448Y-56230271D01*
X163820778Y-56266009D01*
X163904443Y-56422534D01*
X163955963Y-56592373D01*
X163973359Y-56769000D01*
X163955963Y-56945627D01*
X163904443Y-57115466D01*
X163820778Y-57271991D01*
X163791448Y-57307729D01*
X163708186Y-57409186D01*
X163611819Y-57488271D01*
X163570991Y-57521778D01*
X163414466Y-57605443D01*
X163244627Y-57656963D01*
X163178442Y-57663482D01*
X163112260Y-57670000D01*
X163023740Y-57670000D01*
X162957558Y-57663482D01*
X162891373Y-57656963D01*
X162721534Y-57605443D01*
X162565009Y-57521778D01*
X162524181Y-57488271D01*
X162427814Y-57409186D01*
X162344552Y-57307729D01*
X162315222Y-57271991D01*
X162231557Y-57115466D01*
X162180037Y-56945627D01*
X162162641Y-56769000D01*
X162180037Y-56592373D01*
X162231557Y-56422534D01*
X162315222Y-56266009D01*
X162344552Y-56230271D01*
X162427814Y-56128814D01*
X162529271Y-56045552D01*
X162565009Y-56016222D01*
X162691915Y-55948389D01*
X162721532Y-55932558D01*
X162721534Y-55932557D01*
X162891373Y-55881037D01*
X162957558Y-55874518D01*
X163023740Y-55868000D01*
X163112260Y-55868000D01*
X163178442Y-55874518D01*
X163178442Y-55874518D01*
G37*
G36*
X135555878Y-55590296D02*
G01*
X135634385Y-55598028D01*
X135785482Y-55643863D01*
X135924733Y-55718294D01*
X136046788Y-55818462D01*
X136146956Y-55940517D01*
X136221387Y-56079768D01*
X136267222Y-56230865D01*
X136282698Y-56388000D01*
X136267222Y-56545135D01*
X136221387Y-56696232D01*
X136146956Y-56835483D01*
X136046788Y-56957538D01*
X135924733Y-57057706D01*
X135785482Y-57132137D01*
X135634385Y-57177972D01*
X135555878Y-57185704D01*
X135516626Y-57189570D01*
X134739374Y-57189570D01*
X134700122Y-57185704D01*
X134621615Y-57177972D01*
X134470518Y-57132137D01*
X134331267Y-57057706D01*
X134209212Y-56957538D01*
X134109044Y-56835483D01*
X134034613Y-56696232D01*
X133988778Y-56545135D01*
X133973302Y-56388000D01*
X133988778Y-56230865D01*
X134034613Y-56079768D01*
X134109044Y-55940517D01*
X134209212Y-55818462D01*
X134331267Y-55718294D01*
X134470518Y-55643863D01*
X134621615Y-55598028D01*
X134700122Y-55590296D01*
X134739374Y-55586430D01*
X135516626Y-55586430D01*
X135555878Y-55590296D01*
X135555878Y-55590296D01*
G37*
G36*
X150795878Y-55590296D02*
G01*
X150874385Y-55598028D01*
X151025482Y-55643863D01*
X151164733Y-55718294D01*
X151286788Y-55818462D01*
X151386956Y-55940517D01*
X151461387Y-56079768D01*
X151507222Y-56230865D01*
X151522698Y-56388000D01*
X151507222Y-56545135D01*
X151461387Y-56696232D01*
X151386956Y-56835483D01*
X151286788Y-56957538D01*
X151164733Y-57057706D01*
X151025482Y-57132137D01*
X150874385Y-57177972D01*
X150795878Y-57185704D01*
X150756626Y-57189570D01*
X149979374Y-57189570D01*
X149940122Y-57185704D01*
X149861615Y-57177972D01*
X149710518Y-57132137D01*
X149571267Y-57057706D01*
X149449212Y-56957538D01*
X149349044Y-56835483D01*
X149274613Y-56696232D01*
X149228778Y-56545135D01*
X149213302Y-56388000D01*
X149228778Y-56230865D01*
X149274613Y-56079768D01*
X149349044Y-55940517D01*
X149449212Y-55818462D01*
X149571267Y-55718294D01*
X149710518Y-55643863D01*
X149861615Y-55598028D01*
X149940122Y-55590296D01*
X149979374Y-55586430D01*
X150756626Y-55586430D01*
X150795878Y-55590296D01*
X150795878Y-55590296D01*
G37*
G36*
X115459104Y-53338585D02*
G01*
X115627626Y-53408389D01*
X115779291Y-53509728D01*
X115908272Y-53638709D01*
X116009611Y-53790374D01*
X116079415Y-53958896D01*
X116115000Y-54137797D01*
X116115000Y-54320203D01*
X116079415Y-54499104D01*
X116009611Y-54667626D01*
X115908272Y-54819291D01*
X115779291Y-54948272D01*
X115627626Y-55049611D01*
X115459104Y-55119415D01*
X115280203Y-55155000D01*
X115097797Y-55155000D01*
X114918896Y-55119415D01*
X114750374Y-55049611D01*
X114598709Y-54948272D01*
X114469728Y-54819291D01*
X114368389Y-54667626D01*
X114298585Y-54499104D01*
X114263000Y-54320203D01*
X114263000Y-54137797D01*
X114298585Y-53958896D01*
X114368389Y-53790374D01*
X114469728Y-53638709D01*
X114598709Y-53509728D01*
X114750374Y-53408389D01*
X114918896Y-53338585D01*
X115097797Y-53303000D01*
X115280203Y-53303000D01*
X115459104Y-53338585D01*
X115459104Y-53338585D01*
G37*
G36*
X130699104Y-53338585D02*
G01*
X130867626Y-53408389D01*
X131019291Y-53509728D01*
X131148272Y-53638709D01*
X131249611Y-53790374D01*
X131319415Y-53958896D01*
X131355000Y-54137797D01*
X131355000Y-54320203D01*
X131319415Y-54499104D01*
X131249611Y-54667626D01*
X131148272Y-54819291D01*
X131019291Y-54948272D01*
X130867626Y-55049611D01*
X130699104Y-55119415D01*
X130520203Y-55155000D01*
X130337797Y-55155000D01*
X130158896Y-55119415D01*
X129990374Y-55049611D01*
X129838709Y-54948272D01*
X129709728Y-54819291D01*
X129608389Y-54667626D01*
X129538585Y-54499104D01*
X129503000Y-54320203D01*
X129503000Y-54137797D01*
X129538585Y-53958896D01*
X129608389Y-53790374D01*
X129709728Y-53638709D01*
X129838709Y-53509728D01*
X129990374Y-53408389D01*
X130158896Y-53338585D01*
X130337797Y-53303000D01*
X130520203Y-53303000D01*
X130699104Y-53338585D01*
X130699104Y-53338585D01*
G37*
G36*
X123079104Y-53338585D02*
G01*
X123247626Y-53408389D01*
X123399291Y-53509728D01*
X123528272Y-53638709D01*
X123629611Y-53790374D01*
X123699415Y-53958896D01*
X123735000Y-54137797D01*
X123735000Y-54320203D01*
X123699415Y-54499104D01*
X123629611Y-54667626D01*
X123528272Y-54819291D01*
X123399291Y-54948272D01*
X123247626Y-55049611D01*
X123079104Y-55119415D01*
X122900203Y-55155000D01*
X122717797Y-55155000D01*
X122538896Y-55119415D01*
X122370374Y-55049611D01*
X122218709Y-54948272D01*
X122089728Y-54819291D01*
X121988389Y-54667626D01*
X121918585Y-54499104D01*
X121883000Y-54320203D01*
X121883000Y-54137797D01*
X121918585Y-53958896D01*
X121988389Y-53790374D01*
X122089728Y-53638709D01*
X122218709Y-53509728D01*
X122370374Y-53408389D01*
X122538896Y-53338585D01*
X122717797Y-53303000D01*
X122900203Y-53303000D01*
X123079104Y-53338585D01*
X123079104Y-53338585D01*
G37*
G36*
X112919104Y-53338585D02*
G01*
X113087626Y-53408389D01*
X113239291Y-53509728D01*
X113368272Y-53638709D01*
X113469611Y-53790374D01*
X113539415Y-53958896D01*
X113575000Y-54137797D01*
X113575000Y-54320203D01*
X113539415Y-54499104D01*
X113469611Y-54667626D01*
X113368272Y-54819291D01*
X113239291Y-54948272D01*
X113087626Y-55049611D01*
X112919104Y-55119415D01*
X112740203Y-55155000D01*
X112557797Y-55155000D01*
X112378896Y-55119415D01*
X112210374Y-55049611D01*
X112058709Y-54948272D01*
X111929728Y-54819291D01*
X111828389Y-54667626D01*
X111758585Y-54499104D01*
X111723000Y-54320203D01*
X111723000Y-54137797D01*
X111758585Y-53958896D01*
X111828389Y-53790374D01*
X111929728Y-53638709D01*
X112058709Y-53509728D01*
X112210374Y-53408389D01*
X112378896Y-53338585D01*
X112557797Y-53303000D01*
X112740203Y-53303000D01*
X112919104Y-53338585D01*
X112919104Y-53338585D01*
G37*
G36*
X117999104Y-53338585D02*
G01*
X118167626Y-53408389D01*
X118319291Y-53509728D01*
X118448272Y-53638709D01*
X118549611Y-53790374D01*
X118619415Y-53958896D01*
X118655000Y-54137797D01*
X118655000Y-54320203D01*
X118619415Y-54499104D01*
X118549611Y-54667626D01*
X118448272Y-54819291D01*
X118319291Y-54948272D01*
X118167626Y-55049611D01*
X117999104Y-55119415D01*
X117820203Y-55155000D01*
X117637797Y-55155000D01*
X117458896Y-55119415D01*
X117290374Y-55049611D01*
X117138709Y-54948272D01*
X117009728Y-54819291D01*
X116908389Y-54667626D01*
X116838585Y-54499104D01*
X116803000Y-54320203D01*
X116803000Y-54137797D01*
X116838585Y-53958896D01*
X116908389Y-53790374D01*
X117009728Y-53638709D01*
X117138709Y-53509728D01*
X117290374Y-53408389D01*
X117458896Y-53338585D01*
X117637797Y-53303000D01*
X117820203Y-53303000D01*
X117999104Y-53338585D01*
X117999104Y-53338585D01*
G37*
G36*
X120539104Y-53338585D02*
G01*
X120707626Y-53408389D01*
X120859291Y-53509728D01*
X120988272Y-53638709D01*
X121089611Y-53790374D01*
X121159415Y-53958896D01*
X121195000Y-54137797D01*
X121195000Y-54320203D01*
X121159415Y-54499104D01*
X121089611Y-54667626D01*
X120988272Y-54819291D01*
X120859291Y-54948272D01*
X120707626Y-55049611D01*
X120539104Y-55119415D01*
X120360203Y-55155000D01*
X120177797Y-55155000D01*
X119998896Y-55119415D01*
X119830374Y-55049611D01*
X119678709Y-54948272D01*
X119549728Y-54819291D01*
X119448389Y-54667626D01*
X119378585Y-54499104D01*
X119343000Y-54320203D01*
X119343000Y-54137797D01*
X119378585Y-53958896D01*
X119448389Y-53790374D01*
X119549728Y-53638709D01*
X119678709Y-53509728D01*
X119830374Y-53408389D01*
X119998896Y-53338585D01*
X120177797Y-53303000D01*
X120360203Y-53303000D01*
X120539104Y-53338585D01*
X120539104Y-53338585D01*
G37*
G36*
X128159104Y-53338585D02*
G01*
X128327626Y-53408389D01*
X128479291Y-53509728D01*
X128608272Y-53638709D01*
X128709611Y-53790374D01*
X128779415Y-53958896D01*
X128815000Y-54137797D01*
X128815000Y-54320203D01*
X128779415Y-54499104D01*
X128709611Y-54667626D01*
X128608272Y-54819291D01*
X128479291Y-54948272D01*
X128327626Y-55049611D01*
X128159104Y-55119415D01*
X127980203Y-55155000D01*
X127797797Y-55155000D01*
X127618896Y-55119415D01*
X127450374Y-55049611D01*
X127298709Y-54948272D01*
X127169728Y-54819291D01*
X127068389Y-54667626D01*
X126998585Y-54499104D01*
X126963000Y-54320203D01*
X126963000Y-54137797D01*
X126998585Y-53958896D01*
X127068389Y-53790374D01*
X127169728Y-53638709D01*
X127298709Y-53509728D01*
X127450374Y-53408389D01*
X127618896Y-53338585D01*
X127797797Y-53303000D01*
X127980203Y-53303000D01*
X128159104Y-53338585D01*
X128159104Y-53338585D01*
G37*
G36*
X125619104Y-53338585D02*
G01*
X125787626Y-53408389D01*
X125939291Y-53509728D01*
X126068272Y-53638709D01*
X126169611Y-53790374D01*
X126239415Y-53958896D01*
X126275000Y-54137797D01*
X126275000Y-54320203D01*
X126239415Y-54499104D01*
X126169611Y-54667626D01*
X126068272Y-54819291D01*
X125939291Y-54948272D01*
X125787626Y-55049611D01*
X125619104Y-55119415D01*
X125440203Y-55155000D01*
X125257797Y-55155000D01*
X125078896Y-55119415D01*
X124910374Y-55049611D01*
X124758709Y-54948272D01*
X124629728Y-54819291D01*
X124528389Y-54667626D01*
X124458585Y-54499104D01*
X124423000Y-54320203D01*
X124423000Y-54137797D01*
X124458585Y-53958896D01*
X124528389Y-53790374D01*
X124629728Y-53638709D01*
X124758709Y-53509728D01*
X124910374Y-53408389D01*
X125078896Y-53338585D01*
X125257797Y-53303000D01*
X125440203Y-53303000D01*
X125619104Y-53338585D01*
X125619104Y-53338585D01*
G37*
G36*
X135555878Y-53050296D02*
G01*
X135634385Y-53058028D01*
X135785482Y-53103863D01*
X135924733Y-53178294D01*
X136046788Y-53278462D01*
X136146956Y-53400517D01*
X136221387Y-53539768D01*
X136267222Y-53690865D01*
X136282698Y-53848000D01*
X136267222Y-54005135D01*
X136221387Y-54156232D01*
X136146956Y-54295483D01*
X136046788Y-54417538D01*
X135924733Y-54517706D01*
X135785482Y-54592137D01*
X135634385Y-54637972D01*
X135555878Y-54645704D01*
X135516626Y-54649570D01*
X134739374Y-54649570D01*
X134700122Y-54645704D01*
X134621615Y-54637972D01*
X134470518Y-54592137D01*
X134331267Y-54517706D01*
X134209212Y-54417538D01*
X134109044Y-54295483D01*
X134034613Y-54156232D01*
X133988778Y-54005135D01*
X133973302Y-53848000D01*
X133988778Y-53690865D01*
X134034613Y-53539768D01*
X134109044Y-53400517D01*
X134209212Y-53278462D01*
X134331267Y-53178294D01*
X134470518Y-53103863D01*
X134621615Y-53058028D01*
X134700122Y-53050296D01*
X134739374Y-53046430D01*
X135516626Y-53046430D01*
X135555878Y-53050296D01*
X135555878Y-53050296D01*
G37*
G36*
X150795878Y-53050296D02*
G01*
X150874385Y-53058028D01*
X151025482Y-53103863D01*
X151164733Y-53178294D01*
X151286788Y-53278462D01*
X151386956Y-53400517D01*
X151461387Y-53539768D01*
X151507222Y-53690865D01*
X151522698Y-53848000D01*
X151507222Y-54005135D01*
X151461387Y-54156232D01*
X151386956Y-54295483D01*
X151286788Y-54417538D01*
X151164733Y-54517706D01*
X151025482Y-54592137D01*
X150874385Y-54637972D01*
X150795878Y-54645704D01*
X150756626Y-54649570D01*
X149979374Y-54649570D01*
X149940122Y-54645704D01*
X149861615Y-54637972D01*
X149710518Y-54592137D01*
X149571267Y-54517706D01*
X149449212Y-54417538D01*
X149349044Y-54295483D01*
X149274613Y-54156232D01*
X149228778Y-54005135D01*
X149213302Y-53848000D01*
X149228778Y-53690865D01*
X149274613Y-53539768D01*
X149349044Y-53400517D01*
X149449212Y-53278462D01*
X149571267Y-53178294D01*
X149710518Y-53103863D01*
X149861615Y-53058028D01*
X149940122Y-53050296D01*
X149979374Y-53046430D01*
X150756626Y-53046430D01*
X150795878Y-53050296D01*
X150795878Y-53050296D01*
G37*
G36*
X84819903Y-51756075D02*
G01*
X84920236Y-51797634D01*
X85047571Y-51850378D01*
X85252466Y-51987285D01*
X85426715Y-52161534D01*
X85492922Y-52260620D01*
X85563623Y-52366431D01*
X85657925Y-52594097D01*
X85706000Y-52835786D01*
X85706000Y-53082214D01*
X85657925Y-53323903D01*
X85580954Y-53509729D01*
X85563622Y-53551571D01*
X85426715Y-53756466D01*
X85252466Y-53930715D01*
X85047571Y-54067622D01*
X85047570Y-54067623D01*
X85047569Y-54067623D01*
X84819903Y-54161925D01*
X84578214Y-54210000D01*
X84331786Y-54210000D01*
X84090097Y-54161925D01*
X83862431Y-54067623D01*
X83862430Y-54067623D01*
X83862429Y-54067622D01*
X83657534Y-53930715D01*
X83483285Y-53756466D01*
X83346378Y-53551571D01*
X83329047Y-53509729D01*
X83252075Y-53323903D01*
X83204000Y-53082214D01*
X83204000Y-52835786D01*
X83252075Y-52594097D01*
X83346377Y-52366431D01*
X83417078Y-52260620D01*
X83483285Y-52161534D01*
X83657534Y-51987285D01*
X83862429Y-51850378D01*
X83989765Y-51797634D01*
X84090097Y-51756075D01*
X84331786Y-51708000D01*
X84578214Y-51708000D01*
X84819903Y-51756075D01*
X84819903Y-51756075D01*
G37*
G36*
X89780239Y-51726101D02*
G01*
X90016053Y-51797634D01*
X90233381Y-51913799D01*
X90423871Y-52070129D01*
X90580201Y-52260619D01*
X90696366Y-52477947D01*
X90767899Y-52713761D01*
X90792053Y-52959000D01*
X90767899Y-53204239D01*
X90696366Y-53440053D01*
X90580201Y-53657381D01*
X90423871Y-53847871D01*
X90233381Y-54004201D01*
X90016053Y-54120366D01*
X89780239Y-54191899D01*
X89596457Y-54210000D01*
X89473543Y-54210000D01*
X89289761Y-54191899D01*
X89053947Y-54120366D01*
X88836619Y-54004201D01*
X88646129Y-53847871D01*
X88489799Y-53657381D01*
X88373634Y-53440053D01*
X88302101Y-53204239D01*
X88277947Y-52959000D01*
X88302101Y-52713761D01*
X88373634Y-52477947D01*
X88489799Y-52260619D01*
X88646129Y-52070129D01*
X88836619Y-51913799D01*
X89053947Y-51797634D01*
X89289761Y-51726101D01*
X89473543Y-51708000D01*
X89596457Y-51708000D01*
X89780239Y-51726101D01*
X89780239Y-51726101D01*
G37*
G36*
X93766000Y-53906000D02*
G01*
X91164000Y-53906000D01*
X91164000Y-51504000D01*
X93766000Y-51504000D01*
X93766000Y-53906000D01*
X93766000Y-53906000D01*
G37*
G36*
X98066000Y-53906000D02*
G01*
X95464000Y-53906000D01*
X95464000Y-51504000D01*
X98066000Y-51504000D01*
X98066000Y-53906000D01*
X98066000Y-53906000D01*
G37*
G36*
X103848000Y-53810000D02*
G01*
X102146000Y-53810000D01*
X102146000Y-52108000D01*
X103848000Y-52108000D01*
X103848000Y-53810000D01*
X103848000Y-53810000D01*
G37*
G36*
X106745228Y-52140703D02*
G01*
X106900100Y-52204853D01*
X107039481Y-52297985D01*
X107158015Y-52416519D01*
X107251147Y-52555900D01*
X107315297Y-52710772D01*
X107348000Y-52875184D01*
X107348000Y-53042816D01*
X107315297Y-53207228D01*
X107251147Y-53362100D01*
X107158015Y-53501481D01*
X107039481Y-53620015D01*
X106900100Y-53713147D01*
X106745228Y-53777297D01*
X106580816Y-53810000D01*
X106413184Y-53810000D01*
X106248772Y-53777297D01*
X106093900Y-53713147D01*
X105954519Y-53620015D01*
X105835985Y-53501481D01*
X105742853Y-53362100D01*
X105678703Y-53207228D01*
X105646000Y-53042816D01*
X105646000Y-52875184D01*
X105678703Y-52710772D01*
X105742853Y-52555900D01*
X105835985Y-52416519D01*
X105954519Y-52297985D01*
X106093900Y-52204853D01*
X106248772Y-52140703D01*
X106413184Y-52108000D01*
X106580816Y-52108000D01*
X106745228Y-52140703D01*
X106745228Y-52140703D01*
G37*
G36*
X128159104Y-50798585D02*
G01*
X128327626Y-50868389D01*
X128479291Y-50969728D01*
X128608272Y-51098709D01*
X128709611Y-51250374D01*
X128779415Y-51418896D01*
X128815000Y-51597797D01*
X128815000Y-51780203D01*
X128779415Y-51959104D01*
X128709611Y-52127626D01*
X128608272Y-52279291D01*
X128479291Y-52408272D01*
X128327626Y-52509611D01*
X128159104Y-52579415D01*
X127980203Y-52615000D01*
X127797797Y-52615000D01*
X127618896Y-52579415D01*
X127450374Y-52509611D01*
X127298709Y-52408272D01*
X127169728Y-52279291D01*
X127068389Y-52127626D01*
X126998585Y-51959104D01*
X126963000Y-51780203D01*
X126963000Y-51597797D01*
X126998585Y-51418896D01*
X127068389Y-51250374D01*
X127169728Y-51098709D01*
X127298709Y-50969728D01*
X127450374Y-50868389D01*
X127618896Y-50798585D01*
X127797797Y-50763000D01*
X127980203Y-50763000D01*
X128159104Y-50798585D01*
X128159104Y-50798585D01*
G37*
G36*
X125619104Y-50798585D02*
G01*
X125787626Y-50868389D01*
X125939291Y-50969728D01*
X126068272Y-51098709D01*
X126169611Y-51250374D01*
X126239415Y-51418896D01*
X126275000Y-51597797D01*
X126275000Y-51780203D01*
X126239415Y-51959104D01*
X126169611Y-52127626D01*
X126068272Y-52279291D01*
X125939291Y-52408272D01*
X125787626Y-52509611D01*
X125619104Y-52579415D01*
X125440203Y-52615000D01*
X125257797Y-52615000D01*
X125078896Y-52579415D01*
X124910374Y-52509611D01*
X124758709Y-52408272D01*
X124629728Y-52279291D01*
X124528389Y-52127626D01*
X124458585Y-51959104D01*
X124423000Y-51780203D01*
X124423000Y-51597797D01*
X124458585Y-51418896D01*
X124528389Y-51250374D01*
X124629728Y-51098709D01*
X124758709Y-50969728D01*
X124910374Y-50868389D01*
X125078896Y-50798585D01*
X125257797Y-50763000D01*
X125440203Y-50763000D01*
X125619104Y-50798585D01*
X125619104Y-50798585D01*
G37*
G36*
X123079104Y-50798585D02*
G01*
X123247626Y-50868389D01*
X123399291Y-50969728D01*
X123528272Y-51098709D01*
X123629611Y-51250374D01*
X123699415Y-51418896D01*
X123735000Y-51597797D01*
X123735000Y-51780203D01*
X123699415Y-51959104D01*
X123629611Y-52127626D01*
X123528272Y-52279291D01*
X123399291Y-52408272D01*
X123247626Y-52509611D01*
X123079104Y-52579415D01*
X122900203Y-52615000D01*
X122717797Y-52615000D01*
X122538896Y-52579415D01*
X122370374Y-52509611D01*
X122218709Y-52408272D01*
X122089728Y-52279291D01*
X121988389Y-52127626D01*
X121918585Y-51959104D01*
X121883000Y-51780203D01*
X121883000Y-51597797D01*
X121918585Y-51418896D01*
X121988389Y-51250374D01*
X122089728Y-51098709D01*
X122218709Y-50969728D01*
X122370374Y-50868389D01*
X122538896Y-50798585D01*
X122717797Y-50763000D01*
X122900203Y-50763000D01*
X123079104Y-50798585D01*
X123079104Y-50798585D01*
G37*
G36*
X120539104Y-50798585D02*
G01*
X120707626Y-50868389D01*
X120859291Y-50969728D01*
X120988272Y-51098709D01*
X121089611Y-51250374D01*
X121159415Y-51418896D01*
X121195000Y-51597797D01*
X121195000Y-51780203D01*
X121159415Y-51959104D01*
X121089611Y-52127626D01*
X120988272Y-52279291D01*
X120859291Y-52408272D01*
X120707626Y-52509611D01*
X120539104Y-52579415D01*
X120360203Y-52615000D01*
X120177797Y-52615000D01*
X119998896Y-52579415D01*
X119830374Y-52509611D01*
X119678709Y-52408272D01*
X119549728Y-52279291D01*
X119448389Y-52127626D01*
X119378585Y-51959104D01*
X119343000Y-51780203D01*
X119343000Y-51597797D01*
X119378585Y-51418896D01*
X119448389Y-51250374D01*
X119549728Y-51098709D01*
X119678709Y-50969728D01*
X119830374Y-50868389D01*
X119998896Y-50798585D01*
X120177797Y-50763000D01*
X120360203Y-50763000D01*
X120539104Y-50798585D01*
X120539104Y-50798585D01*
G37*
G36*
X117999104Y-50798585D02*
G01*
X118167626Y-50868389D01*
X118319291Y-50969728D01*
X118448272Y-51098709D01*
X118549611Y-51250374D01*
X118619415Y-51418896D01*
X118655000Y-51597797D01*
X118655000Y-51780203D01*
X118619415Y-51959104D01*
X118549611Y-52127626D01*
X118448272Y-52279291D01*
X118319291Y-52408272D01*
X118167626Y-52509611D01*
X117999104Y-52579415D01*
X117820203Y-52615000D01*
X117637797Y-52615000D01*
X117458896Y-52579415D01*
X117290374Y-52509611D01*
X117138709Y-52408272D01*
X117009728Y-52279291D01*
X116908389Y-52127626D01*
X116838585Y-51959104D01*
X116803000Y-51780203D01*
X116803000Y-51597797D01*
X116838585Y-51418896D01*
X116908389Y-51250374D01*
X117009728Y-51098709D01*
X117138709Y-50969728D01*
X117290374Y-50868389D01*
X117458896Y-50798585D01*
X117637797Y-50763000D01*
X117820203Y-50763000D01*
X117999104Y-50798585D01*
X117999104Y-50798585D01*
G37*
G36*
X115459104Y-50798585D02*
G01*
X115627626Y-50868389D01*
X115779291Y-50969728D01*
X115908272Y-51098709D01*
X116009611Y-51250374D01*
X116079415Y-51418896D01*
X116115000Y-51597797D01*
X116115000Y-51780203D01*
X116079415Y-51959104D01*
X116009611Y-52127626D01*
X115908272Y-52279291D01*
X115779291Y-52408272D01*
X115627626Y-52509611D01*
X115459104Y-52579415D01*
X115280203Y-52615000D01*
X115097797Y-52615000D01*
X114918896Y-52579415D01*
X114750374Y-52509611D01*
X114598709Y-52408272D01*
X114469728Y-52279291D01*
X114368389Y-52127626D01*
X114298585Y-51959104D01*
X114263000Y-51780203D01*
X114263000Y-51597797D01*
X114298585Y-51418896D01*
X114368389Y-51250374D01*
X114469728Y-51098709D01*
X114598709Y-50969728D01*
X114750374Y-50868389D01*
X114918896Y-50798585D01*
X115097797Y-50763000D01*
X115280203Y-50763000D01*
X115459104Y-50798585D01*
X115459104Y-50798585D01*
G37*
M02*
