  0
SECTION
  2
HEADER
  9
$ANGBASE
  50
0.0
  9
$ANGDIR
  70
  1
  9
$MEASUREMENT
  70
1
  0
ENDSEC
  0
SECTION
  2
TABLES
  0
TABLE
  2
LTYPE
  70
4
  0
LTYPE
  5
40F
  2
CONTINUOUS
  70
0
  3
Solid line
  72
65
  73
0
  40
0.0
  0
LTYPE
  5
410
  2
DASHDOT
 70
0
  3
Dash Dot ____ _ ____ _
 72
65
 73
4
 40
2.0
 49
1.25
 49
-0.25
 49
0.25
 49
-0.25
  0
LTYPE
  5
411
  2
DASHED
 70
0
  3
Dashed __ __ __ __ __
 72
65
 73
2
 40
0.75
 49
0.5
 49
-0.25
  0
LTYPE
  5
43B
  2
DOTTED
 70
0
  3
Dotted .  .  .  .
 72
65
 73
2
 40
0.2
 49
0.0
 49
-0.2
  0
ENDTAB
  0
TABLE
  2
STYLE
  70
4
  0
STYLE
  2
KICAD
  70
0
  40
0
  41
1
  42
1
  50
0
  71
0
  3
isocp.shx
  0
STYLE
  2
KICADB
  70
0
  40
0
  41
1
  42
1
  50
0
  71
0
  3
isocp.shx
  0
STYLE
  2
KICADI
  70
0
  40
0
  41
1
  42
1
  50
15
  71
0
  3
isocp.shx
  0
STYLE
  2
KICADBI
  70
0
  40
0
  41
1
  42
1
  50
15
  71
0
  3
isocp.shx
  0
ENDTAB
  0
TABLE
  2
LAYER
  70
30
  0
LAYER
  2
BLACK
  70
0
  62
7
  6
CONTINUOUS
  0
LAYER
  2
GRAY1
  70
0
  62
251
  6
CONTINUOUS
  0
LAYER
  2
GRAY2
  70
0
  62
8
  6
CONTINUOUS
  0
LAYER
  2
GRAY3
  70
0
  62
9
  6
CONTINUOUS
  0
LAYER
  2
WHITE
  70
0
  62
7
  6
CONTINUOUS
  0
LAYER
  2
LYELLOW
  70
0
  62
51
  6
CONTINUOUS
  0
LAYER
  2
BLUE1
  70
0
  62
178
  6
CONTINUOUS
  0
LAYER
  2
GREEN1
  70
0
  62
98
  6
CONTINUOUS
  0
LAYER
  2
CYAN1
  70
0
  62
138
  6
CONTINUOUS
  0
LAYER
  2
RED1
  70
0
  62
18
  6
CONTINUOUS
  0
LAYER
  2
MAGENTA1
  70
0
  62
228
  6
CONTINUOUS
  0
LAYER
  2
BROWN1
  70
0
  62
58
  6
CONTINUOUS
  0
LAYER
  2
BLUE2
  70
0
  62
5
  6
CONTINUOUS
  0
LAYER
  2
GREEN2
  70
0
  62
3
  6
CONTINUOUS
  0
LAYER
  2
CYAN2
  70
0
  62
4
  6
CONTINUOUS
  0
LAYER
  2
RED2
  70
0
  62
1
  6
CONTINUOUS
  0
LAYER
  2
MAGENTA2
  70
0
  62
6
  6
CONTINUOUS
  0
LAYER
  2
BROWN2
  70
0
  62
54
  6
CONTINUOUS
  0
LAYER
  2
BLUE3
  70
0
  62
171
  6
CONTINUOUS
  0
LAYER
  2
GREEN3
  70
0
  62
91
  6
CONTINUOUS
  0
LAYER
  2
CYAN3
  70
0
  62
131
  6
CONTINUOUS
  0
LAYER
  2
RED3
  70
0
  62
11
  6
CONTINUOUS
  0
LAYER
  2
MAGENTA3
  70
0
  62
221
  6
CONTINUOUS
  0
LAYER
  2
YELLOW3
  70
0
  62
2
  6
CONTINUOUS
  0
LAYER
  2
BLUE4
  70
0
  62
5
  6
CONTINUOUS
  0
LAYER
  2
GREEN4
  70
0
  62
3
  6
CONTINUOUS
  0
LAYER
  2
CYAN4
  70
0
  62
4
  6
CONTINUOUS
  0
LAYER
  2
RED4
  70
0
  62
1
  6
CONTINUOUS
  0
LAYER
  2
MAGENTA4
  70
0
  62
6
  6
CONTINUOUS
  0
LAYER
  2
YELLOW4
  70
0
  62
2
  6
CONTINUOUS
  0
ENDTAB
  0
ENDSEC
  0
SECTION
  2
ENTITIES
0
LINE
8
BLACK
6
CONTINUOUS
10
70.3993
20
-48.2827
11
70.4015
21
-48.2823
0
LINE
8
BLACK
6
CONTINUOUS
10
70.4015
20
-48.2823
11
70.4037
21
-48.2818
0
LINE
8
BLACK
6
CONTINUOUS
10
70.4037
20
-48.2818
11
70.8474
21
-48.2352
0
LINE
8
BLACK
6
CONTINUOUS
10
70.8474
20
-48.2352
11
70.8478
21
-48.2352
0
LINE
8
BLACK
6
CONTINUOUS
10
70.8478
20
-48.2352
11
70.8489
21
-48.2352
0
LINE
8
BLACK
6
CONTINUOUS
10
70.8489
20
-48.2352
11
70.85
21
-48.2351
0
LINE
8
BLACK
6
CONTINUOUS
10
70.85
20
-48.2351
11
70.8647
21
-48.235
0
LINE
8
BLACK
6
CONTINUOUS
10
70.8647
20
-48.235
11
70.8648
21
-48.235
0
LINE
8
BLACK
6
CONTINUOUS
10
70.8648
20
-48.235
11
160.021
21
-48.235
0
LINE
8
BLACK
6
CONTINUOUS
10
160.021
20
-48.235
11
160.022
21
-48.2351
0
LINE
8
BLACK
6
CONTINUOUS
10
160.022
20
-48.2351
11
161.632
21
-48.3138
0
LINE
8
BLACK
6
CONTINUOUS
10
161.632
20
-48.3138
11
161.632
21
-48.3138
0
LINE
8
BLACK
6
CONTINUOUS
10
161.632
20
-48.3138
11
161.632
21
-48.3138
0
LINE
8
BLACK
6
CONTINUOUS
10
161.632
20
-48.3138
11
161.633
21
-48.3138
0
LINE
8
BLACK
6
CONTINUOUS
10
161.633
20
-48.3138
11
161.634
21
-48.314
0
LINE
8
BLACK
6
CONTINUOUS
10
161.634
20
-48.314
11
161.635
21
-48.3141
0
LINE
8
BLACK
6
CONTINUOUS
10
161.635
20
-48.3141
11
163.23
21
-48.5497
0
LINE
8
BLACK
6
CONTINUOUS
10
163.23
20
-48.5497
11
163.231
21
-48.5498
0
LINE
8
BLACK
6
CONTINUOUS
10
163.231
20
-48.5498
11
163.232
21
-48.55
0
LINE
8
BLACK
6
CONTINUOUS
10
163.232
20
-48.55
11
163.233
21
-48.5502
0
LINE
8
BLACK
6
CONTINUOUS
10
163.233
20
-48.5502
11
164.798
21
-48.9404
0
LINE
8
BLACK
6
CONTINUOUS
10
164.798
20
-48.9404
11
164.798
21
-48.9404
0
LINE
8
BLACK
6
CONTINUOUS
10
164.798
20
-48.9404
11
164.798
21
-48.9404
0
LINE
8
BLACK
6
CONTINUOUS
10
164.798
20
-48.9404
11
164.798
21
-48.9405
0
LINE
8
BLACK
6
CONTINUOUS
10
164.798
20
-48.9405
11
164.799
21
-48.9408
0
LINE
8
BLACK
6
CONTINUOUS
10
164.799
20
-48.9408
11
164.8
21
-48.9411
0
LINE
8
BLACK
6
CONTINUOUS
10
164.8
20
-48.9411
11
166.32
21
-49.4822
0
LINE
8
BLACK
6
CONTINUOUS
10
166.32
20
-49.4822
11
166.32
21
-49.4823
0
LINE
8
BLACK
6
CONTINUOUS
10
166.32
20
-49.4823
11
166.321
21
-49.4827
0
LINE
8
BLACK
6
CONTINUOUS
10
166.321
20
-49.4827
11
166.322
21
-49.4831
0
LINE
8
BLACK
6
CONTINUOUS
10
166.322
20
-49.4831
11
167.782
21
-50.1699
0
LINE
8
BLACK
6
CONTINUOUS
10
167.782
20
-50.1699
11
167.782
21
-50.1701
0
LINE
8
BLACK
6
CONTINUOUS
10
167.782
20
-50.1701
11
167.783
21
-50.1706
0
LINE
8
BLACK
6
CONTINUOUS
10
167.783
20
-50.1706
11
167.784
21
-50.1711
0
LINE
8
BLACK
6
CONTINUOUS
10
167.784
20
-50.1711
11
169.169
21
-50.997
0
LINE
8
BLACK
6
CONTINUOUS
10
169.169
20
-50.997
11
169.169
21
-50.997
0
LINE
8
BLACK
6
CONTINUOUS
10
169.169
20
-50.997
11
169.169
21
-50.997
0
LINE
8
BLACK
6
CONTINUOUS
10
169.169
20
-50.997
11
169.17
21
-50.9972
0
LINE
8
BLACK
6
CONTINUOUS
10
169.17
20
-50.9972
11
169.17
21
-50.9978
0
LINE
8
BLACK
6
CONTINUOUS
10
169.17
20
-50.9978
11
169.171
21
-50.9983
0
LINE
8
BLACK
6
CONTINUOUS
10
169.171
20
-50.9983
11
170.47
21
-51.9555
0
LINE
8
BLACK
6
CONTINUOUS
10
170.47
20
-51.9555
11
170.47
21
-51.9558
0
LINE
8
BLACK
6
CONTINUOUS
10
170.47
20
-51.9558
11
170.471
21
-51.9564
0
LINE
8
BLACK
6
CONTINUOUS
10
170.471
20
-51.9564
11
170.472
21
-51.9571
0
LINE
8
BLACK
6
CONTINUOUS
10
170.472
20
-51.9571
11
171.67
21
-53.0364
0
LINE
8
BLACK
6
CONTINUOUS
10
171.67
20
-53.0364
11
171.67
21
-53.0366
0
LINE
8
BLACK
6
CONTINUOUS
10
171.67
20
-53.0366
11
171.671
21
-53.0374
0
LINE
8
BLACK
6
CONTINUOUS
10
171.671
20
-53.0374
11
171.672
21
-53.0381
0
LINE
8
BLACK
6
CONTINUOUS
10
171.672
20
-53.0381
11
172.76
21
-54.2293
0
LINE
8
BLACK
6
CONTINUOUS
10
172.76
20
-54.2293
11
172.76
21
-54.2295
0
LINE
8
BLACK
6
CONTINUOUS
10
172.76
20
-54.2295
11
172.761
21
-54.2303
0
LINE
8
BLACK
6
CONTINUOUS
10
172.761
20
-54.2303
11
172.761
21
-54.2312
0
LINE
8
BLACK
6
CONTINUOUS
10
172.761
20
-54.2312
11
173.727
21
-55.5227
0
LINE
8
BLACK
6
CONTINUOUS
10
173.727
20
-55.5227
11
173.727
21
-55.5227
0
LINE
8
BLACK
6
CONTINUOUS
10
173.727
20
-55.5227
11
173.727
21
-55.5228
0
LINE
8
BLACK
6
CONTINUOUS
10
173.727
20
-55.5228
11
173.728
21
-55.523
0
LINE
8
BLACK
6
CONTINUOUS
10
173.728
20
-55.523
11
173.728
21
-55.5239
0
LINE
8
BLACK
6
CONTINUOUS
10
173.728
20
-55.5239
11
173.729
21
-55.5248
0
LINE
8
BLACK
6
CONTINUOUS
10
173.729
20
-55.5248
11
174.564
21
-56.9045
0
LINE
8
BLACK
6
CONTINUOUS
10
174.564
20
-56.9045
11
174.565
21
-56.9048
0
LINE
8
BLACK
6
CONTINUOUS
10
174.565
20
-56.9048
11
174.565
21
-56.9057
0
LINE
8
BLACK
6
CONTINUOUS
10
174.565
20
-56.9057
11
174.566
21
-56.9066
0
LINE
8
BLACK
6
CONTINUOUS
10
174.566
20
-56.9066
11
175.263
21
-58.3613
0
LINE
8
BLACK
6
CONTINUOUS
10
175.263
20
-58.3613
11
175.263
21
-58.3616
0
LINE
8
BLACK
6
CONTINUOUS
10
175.263
20
-58.3616
11
175.263
21
-58.3626
0
LINE
8
BLACK
6
CONTINUOUS
10
175.263
20
-58.3626
11
175.263
21
-58.3636
0
LINE
8
BLACK
6
CONTINUOUS
10
175.263
20
-58.3636
11
175.815
21
-59.8793
0
LINE
8
BLACK
6
CONTINUOUS
10
175.815
20
-59.8793
11
175.815
21
-59.8793
0
LINE
8
BLACK
6
CONTINUOUS
10
175.815
20
-59.8793
11
175.815
21
-59.8793
0
LINE
8
BLACK
6
CONTINUOUS
10
175.815
20
-59.8793
11
175.815
21
-59.8796
0
LINE
8
BLACK
6
CONTINUOUS
10
175.815
20
-59.8796
11
175.816
21
-59.8806
0
LINE
8
BLACK
6
CONTINUOUS
10
175.816
20
-59.8806
11
175.816
21
-59.8816
0
LINE
8
BLACK
6
CONTINUOUS
10
175.816
20
-59.8816
11
176.217
21
-61.444
0
LINE
8
BLACK
6
CONTINUOUS
10
176.217
20
-61.444
11
176.217
21
-61.4443
0
LINE
8
BLACK
6
CONTINUOUS
10
176.217
20
-61.4443
11
176.217
21
-61.4453
0
LINE
8
BLACK
6
CONTINUOUS
10
176.217
20
-61.4453
11
176.217
21
-61.4464
0
LINE
8
BLACK
6
CONTINUOUS
10
176.217
20
-61.4464
11
176.464
21
-63.0404
0
LINE
8
BLACK
6
CONTINUOUS
10
176.464
20
-63.0404
11
176.464
21
-63.0408
0
LINE
8
BLACK
6
CONTINUOUS
10
176.464
20
-63.0408
11
176.464
21
-63.0418
0
LINE
8
BLACK
6
CONTINUOUS
10
176.464
20
-63.0418
11
176.465
21
-63.0428
0
LINE
8
BLACK
6
CONTINUOUS
10
176.465
20
-63.0428
11
176.555
21
-64.6533
0
LINE
8
BLACK
6
CONTINUOUS
10
176.555
20
-64.6533
11
176.555
21
-64.6537
0
LINE
8
BLACK
6
CONTINUOUS
10
176.555
20
-64.6537
11
176.555
21
-64.6542
0
LINE
8
BLACK
6
CONTINUOUS
10
176.555
20
-64.6542
11
176.555
21
-64.6547
0
LINE
8
BLACK
6
CONTINUOUS
10
176.555
20
-64.6547
11
176.555
21
-64.7687
0
LINE
8
BLACK
6
CONTINUOUS
10
176.555
20
-64.7687
11
176.555
21
-64.7688
0
LINE
8
BLACK
6
CONTINUOUS
10
176.555
20
-64.7688
11
176.555
21
-95.2512
0
LINE
8
BLACK
6
CONTINUOUS
10
176.555
20
-95.2512
11
176.555
21
-95.252
0
LINE
8
BLACK
6
CONTINUOUS
10
176.555
20
-95.252
11
176.475
21
-96.525
0
LINE
8
BLACK
6
CONTINUOUS
10
176.475
20
-96.525
11
176.475
21
-96.525
0
LINE
8
BLACK
6
CONTINUOUS
10
176.475
20
-96.525
11
176.474
21
-96.5281
0
LINE
8
BLACK
6
CONTINUOUS
10
176.474
20
-96.5281
11
176.235
21
-97.7814
0
LINE
8
BLACK
6
CONTINUOUS
10
176.235
20
-97.7814
11
176.235
21
-97.7844
0
LINE
8
BLACK
6
CONTINUOUS
10
176.235
20
-97.7844
11
176.235
21
-97.7844
0
LINE
8
BLACK
6
CONTINUOUS
10
176.235
20
-97.7844
11
175.84
21
-98.9979
0
LINE
8
BLACK
6
CONTINUOUS
10
175.84
20
-98.9979
11
175.84
21
-98.9979
0
LINE
8
BLACK
6
CONTINUOUS
10
175.84
20
-98.9979
11
175.839
21
-99.0008
0
LINE
8
BLACK
6
CONTINUOUS
10
175.839
20
-99.0008
11
175.296
21
-100.155
0
LINE
8
BLACK
6
CONTINUOUS
10
175.296
20
-100.155
11
175.296
21
-100.155
0
LINE
8
BLACK
6
CONTINUOUS
10
175.296
20
-100.155
11
175.294
21
-100.158
0
LINE
8
BLACK
6
CONTINUOUS
10
175.294
20
-100.158
11
174.611
21
-101.235
0
LINE
8
BLACK
6
CONTINUOUS
10
174.611
20
-101.235
11
174.609
21
-101.238
0
LINE
8
BLACK
6
CONTINUOUS
10
174.609
20
-101.238
11
173.796
21
-102.221
0
LINE
8
BLACK
6
CONTINUOUS
10
173.796
20
-102.221
11
173.796
21
-102.221
0
LINE
8
BLACK
6
CONTINUOUS
10
173.796
20
-102.221
11
173.793
21
-102.223
0
LINE
8
BLACK
6
CONTINUOUS
10
173.793
20
-102.223
11
172.863
21
-103.097
0
LINE
8
BLACK
6
CONTINUOUS
10
172.863
20
-103.097
11
172.861
21
-103.099
0
LINE
8
BLACK
6
CONTINUOUS
10
172.861
20
-103.099
11
171.829
21
-103.849
0
LINE
8
BLACK
6
CONTINUOUS
10
171.829
20
-103.849
11
171.829
21
-103.849
0
LINE
8
BLACK
6
CONTINUOUS
10
171.829
20
-103.849
11
171.826
21
-103.85
0
LINE
8
BLACK
6
CONTINUOUS
10
171.826
20
-103.85
11
170.708
21
-104.465
0
LINE
8
BLACK
6
CONTINUOUS
10
170.708
20
-104.465
11
170.707
21
-104.465
0
LINE
8
BLACK
6
CONTINUOUS
10
170.707
20
-104.465
11
170.705
21
-104.466
0
LINE
8
BLACK
6
CONTINUOUS
10
170.705
20
-104.466
11
169.519
21
-104.936
0
LINE
8
BLACK
6
CONTINUOUS
10
169.519
20
-104.936
11
169.519
21
-104.936
0
LINE
8
BLACK
6
CONTINUOUS
10
169.519
20
-104.936
11
169.517
21
-104.937
0
LINE
8
BLACK
6
CONTINUOUS
10
169.517
20
-104.937
11
169.516
21
-104.937
0
LINE
8
BLACK
6
CONTINUOUS
10
169.516
20
-104.937
11
169.516
21
-104.937
0
LINE
8
BLACK
6
CONTINUOUS
10
169.516
20
-104.937
11
168.28
21
-105.254
0
LINE
8
BLACK
6
CONTINUOUS
10
168.28
20
-105.254
11
168.277
21
-105.255
0
LINE
8
BLACK
6
CONTINUOUS
10
168.277
20
-105.255
11
168.277
21
-105.255
0
LINE
8
BLACK
6
CONTINUOUS
10
168.277
20
-105.255
11
167.011
21
-105.415
0
LINE
8
BLACK
6
CONTINUOUS
10
167.011
20
-105.415
11
167.01
21
-105.415
0
LINE
8
BLACK
6
CONTINUOUS
10
167.01
20
-105.415
11
167.009
21
-105.415
0
LINE
8
BLACK
6
CONTINUOUS
10
167.009
20
-105.415
11
166.372
21
-105.435
0
LINE
8
BLACK
6
CONTINUOUS
10
166.372
20
-105.435
11
166.371
21
-105.435
0
LINE
8
BLACK
6
CONTINUOUS
10
166.371
20
-105.435
11
85.0888
21
-105.435
0
LINE
8
BLACK
6
CONTINUOUS
10
85.0888
20
-105.435
11
85.0882
21
-105.435
0
LINE
8
BLACK
6
CONTINUOUS
10
85.0882
20
-105.435
11
83.4777
21
-105.356
0
LINE
8
BLACK
6
CONTINUOUS
10
83.4777
20
-105.356
11
83.4777
21
-105.356
0
LINE
8
BLACK
6
CONTINUOUS
10
83.4777
20
-105.356
11
83.4777
21
-105.356
0
LINE
8
BLACK
6
CONTINUOUS
10
83.4777
20
-105.356
11
83.4773
21
-105.356
0
LINE
8
BLACK
6
CONTINUOUS
10
83.4773
20
-105.356
11
83.4763
21
-105.356
0
LINE
8
BLACK
6
CONTINUOUS
10
83.4763
20
-105.356
11
83.4753
21
-105.356
0
LINE
8
BLACK
6
CONTINUOUS
10
83.4753
20
-105.356
11
81.8795
21
-105.12
0
LINE
8
BLACK
6
CONTINUOUS
10
81.8795
20
-105.12
11
81.8792
21
-105.12
0
LINE
8
BLACK
6
CONTINUOUS
10
81.8792
20
-105.12
11
81.8781
21
-105.12
0
LINE
8
BLACK
6
CONTINUOUS
10
81.8781
20
-105.12
11
81.8771
21
-105.12
0
LINE
8
BLACK
6
CONTINUOUS
10
81.8771
20
-105.12
11
80.3121
21
-104.73
0
LINE
8
BLACK
6
CONTINUOUS
10
80.3121
20
-104.73
11
80.312
21
-104.73
0
LINE
8
BLACK
6
CONTINUOUS
10
80.312
20
-104.73
11
80.312
21
-104.73
0
LINE
8
BLACK
6
CONTINUOUS
10
80.312
20
-104.73
11
80.3117
21
-104.73
0
LINE
8
BLACK
6
CONTINUOUS
10
80.3117
20
-104.73
11
80.3107
21
-104.729
0
LINE
8
BLACK
6
CONTINUOUS
10
80.3107
20
-104.729
11
80.3097
21
-104.729
0
LINE
8
BLACK
6
CONTINUOUS
10
80.3097
20
-104.729
11
78.7902
21
-104.188
0
LINE
8
BLACK
6
CONTINUOUS
10
78.7902
20
-104.188
11
78.7901
21
-104.188
0
LINE
8
BLACK
6
CONTINUOUS
10
78.7901
20
-104.188
11
78.7901
21
-104.188
0
LINE
8
BLACK
6
CONTINUOUS
10
78.7901
20
-104.188
11
78.7898
21
-104.188
0
LINE
8
BLACK
6
CONTINUOUS
10
78.7898
20
-104.188
11
78.7889
21
-104.187
0
LINE
8
BLACK
6
CONTINUOUS
10
78.7889
20
-104.187
11
78.7879
21
-104.187
0
LINE
8
BLACK
6
CONTINUOUS
10
78.7879
20
-104.187
11
77.3284
21
-103.5
0
LINE
8
BLACK
6
CONTINUOUS
10
77.3284
20
-103.5
11
77.3281
21
-103.5
0
LINE
8
BLACK
6
CONTINUOUS
10
77.3281
20
-103.5
11
77.3271
21
-103.499
0
LINE
8
BLACK
6
CONTINUOUS
10
77.3271
20
-103.499
11
77.3262
21
-103.499
0
LINE
8
BLACK
6
CONTINUOUS
10
77.3262
20
-103.499
11
75.9407
21
-102.673
0
LINE
8
BLACK
6
CONTINUOUS
10
75.9407
20
-102.673
11
75.9407
21
-102.673
0
LINE
8
BLACK
6
CONTINUOUS
10
75.9407
20
-102.673
11
75.9407
21
-102.673
0
LINE
8
BLACK
6
CONTINUOUS
10
75.9407
20
-102.673
11
75.9404
21
-102.673
0
LINE
8
BLACK
6
CONTINUOUS
10
75.9404
20
-102.673
11
75.9395
21
-102.672
0
LINE
8
BLACK
6
CONTINUOUS
10
75.9395
20
-102.672
11
75.9387
21
-102.672
0
LINE
8
BLACK
6
CONTINUOUS
10
75.9387
20
-102.672
11
74.6404
21
-101.714
0
LINE
8
BLACK
6
CONTINUOUS
10
74.6404
20
-101.714
11
74.6404
21
-101.714
0
LINE
8
BLACK
6
CONTINUOUS
10
74.6404
20
-101.714
11
74.6403
21
-101.714
0
LINE
8
BLACK
6
CONTINUOUS
10
74.6403
20
-101.714
11
74.6401
21
-101.714
0
LINE
8
BLACK
6
CONTINUOUS
10
74.6401
20
-101.714
11
74.6393
21
-101.714
0
LINE
8
BLACK
6
CONTINUOUS
10
74.6393
20
-101.714
11
74.6385
21
-101.713
0
LINE
8
BLACK
6
CONTINUOUS
10
74.6385
20
-101.713
11
73.4398
21
-100.634
0
LINE
8
BLACK
6
CONTINUOUS
10
73.4398
20
-100.634
11
73.4395
21
-100.633
0
LINE
8
BLACK
6
CONTINUOUS
10
73.4395
20
-100.633
11
73.4388
21
-100.633
0
LINE
8
BLACK
6
CONTINUOUS
10
73.4388
20
-100.633
11
73.438
21
-100.632
0
LINE
8
BLACK
6
CONTINUOUS
10
73.438
20
-100.632
11
72.3504
21
-99.4407
0
LINE
8
BLACK
6
CONTINUOUS
10
72.3504
20
-99.4407
11
72.3501
21
-99.4405
0
LINE
8
BLACK
6
CONTINUOUS
10
72.3501
20
-99.4405
11
72.3495
21
-99.4397
0
LINE
8
BLACK
6
CONTINUOUS
10
72.3495
20
-99.4397
11
72.3488
21
-99.4388
0
LINE
8
BLACK
6
CONTINUOUS
10
72.3488
20
-99.4388
11
71.3826
21
-98.1473
0
LINE
8
BLACK
6
CONTINUOUS
10
71.3826
20
-98.1473
11
71.3826
21
-98.1473
0
LINE
8
BLACK
6
CONTINUOUS
10
71.3826
20
-98.1473
11
71.3826
21
-98.1472
0
LINE
8
BLACK
6
CONTINUOUS
10
71.3826
20
-98.1472
11
71.3824
21
-98.147
0
LINE
8
BLACK
6
CONTINUOUS
10
71.3824
20
-98.147
11
71.3818
21
-98.1461
0
LINE
8
BLACK
6
CONTINUOUS
10
71.3818
20
-98.1461
11
71.3812
21
-98.1452
0
LINE
8
BLACK
6
CONTINUOUS
10
71.3812
20
-98.1452
11
70.5456
21
-96.7655
0
LINE
8
BLACK
6
CONTINUOUS
10
70.5456
20
-96.7655
11
70.5454
21
-96.7652
0
LINE
8
BLACK
6
CONTINUOUS
10
70.5454
20
-96.7652
11
70.545
21
-96.7643
0
LINE
8
BLACK
6
CONTINUOUS
10
70.545
20
-96.7643
11
70.5445
21
-96.7634
0
LINE
8
BLACK
6
CONTINUOUS
10
70.5445
20
-96.7634
11
69.8475
21
-95.3087
0
LINE
8
BLACK
6
CONTINUOUS
10
69.8475
20
-95.3087
11
69.8473
21
-95.3084
0
LINE
8
BLACK
6
CONTINUOUS
10
69.8473
20
-95.3084
11
69.847
21
-95.3074
0
LINE
8
BLACK
6
CONTINUOUS
10
69.847
20
-95.3074
11
69.8465
21
-95.3064
0
LINE
8
BLACK
6
CONTINUOUS
10
69.8465
20
-95.3064
11
69.2949
21
-93.7907
0
LINE
8
BLACK
6
CONTINUOUS
10
69.2949
20
-93.7907
11
69.2947
21
-93.7904
0
LINE
8
BLACK
6
CONTINUOUS
10
69.2947
20
-93.7904
11
69.2944
21
-93.7893
0
LINE
8
BLACK
6
CONTINUOUS
10
69.2944
20
-93.7893
11
69.2941
21
-93.7884
0
LINE
8
BLACK
6
CONTINUOUS
10
69.2941
20
-93.7884
11
68.893
21
-92.226
0
LINE
8
BLACK
6
CONTINUOUS
10
68.893
20
-92.226
11
68.8929
21
-92.2257
0
LINE
8
BLACK
6
CONTINUOUS
10
68.8929
20
-92.2257
11
68.8927
21
-92.2247
0
LINE
8
BLACK
6
CONTINUOUS
10
68.8927
20
-92.2247
11
68.8925
21
-92.2236
0
LINE
8
BLACK
6
CONTINUOUS
10
68.8925
20
-92.2236
11
68.6457
21
-90.6296
0
LINE
8
BLACK
6
CONTINUOUS
10
68.6457
20
-90.6296
11
68.6457
21
-90.6292
0
LINE
8
BLACK
6
CONTINUOUS
10
68.6457
20
-90.6292
11
68.6456
21
-90.6282
0
LINE
8
BLACK
6
CONTINUOUS
10
68.6456
20
-90.6282
11
68.6455
21
-90.6272
0
LINE
8
BLACK
6
CONTINUOUS
10
68.6455
20
-90.6272
11
68.5554
21
-89.0167
0
LINE
8
BLACK
6
CONTINUOUS
10
68.5554
20
-89.0167
11
68.5554
21
-89.0163
0
LINE
8
BLACK
6
CONTINUOUS
10
68.5554
20
-89.0163
11
68.5554
21
-89.0158
0
LINE
8
BLACK
6
CONTINUOUS
10
68.5554
20
-89.0158
11
68.5554
21
-89.0153
0
LINE
8
BLACK
6
CONTINUOUS
10
68.5554
20
-89.0153
11
68.555
21
-88.9013
0
LINE
8
BLACK
6
CONTINUOUS
10
68.555
20
-88.9013
11
68.555
21
-88.9012
0
LINE
8
BLACK
6
CONTINUOUS
10
68.555
20
-88.9012
11
68.555
21
-50.5448
0
LINE
8
BLACK
6
CONTINUOUS
10
68.555
20
-50.5448
11
68.5551
21
-50.5436
0
LINE
8
BLACK
6
CONTINUOUS
10
68.5551
20
-50.5436
11
68.5551
21
-50.5436
0
LINE
8
BLACK
6
CONTINUOUS
10
68.5551
20
-50.5436
11
68.5987
21
-50.0995
0
LINE
8
BLACK
6
CONTINUOUS
10
68.5987
20
-50.0995
11
68.5987
21
-50.0992
0
LINE
8
BLACK
6
CONTINUOUS
10
68.5987
20
-50.0992
11
68.5992
21
-50.097
0
LINE
8
BLACK
6
CONTINUOUS
10
68.5992
20
-50.097
11
68.5996
21
-50.0948
0
LINE
8
BLACK
6
CONTINUOUS
10
68.5996
20
-50.0948
11
68.7286
21
-49.6676
0
LINE
8
BLACK
6
CONTINUOUS
10
68.7286
20
-49.6676
11
68.7287
21
-49.6673
0
LINE
8
BLACK
6
CONTINUOUS
10
68.7287
20
-49.6673
11
68.7296
21
-49.6652
0
LINE
8
BLACK
6
CONTINUOUS
10
68.7296
20
-49.6652
11
68.7304
21
-49.6631
0
LINE
8
BLACK
6
CONTINUOUS
10
68.7304
20
-49.6631
11
68.9399
21
-49.2692
0
LINE
8
BLACK
6
CONTINUOUS
10
68.9399
20
-49.2692
11
68.94
21
-49.2689
0
LINE
8
BLACK
6
CONTINUOUS
10
68.94
20
-49.2689
11
68.9413
21
-49.267
0
LINE
8
BLACK
6
CONTINUOUS
10
68.9413
20
-49.267
11
68.9426
21
-49.2651
0
LINE
8
BLACK
6
CONTINUOUS
10
68.9426
20
-49.2651
11
69.2245
21
-48.9194
0
LINE
8
BLACK
6
CONTINUOUS
10
69.2245
20
-48.9194
11
69.2248
21
-48.9191
0
LINE
8
BLACK
6
CONTINUOUS
10
69.2248
20
-48.9191
11
69.2264
21
-48.9175
0
LINE
8
BLACK
6
CONTINUOUS
10
69.2264
20
-48.9175
11
69.228
21
-48.9159
0
LINE
8
BLACK
6
CONTINUOUS
10
69.228
20
-48.9159
11
69.5717
21
-48.6316
0
LINE
8
BLACK
6
CONTINUOUS
10
69.5717
20
-48.6316
11
69.572
21
-48.6313
0
LINE
8
BLACK
6
CONTINUOUS
10
69.572
20
-48.6313
11
69.5739
21
-48.6301
0
LINE
8
BLACK
6
CONTINUOUS
10
69.5739
20
-48.6301
11
69.5758
21
-48.6288
0
LINE
8
BLACK
6
CONTINUOUS
10
69.5758
20
-48.6288
11
69.9682
21
-48.4166
0
LINE
8
BLACK
6
CONTINUOUS
10
69.9682
20
-48.4166
11
69.9682
21
-48.4166
0
LINE
8
BLACK
6
CONTINUOUS
10
69.9682
20
-48.4166
11
69.9683
21
-48.4166
0
LINE
8
BLACK
6
CONTINUOUS
10
69.9683
20
-48.4166
11
69.9686
21
-48.4165
0
LINE
8
BLACK
6
CONTINUOUS
10
69.9686
20
-48.4165
11
69.9707
21
-48.4156
0
LINE
8
BLACK
6
CONTINUOUS
10
69.9707
20
-48.4156
11
69.9727
21
-48.4147
0
LINE
8
BLACK
6
CONTINUOUS
10
69.9727
20
-48.4147
11
70.3989
21
-48.2828
0
LINE
8
BLACK
6
CONTINUOUS
10
70.3989
20
-48.2828
11
70.3989
21
-48.2828
0
LINE
8
BLACK
6
CONTINUOUS
10
70.3989
20
-48.2828
11
70.3993
21
-48.2827
0
LINE
8
BLACK
6
CONTINUOUS
10
70.8661
20
-48.285
11
70.8514
21
-48.2851
0
LINE
8
BLACK
6
CONTINUOUS
10
70.8514
20
-48.2851
11
70.4114
21
-48.3313
0
LINE
8
BLACK
6
CONTINUOUS
10
70.4114
20
-48.3313
11
69.9899
21
-48.4618
0
LINE
8
BLACK
6
CONTINUOUS
10
69.9899
20
-48.4618
11
69.6017
21
-48.6716
0
LINE
8
BLACK
6
CONTINUOUS
10
69.6017
20
-48.6716
11
69.2617
21
-48.9529
0
LINE
8
BLACK
6
CONTINUOUS
10
69.2617
20
-48.9529
11
68.9829
21
-49.2948
0
LINE
8
BLACK
6
CONTINUOUS
10
68.9829
20
-49.2948
11
68.7757
21
-49.6844
0
LINE
8
BLACK
6
CONTINUOUS
10
68.7757
20
-49.6844
11
68.6482
21
-50.1069
0
LINE
8
BLACK
6
CONTINUOUS
10
68.6482
20
-50.1069
11
68.605
21
-50.5472
0
LINE
8
BLACK
6
CONTINUOUS
10
68.605
20
-50.5472
11
68.605
21
-88.8999
0
LINE
8
BLACK
6
CONTINUOUS
10
68.605
20
-88.8999
11
68.6054
21
-89.0145
0
LINE
8
BLACK
6
CONTINUOUS
10
68.6054
20
-89.0145
11
68.6953
21
-90.6231
0
LINE
8
BLACK
6
CONTINUOUS
10
68.6953
20
-90.6231
11
68.9417
21
-92.2148
0
LINE
8
BLACK
6
CONTINUOUS
10
68.9417
20
-92.2148
11
69.3423
21
-93.7747
0
LINE
8
BLACK
6
CONTINUOUS
10
69.3423
20
-93.7747
11
69.8931
21
-95.2882
0
LINE
8
BLACK
6
CONTINUOUS
10
69.8931
20
-95.2882
11
70.589
21
-96.7407
0
LINE
8
BLACK
6
CONTINUOUS
10
70.589
20
-96.7407
11
71.4233
21
-98.1183
0
LINE
8
BLACK
6
CONTINUOUS
10
71.4233
20
-98.1183
11
72.3881
21
-99.4079
0
LINE
8
BLACK
6
CONTINUOUS
10
72.3881
20
-99.4079
11
73.4741
21
-100.597
0
LINE
8
BLACK
6
CONTINUOUS
10
73.4741
20
-100.597
11
74.671
21
-101.675
0
LINE
8
BLACK
6
CONTINUOUS
10
74.671
20
-101.675
11
75.9674
21
-102.631
0
LINE
8
BLACK
6
CONTINUOUS
10
75.9674
20
-102.631
11
77.3508
21
-103.455
0
LINE
8
BLACK
6
CONTINUOUS
10
77.3508
20
-103.455
11
78.8081
21
-104.141
0
LINE
8
BLACK
6
CONTINUOUS
10
78.8081
20
-104.141
11
80.3253
21
-104.681
0
LINE
8
BLACK
6
CONTINUOUS
10
80.3253
20
-104.681
11
81.888
21
-105.071
0
LINE
8
BLACK
6
CONTINUOUS
10
81.888
20
-105.071
11
83.4814
21
-105.306
0
LINE
8
BLACK
6
CONTINUOUS
10
83.4814
20
-105.306
11
85.0906
21
-105.385
0
LINE
8
BLACK
6
CONTINUOUS
10
85.0906
20
-105.385
11
166.37
21
-105.385
0
LINE
8
BLACK
6
CONTINUOUS
10
166.37
20
-105.385
11
167.006
21
-105.365
0
LINE
8
BLACK
6
CONTINUOUS
10
167.006
20
-105.365
11
168.269
21
-105.205
0
LINE
8
BLACK
6
CONTINUOUS
10
168.269
20
-105.205
11
169.502
21
-104.889
0
LINE
8
BLACK
6
CONTINUOUS
10
169.502
20
-104.889
11
170.685
21
-104.42
0
LINE
8
BLACK
6
CONTINUOUS
10
170.685
20
-104.42
11
171.801
21
-103.807
0
LINE
8
BLACK
6
CONTINUOUS
10
171.801
20
-103.807
11
172.83
21
-103.059
0
LINE
8
BLACK
6
CONTINUOUS
10
172.83
20
-103.059
11
173.758
21
-102.188
0
LINE
8
BLACK
6
CONTINUOUS
10
173.758
20
-102.188
11
174.569
21
-101.207
0
LINE
8
BLACK
6
CONTINUOUS
10
174.569
20
-101.207
11
175.251
21
-100.133
0
LINE
8
BLACK
6
CONTINUOUS
10
175.251
20
-100.133
11
175.793
21
-98.9809
0
LINE
8
BLACK
6
CONTINUOUS
10
175.793
20
-98.9809
11
176.187
21
-97.7705
0
LINE
8
BLACK
6
CONTINUOUS
10
176.187
20
-97.7705
11
176.425
21
-96.5202
0
LINE
8
BLACK
6
CONTINUOUS
10
176.425
20
-96.5202
11
176.505
21
-95.2492
0
LINE
8
BLACK
6
CONTINUOUS
10
176.505
20
-95.2492
11
176.505
21
-64.7701
0
LINE
8
BLACK
6
CONTINUOUS
10
176.505
20
-64.7701
11
176.505
21
-64.6555
0
LINE
8
BLACK
6
CONTINUOUS
10
176.505
20
-64.6555
11
176.415
21
-63.0469
0
LINE
8
BLACK
6
CONTINUOUS
10
176.415
20
-63.0469
11
176.168
21
-61.4552
0
LINE
8
BLACK
6
CONTINUOUS
10
176.168
20
-61.4552
11
175.768
21
-59.8953
0
LINE
8
BLACK
6
CONTINUOUS
10
175.768
20
-59.8953
11
175.217
21
-58.3818
0
LINE
8
BLACK
6
CONTINUOUS
10
175.217
20
-58.3818
11
174.521
21
-56.9293
0
LINE
8
BLACK
6
CONTINUOUS
10
174.521
20
-56.9293
11
173.687
21
-55.5517
0
LINE
8
BLACK
6
CONTINUOUS
10
173.687
20
-55.5517
11
172.722
21
-54.2621
0
LINE
8
BLACK
6
CONTINUOUS
10
172.722
20
-54.2621
11
171.636
21
-53.0727
0
LINE
8
BLACK
6
CONTINUOUS
10
171.636
20
-53.0727
11
170.439
21
-51.9951
0
LINE
8
BLACK
6
CONTINUOUS
10
170.439
20
-51.9951
11
169.143
21
-51.0393
0
LINE
8
BLACK
6
CONTINUOUS
10
169.143
20
-51.0393
11
167.759
21
-50.2146
0
LINE
8
BLACK
6
CONTINUOUS
10
167.759
20
-50.2146
11
166.302
21
-49.5289
0
LINE
8
BLACK
6
CONTINUOUS
10
166.302
20
-49.5289
11
164.785
21
-48.9886
0
LINE
8
BLACK
6
CONTINUOUS
10
164.785
20
-48.9886
11
163.222
21
-48.599
0
LINE
8
BLACK
6
CONTINUOUS
10
163.222
20
-48.599
11
161.629
21
-48.3637
0
LINE
8
BLACK
6
CONTINUOUS
10
161.629
20
-48.3637
11
160.019
21
-48.285
0
LINE
8
BLACK
6
CONTINUOUS
10
160.019
20
-48.285
11
70.8661
21
-48.285
  0
ENDSEC
  0
EOF
